<svg xmlns="http://www.w3.org/2000/svg" xmlns:xlink="http://www.w3.org/1999/xlink" viewBox="0 0 428.4 170.73"><defs><style>.cls-1{isolation:isolate;}.cls-2{fill:#d3d9e0;}.cls-3{fill:#d3d5d3;}.cls-3,.cls-32{mix-blend-mode:multiply;}.cls-4{fill:#ffa47c;}.cls-5{fill:#9a9393;}.cls-6{fill:#1c5c92;}.cls-7{fill:#596273;}.cls-8{fill:#7e908d;}.cls-9{fill:#00233f;}.cls-10{fill:#535353;}.cls-11{fill:#a39d9d;}.cls-12{fill:#303030;}.cls-13{fill:#424242;}.cls-14{fill:#1c1c1c;}.cls-15{fill:#7f7f7f;}.cls-16{fill:#191919;}.cls-17{fill:#b8b3b3;}.cls-18{fill:#d7d4d4;}.cls-19{fill:#ffbd95;}.cls-20{fill:#8d3b26;}.cls-21{fill:#002d56;}.cls-22{fill:#cfcccc;}.cls-23{fill:#004877;}.cls-24{fill:#807d79;}.cls-25{fill:#65635e;}.cls-26{mix-blend-mode:soft-light;fill:url(#linear-gradient);}.cls-27{fill:#46676c;}.cls-28{fill:url(#linear-gradient-2);}.cls-29{fill:url(#linear-gradient-3);}.cls-30{fill:url(#linear-gradient-4);}.cls-31{fill:#3d3d3d;}.cls-32{fill:#979797;}.cls-33{fill:#625757;}.cls-34{fill:#2c2c2c;}.cls-35{fill:#bd0000;}.cls-36{fill:#a10000;}.cls-37{fill:#740000;}</style><linearGradient id="linear-gradient" x1="-1080.52" y1="302.31" x2="-1078.38" y2="302.31" gradientTransform="translate(1244.41 -262.62)" gradientUnits="userSpaceOnUse"><stop offset="0"/><stop offset="0.07" stop-color="#313131"/><stop offset="0.16" stop-color="#676767"/><stop offset="0.25" stop-color="#959595"/><stop offset="0.34" stop-color="#bbb"/><stop offset="0.42" stop-color="#d9d9d9"/><stop offset="0.51" stop-color="#eee"/><stop offset="0.59" stop-color="#fbfbfb"/><stop offset="0.67" stop-color="#fff"/></linearGradient><linearGradient id="linear-gradient-2" x1="-1234.35" y1="366.73" x2="-1234.35" y2="345.16" gradientTransform="translate(1383.67)" gradientUnits="userSpaceOnUse"><stop offset="0" stop-color="#9fb2b2"/><stop offset="0.33" stop-color="#a3b4b4"/><stop offset="0.64" stop-color="#aebaba"/><stop offset="0.93" stop-color="#c1c3c3"/><stop offset="1" stop-color="#c6c6c6"/></linearGradient><linearGradient id="linear-gradient-3" x1="-1234.35" y1="364.01" x2="-1234.35" y2="344.44" xlink:href="#linear-gradient-2"/><linearGradient id="linear-gradient-4" x1="-1234.35" y1="357.85" x2="-1234.35" y2="350.47" xlink:href="#linear-gradient-2"/></defs><title>IMGLogin2</title><g class="cls-1"><g id="Background"><path class="cls-2" d="M57.66,317.16a6.56,6.56,0,0,0,2.62,1.26h.07a29.33,29.33,0,0,0,3.34.73c1.94,0,20.58,1.34,23.09,1.34h2v.39a3.62,3.62,0,0,0,3.62,3.62h2.09a3,3,0,0,0,3,3h5.72v49.58h-2.1a8.37,8.37,0,0,0-8.37,8.37h29.43a8.38,8.38,0,0,0-8.38-8.37h-1.93V327.53h13.7a3,3,0,0,0,1.69-.51v38h-2a8.38,8.38,0,0,0-8.37,8.38h29.43A8.38,8.38,0,0,0,137.9,365h-2V323.38h10.29a3,3,0,0,0,3-2.86h3a9.9,9.9,0,0,0,18.64-.1h2.33l2.88-.1h0c5.35-.23,9.48-.62,10-1.3v-9.57a5.13,5.13,0,0,0-.68-1.59,8.08,8.08,0,0,0-1.55-4.45,4.74,4.74,0,0,0-1.94-2.67c-1.6-1.18-20.61-6.34-22.66-6.89l0,0s-3.22-.77-3.93-1.1c-4.12-1.89-11.88-6.38-19.32-9.81V268.81h-8.65v10.68c-.44-.13-.87-.26-1.29-.37-3.17-.81-8.28-1-14.1-.84v-4.74H103.2v5.17c-14.85,1-30.51,3.34-30.51,3.34l-.06.07c-2.55,0-6.11.09-6,.37A11.12,11.12,0,0,0,70,285l-6.82,7.47-.15.3c-1-.06-2.1-.1-3.22-.1-2.09,0-3.25,1.95-3.51,4.52a36.11,36.11,0,0,0,.14,8.11h0c0,.12,0,.23.08.32a0,0,0,0,1,0,0,1.29,1.29,0,0,0,.09.2h0L55,309.08A9.64,9.64,0,0,0,57.66,317.16Zm127.66-9.32Z" transform="translate(-9.39 -262.62)"/><polygon class="cls-2" points="409.32 14.07 409.42 13.69 317.95 2.27 317.81 2.65 366.09 14.06 366.28 13.69 321.39 3.08 409.32 14.07"/><rect class="cls-2" x="315.39" y="275.35" width="104.73" height="2.29" transform="translate(726.11 290.37) rotate(180)"/><polygon class="cls-2" points="306 13.88 311.52 13.88 318.49 12.73 320.04 13.88 410.73 13.88 410.73 15.02 306 15.02 306 13.88"/><rect class="cls-2" x="320.94" y="264.05" width="6.94" height="98.51" transform="translate(639.43 363.99) rotate(180)"/><path class="cls-2" d="M322.91,264.05h-2v98.51h6.94s-5-15.39-5-19.71Z" transform="translate(-9.39 -262.62)"/><path class="cls-2" d="M311.12,370.32h45.7l-7.38-6.52a5.68,5.68,0,0,0-3.71-1.24H315.79c-2.58,0-4.67,1.42-4.67,3.16Z" transform="translate(-9.39 -262.62)"/><path class="cls-2" d="M321.19,264.89h6.43c.93,0,1.68-.52,1.68-1.14h0c0-.62-.75-1.13-1.68-1.13h-6.43c-.92,0-1.67.51-1.67,1.13h0C319.52,264.37,320.27,264.89,321.19,264.89Z" transform="translate(-9.39 -262.62)"/><rect class="cls-2" x="390.94" y="277.64" width="1.54" height="3.62" transform="translate(774.04 296.28) rotate(180)"/><path class="cls-2" d="M342.39,292c-.17-.24-.32-.5-.47-.76-2,2-5.44,4.12-11.14,4.12h-.2c-9.69-.09-15-4-15-11.08,0-6.28,5.18-7.16,5.39-7.19v1.09c-.16,0-3.89.7-3.89,6.1,0,4.53,2.35,10,13.55,10.06h.18c5.52,0,8.72-2.19,10.54-4.38a12.4,12.4,0,0,1-.82-4.46c0-2.41.73-5.23,2.79-5.23a1.82,1.82,0,0,1,1.42.64c1.16,1.37,1,5.61-1.78,9.18a6.75,6.75,0,0,0,6.55,4.37c3.89,0,7-2.46,8.87-5.28a13.93,13.93,0,0,1-1.33-5.55,4.87,4.87,0,0,1,.45-2.27,2.14,2.14,0,0,1,2-1.16,2.42,2.42,0,0,1,2.08,1,3.55,3.55,0,0,1,.52,2,12,12,0,0,1-2.08,6c1.41,2.84,3.78,5.22,6.75,5.22,3.13,0,5.78-2.54,7.46-5.45a17.13,17.13,0,0,1-.89-5c0-2.38.78-3.58,2.3-3.58a1.83,1.83,0,0,1,1.65.88,3.43,3.43,0,0,1,.35,1.67,13.64,13.64,0,0,1-1.85,6.15,14.86,14.86,0,0,0,.72,1.77c1.06,2.21,2.45,3.59,3.62,3.59,1.89,0,3.06-2.67,3.06-7,0-5.67,3.44-8.32,5.77-8.32a3.63,3.63,0,0,1,3.59,2.1h-1.54c0-.05-.38-1.08-2.05-1.08-1.22,0-4.27,2.17-4.27,7.3,0,3.64-.79,8-4.56,8-2.37,0-4.15-2.2-5.3-4.85-1.89,2.69-4.66,4.85-8.06,4.85s-6.05-2.24-7.65-5a12.27,12.27,0,0,1-9.57,5A8.23,8.23,0,0,1,342.39,292Zm0-3.54h0a12.42,12.42,0,0,0,.87-1.8c1.11-2.95.55-5.18.06-5.38C342.53,281.45,341.42,284.65,342.38,288.44Zm16.51-6.76a4.25,4.25,0,0,0-.36,1.93,12.51,12.51,0,0,0,.74,4,10.26,10.26,0,0,0,1.25-4.42,2.83,2.83,0,0,0-.38-1.59.78.78,0,0,0-.71-.4C359.16,281.2,359,281.57,358.89,281.68ZM374.78,284a14.49,14.49,0,0,0,.36,3,11.29,11.29,0,0,0,.93-4.05,2.54,2.54,0,0,0-.26-1.3c-.08-.14-.17-.24-.24-.24S374.78,282,374.78,284Z" transform="translate(-9.39 -262.62)"/><rect class="cls-2" x="374.8" y="277.64" width="1.54" height="3.62" transform="translate(741.75 296.28) rotate(180)"/><rect class="cls-2" x="358.66" y="277.64" width="1.54" height="3.62" transform="translate(709.47 296.28) rotate(180)"/><rect class="cls-2" x="342.52" y="277.64" width="1.54" height="3.62" transform="translate(677.18 296.28) rotate(180)"/><rect class="cls-2" x="381.55" y="18.64" width="1.54" height="58.94"/><path class="cls-3" d="M437.8,391.35c0,3.95-16.5,7.15-36.84,7.15s-36.83-3.2-36.83-7.15S380.62,385,401,385,437.8,387.4,437.8,391.35Z" transform="translate(-9.39 -262.62)"/><path class="cls-4" d="M411.36,319.86c.74-2.29-4.11-3.46-6.51-3.91s-9.51-1-9.51-1l-.63,2.57A66.52,66.52,0,0,0,407.1,322C407.78,322.16,410.6,322.19,411.36,319.86Z" transform="translate(-9.39 -262.62)"/><path class="cls-5" d="M395.67,314.92l-3.54-.17a12.49,12.49,0,0,0-1.4,1.94,15.6,15.6,0,0,0,.08,2.51c0,.27.21.6.33.57s.28-1,1.41-1.4a11.46,11.46,0,0,0,2.69-.9C396.58,316.56,395.67,314.92,395.67,314.92Z" transform="translate(-9.39 -262.62)"/><path class="cls-6" d="M391.85,315.72l.06,4.95h.71v-.24s-.1,0-.17-.24.16-.55.16-.72,0-3.15,0-3.34S392.34,315.72,391.85,315.72Z" transform="translate(-9.39 -262.62)"/><path class="cls-6" d="M391.14,316.14c0,.18,0,3.17,0,3.34s.24.51.17.71a.4.4,0,0,1-.16.25v.24h.71l-.06-4.95C391.37,315.73,391.14,316,391.14,316.14Z" transform="translate(-9.39 -262.62)"/><rect class="cls-7" x="391.93" y="320.67" width="0.16" height="4.49" transform="translate(-13.47 -257.6) rotate(-0.73)"/><rect class="cls-8" x="391.78" y="320.67" width="0.16" height="4.49" transform="translate(-12.86 -258.36) rotate(-0.62)"/><polygon class="cls-7" points="382.57 62.9 382.76 62.9 382.88 61.99 382.56 61.63 382.57 62.9"/><polygon class="cls-8" points="382.38 62.91 382.57 62.9 382.56 61.63 382.24 62 382.38 62.91"/><path class="cls-9" d="M392.31,316.07a.12.12,0,0,0-.12.12l0,3.08a.12.12,0,0,0,.13.12.12.12,0,0,0,.12-.12l0-3.08A.12.12,0,0,0,392.31,316.07Z" transform="translate(-9.39 -262.62)"/><path class="cls-9" d="M391.86,316.07a.14.14,0,0,0-.13.13l0,3.08a.12.12,0,0,0,.12.12.13.13,0,0,0,.13-.12l0-3.08A.13.13,0,0,0,391.86,316.07Z" transform="translate(-9.39 -262.62)"/><path class="cls-9" d="M391.39,316.08a.12.12,0,0,0-.12.12l0,3.08a.12.12,0,0,0,.12.13.13.13,0,0,0,.12-.13l0-3.08A.13.13,0,0,0,391.39,316.08Z" transform="translate(-9.39 -262.62)"/><path class="cls-5" d="M394,315.71s-1.65.62-1.67,1-.49,2.15-.55,2.35-.13.48.48.16.75-1.18,1-1.21a3.28,3.28,0,0,0,2-.17,1.48,1.48,0,0,0,.74-1.48C396,316,394.49,315.18,394,315.71Z" transform="translate(-9.39 -262.62)"/><polygon class="cls-5" points="385.9 55.17 389.67 56.77 390.75 52.74 386.09 52.3 385.9 55.17"/><rect class="cls-10" x="368.16" y="87.9" width="5.06" height="4.56"/><rect class="cls-10" x="387.52" y="87.9" width="5.06" height="4.56"/><rect class="cls-11" x="365.02" y="92.46" width="28.49" height="2.1"/><polygon class="cls-12" points="366.02 94.56 366.02 110.27 375.1 110.27 391.84 94.56 366.02 94.56"/><rect class="cls-10" x="366.02" y="114.76" width="12.91" height="13.67"/><rect class="cls-11" x="366.02" y="110.27" width="7.75" height="4.5"/><polygon class="cls-13" points="368.16 87.9 373.22 87.9 373.22 89.64 369.9 92.46 368.16 92.46 368.16 87.9"/><polygon class="cls-13" points="387.52 87.9 392.58 87.9 392.58 89.64 389.26 92.46 387.52 92.46 387.52 87.9"/><polygon class="cls-14" points="391.84 94.56 366.02 94.56 366.02 97.03 389.2 97.03 391.84 94.56"/><polygon class="cls-15" points="373.77 110.27 366.02 110.27 366.02 114.77 367.73 114.77 373.77 110.27"/><rect class="cls-16" x="362.94" y="128.43" width="23.71" height="1.04"/><rect class="cls-16" x="364.84" y="86.77" width="30.71" height="1.12"/><path class="cls-12" d="M402.64,349.39H377.05a1.64,1.64,0,0,1-1.64-1.64h28.87A1.64,1.64,0,0,1,402.64,349.39Z" transform="translate(-9.39 -262.62)"/><path class="cls-17" d="M366.06,65.66h27.72a1.82,1.82,0,0,1,1.82,1.82V85.13a0,0,0,0,1,0,0H364.23a0,0,0,0,1,0,0V67.48A1.82,1.82,0,0,1,366.06,65.66Z"/><path class="cls-12" d="M363.21,73.25H395.6a0,0,0,0,1,0,0V85.13a0,0,0,0,1,0,0H364.76a1.55,1.55,0,0,1-1.55-1.55V73.25A0,0,0,0,1,363.21,73.25Z"/><rect class="cls-5" x="381.08" y="61.82" width="10.58" height="3.83"/><path class="cls-10" d="M398.09,331.27h3.63a.45.45,0,0,0,.45-.46h0a.46.46,0,0,0-.45-.46h-3.63a.47.47,0,0,0-.46.46h0A.46.46,0,0,0,398.09,331.27Z" transform="translate(-9.39 -262.62)"/><path class="cls-10" d="M391.8,331.27h3.62a.46.46,0,0,0,.46-.46h0a.47.47,0,0,0-.46-.46H391.8a.47.47,0,0,0-.46.46h0A.46.46,0,0,0,391.8,331.27Z" transform="translate(-9.39 -262.62)"/><path class="cls-10" d="M385.51,331.27h3.62a.46.46,0,0,0,.46-.46h0a.47.47,0,0,0-.46-.46h-3.62a.46.46,0,0,0-.46.46h0A.45.45,0,0,0,385.51,331.27Z" transform="translate(-9.39 -262.62)"/><path class="cls-10" d="M379.21,331.27h3.63a.45.45,0,0,0,.45-.46h0a.46.46,0,0,0-.45-.46h-3.63a.47.47,0,0,0-.46.46h0A.46.46,0,0,0,379.21,331.27Z" transform="translate(-9.39 -262.62)"/><rect class="cls-11" x="364.23" y="70.86" width="31.37" height="2.39"/><path class="cls-16" d="M363.21,81.34H395.6a0,0,0,0,1,0,0v3.8a0,0,0,0,1,0,0H364.81a1.6,1.6,0,0,1-1.6-1.6v-2.2A0,0,0,0,1,363.21,81.34Z"/><rect class="cls-10" x="363.21" y="73.67" width="32.39" height="1.72"/><path class="cls-11" d="M396.09,336.07a2.27,2.27,0,1,1-2.26-2.27A2.26,2.26,0,0,1,396.09,336.07Z" transform="translate(-9.39 -262.62)"/><circle class="cls-11" cx="390.47" cy="73.45" r="2.26"/><path class="cls-17" d="M399.86,350.85h0a1.86,1.86,0,0,0,1.86-1.86V336a1.86,1.86,0,0,0-1.86-1.86h0A1.86,1.86,0,0,0,398,336v13A1.86,1.86,0,0,0,399.86,350.85Z" transform="translate(-9.39 -262.62)"/><path class="cls-17" d="M393.83,350.85h0a1.86,1.86,0,0,0,1.86-1.86V336a1.86,1.86,0,0,0-1.86-1.86h0A1.86,1.86,0,0,0,392,336v13A1.86,1.86,0,0,0,393.83,350.85Z" transform="translate(-9.39 -262.62)"/><path class="cls-11" d="M384,336.07a2.27,2.27,0,1,1-2.26-2.27A2.26,2.26,0,0,1,384,336.07Z" transform="translate(-9.39 -262.62)"/><path class="cls-11" d="M390.06,336.07a2.27,2.27,0,1,1-2.26-2.27A2.26,2.26,0,0,1,390.06,336.07Z" transform="translate(-9.39 -262.62)"/><rect class="cls-17" x="376.55" y="71.53" width="3.72" height="16.7" rx="1.86"/><path class="cls-17" d="M381.77,350.85h0a1.86,1.86,0,0,0,1.86-1.86V336a1.86,1.86,0,0,0-1.86-1.86h0a1.86,1.86,0,0,0-1.86,1.86v13A1.86,1.86,0,0,0,381.77,350.85Z" transform="translate(-9.39 -262.62)"/><rect class="cls-11" x="365.02" y="66.78" width="29.87" height="0.34"/><path class="cls-10" d="M379.67,60.78h13.55a0,0,0,0,1,0,0v.43a1.69,1.69,0,0,1-1.69,1.69H381.36a1.69,1.69,0,0,1-1.69-1.69v-.43A0,0,0,0,1,379.67,60.78Z"/><rect class="cls-18" x="383.93" y="73.14" width="1.79" height="14.04" rx="0.82"/><rect class="cls-18" x="390.05" y="73.14" width="1.79" height="14.04" rx="0.82"/><rect class="cls-18" x="378.13" y="73.14" width="1.79" height="14.04" rx="0.82"/><rect class="cls-18" x="371.99" y="73.14" width="1.79" height="14.04" rx="0.82"/><rect class="cls-16" x="360.38" y="74.74" width="2.29" height="9.91"/><rect class="cls-16" x="362.67" y="76.03" width="0.54" height="7.55"/><path class="cls-4" d="M422.19,310.51c1.66,1.49.92,3.31-.65,4.85s-11.26,7.74-12,7.65-2.81-2.53-2.4-3.47,7.83-7.46,9.35-8.5S420.24,308.75,422.19,310.51Z" transform="translate(-9.39 -262.62)"/><path class="cls-5" d="M420.28,310.33c-.85-.13-4.34.58-5.5,1.72-1.64,1.61-5,4.43-5,4.43a7.85,7.85,0,0,0,1.82,3.16,7.18,7.18,0,0,0,3.24,2.08s7-6,7.62-7.72C422.65,313.48,422.62,310.67,420.28,310.33Z" transform="translate(-9.39 -262.62)"/><path class="cls-19" d="M424.79,301.86s.28,6.44.66,6.75c1.16,1,5.39,1.8,6.19,3.49,1,2-4.31,11.25-5,14.29s.74,7.76,1.2,10.74-8.93,6.59-9.27,6.59a17.94,17.94,0,0,1-3.94-3.8c-.58-1,0-8.62,0-10.57s-.45-8.79-.54-9.24a13.69,13.69,0,0,1,.3-6c.12-.63.08-1.69.4-2.09.63-.8,4.14-1.86,4.2-2.27s.53-6,.53-6Z" transform="translate(-9.39 -262.62)"/><path class="cls-17" d="M425.45,308.61,419.79,312l-.81-2.21s-3.72,1.47-4.2,2.27a13.55,13.55,0,0,0-.87,3.19,29.82,29.82,0,0,0,0,6.22c.15,1.52.11,3.52.34,6.1.2,2.21-.05,7.71-.05,7.71s2.11.08,5.38-.07a48.65,48.65,0,0,0,7.77-.91c.73-.59-.27-6.46-.14-7.1s4.78-11.88,4.86-13.35a3,3,0,0,0-1.79-3C429.16,310.29,425.45,308.61,425.45,308.61Z" transform="translate(-9.39 -262.62)"/><path class="cls-11" d="M429.72,310.58s3.69,2,0,4.87c-1.58,1.22-9.13,3.11-10.55,3.54-5.08,1.54,2.74,12.81,3.34,13.66a3.89,3.89,0,0,1,.59,2l3.87-.25c1.51.3.23-7.27.81-8.84s4.26-10.54,4.26-11.73A3.33,3.33,0,0,0,429.72,310.58Z" transform="translate(-9.39 -262.62)"/><polygon class="cls-4" points="409.92 43.59 415.64 41.54 415.77 44.93 414.01 46 409.92 43.59"/><path class="cls-19" d="M417.18,296.21c1.24-1.5,5.27-3.28,7.71-.8a6,6,0,0,1,1,7.16,7,7,0,0,1-3,3.26,14.06,14.06,0,0,1-4,1c-.44-.08-1.19-3.11-1.31-3.08a.56.56,0,0,1-.54-.36c-.07-.36,0-2.62-.11-2.84S415.75,297.93,417.18,296.21Z" transform="translate(-9.39 -262.62)"/><path class="cls-20" d="M416.51,297.69s2.17-1.64,5.46.62c.71.49-.14,3.09,0,3.29s2.07-2.11,2-1.82c-.46,2.94.68,4.37.94,4.35.79-.05,2.65-4.37,1-7.43a5.41,5.41,0,0,0-5.94-2.62C419.25,294.37,416.78,294.89,416.51,297.69Z" transform="translate(-9.39 -262.62)"/><path class="cls-19" d="M422.76,300.6c-.16.94-.12,2.17.39,2.24s1-.62,1.19-1.55-.13-1.76-.64-1.84S422.91,299.66,422.76,300.6Z" transform="translate(-9.39 -262.62)"/><rect class="cls-16" x="418.98" y="389.11" width="3.66" height="0.68" transform="translate(832.24 516.28) rotate(180)"/><path class="cls-16" d="M422.5,384.29a6.48,6.48,0,0,1,.85,2.57c.06.73-.37,2.25-.85,2.25a35.58,35.58,0,0,0-4.46.24c-1.43.2-2,1-5.61,1-1.07,0-2.94-.07-2.94-.5,0-1.89,3.5-1.22,4.61-2.25a14.91,14.91,0,0,1,4.68-3.21A34.75,34.75,0,0,1,422.5,384.29Z" transform="translate(-9.39 -262.62)"/><polygon class="cls-16" points="414.5 128.43 418.15 128.2 418.11 127.5 414.46 127.73 414.5 128.43"/><path class="cls-16" d="M427,385.17a6.82,6.82,0,0,1,1,2.59c.1.74-.23,2.34-.7,2.36a34.25,34.25,0,0,0-4.44.54c-1.41.29-1.89,1.17-5.53,1.39-1.06.06-3,.11-3-.34,0-2.26,3.41-1.47,4.45-2.6a14.87,14.87,0,0,1,4.46-3.6A31,31,0,0,1,427,385.17Z" transform="translate(-9.39 -262.62)"/><path class="cls-9" d="M420.83,334.82s4.81,4.49,5,6.61-1.83,8.92-2.56,14.27-1.17,6.43-1,7.69,1.77,6.38,1.56,9.78-.88,12.31-.88,12.31a9.69,9.69,0,0,1-2.76.62,3.76,3.76,0,0,1-3-1.34s-1.41-19.88-1.63-22c-.15-1.36-1.26-10.72-1.6-18.36-.11-2.46.17-8.14.17-9.15Z" transform="translate(-9.39 -262.62)"/><path class="cls-21" d="M427.67,334.36a18.88,18.88,0,0,1,1.17,5.81c0,2.14-.64,6.06-1.37,11.41a60.91,60.91,0,0,0-.61,11.57c.18,1.27,1.69,6.61,1.67,10,0,4,.31,13.23.31,13.23a17.44,17.44,0,0,1-3.34.69,15.94,15.94,0,0,1-4.09-.35s-1.66-21.16-2.45-23.12c-1.26-3.13-1.45-13-2.33-19.7-.35-2.71-1-8.75-1-8.75Z" transform="translate(-9.39 -262.62)"/><path class="cls-21" d="M425.5,333.79l2.48-8.68s.86,7.73-.21,8.53A2.23,2.23,0,0,1,425.5,333.79Z" transform="translate(-9.39 -262.62)"/><polygon class="cls-11" points="410.65 48.03 410.4 49.37 413.38 47.61 410.65 48.03"/><polygon class="cls-18" points="416.83 46.34 415.77 44.93 410.65 48.03 411.46 49.86 416.83 46.34"/><polygon class="cls-11" points="410.4 49.37 409.93 47.71 409.21 48.27 410.4 49.37"/><polygon class="cls-22" points="409.93 47.71 408.71 49.1 408.52 47.61 409.54 46.64 409.93 47.71"/><path class="cls-21" d="M414.24,334.36c-1.82-1.88-.49-17-.49-17l7.81.6,1.65,15.93S416.08,336.26,414.24,334.36Z" transform="translate(-9.39 -262.62)"/><path class="cls-23" d="M414,333.9l.24,2a74.42,74.42,0,0,0,9.35,0c4.54-.34,4.44-.65,4.44-.65l-.21-1.65s-1.38.13-4.56.26S414,333.9,414,333.9Z" transform="translate(-9.39 -262.62)"/><polygon class="cls-9" points="413.82 71.28 414.91 78.03 416.11 71.18 413.82 71.28"/><path class="cls-21" d="M421.56,318c.19-1.48,2.48-7.74,6.75-7.64a9.69,9.69,0,0,1,1.41.25l-2.45-1.14s-1-.37-2.89,1.05-4.23,4.74-4.51,7.35S421.33,319.74,421.56,318Z" transform="translate(-9.39 -262.62)"/><path class="cls-21" d="M413.75,317.37s.38-5.38,2.24-6.21a12,12,0,0,0,1.15-.58,17.75,17.75,0,0,0-1.69,4.74c-.31,2.16-.41,3.69-1.11,3.67S413.75,317.37,413.75,317.37Z" transform="translate(-9.39 -262.62)"/><path class="cls-19" d="M430.39,312.63c1.56,1.6.75,3.34-.86,4.74S416.71,325.15,416,325s-2.63-2.71-2.18-3.61,9.45-7.77,11-8.68S428.56,310.75,430.39,312.63Z" transform="translate(-9.39 -262.62)"/><path class="cls-22" d="M430.29,311.5a8.44,8.44,0,0,0-5.12.84c-1.9,1.29-7.13,4.32-7.13,4.32a8,8,0,0,0,1.23,3.43,7.24,7.24,0,0,0,2.82,2.63s7.91-4.63,8.87-6.24C431.24,316,432.53,312.25,430.29,311.5Z" transform="translate(-9.39 -262.62)"/><path class="cls-19" d="M417.49,323.15c.38,2.4-4.65,2.76-7.11,2.81s-9.66-.52-9.66-.52l-.21-2.66a65.84,65.84,0,0,1,13.07-2.45C414.28,320.27,417.11,320.71,417.49,323.15Z" transform="translate(-9.39 -262.62)"/><path class="cls-17" d="M396.06,326.32h0a.47.47,0,0,1,.33-.58l1.95-.52a.47.47,0,0,1,.58.34h0a.46.46,0,0,1-.33.57l-1.95.53A.48.48,0,0,1,396.06,326.32Z" transform="translate(-9.39 -262.62)"/><path class="cls-17" d="M395.75,325.49h0a.47.47,0,0,1,.33-.58l1.95-.52a.47.47,0,0,1,.58.33h0a.46.46,0,0,1-.33.57l-1.95.52A.47.47,0,0,1,395.75,325.49Z" transform="translate(-9.39 -262.62)"/><path class="cls-17" d="M395.5,324.66h0a.47.47,0,0,1,.33-.58l1.95-.52a.47.47,0,0,1,.58.34h0a.46.46,0,0,1-.33.57l-1.95.53A.48.48,0,0,1,395.5,324.66Z" transform="translate(-9.39 -262.62)"/><path class="cls-17" d="M395.33,323.84h0a.48.48,0,0,1,.33-.58l1.95-.52a.46.46,0,0,1,.58.33h0a.46.46,0,0,1-.33.57l-1.95.52A.47.47,0,0,1,395.33,323.84Z" transform="translate(-9.39 -262.62)"/><path class="cls-17" d="M402.36,322.59a32.28,32.28,0,0,0-3.94-.43,20.27,20.27,0,0,0-2.94,1.2s1,.62,1,1.2.11,2.1.11,2.1a14.88,14.88,0,0,0,3.19-.33,10.71,10.71,0,0,0,1.87-.87Z" transform="translate(-9.39 -262.62)"/><polygon class="cls-17" points="391.61 59.77 395.43 59.05 395.6 63.13 391.95 62.91 391.61 59.77"/><path class="cls-21" d="M426.36,297.31a5,5,0,0,0-5.62-3.76c-4.57.58-4.49,5.33-4.49,5.33a31.93,31.93,0,0,0,5.91-.23C425.56,298.23,426.36,297.31,426.36,297.31Z" transform="translate(-9.39 -262.62)"/><path class="cls-23" d="M423.65,298.41s-8.81,2.47-8.94,2.4a10.65,10.65,0,0,0-1-.54c-.27-.09-.62.22-.71.06a25,25,0,0,1,3.27-1.85s1.9.2,2.85.27S423.6,298.1,423.65,298.41Z" transform="translate(-9.39 -262.62)"/><ellipse class="cls-3" cx="219.91" cy="140.28" rx="138.45" ry="12.29"/><path class="cls-3" d="M271.42,424.08c0,5.12-18.24,9.27-40.73,9.27S190,429.2,190,424.08s18.24-8.26,40.73-8.26S271.42,419,271.42,424.08Z" transform="translate(-9.39 -262.62)"/><path class="cls-3" d="M90.84,380.6c0,3-18.23,5.39-40.72,5.39S9.39,383.58,9.39,380.6s18.23-5.38,40.73-5.38S90.84,377.63,90.84,380.6Z" transform="translate(-9.39 -262.62)"/><path class="cls-4" d="M108,309.42c-1.91,1.71-1.06,3.8.75,5.56s13.7,9.36,14.72,9.81c.75.33,2.92-3.8,2.31-4.8s-9.55-8.77-11.29-10S110.18,307.41,108,309.42Z" transform="translate(-9.39 -262.62)"/><path class="cls-5" d="M110.14,309.21c1-.14,5,.67,6.3,2,1.88,1.85,5.74,5.08,5.74,5.08a9,9,0,0,1-2.08,3.63,8.24,8.24,0,0,1-3.71,2.39s-8-6.84-8.74-8.85C107.43,312.83,107.46,309.6,110.14,309.21Z" transform="translate(-9.39 -262.62)"/><path class="cls-19" d="M105,299.5s-.32,7.39-.74,7.75c-1.34,1.11-6.19,2.05-7.1,4-1.1,2.35,4.94,12.9,5.73,16.39s-.85,8.89-1.37,12.31,10.23,7.56,10.62,7.56,3.86-3.24,4.52-4.36,0-9.89,0-12.12.52-10.08.62-10.59a15.61,15.61,0,0,0-.34-6.85c-.13-.72-.09-1.93-.46-2.4-.72-.92-4.74-2.13-4.81-2.59s-.61-6.88-.61-6.88Z" transform="translate(-9.39 -262.62)"/><path class="cls-17" d="M104.22,307.25l6.48,3.87.93-2.53s4.26,1.67,4.81,2.59a15.17,15.17,0,0,1,1,3.66,34.29,34.29,0,0,1,0,7.14c-.17,1.74-.12,4-.39,7-.22,2.53.06,8.83.06,8.83s-2.42.1-6.17-.08a55.43,55.43,0,0,1-8.91-1c-.84-.69.32-7.41.17-8.15s-5.49-13.61-5.58-15.3a3.43,3.43,0,0,1,2.06-3.43C100,309.17,104.22,307.25,104.22,307.25Z" transform="translate(-9.39 -262.62)"/><path class="cls-11" d="M99.31,309.5s-4.22,2.34,0,5.58c1.81,1.4,10.47,3.56,12.1,4.06,5.83,1.77-3.15,14.69-3.83,15.66a4.48,4.48,0,0,0-.68,2.31l-4.43-.29c-1.74.34-.27-8.34-.93-10.14s-4.89-12.08-4.89-13.44A3.83,3.83,0,0,1,99.31,309.5Z" transform="translate(-9.39 -262.62)"/><polygon class="cls-4" points="101.87 41.88 95.31 39.52 95.15 43.4 97.17 44.63 101.87 41.88"/><path class="cls-19" d="M113.7,293c-1.43-1.72-6-3.75-8.84-.92a6.89,6.89,0,0,0-1.18,8.22,8,8,0,0,0,3.43,3.73,16.46,16.46,0,0,0,4.56,1.19c.51-.1,1.36-3.57,1.5-3.54a.65.65,0,0,0,.62-.4c.09-.42,0-3,.13-3.27S115.33,295,113.7,293Z" transform="translate(-9.39 -262.62)"/><path class="cls-20" d="M114.46,294.73s-2.48-1.89-6.26.71c-.81.55.16,3.54,0,3.76s-2.38-2.41-2.33-2.08c.53,3.37-.78,5-1.08,5-.9-.06-3-5-1.16-8.52a6.23,6.23,0,0,1,6.81-3C111.32,290.91,114.15,291.52,114.46,294.73Z" transform="translate(-9.39 -262.62)"/><path class="cls-19" d="M107.3,298.06c.17,1.07.13,2.48-.45,2.57s-1.2-.71-1.37-1.78.16-2,.74-2.11S107.13,297,107.3,298.06Z" transform="translate(-9.39 -262.62)"/><rect class="cls-16" x="98.04" y="136.91" width="4.2" height="0.78"/><path class="cls-16" d="M107.59,394a7.21,7.21,0,0,0-1,2.95c-.07.82.43,2.57,1,2.57a40.44,40.44,0,0,1,5.12.28c1.63.22,2.25,1.16,6.43,1.15,1.22,0,3.37-.07,3.37-.57,0-2.17-4-1.4-5.28-2.57a17.35,17.35,0,0,0-5.37-3.69A37.26,37.26,0,0,0,107.59,394Z" transform="translate(-9.39 -262.62)"/><polygon class="cls-16" points="96.61 139.14 92.42 138.88 92.47 138.07 96.66 138.33 96.61 139.14"/><path class="cls-16" d="M102.39,395a7.7,7.7,0,0,0-1.17,3c-.12.85.26,2.67.8,2.71a39.21,39.21,0,0,1,5.09.61c1.62.33,2.17,1.34,6.34,1.59,1.22.07,3.41.13,3.41-.38,0-2.6-3.91-1.69-5.11-3a16.91,16.91,0,0,0-5.11-4.14A37.67,37.67,0,0,0,102.39,395Z" transform="translate(-9.39 -262.62)"/><path class="cls-9" d="M109.51,337.29s-5.51,5.15-5.77,7.58,2.1,10.23,2.93,16.36,1.35,7.37,1.14,8.82-2,7.31-1.79,11.21,1,14.11,1,14.11a10.83,10.83,0,0,0,3.16.71,4.3,4.3,0,0,0,3.41-1.53s1.62-22.8,1.87-25.2c.17-1.56,1.44-12.3,1.83-21.05.13-2.82-.2-9.33-.19-10.5Z" transform="translate(-9.39 -262.62)"/><path class="cls-21" d="M101.67,336.77a21.67,21.67,0,0,0-1.35,6.66c0,2.45.74,6.94,1.57,13.07a70.5,70.5,0,0,1,.71,13.28c-.21,1.44-1.94,7.57-1.91,11.48,0,4.59-.37,15.16-.37,15.16a19.8,19.8,0,0,0,3.83.79,18.24,18.24,0,0,0,4.69-.39s1.91-24.26,2.81-26.51c1.45-3.58,1.67-14.88,2.67-22.58.4-3.11,1.15-10,1.15-10Z" transform="translate(-9.39 -262.62)"/><path class="cls-21" d="M104.15,336.11l-2.84-9.95s-1,8.86.24,9.78A2.54,2.54,0,0,0,104.15,336.11Z" transform="translate(-9.39 -262.62)"/><polygon class="cls-11" points="101.02 46.96 101.31 48.5 97.89 46.48 101.02 46.96"/><polygon class="cls-18" points="93.93 45.03 95.15 43.4 101.02 46.96 100.09 49.06 93.93 45.03"/><polygon class="cls-11" points="101.31 48.5 101.85 46.59 102.67 47.23 101.31 48.5"/><polygon class="cls-22" points="101.85 46.59 103.25 48.19 103.46 46.48 102.29 45.36 101.85 46.59"/><path class="cls-21" d="M117.07,336.77c2.08-2.16.55-19.48.55-19.48l-8.94.68-1.9,18.27S115,339,117.07,336.77Z" transform="translate(-9.39 -262.62)"/><path class="cls-23" d="M117.39,336.24l-.27,2.34a85.27,85.27,0,0,1-10.72,0c-5.2-.39-5.09-.75-5.09-.75l.24-1.89s1.59.15,5.23.3S117.39,336.24,117.39,336.24Z" transform="translate(-9.39 -262.62)"/><polygon class="cls-9" points="97.39 73.62 96.14 81.36 94.76 73.5 97.39 73.62"/><path class="cls-21" d="M108.68,318c-.22-1.69-2.85-8.87-7.74-8.76a10.91,10.91,0,0,0-1.63.29l2.81-1.3s1.11-.44,3.31,1.19,4.85,5.44,5.18,8.43S108.94,320,108.68,318Z" transform="translate(-9.39 -262.62)"/><path class="cls-21" d="M117.62,317.29s-.43-6.17-2.56-7.13a13.42,13.42,0,0,1-1.32-.66,20.11,20.11,0,0,1,1.94,5.44c.35,2.47.46,4.22,1.27,4.2S117.62,317.29,117.62,317.29Z" transform="translate(-9.39 -262.62)"/><path class="cls-19" d="M98.69,311.77c-2.48.65-2.71,2.84-2,5.17s8,15.21,8.78,15.48,4.18-1.12,4.28-2.26-4.72-13.21-5.69-15S101.59,311,98.69,311.77Z" transform="translate(-9.39 -262.62)"/><path class="cls-17" d="M99.45,310.36A9.61,9.61,0,0,1,104,314.2c1.1,2.39,4.46,8.44,4.46,8.44a9,9,0,0,1-3.23,2.66,8.35,8.35,0,0,1-4.32.92s-5-9.22-5-11.37C95.87,314.21,96.81,309.77,99.45,310.36Z" transform="translate(-9.39 -262.62)"/><path class="cls-19" d="M105.19,330.66c-1.29,2.47,4.14,4.74,6.84,5.71s10.86,3,10.86,3l1.2-2.82A79.12,79.12,0,0,0,110.53,329C109.78,328.73,106.5,328.14,105.19,330.66Z" transform="translate(-9.39 -262.62)"/><polygon class="cls-17" points="114.31 73.37 110.41 71.19 108.75 75.56 112.8 76.65 114.31 73.37"/><path class="cls-4" d="M121.71,321.85c-1.08,2.1,4.22,4.54,6.91,5.4s10.79,2.54,10.79,2.54l1.1-2.86a120.29,120.29,0,0,0-14-7C125.48,319.46,123.29,318.75,121.71,321.85Z" transform="translate(-9.39 -262.62)"/><path class="cls-11" d="M144.26,332.27h0a.56.56,0,0,0-.18-.75l-2-1.2a.54.54,0,0,0-.74.18h0a.54.54,0,0,0,.18.74l2,1.2A.55.55,0,0,0,144.26,332.27Z" transform="translate(-9.39 -262.62)"/><path class="cls-11" d="M144.87,331.45h0a.55.55,0,0,0-.18-.74l-2-1.2a.53.53,0,0,0-.74.18h0a.53.53,0,0,0,.18.74l2,1.21A.55.55,0,0,0,144.87,331.45Z" transform="translate(-9.39 -262.62)"/><rect class="cls-11" x="143.42" y="328.04" width="1.08" height="3.4" rx="0.54" transform="translate(-221.95 18.65) rotate(-58.67)"/><path class="cls-11" d="M145.86,329.77h0a.54.54,0,0,0-.18-.74l-2-1.2a.53.53,0,0,0-.74.18h0a.54.54,0,0,0,.18.74l2,1.21A.54.54,0,0,0,145.86,329.77Z" transform="translate(-9.39 -262.62)"/><path class="cls-11" d="M138.53,326.13a36.69,36.69,0,0,1,4.48.8,23.65,23.65,0,0,1,2.84,2.27s-1.26.37-1.53,1-.8,2.26-.8,2.26a16.26,16.26,0,0,1-3.41-1.39,11.81,11.81,0,0,1-1.76-1.56Z" transform="translate(-9.39 -262.62)"/><polygon class="cls-11" points="130.7 63.73 126.73 61.7 125.23 66.13 129.32 67.07 130.7 63.73"/><path class="cls-21" d="M103.17,294.28a5.75,5.75,0,0,1,6.44-4.3c5.24.66,5.15,6.11,5.15,6.11a36.75,36.75,0,0,1-6.78-.26C104.09,295.34,103.17,294.28,103.17,294.28Z" transform="translate(-9.39 -262.62)"/><path class="cls-23" d="M106.28,295.54s10.1,2.84,10.25,2.76a11.13,11.13,0,0,1,1.14-.62c.31-.11.71.25.82.07s-3.75-2.12-3.75-2.12-2.19.23-3.27.31S106.33,295.2,106.28,295.54Z" transform="translate(-9.39 -262.62)"/><path class="cls-17" d="M121.54,339.06s1.69,1.47,3,.55a8,8,0,0,0,2.24-3.07c1-1.7,3-2.68,3.74-3.61s.32-1.42,0-1.16c-1.93,1.43-3.44,1.76-4.23,2.49a42.72,42.72,0,0,1-4.28,2.68Z" transform="translate(-9.39 -262.62)"/><polygon class="cls-24" points="159 54.97 166.7 54.97 166.7 64.03 150 69.17 159 54.97"/><rect class="cls-9" x="166.51" y="37.57" width="2.73" height="32.07"/><polygon class="cls-25" points="166.51 46.41 165.57 46.41 166.18 37.57 166.51 37.57 166.51 46.41"/><rect class="cls-24" x="160.94" y="301.59" width="27.61" height="1.5" transform="translate(-146.52 196.84) rotate(-86.71)"/><polygon class="cls-26" points="164.41 53.44 163.89 53.4 165.52 25.95 166.04 25.98 164.41 53.44"/><polygon class="cls-21" points="161.87 54.97 166.7 54.97 166.7 64.03 154.06 67.92 161.87 54.97"/><polygon class="cls-21" points="127.61 140.33 166.7 140.33 166.7 64.03 127.61 76.07 127.61 140.33"/><path class="cls-9" d="M176.09,317.59v58.88L137,391.13V384.7s19.92-4.8,27.13-20.93,9.14-46.18,9.14-46.18Z" transform="translate(-9.39 -262.62)"/><circle class="cls-16" cx="139.94" cy="90.61" r="21.94"/><circle cx="149.33" cy="352.96" r="16.57" transform="translate(-215.23 -53.65) rotate(-45)"/><circle class="cls-27" cx="149.33" cy="353.23" r="15.28" transform="translate(-236.55 17.6) rotate(-56.11)"/><path class="cls-28" d="M149.33,337.64a15.59,15.59,0,1,0,15.59,15.59A15.59,15.59,0,0,0,149.33,337.64Zm0,27.18A11.79,11.79,0,1,1,161.12,353,11.79,11.79,0,0,1,149.33,364.82Z" transform="translate(-9.39 -262.62)"/><path class="cls-29" d="M149.33,337.63c3.35,0,2,13.26,2,13.26s11.68-5.62,12.73-2.55-11.74,5.83-11.74,5.83,8.71,9.54,6.11,11.5-9.43-9.1-9.43-9.1-6.21,10.93-8.79,9.1,5.68-11.27,5.68-11.27-12.37-3-11.31-6.06,12.49,2.22,12.49,2.22S146.05,337.59,149.33,337.63Z" transform="translate(-9.39 -262.62)"/><path class="cls-30" d="M154.66,353.23a5.34,5.34,0,1,1-5.33-5.33A5.34,5.34,0,0,1,154.66,353.23Z" transform="translate(-9.39 -262.62)"/><path class="cls-27" d="M148,350.21a.89.89,0,1,1-.89-.89A.89.89,0,0,1,148,350.21Z" transform="translate(-9.39 -262.62)"/><path class="cls-27" d="M152.58,350.21a.89.89,0,1,1-.89-.89A.89.89,0,0,1,152.58,350.21Z" transform="translate(-9.39 -262.62)"/><path class="cls-27" d="M153.86,354.21a.89.89,0,1,1-.89-.89A.89.89,0,0,1,153.86,354.21Z" transform="translate(-9.39 -262.62)"/><path class="cls-27" d="M146.58,354.21a.89.89,0,1,1-.89-.89A.89.89,0,0,1,146.58,354.21Z" transform="translate(-9.39 -262.62)"/><path class="cls-27" d="M150.08,356.92a.89.89,0,1,1-.89-.89A.89.89,0,0,1,150.08,356.92Z" transform="translate(-9.39 -262.62)"/><path class="cls-31" d="M167.65,382.62A29.84,29.84,0,1,0,122.91,353h-3a32.79,32.79,0,1,1,47.71,33Z" transform="translate(-9.39 -262.62)"/><polygon class="cls-23" points="119.55 140.33 169.38 140.33 169.38 108.5 119.55 132.37 119.55 140.33"/><rect class="cls-22" x="119.44" y="352.17" width="65.28" height="2.1" transform="translate(294.76 443.83) rotate(180)"/><rect class="cls-5" x="153.88" y="355.49" width="30.48" height="3.54" transform="matrix(-0.98, -0.2, 0.2, -0.98, 255.62, 478.1)"/><polygon class="cls-16" points="139.94 90.34 145.13 89.92 144.44 93.39 139.8 91 139.94 90.34"/><path class="cls-16" d="M151.86,353.23a2.53,2.53,0,1,1-2.53-2.53A2.53,2.53,0,0,1,151.86,353.23Z" transform="translate(-9.39 -262.62)"/><path class="cls-16" d="M185.85,360.34a2.53,2.53,0,1,1-2.53-2.53A2.53,2.53,0,0,1,185.85,360.34Z" transform="translate(-9.39 -262.62)"/><rect class="cls-16" x="119.44" y="351.1" width="4.21" height="4.66" transform="translate(233.69 444.25) rotate(180)"/><rect class="cls-16" x="181.13" y="348.11" width="4.12" height="8.86" transform="translate(404.66 413.26) rotate(171.93)"/><path class="cls-4" d="M319.08,325.47c-1.37-2.56-6.26.76-8.66,2.46s-9.67,7.44-9.67,7.44l2,2.07a68,68,0,0,0,14.63-6.5C319,329.94,320.46,328.08,319.08,325.47Z" transform="translate(-9.39 -262.62)"/><path class="cls-4" d="M331.45,313.81c2.17,1.6,1.49,3.87-.21,5.9s-12.58,10.58-13.44,10.56-3.65-2.7-3.27-3.87,8.51-9.86,10.2-11.28S328.91,311.94,331.45,313.81Z" transform="translate(-9.39 -262.62)"/><path class="cls-5" d="M327.46,311.77c-1,0-2.1,1.81-3.35,3.31-1.78,2.12-6.84,7.34-6.84,7.34a9.46,9.46,0,0,0,2.55,3.57,8.69,8.69,0,0,0,4.13,2.12s7.64-8,8.22-10.14C332.34,317.32,330.3,311.91,327.46,311.77Z" transform="translate(-9.39 -262.62)"/><path class="cls-19" d="M329.07,299.82s3.92,6.49,4.29,6.95c1.39,1.69,2.32,1.39,4.07,2.8,2.13,1.7,7.13,10.84,9.49,16.82,1.38,3.49,3.23,11.82,3,15.44-.36,4.85-8.21,6-8.58,6.19s-3.39-2.17-4.53-2.92-.58-8.9-1.62-11-7.61-8.44-7.95-8.87a16.3,16.3,0,0,1-2.85-6.61c-.21-.75-.81-1.87-.68-2.47.25-1.21,3.48-4.22,3.33-4.68s-2.61-6.76-2.61-6.76Z" transform="translate(-9.39 -262.62)"/><path class="cls-17" d="M333.36,306.77l-5.27,6.51L327,311.47s-3.24,3.55-3.33,4.68a16.14,16.14,0,0,0,.76,3.91,36.39,36.39,0,0,0,3.3,6.72c1,1.55,3.62,3,5.24,5.71,1.39,2.28.9,6.11.9,6.11a22.71,22.71,0,0,1,7.29,0c4.68.79,8.48-1,8.59-1.24.47-1-2.91-12.17-3.11-12.94S342,314.19,341,312.73c-1.46-2.12-3.22-4.32-5.62-5.07A7.8,7.8,0,0,1,333.36,306.77Z" transform="translate(-9.39 -262.62)"/><path class="cls-11" d="M333.82,307.27s2.6,3.09.15,8.09c-1.06,2.15-.54,4.71-1.84,5.93-4.67,4.37,5.32,17.06,6.42,17.66s4.63-.06,4.63-.06l6.57-1.53c1.79-.48-3-11.41-3.21-13.41s-4.52-9.46-5.21-10.7C338.08,307.43,333.82,307.27,333.82,307.27Z" transform="translate(-9.39 -262.62)"/><polygon class="cls-4" points="316.06 44.82 321.15 39.56 323.1 43.14 321.76 45.24 316.06 44.82"/><path class="cls-19" d="M319.2,297.83c.84-2.19,4.75-5.77,8.49-3.88a7.22,7.22,0,0,1,3.93,7.77,8.42,8.42,0,0,1-2.16,4.87c-.29.35-3.35,2.61-4.14,2.71-.54.08-2.56-3.09-2.68-3a.68.68,0,0,1-.76-.2c-.22-.38-1-3-1.22-3.2S318.24,300.35,319.2,297.83Z" transform="translate(-9.39 -262.62)"/><path class="cls-20" d="M319,299.79s1.84-2.72,6.47-1.41c1,.29,1,3.59,1.32,3.74s1.55-3.21,1.61-2.86c.61,3.53,2.46,4.73,2.75,4.6.88-.36,1.34-6-1.71-8.86a6.52,6.52,0,0,0-7.79-.7C320.86,294.93,318.24,296.49,319,299.79Z" transform="translate(-9.39 -262.62)"/><path class="cls-19" d="M327.26,300.69c.18,1.13.7,2.52,1.31,2.41s.95-1.11.76-2.24-.83-1.95-1.44-1.84S327.07,299.56,327.26,300.69Z" transform="translate(-9.39 -262.62)"/><rect x="355.33" y="401.61" width="4.41" height="0.82" transform="translate(827.98 382.74) rotate(158.54)"/><path d="M357.15,395.51a7.6,7.6,0,0,1,2.09,2.5c.38.79.57,2.68,0,2.89a43.69,43.69,0,0,0-4.9,2.24c-1.51.85-.52,1.49-4.62,3.08-1.19.47-4.65.53-4.85,0-.83-2.12,3.5-1.7,4.29-3.34a18.18,18.18,0,0,1,3.83-5.67A39.84,39.84,0,0,1,357.15,395.51Z" transform="translate(-9.39 -262.62)"/><polygon class="cls-16" points="332.22 144.85 336.62 144.99 336.64 144.14 332.24 144 332.22 144.85"/><path class="cls-16" d="M346,400.77A8,8,0,0,1,347,404c.05.89-.52,2.77-1.1,2.75a40.62,40.62,0,0,0-5.38.15c-1.72.18-2.39,1.18-6.78,1-1.28,0-3.58-.19-3.52-.73.25-2.72,4.25-1.39,5.62-2.62,3.48-3.12,5.75-3.83,5.75-3.83A39.43,39.43,0,0,1,346,400.77Z" transform="translate(-9.39 -262.62)"/><path class="cls-9" d="M340.29,338.8s6.94,3.83,7.82,6.24,1.11,9.61,1.83,16.06,1,8.43,1.57,9.85,3.8,7.65,4.56,11.68,3.66,14.19,3.66,14.19-2.61,1.13-4.61,1.85a6.23,6.23,0,0,1-4.33-.52s-7.48-22.8-8.36-25.18c-.57-1.55-4.61-12.16-7.25-21-.85-2.84-2.19-9.55-2.49-10.74Z" transform="translate(-9.39 -262.62)"/><path class="cls-21" d="M350.13,339.07a22.66,22.66,0,0,1,.92,7.08c-.21,2.56-1.28,7.22-2.61,13.58a72.5,72.5,0,0,0-1.72,13.85c.11,1.53,1.46,8.08,1.15,12.17-.37,4.81-.74,15.91-.74,15.91a20.93,20.93,0,0,1-4.07.54,19.06,19.06,0,0,1-4.88-.76s-.2-25.55-1-28c-1.25-3.86-.64-15.71-1.12-23.85-.19-3.28-.46-10.6-.46-10.6Z" transform="translate(-9.39 -262.62)"/><path class="cls-21" d="M347.51,338.08l-1-14.13a68.22,68.22,0,0,1,3.54,11.32c.09.47.46,1.75-.33,2.09A16.85,16.85,0,0,1,347.51,338.08Z" transform="translate(-9.39 -262.62)"/><polygon class="cls-11" points="319.22 49.22 318.7 50.67 321.94 47.32 319.22 49.22"/><polygon class="cls-11" points="318.7 50.67 317.61 48.85 317.31 49.91 318.7 50.67"/><polygon class="cls-22" points="317.77 49.12 317.52 50.9 316.7 49.9 317.41 48.32 317.77 49.12"/><path class="cls-21" d="M332.57,338.8c-.84-.16-.37-2.91-1.24-4.69-2.36-4.83-5.94-11.67-5.94-11.67l8.74-3.5,10.74,19.3A25.28,25.28,0,0,1,332.57,338.8Z" transform="translate(-9.39 -262.62)"/><path class="cls-23" d="M332.57,338.8l.13,2.5a56.27,56.27,0,0,0,12.32-.58c5.38-1.06,5.22-1.42,5.22-1.42l-.49-1.94s-1.64.36-5.42,1A98.56,98.56,0,0,1,332.57,338.8Z" transform="translate(-9.39 -262.62)"/><polygon class="cls-9" points="335.48 75.62 336.93 85.63 338.16 75.1 335.48 75.62"/><path class="cls-21" d="M332.85,319.63c-.58-1.69-.68-11.58,5.57-10.14l-2-1.44s-2.44-.77-4.47,2.69a11.23,11.23,0,0,0-1,9.65C332,323.36,333.54,321.67,332.85,319.63Z" transform="translate(-9.39 -262.62)"/><path class="cls-21" d="M325.39,322.44s-2.46-6-.89-7.9a13.47,13.47,0,0,0,.94-1.24,21.29,21.29,0,0,0,.69,6c.81,2.49,1.52,4.19.75,4.55S325.39,322.44,325.39,322.44Z" transform="translate(-9.39 -262.62)"/><path class="cls-19" d="M336.32,311.8c2.65.44,3.1,2.71,2.52,5.22s-7.4,17.81-8.17,18.16-4.48-.77-4.68-1.95,4.14-15.4,5-17.38S333.21,311.27,336.32,311.8Z" transform="translate(-9.39 -262.62)"/><path class="cls-22" d="M335.42,310.78c-1.34.2-3.73,2.61-4.39,4.44-.93,2.61-3.86,9.26-3.86,9.26A9.45,9.45,0,0,0,330.8,327a8.68,8.68,0,0,0,4.61.55s4-10.12,4.19-12.36C339.75,313.59,338.66,310.28,335.42,310.78Z" transform="translate(-9.39 -262.62)"/><path class="cls-19" d="M331.09,333.88c.5,2.88-5.89,4.05-8.84,4.34s-11.64.26-11.64.26l-.44-2.77s7.76-2.47,15.71-4.29C326.7,331.23,330.31,329.42,331.09,333.88Z" transform="translate(-9.39 -262.62)"/><path class="cls-5" d="M303.6,335.91s0,2.26-1.6,2.76-3.57-.26-4.06-.33c-2-.32-4.07,1.22-5.32,1.2s-1.29-.66-.85-.78c2.45-.67,3.62-1.86,4.75-2a44,44,0,0,0,5-1.81Z" transform="translate(-9.39 -262.62)"/><path class="cls-5" d="M303.14,337.37s0,1.16-1.86,1.89c-1,.4-2.39-.09-3.29.18s-.74-.22-.69-.35a11.72,11.72,0,0,1,1.65-.66C299.43,338.22,301,336.5,303.14,337.37Z" transform="translate(-9.39 -262.62)"/><polygon class="cls-18" points="325 44.11 323.1 43.14 319.22 49.22 321.04 51.14 325 44.11"/><path class="cls-17" d="M310.47,335.6l-4,1.51a15.69,15.69,0,0,0-.62,2.84,19.59,19.59,0,0,0,1.31,2.75c.14.29.51.57.64.47a3,3,0,0,1,.89-2.23,14.15,14.15,0,0,0,2.55-2.3C312.27,337,310.47,335.6,310.47,335.6Z" transform="translate(-9.39 -262.62)"/><path class="cls-17" d="M309,337.27s-1.53,1.49-1.4,1.87.49,2.63.53,2.88.07.59.6-.06.27-1.67.52-1.81,1.55-.27,2.17-1.18a1.77,1.77,0,0,0,.11-2C311.35,336.67,309.29,336.45,309,337.27Z" transform="translate(-9.39 -262.62)"/><polygon class="cls-17" points="302.04 76.36 307.01 76.31 306.26 71.31 300.87 73.07 302.04 76.36"/><polygon class="cls-5" points="298.21 73.11 295.67 69.38 291.36 72.75 293.75 74.75 298.21 73.11"/><path class="cls-21" d="M330.29,296s-2.63-4.72-7.78-2.56-3.53,7.69-3.53,7.69a39.4,39.4,0,0,0,6.84-2.19C329.65,297.28,330.29,296,330.29,296Z" transform="translate(-9.39 -262.62)"/><path class="cls-23" d="M327.47,298.11s-9.48,5.75-9.66,5.72a10.42,10.42,0,0,0-1.34-.31c-.35,0-.65.45-.81.3s3.21-3.22,3.21-3.22,2.3-.39,3.42-.61S327.32,297.78,327.47,298.11Z" transform="translate(-9.39 -262.62)"/><rect class="cls-16" x="295.14" y="326.48" width="14.71" height="40.74" rx="3.22" transform="translate(639.96 -218.26) rotate(90)"/><rect x="301.97" y="326.48" width="1.05" height="40.74" transform="translate(639.96 -218.26) rotate(90)"/><rect x="302.27" y="329.2" width="0.45" height="40.74" transform="translate(642.68 -215.54) rotate(90)"/><rect x="302.27" y="330.92" width="0.45" height="40.74" transform="translate(644.4 -213.82) rotate(90)"/><rect x="302.27" y="322.13" width="0.45" height="40.74" transform="translate(635.6 -222.62) rotate(90)"/><rect x="302.27" y="323.84" width="0.45" height="40.74" transform="translate(637.32 -220.9) rotate(90)"/><path class="cls-32" d="M322.84,351.3a3.71,3.71,0,0,1-.48.05H288.07a3.24,3.24,0,0,1-3.22-3.23v-8.26a3,3,0,0,1,0-.31,3.22,3.22,0,0,0-2.75,3.17V351a3.23,3.23,0,0,0,3.22,3.23h34.29A3.24,3.24,0,0,0,322.84,351.3Z" transform="translate(-9.39 -262.62)"/><rect class="cls-33" x="279.51" y="91.59" width="27.19" height="2.01"/><rect class="cls-31" x="284.53" y="93.61" width="17.11" height="4.49"/><polygon class="cls-34" points="301.65 93.61 284.54 93.61 284.54 98.09 301.65 98.09 286.89 96.84 286.89 95.57 301.65 93.61"/><polygon class="cls-35" points="318.31 145.47 256.44 145.47 256.44 136.97 253.54 134.16 253.54 97.98 321.21 97.98 321.21 134.16 318.31 136.97 318.31 145.47"/><rect class="cls-31" x="253.54" y="134.15" width="67.68" height="2.82"/><rect class="cls-31" x="271.67" y="46.57" width="21.43" height="3.46"/><rect class="cls-35" x="258.4" y="46.87" width="9.13" height="65.96"/><rect class="cls-35" x="255.53" y="45.12" width="22.23" height="6.63"/><rect class="cls-31" x="285.51" y="312.48" width="33.98" height="3.46" transform="translate(-21.1 354.09) rotate(-90)"/><rect class="cls-31" x="285.49" y="321.49" width="33.98" height="2.01" transform="translate(-29.41 362.36) rotate(-90)"/><rect class="cls-35" x="289.78" y="41.49" width="6.65" height="15.96"/><polygon class="cls-31" points="287.38 76.87 292.09 74.53 294.1 74.53 294.1 76.87 287.38 76.87"/><rect class="cls-5" x="290.78" y="33.23" width="4.65" height="3.23"/><rect class="cls-33" x="287.37" y="45.12" width="2.41" height="6.17"/><polygon class="cls-36" points="267.53 51.75 260.7 54.14 260.7 95.33 267.53 98.09 258.4 98.09 258.4 51.75 267.53 51.75"/><rect class="cls-36" x="256.44" y="136.97" width="61.87" height="8.51"/><polygon class="cls-37" points="318.31 136.97 256.44 136.97 256.44 141.71 318.31 138.44 318.31 136.97"/><path class="cls-19" d="M202,359.35l-3.33,4.16a19,19,0,0,0,1,3.35,22.19,22.19,0,0,0,3,2c.32.21.88.26.95.08a3.7,3.7,0,0,1-.39-2.9,17.79,17.79,0,0,0,1.32-4C204.69,359.64,202,359.35,202,359.35Z" transform="translate(-9.39 -262.62)"/><path class="cls-19" d="M238,332.7c1.94-5.92,6.94-16.07,4-17.84-3.81-2.31-14.76-3.74-14.76-3.74v.19s-11.05.91-14.86,3.2c-2.92,1.77,2.14,12.42,4.06,18.34.46,1.43.4,7.8.22,13.45,0,1.39-1.19,7.8-1,10.45.06.79,9,5.7,11.5,5.83v-.19c2.51-.12,11.47-5,11.53-5.79.19-2.65-.93-9.06-1-10.46C237.55,340.49,237.51,334.12,238,332.7Z" transform="translate(-9.39 -262.62)"/><path class="cls-19" d="M239.25,314.35c-2,1-2.32,4.63-.34,8.3s3.73,6,4.27,6.9,3.36,6.85,4.36,8.29,3.19,2.73,4.75,1.89c1.31-.71,2.77-1.31,1.87-4.21S245.62,311.25,239.25,314.35Z" transform="translate(-9.39 -262.62)"/><path class="cls-19" d="M231.82,309.37c-.25-1.13-.87-6.71-.87-6.71h-3.7v.19h-3.7s-.63,5.58-.88,6.71-3.3,2.82-3.3,2.82h7.87v-.18h7.87S232.07,310.5,231.82,309.37Z" transform="translate(-9.39 -262.62)"/><path class="cls-4" d="M231.57,307.8c-.23-1.71-.51-4.15-.59-4.9l-.24-.24h-3.49v.19h-3.7s-.63,5.58-.88,6.71-3.3,2.82-3.3,2.82h.37l7.48-2a32.26,32.26,0,0,0,4.35-2.58Z" transform="translate(-9.39 -262.62)"/><path class="cls-19" d="M221.29,350.54c-4.51,0-6.27,3.12-6.16,12.78s1.53,20.12,2.16,21.62,7,1.55,7.65.68,2.22-20.91,2.22-24S226.21,350.56,221.29,350.54Z" transform="translate(-9.39 -262.62)"/><rect class="cls-19" x="217.25" y="382.13" width="7.71" height="10.53" rx="3.26" transform="translate(0.57 -268.13) rotate(1.46)"/><path class="cls-19" d="M220.92,386.77c-1.38,0-4.76.44-4.59,9.44s4,21.34,4,21.34h3.26s1.62-16.66,1.63-19.86C225.23,390.42,225.28,386.77,220.92,386.77Z" transform="translate(-9.39 -262.62)"/><path class="cls-19" d="M233.2,350.62c4.48-.49,6.56,2.46,7.44,12.07s1.3,20.18.83,21.74-6.82,2.26-7.54,1.45-5.12-20.56-5.44-23.67S228.31,351.15,233.2,350.62Z" transform="translate(-9.39 -262.62)"/><path class="cls-19" d="M237.33,382h1.21a3.25,3.25,0,0,1,3.25,3.25v4a3.27,3.27,0,0,1-3.27,3.27h-1.19a3.25,3.25,0,0,1-3.25-3.25v-4a3.26,3.26,0,0,1,3.26-3.26Z" transform="translate(514.17 478.19) rotate(172.63)"/><path class="cls-19" d="M238,386.62c1.38-.15,4.79-.05,5.54,8.92s-.72,21.63-.72,21.63l-3.24.34s-4.36-16.4-4.71-19.58C234.14,390.7,233.71,387.07,238,386.62Z" transform="translate(-9.39 -262.62)"/><path class="cls-19" d="M214.21,314.38c2.16.59,3.14,4.12,1.87,8.1s-2.57,6.55-2.93,7.57-2,7.35-2.75,8.95-2.63,3.27-4.32,2.73c-1.42-.45-3-.78-2.61-3.79S207.38,312.51,214.21,314.38Z" transform="translate(-9.39 -262.62)"/><path class="cls-9" d="M216.4,348.6a118.63,118.63,0,0,0-1.9,12.27c-.25,4.33,1.84,23.23,1.84,25.32s-.15,8.47,0,14.74S218,419.54,218,419.54l8-.19s.06-26.5.06-30.66,1-26.11,1-26.11l0-13.63Z" transform="translate(-9.39 -262.62)"/><path class="cls-22" d="M243,315c-.49-.82-3.16-1.5-5.61-2.27a26,26,0,0,1-3.91-1.58l-1.36.72a9.72,9.72,0,0,1-9.68,0l-1.17-.67s-1.94.84-4.1,1.51c-2.46.76-5.2,1.39-5.63,2.26s3.95,17.75,4.45,19.19-.79,11.47.46,14.48l10.76.35h0l10.77-.32c1-3.44,0-13.23.49-14.67S243.78,316.35,243,315Z" transform="translate(-9.39 -262.62)"/><path class="cls-9" d="M237.86,348.37a118.63,118.63,0,0,1,3.14,12c.71,4.27,1.33,23.3,1.54,25.37s1,8.41,1.54,14.66,1.22,18.69,1.22,18.69l-8,.64s-3.8-26.36-4.23-30.5-5.94-26-5.94-26l.05-14.32Z" transform="translate(-9.39 -262.62)"/><path class="cls-16" d="M218.88,419.52s-2.74,3.2-2.6,4.05a3.89,3.89,0,0,0,3.34,2.35c1.6.1,4.21-1.35,4.61-1.4.94-.09.94-5.15.94-5.15Z" transform="translate(-9.39 -262.62)"/><path class="cls-16" d="M244.17,419.21s3.06,2.9,3,3.76a3.9,3.9,0,0,1-3.08,2.68c-1.58.27-4.32-.91-4.73-.91-1,0-1.46-5-1.46-5Z" transform="translate(-9.39 -262.62)"/><path class="cls-21" d="M236.92,364.58c.45,2.84,1.72,21.88,1.79,23s3.83,30.42,3.95,31.78l2.64-.21s-.7-12.44-1.22-18.69-1.33-12.59-1.54-14.66-.83-21.1-1.54-25.37a118.63,118.63,0,0,0-3.14-12l-6.36.45S236.47,361.75,236.92,364.58Z" transform="translate(-9.39 -262.62)"/><path class="cls-21" d="M225.91,357.31a3.07,3.07,0,0,0-5.73,1.27,27.2,27.2,0,0,0-.06,6.65c.68,3.58,1.65,21.08,1.52,21.54s0,32.6,0,32.6l.14.08,4.32-.1s.06-26.5.06-30.66,1-26.11,1-26.11v-1.19l.08-1.72Z" transform="translate(-9.39 -262.62)"/><path class="cls-19" d="M251.74,335.44c1.8-.27,3.43.46,4.44,5.46s1.88,16.9,1.88,16.9l-2.91.44s-4.34-9.45-5-12.14S247,336.15,251.74,335.44Z" transform="translate(-9.39 -262.62)"/><path class="cls-19" d="M254.69,355.51a25,25,0,0,0-1.21,3.53c-.1.85.38,3.92.38,4.6,0,1.14-2.19,3.71-1.43,3.81s3.81-2.27,3.81-2.27,2.38-3.28,2.29-4.63-.55-3.83-.55-3.83Z" transform="translate(-9.39 -262.62)"/><path class="cls-19" d="M233.66,297.92c0,4.67-3.54,9.31-6.53,9.3s-6.51-4.65-6.5-9.32,2.93-8.44,6.52-8.43S233.67,293.26,233.66,297.92Z" transform="translate(-9.39 -262.62)"/><path class="cls-20" d="M220.62,298.84c-.28-.51-1.25-2.67-1-3.64a18.88,18.88,0,0,1,1.74-3.72c.38-.64,3.77-2.32,4.28-2.36a12.62,12.62,0,0,1,2.91,0c1.06.17,2.92.89,3.34,1.74s1.47,1.82,1.82,2.5a9.11,9.11,0,0,1,.84,2.66c-.08.26-.55,2.37-.59,2.54a4.82,4.82,0,0,1-.35.65s-1.75-4.45-1.8-4.88-8.92-.56-9.47-.27S220.62,298.84,220.62,298.84Z" transform="translate(-9.39 -262.62)"/><polygon class="cls-6" points="213.79 106.53 205.09 106.53 204.85 106.12 204.22 105.84 205.07 93.41 213.13 93.21 213.79 106.53"/><polygon class="cls-21" points="212.91 105.84 204.22 105.84 204.69 93.18 212.91 93.18 212.91 105.84"/><polygon class="cls-23" points="205.09 106.53 204.85 106.12 213.21 106.12 213.13 93.21 213.79 106.53 205.09 106.53"/><polygon class="cls-6" points="223.76 106.6 232.41 105.75 232.62 105.31 233.22 104.97 231.15 92.68 223.12 93.27 223.76 106.6"/><polygon class="cls-21" points="224.56 105.82 233.22 104.97 231.52 92.42 223.33 93.22 224.56 105.82"/><polygon class="cls-23" points="232.41 105.75 232.62 105.31 224.3 106.13 223.12 93.27 223.76 106.6 232.41 105.75"/><path class="cls-19" d="M206.29,337.83c-1.81-.16-3.39.66-4.11,5.71s-.86,17-.86,17l2.93.26s3.77-9.69,4.28-12.42S211,338.25,206.29,337.83Z" transform="translate(-9.39 -262.62)"/><polygon class="cls-21" points="217.79 86.33 228.51 85.98 228.25 83.68 226.34 60.29 209.25 60.29 207.27 83.68 207 85.98 217.72 86.33 217.72 86.33 217.76 86.33 217.79 86.33 217.79 86.33"/><path class="cls-9" d="M221.68,322.91s1.58,18.4,3.51,21.9,12.61,2.92,12.61,2.92l.1,1.22a51,51,0,0,1-10.13,1.24A74.87,74.87,0,0,1,216.35,349l2.29-26Z" transform="translate(-9.39 -262.62)"/><polygon class="cls-23" points="225.81 61.63 227.42 49.91 224.99 48.95 223.16 61.63 224.33 63.59 225.81 61.63"/><polygon class="cls-23" points="209.84 61.63 208.22 49.91 210.66 48.95 212.48 61.63 211.32 63.59 209.84 61.63"/><path class="cls-23" d="M216.17,349.71l0-2a81.65,81.65,0,0,0,11.06.92,79.07,79.07,0,0,0,11-.92l.12,2a81.35,81.35,0,0,1-11.14,1.23A77.3,77.3,0,0,1,216.17,349.71Z" transform="translate(-9.39 -262.62)"/><path class="cls-12" d="M221.06,324a.66.66,0,0,1-1.32,0,.66.66,0,0,1,1.32,0Z" transform="translate(-9.39 -262.62)"/><circle class="cls-12" cx="224.64" cy="61.41" r="0.66"/><path class="cls-22" d="M212.11,314.37s-2.78.81-4.94,5.95-3.75,15.61-3.75,15.61a12.38,12.38,0,0,0,4.34,1.88,9.79,9.79,0,0,0,4,.42l3.09-10.85S215.58,314.56,212.11,314.37Z" transform="translate(-9.39 -262.62)"/><path class="cls-22" d="M241.15,313.91s2.87.37,5.8,5.11,7,14.7,7,14.7a11.93,11.93,0,0,1-4,2.53,11.11,11.11,0,0,1-4,1.1l-5.56-10.17S237.74,314.63,241.15,313.91Z" transform="translate(-9.39 -262.62)"/><path class="cls-4" d="M202,364.27a12.31,12.31,0,0,0,.61,2,8.72,8.72,0,0,0,.95,1.09,1.61,1.61,0,0,1,.38,1.09c-.22.31-.73-.07-1-.33a9,9,0,0,1-2-3.14C200.93,364.58,202,364.27,202,364.27Z" transform="translate(-9.39 -262.62)"/><path class="cls-4" d="M201.74,363.8a11.87,11.87,0,0,0,1.07,1.6c.3.26.57.22,1,.36s.86.42.89.78-.57.23-.9.18a3.38,3.38,0,0,1-1.47-.64,7.87,7.87,0,0,1-1.34-1.39C200.89,364.37,201.74,363.8,201.74,363.8Z" transform="translate(-9.39 -262.62)"/><path class="cls-4" d="M201.73,363.57a10.19,10.19,0,0,0,1.12,1.16c.29.17.5.09.91.14s.77.22.85.51-.44.28-.72.29a2.72,2.72,0,0,1-1.32-.31,6.33,6.33,0,0,1-1.31-.95C201.11,364.16,201.73,363.57,201.73,363.57Z" transform="translate(-9.39 -262.62)"/><rect class="cls-15" x="190.68" y="364.77" width="23.53" height="1.24" transform="translate(-223.07 66.27) rotate(-56)"/><rect class="cls-15" x="191.68" y="364.07" width="20.91" height="1.24" transform="translate(250.32 -310.89) rotate(36.94)"/><path class="cls-15" d="M193.07,359.36l-2.14-1.76,1.5-1.83,2.14,1.76a1.18,1.18,0,0,1,.17,1.66h0A1.19,1.19,0,0,1,193.07,359.36Z" transform="translate(-9.39 -262.62)"/><path class="cls-15" d="M211.08,369.91l2.15,1.76-1.5,1.82-2.15-1.76a1.19,1.19,0,0,1-.16-1.66h0A1.18,1.18,0,0,1,211.08,369.91Z" transform="translate(-9.39 -262.62)"/><path class="cls-15" d="M196.85,376l-1.48,2.35-2-1.26,1.47-2.35a1.18,1.18,0,0,1,1.63-.37h0A1.19,1.19,0,0,1,196.85,376Z" transform="translate(-9.39 -262.62)"/><path class="cls-15" d="M208,355.15l1.48-2.34,2,1.26L210,356.42a1.18,1.18,0,0,1-1.63.36h0A1.17,1.17,0,0,1,208,355.15Z" transform="translate(-9.39 -262.62)"/><path class="cls-19" d="M201.42,362s-.72,2.54-.35,2.85,2.07,2.42,2.26,2.66.44.57.61-.45-.72-1.92-.54-2.22,1.47-1.28,1.59-2.62a2.1,2.1,0,0,0-1.08-2.16C203.54,359.9,201.24,361,201.42,362Z" transform="translate(-9.39 -262.62)"/><rect class="cls-16" x="241.4" y="350.61" width="13.92" height="42.9" rx="3.22" transform="translate(-53.04 -229.44) rotate(-7.03)"/><rect x="247.86" y="350.61" width="1" height="42.9" transform="translate(-53.02 -229.46) rotate(-7.02)"/><rect x="250.7" y="350.3" width="0.42" height="42.9" transform="translate(-52.94 -229.17) rotate(-7.02)"/><rect x="252.31" y="350.1" width="0.42" height="42.9" transform="translate(-52.98 -228.91) rotate(-7.03)"/><rect x="244.05" y="351.12" width="0.42" height="42.9" transform="translate(-53.17 -229.91) rotate(-7.03)"/><rect x="245.67" y="350.92" width="0.42" height="42.9" transform="translate(-53.06 -229.77) rotate(-7.02)"/><path class="cls-32" d="M249.91,350.29c0,.16.08.32.11.49l4.41,35.83a3.25,3.25,0,0,1-2.61,3.75l-7.76.95h-.3a3.18,3.18,0,0,0,3.34,2.51l7.76-.95a3.25,3.25,0,0,0,2.61-3.74l-4.42-35.84A3.27,3.27,0,0,0,249.91,350.29Z" transform="translate(-9.39 -262.62)"/><path class="cls-4" d="M28.62,312c.36,2,2.15,2.34,4.13,1.85s11.56-5.05,11.84-5.65S44,304.74,43,304.6s-9.68,2.5-11.23,3.19S28.2,309.58,28.62,312Z" transform="translate(-9.39 -262.62)"/><path class="cls-5" d="M29.42,310.38c.31-.72.95-2.37,4-3.47,2-.72,5.92-1.77,5.92-1.77a7.22,7.22,0,0,1,1.59,3,6.69,6.69,0,0,1,0,3.57s-8.07,2.55-9.77,2.21C30.74,313.78,28.54,312.38,29.42,310.38Z" transform="translate(-9.39 -262.62)"/><path class="cls-19" d="M26.12,298.64s-.26,6-.61,6.25c-1.07.89-5,1.65-5.72,3.22-.88,1.89,4,10.39,4.62,13.2s-.68,7.17-1.1,9.92,8.24,6.09,8.56,6.09a16.85,16.85,0,0,0,3.64-3.51c.53-.9,0-8,0-9.77s.42-8.12.5-8.53a12.46,12.46,0,0,0-.28-5.52c-.1-.58-.07-1.56-.36-1.93-.59-.74-3.83-1.72-3.88-2.09s-.5-5.54-.5-5.54Z" transform="translate(-9.39 -262.62)"/><path class="cls-17" d="M25.51,304.89,30.74,308l.75-2s3.43,1.35,3.88,2.09a12.81,12.81,0,0,1,.8,2.95,27.5,27.5,0,0,1,0,5.75c-.14,1.4-.1,3.25-.31,5.63-.18,2,0,7.12,0,7.12s-1.95.08-5-.06a44.33,44.33,0,0,1-7.18-.84c-.67-.55.26-6,.14-6.56s-4.43-11-4.5-12.33A2.77,2.77,0,0,1,21.05,307C22.08,306.44,25.51,304.89,25.51,304.89Z" transform="translate(-9.39 -262.62)"/><path class="cls-11" d="M21.56,306.7s-3.4,1.89,0,4.5c1.46,1.13,8.43,2.87,9.75,3.27,4.69,1.43-2.54,11.84-3.09,12.62a3.58,3.58,0,0,0-.55,1.86l-3.57-.23c-1.4.27-.21-6.72-.75-8.17s-3.94-9.74-3.94-10.83A3.09,3.09,0,0,1,21.56,306.7Z" transform="translate(-9.39 -262.62)"/><polygon class="cls-4" points="21.8 40.05 16.51 38.16 16.38 41.28 18.01 42.27 21.8 40.05"/><path class="cls-19" d="M33.15,293.42c-1.15-1.38-4.87-3-7.12-.74a5.55,5.55,0,0,0-1,6.62,6.39,6.39,0,0,0,2.77,3,13.05,13.05,0,0,0,3.67,1c.41-.08,1.1-2.88,1.21-2.85a.54.54,0,0,0,.5-.33c.07-.33,0-2.42.1-2.63S34.47,295,33.15,293.42Z" transform="translate(-9.39 -262.62)"/><path class="cls-20" d="M33.77,294.8s-2-1.52-5.05.57c-.65.45.14,2.86,0,3s-1.91-2-1.87-1.68c.42,2.71-.63,4-.87,4-.73-.05-2.45-4-.94-6.87a5,5,0,0,1,5.49-2.42C31.24,291.72,33.52,292.21,33.77,294.8Z" transform="translate(-9.39 -262.62)"/><path class="cls-19" d="M28,297.48c.14.87.1,2-.37,2.08s-1-.58-1.1-1.44.13-1.63.6-1.7S27.86,296.62,28,297.48Z" transform="translate(-9.39 -262.62)"/><rect class="cls-16" x="18.71" y="116.64" width="3.38" height="0.63"/><path class="cls-16" d="M28.24,374.81a5.72,5.72,0,0,0-.79,2.37c-.05.67.34,2.07.78,2.07a34.08,34.08,0,0,1,4.13.23c1.32.18,1.81.94,5.18.93,1,0,2.72-.06,2.72-.46,0-1.75-3.23-1.13-4.26-2.08a14,14,0,0,0-4.33-3A29.67,29.67,0,0,0,28.24,374.81Z" transform="translate(-9.39 -262.62)"/><polygon class="cls-16" points="17.56 118.43 14.18 118.22 14.23 117.57 17.6 117.78 17.56 118.43"/><path class="cls-16" d="M24,375.62A6.26,6.26,0,0,0,23.1,378c-.09.69.21,2.16.65,2.19a30.93,30.93,0,0,1,4.1.49c1.3.27,1.74,1.08,5.11,1.28,1,.06,2.74.11,2.74-.31,0-2.09-3.15-1.36-4.11-2.4a13.68,13.68,0,0,0-4.12-3.33A28.57,28.57,0,0,0,24,375.62Z" transform="translate(-9.39 -262.62)"/><path class="cls-9" d="M29.78,329.1s-4.44,4.15-4.65,6.11,1.69,8.24,2.36,13.18,1.09,5.94.92,7.11-1.63,5.89-1.44,9,.81,11.37.81,11.37a8.87,8.87,0,0,0,2.55.58,3.5,3.5,0,0,0,2.75-1.24s1.3-18.37,1.5-20.31c.14-1.25,1.16-9.91,1.48-17,.1-2.27-.16-7.52-.16-8.46Z" transform="translate(-9.39 -262.62)"/><path class="cls-21" d="M23.46,328.68a17.29,17.29,0,0,0-1.08,5.37c0,2,.59,5.59,1.26,10.53a55.84,55.84,0,0,1,.57,10.7c-.17,1.16-1.56,6.1-1.54,9.25,0,3.7-.3,12.22-.3,12.22a16.5,16.5,0,0,0,3.09.64,14.65,14.65,0,0,0,3.78-.32s1.54-19.55,2.27-21.36c1.16-2.89,1.34-12,2.15-18.2.32-2.5.93-8.09.93-8.09Z" transform="translate(-9.39 -262.62)"/><path class="cls-21" d="M25.46,328.15l-2.29-8s-.79,7.14.2,7.88A2,2,0,0,0,25.46,328.15Z" transform="translate(-9.39 -262.62)"/><polygon class="cls-11" points="21.12 44.15 21.35 45.39 18.59 43.76 21.12 44.15"/><polygon class="cls-18" points="15.4 42.59 16.38 41.28 21.12 44.15 20.37 45.84 15.4 42.59"/><polygon class="cls-11" points="21.35 45.39 21.78 43.85 22.45 44.37 21.35 45.39"/><polygon class="cls-22" points="21.78 43.85 22.91 45.14 23.08 43.76 22.14 42.86 21.78 43.85"/><path class="cls-21" d="M35.87,328.68c1.68-1.74.45-15.7.45-15.7l-7.21.55-1.53,14.72S34.17,330.43,35.87,328.68Z" transform="translate(-9.39 -262.62)"/><path class="cls-23" d="M36.13,328.25l-.22,1.89a69.54,69.54,0,0,1-8.63,0c-4.2-.32-4.11-.61-4.11-.61l.2-1.52s1.28.12,4.21.24S36.13,328.25,36.13,328.25Z" transform="translate(-9.39 -262.62)"/><polygon class="cls-9" points="18.19 65.63 17.18 71.87 16.07 65.53 18.19 65.63"/><path class="cls-21" d="M29.11,313.53c-.18-1.37-2.3-7.15-6.24-7.06a9.17,9.17,0,0,0-1.31.23l2.27-1.05s.89-.35,2.67,1a11.76,11.76,0,0,1,4.17,6.79C30.93,315.82,29.32,315.16,29.11,313.53Z" transform="translate(-9.39 -262.62)"/><path class="cls-21" d="M36.32,313s-.35-5-2.07-5.74a9.43,9.43,0,0,1-1.06-.54,16.28,16.28,0,0,1,1.56,4.38c.29,2,.38,3.41,1,3.39S36.32,313,36.32,313Z" transform="translate(-9.39 -262.62)"/><path class="cls-19" d="M21.39,307.93c-1.86.89-1.71,2.66-.75,4.39s8.67,10.8,9.31,10.9,3.14-1.52,3-2.44-5.75-9.73-6.79-11S23.57,306.88,21.39,307.93Z" transform="translate(-9.39 -262.62)"/><path class="cls-22" d="M21.84,307A7.84,7.84,0,0,1,26,309.32c1.24,1.73,4.82,6,4.82,6a7.31,7.31,0,0,1-2.15,2.59,6.7,6.7,0,0,1-3.28,1.39s-5.4-6.52-5.73-8.22C19.59,310.58,19.65,306.92,21.84,307Z" transform="translate(-9.39 -262.62)"/><path class="cls-19" d="M29.27,321.14c-1.09,2,3.16,3.86,5.28,4.69s8.55,2.59,8.55,2.59l1-2.24a61.19,61.19,0,0,0-10.58-6.26C33,319.65,30.37,319.14,29.27,321.14Z" transform="translate(-9.39 -262.62)"/><path class="cls-19" d="M46.87,330.66h0a.45.45,0,0,0-.11-.61L45.24,329a.44.44,0,0,0-.61.11h0a.44.44,0,0,0,.11.61l1.53,1.07A.42.42,0,0,0,46.87,330.66Z" transform="translate(-9.39 -262.62)"/><path class="cls-19" d="M47.41,330h0a.44.44,0,0,0-.11-.6l-1.53-1.07a.44.44,0,0,0-.61.11h0a.42.42,0,0,0,.11.6l1.53,1.07A.44.44,0,0,0,47.41,330Z" transform="translate(-9.39 -262.62)"/><path class="cls-19" d="M47.88,329.4h0a.44.44,0,0,0-.11-.6l-1.53-1.07a.44.44,0,0,0-.61.11h0a.44.44,0,0,0,.11.61l1.53,1.06A.43.43,0,0,0,47.88,329.4Z" transform="translate(-9.39 -262.62)"/><path class="cls-19" d="M48.29,328.74h0a.42.42,0,0,0-.11-.6l-1.53-1.07a.42.42,0,0,0-.6.11h0a.45.45,0,0,0,.11.61l1.53,1.06A.44.44,0,0,0,48.29,328.74Z" transform="translate(-9.39 -262.62)"/><path class="cls-19" d="M42.58,325.43a30.22,30.22,0,0,1,3.56.87,18.83,18.83,0,0,1,2.17,2s-1,.24-1.28.72-.76,1.78-.76,1.78a13.55,13.55,0,0,1-2.67-1.29,10.15,10.15,0,0,1-1.34-1.35Z" transform="translate(-9.39 -262.62)"/><path class="cls-4" d="M41.88,308.15c1,2,5-.48,6.84-1.78s6.91-5.67,6.91-5.67l-1.29-2.1a61.58,61.58,0,0,0-11.09,5.31C42.71,304.25,40.83,306.12,41.88,308.15Z" transform="translate(-9.39 -262.62)"/><path class="cls-4" d="M59.59,298.82h0a.44.44,0,0,0-.57-.24l-1.73.67a.44.44,0,0,0-.25.57h0a.44.44,0,0,0,.56.25l1.74-.68A.42.42,0,0,0,59.59,298.82Z" transform="translate(-9.39 -262.62)"/><path class="cls-4" d="M59.37,298h0a.42.42,0,0,0-.56-.25l-1.74.67a.46.46,0,0,0-.25.57h0a.43.43,0,0,0,.56.25l1.74-.68A.44.44,0,0,0,59.37,298Z" transform="translate(-9.39 -262.62)"/><path class="cls-4" d="M59.1,297.27h0a.44.44,0,0,0-.56-.25l-1.74.68a.44.44,0,0,0-.25.57h0a.43.43,0,0,0,.56.24l1.74-.67A.44.44,0,0,0,59.1,297.27Z" transform="translate(-9.39 -262.62)"/><path class="cls-4" d="M58.78,296.57h0a.44.44,0,0,0-.57-.25l-1.74.68a.43.43,0,0,0-.24.56h0a.42.42,0,0,0,.56.25l1.74-.67A.45.45,0,0,0,58.78,296.57Z" transform="translate(-9.39 -262.62)"/><path class="cls-4" d="M52.85,299.48A30.84,30.84,0,0,1,55.56,297a19.32,19.32,0,0,1,2.85-.7s-.39,1-.12,1.46,1.05,1.62,1.05,1.62a13.41,13.41,0,0,1-2.55,1.5,9.25,9.25,0,0,1-1.87.36Z" transform="translate(-9.39 -262.62)"/><path class="cls-21" d="M24.67,294.44A4.64,4.64,0,0,1,29.86,291c4.22.54,4.15,4.93,4.15,4.93a29.68,29.68,0,0,1-5.46-.22C25.41,295.29,24.67,294.44,24.67,294.44Z" transform="translate(-9.39 -262.62)"/><path class="cls-23" d="M27.17,295.46s8.14,2.28,8.27,2.22a8.16,8.16,0,0,1,.92-.5c.25-.09.57.2.66.05a24.32,24.32,0,0,0-3-1.71s-1.76.19-2.63.26S27.22,295.18,27.17,295.46Z" transform="translate(-9.39 -262.62)"/><path d="M62.87,314.91a3,3,0,0,1-2.75-2.77l.55-.07c0,.09.31,2.29,2.2,2.29s3.84-2.7,3.84-7.05c0-.86,0-1.75,0-2.63-.06-3.33-.12-6.2.66-7a.77.77,0,0,1,.56-.24h6.86a4.34,4.34,0,0,1,4.34,4.33v7.46h-.56v-7.46A3.78,3.78,0,0,0,74.76,298H67.9a.23.23,0,0,0-.17.08c-.61.62-.55,3.79-.5,6.59,0,.88,0,1.78,0,2.64C67.26,311.57,65.34,314.91,62.87,314.91Z" transform="translate(-9.39 -262.62)"/><path class="cls-5" d="M46.44,51.6h4a0,0,0,0,1,0,0V64.95a0,0,0,0,1,0,0H44.68a0,0,0,0,1,0,0V53.37A1.76,1.76,0,0,1,46.44,51.6Z"/><rect class="cls-31" x="50.42" y="25.37" width="1.11" height="23.82"/><rect class="cls-5" x="49.64" y="37.07" width="2.66" height="5.13"/><rect class="cls-35" x="44.68" y="67.76" width="6.96" height="50.26"/><rect class="cls-35" x="68.36" y="41.56" width="3.3" height="76.46"/><rect class="cls-35" x="41.2" y="63.45" width="27.16" height="5.05"/><rect class="cls-35" x="46.38" y="33.68" width="17.36" height="3.39"/><rect class="cls-35" x="70.3" y="299.75" width="11.2" height="3.39" transform="translate(226 -227.99) rotate(45)"/><rect class="cls-35" x="38.32" y="115.06" width="39.13" height="3.99"/><rect class="cls-35" x="47.97" y="91.02" width="22.15" height="3.37"/><path class="cls-16" d="M64,298a2.66,2.66,0,1,1-2.66-2.66A2.67,2.67,0,0,1,64,298Z" transform="translate(-9.39 -262.62)"/><rect class="cls-5" x="49.1" y="48.16" width="3.85" height="1.02"/><rect class="cls-31" x="48.23" y="49.19" width="5.56" height="0.6"/><polygon class="cls-36" points="54.4 63.48 47.55 71.05 47.55 113.87 51.64 115.06 44.68 115.06 44.68 63.45 54.4 63.48"/><rect class="cls-16" x="47.89" y="310.58" width="11.21" height="31.05" rx="2.46" transform="translate(236.86 -204.94) rotate(45)"/><rect x="53.1" y="310.58" width="0.8" height="31.05" transform="translate(236.89 -204.92) rotate(45.01)"/><rect x="54.8" y="312.04" width="0.34" height="31.05" transform="translate(238.33 -205.54) rotate(45)"/><rect x="55.72" y="312.97" width="0.34" height="31.05" transform="translate(239.26 -205.92) rotate(45)"/><rect x="50.98" y="308.23" width="0.34" height="31.05" transform="translate(234.47 -204) rotate(44.99)"/><rect x="51.91" y="309.15" width="0.34" height="31.05" transform="translate(235.44 -204.35) rotate(45)"/><path class="cls-32" d="M66.85,317.54c-.07.09-.14.19-.22.28L48.15,336.29a2.46,2.46,0,0,1-3.48,0l-4.45-4.45c-.06-.06-.1-.12-.15-.18a2.45,2.45,0,0,0,.23,3.19l4.45,4.45a2.45,2.45,0,0,0,3.47,0L66.7,320.82A2.44,2.44,0,0,0,66.85,317.54Z" transform="translate(-9.39 -262.62)"/><polygon class="cls-36" points="68.36 43.09 68.36 115.06 69.43 115.06 69.43 42.52 68.36 43.09"/></g></g></svg>