<svg xmlns="http://www.w3.org/2000/svg" viewBox="0 0 192.25 192.92"><defs><style>.cls-1{isolation:isolate;}.cls-13,.cls-2{opacity:0.25;}.cls-2{mix-blend-mode:color-burn;}.cls-18,.cls-26,.cls-3,.cls-7{fill:gray;}.cls-18,.cls-4,.cls-6{opacity:0.7;}.cls-5{fill:#fff;}.cls-13,.cls-14,.cls-15,.cls-16,.cls-18,.cls-22,.cls-25,.cls-26,.cls-28,.cls-35,.cls-36,.cls-39,.cls-43,.cls-44,.cls-6{mix-blend-mode:multiply;}.cls-17,.cls-7{opacity:0.33;}.cls-17,.cls-8{fill:#f2f2f2;}.cls-9{fill:#4d4d4d;}.cls-10{fill:#999;}.cls-11{fill:#c9c9c9;}.cls-12{fill:#b3b3b3;}.cls-13,.cls-14,.cls-15,.cls-16,.cls-22,.cls-25,.cls-28,.cls-43,.cls-44{fill:#666;}.cls-14{opacity:0.38;}.cls-15{opacity:0.48;}.cls-16{opacity:0.3;}.cls-19{fill:#ababab;}.cls-20{fill:#6a3f35;}.cls-21{fill:#404040;}.cls-22{opacity:0.63;}.cls-23{fill:#d83f18;}.cls-24{fill:#a52f11;}.cls-25{opacity:0.29;}.cls-26,.cls-28{opacity:0.49;}.cls-27{fill:#fefefe;}.cls-29{fill:#d6b58a;}.cls-30{fill:#f0e8d6;}.cls-31{fill:#cbab7f;}.cls-32{fill:#e8c696;}.cls-33{fill:#83c9d9;}.cls-34{fill:#8c2a11;}.cls-35,.cls-40{fill:#725730;}.cls-35{opacity:0.18;}.cls-36{fill:#737272;opacity:0.31;}.cls-37{fill:#d5e1da;}.cls-38{fill:#8cc7cd;}.cls-39{opacity:0.39;}.cls-41{fill:#969696;}.cls-42{fill:#1b8194;}.cls-43{opacity:0.41;}.cls-44{opacity:0.76;}.cls-45{fill:#51666a;}.cls-46{opacity:0.75;mix-blend-mode:screen;}.cls-47{fill:#828282;}</style></defs><title>reparacionVehiculo</title><g class="cls-1"><g id="Layer_1" data-name="Layer 1"><g class="cls-2"><circle class="cls-3" cx="94.46" cy="87.16" r="41.98"/><path class="cls-3" d="M413.36,352.9h0c-12.86-9.34-12.86-26.38,0-35.72h0A19.87,19.87,0,0,0,393.62,283c-14.55,6.16-32.51-4.51-34-20.27h0a19.86,19.86,0,0,0-39.49-.52c-2,15.7-23.31,27.57-37.7,21a19.87,19.87,0,0,0-19.15,34.74c13.32,8.55,14.34,25.64,2.11,35.72a19.87,19.87,0,0,0,22.1,32.8c14-7.29,30,.54,32.78,16.06a19.86,19.86,0,0,0,39.16,0c2.8-15.52,18.81-23.35,32.77-16.06a19.87,19.87,0,0,0,21.17-33.53Zm-64,28.79a19.89,19.89,0,0,0-19,0c-14,7.29-30-.54-32.77-16.06a19.85,19.85,0,0,0-9-13.45c-13.32-8.56-14.34-25.64-2.12-35.73a19.86,19.86,0,0,0,7.11-12.95c2-15.7,23.31-27.57,37.7-21a19.88,19.88,0,0,0,16.61.22c14.55-6.16,32.51,4.51,34,20.27h0a19.9,19.9,0,0,0,8.1,14.2h0c12.86,9.34,12.86,26.38,0,35.72h0a19.86,19.86,0,0,0-7.9,12.73C379.3,381.15,363.29,389,349.33,381.69Z" transform="translate(-245.38 -244.69)"/></g><g class="cls-4"><path class="cls-5" d="M338.77,401.24a.42.42,0,0,1-.42-.39.37.37,0,0,1,.36-.39h.06c.85,0,1.7,0,2.54,0a.4.4,0,0,1,.4.38.39.39,0,0,1-.38.41C340.48,401.23,339.63,401.24,338.77,401.24Zm-2.67-.05h0c-.88,0-1.75-.07-2.62-.13a.39.39,0,0,1-.36-.42.37.37,0,0,1,.42-.36c.85.06,1.72.1,2.59.13a.4.4,0,0,1,.38.4A.4.4,0,0,1,336.1,401.19Zm7.82-.12a.4.4,0,0,1-.39-.37.41.41,0,0,1,.37-.42c.86,0,1.73-.13,2.58-.22a.39.39,0,0,1,.08.78c-.86.09-1.73.17-2.61.23Zm-13-.24h0c-.87-.09-1.74-.2-2.6-.32a.39.39,0,0,1-.34-.44.41.41,0,0,1,.45-.33c.85.12,1.71.22,2.57.31a.39.39,0,0,1,0,.78Zm18.21-.3a.38.38,0,0,1-.38-.33.4.4,0,0,1,.33-.45c.86-.11,1.71-.25,2.57-.39a.38.38,0,0,1,.45.32.4.4,0,0,1-.32.45c-.86.15-1.72.28-2.59.4Zm-23.38-.42h-.06c-.87-.15-1.73-.32-2.58-.5a.4.4,0,0,1-.3-.47.38.38,0,0,1,.46-.3c.85.18,1.7.34,2.55.49a.4.4,0,0,1,.32.46A.39.39,0,0,1,325.73,400.11Zm28.52-.47a.38.38,0,0,1-.38-.31.39.39,0,0,1,.3-.46c.85-.18,1.69-.37,2.53-.58a.4.4,0,0,1,.48.29.39.39,0,0,1-.29.47c-.85.21-1.7.4-2.56.58ZM320.63,399h-.09c-.85-.21-1.7-.44-2.54-.68a.39.39,0,1,1,.22-.75c.83.24,1.66.46,2.51.67a.39.39,0,0,1-.1.77Zm38.69-.64a.39.39,0,0,1-.11-.77c.83-.23,1.66-.49,2.48-.75a.4.4,0,0,1,.5.25.39.39,0,0,1-.26.49c-.83.27-1.66.53-2.51.77Zm-43.7-.8h-.12c-.84-.28-1.67-.56-2.48-.86a.39.39,0,0,1-.24-.5.4.4,0,0,1,.51-.24c.8.3,1.62.58,2.45.85a.39.39,0,0,1-.12.76Zm48.66-.8a.4.4,0,0,1-.37-.26.39.39,0,0,1,.24-.5c.81-.3,1.62-.61,2.42-.93a.39.39,0,0,1,.51.21.39.39,0,0,1-.22.51c-.81.33-1.62.64-2.45.94A.31.31,0,0,1,364.28,396.79Zm-53.56-1a.4.4,0,0,1-.15,0c-.81-.33-1.62-.68-2.41-1a.39.39,0,0,1,.32-.72c.79.35,1.58.69,2.38,1a.39.39,0,0,1,.22.51A.4.4,0,0,1,310.72,395.81Zm58.4-1a.38.38,0,0,1-.36-.23.39.39,0,0,1,.2-.52c.79-.35,1.58-.72,2.35-1.1a.39.39,0,0,1,.53.18.4.4,0,0,1-.18.52c-.79.39-1.58.76-2.38,1.12ZM306,393.67a.33.33,0,0,1-.17,0q-1.19-.58-2.34-1.2a.39.39,0,0,1,.37-.69c.76.41,1.53.8,2.31,1.19a.38.38,0,0,1,.18.52A.39.39,0,0,1,306,393.67Zm67.85-1.14a.39.39,0,0,1-.34-.21.39.39,0,0,1,.16-.53c.76-.41,1.52-.83,2.27-1.27a.39.39,0,1,1,.39.68c-.75.44-1.52.87-2.29,1.28A.41.41,0,0,1,373.81,392.53Zm-72.44-1.33a.35.35,0,0,1-.2-.05c-.75-.44-1.5-.89-2.23-1.36a.39.39,0,0,1-.12-.54.4.4,0,0,1,.54-.12c.73.46,1.46.91,2.21,1.34a.4.4,0,0,1,.14.54A.38.38,0,0,1,301.37,391.2Zm77-1.31a.38.38,0,0,1-.33-.18.39.39,0,0,1,.12-.54c.73-.46,1.46-.94,2.17-1.43a.4.4,0,0,1,.55.1.41.41,0,0,1-.1.55c-.73.49-1.46,1-2.2,1.44A.39.39,0,0,1,378.33,389.89ZM297,388.42a.39.39,0,0,1-.23-.07c-.72-.5-1.43-1-2.13-1.52a.39.39,0,1,1,.47-.63c.69.51,1.4,1,2.11,1.5a.4.4,0,0,1-.22.72Zm85.66-1.48a.39.39,0,0,1-.23-.71c.7-.51,1.38-1,2.06-1.58a.39.39,0,0,1,.49.61c-.68.55-1.38,1.08-2.08,1.6A.43.43,0,0,1,382.64,386.94Zm-89.84-1.62a.38.38,0,0,1-.25-.09c-.68-.54-1.35-1.1-2-1.67a.38.38,0,0,1,0-.55.38.38,0,0,1,.55,0c.65.56,1.32,1.11,2,1.65a.39.39,0,0,1-.24.7Zm93.93-1.64a.41.41,0,0,1-.3-.14.39.39,0,0,1,0-.55c.66-.57,1.31-1.14,1.94-1.73a.39.39,0,1,1,.53.57c-.64.6-1.29,1.18-2,1.75A.35.35,0,0,1,386.73,383.68Zm-97.88-1.76a.39.39,0,0,1-.27-.1c-.64-.6-1.27-1.2-1.88-1.82a.39.39,0,0,1,0-.56.39.39,0,0,1,.55,0c.61.61,1.23,1.21,1.87,1.8a.38.38,0,0,1,0,.55A.37.37,0,0,1,288.85,381.92Zm101.71-1.79a.4.4,0,0,1-.28-.67c.61-.61,1.22-1.24,1.8-1.87a.4.4,0,0,1,.56,0,.38.38,0,0,1,0,.55c-.6.64-1.2,1.27-1.82,1.89A.39.39,0,0,1,390.56,380.13Zm-105.39-1.89a.37.37,0,0,1-.29-.13c-.6-.64-1.18-1.29-1.75-1.95a.39.39,0,0,1,0-.55.38.38,0,0,1,.55,0c.57.65,1.14,1.3,1.73,1.93a.4.4,0,0,1-.28.66Zm108.94-1.94a.39.39,0,0,1-.29-.65c.56-.65,1.11-1.32,1.65-2a.39.39,0,1,1,.61.49c-.54.68-1.1,1.35-1.67,2A.39.39,0,0,1,394.11,376.3Zm-112.34-2a.39.39,0,0,1-.31-.15c-.55-.68-1.08-1.38-1.6-2.08a.39.39,0,0,1,.64-.46c.51.69,1,1.38,1.57,2a.39.39,0,0,1-.06.55A.38.38,0,0,1,281.77,374.29Zm115.6-2.07a.42.42,0,0,1-.24-.07.4.4,0,0,1-.08-.55c.51-.7,1-1.4,1.5-2.12a.39.39,0,0,1,.65.44c-.49.72-1,1.44-1.52,2.14A.37.37,0,0,1,397.37,372.22Zm-118.7-2.13a.4.4,0,0,1-.32-.17c-.49-.72-1-1.46-1.43-2.2a.39.39,0,1,1,.66-.41c.46.73.93,1.46,1.42,2.17a.39.39,0,0,1-.11.54A.34.34,0,0,1,278.67,370.09Zm121.63-2.18a.39.39,0,0,1-.21-.06.4.4,0,0,1-.13-.54c.46-.73.91-1.48,1.33-2.23a.4.4,0,0,1,.54-.14.38.38,0,0,1,.14.53c-.43.76-.88,1.51-1.34,2.25A.4.4,0,0,1,400.3,367.91Zm-124.39-2.24a.39.39,0,0,1-.34-.2c-.43-.76-.85-1.53-1.26-2.3a.4.4,0,0,1,.7-.37c.4.77.81,1.53,1.24,2.28a.4.4,0,0,1-.14.54A.49.49,0,0,1,275.91,365.67Zm127-2.29a.38.38,0,0,1-.34-.57c.39-.77.78-1.54,1.15-2.32a.39.39,0,0,1,.52-.19.4.4,0,0,1,.19.52c-.38.8-.77,1.58-1.17,2.35A.38.38,0,0,1,402.88,363.38ZM273.5,361a.38.38,0,0,1-.35-.23c-.38-.79-.73-1.59-1.08-2.39a.4.4,0,0,1,.21-.52.39.39,0,0,1,.51.21c.34.8.7,1.59,1.07,2.37a.39.39,0,0,1-.19.52A.33.33,0,0,1,273.5,361Zm131.61-2.37a.41.41,0,0,1-.16,0,.38.38,0,0,1-.2-.51q.5-1.2,1-2.4a.39.39,0,0,1,.73.27c-.31.82-.63,1.63-1,2.43A.4.4,0,0,1,405.11,358.67Zm-133.65-2.44a.4.4,0,0,1-.36-.25c-.31-.82-.61-1.65-.88-2.48a.39.39,0,0,1,.24-.5.41.41,0,0,1,.5.25c.27.83.56,1.64.87,2.45a.4.4,0,0,1-.23.51ZM407,353.81l-.13,0a.4.4,0,0,1-.25-.5c.28-.82.53-1.64.77-2.47a.4.4,0,0,1,.49-.27.39.39,0,0,1,.27.48c-.25.85-.51,1.68-.78,2.51A.41.41,0,0,1,407,353.81Zm-137.14-2.54a.38.38,0,0,1-.37-.28c-.25-.84-.47-1.69-.68-2.54a.4.4,0,0,1,.29-.48.39.39,0,0,1,.47.29c.21.84.43,1.68.67,2.51a.4.4,0,0,1-.27.49Zm138.58-2.47-.09,0a.39.39,0,0,1-.29-.47c.21-.84.4-1.68.57-2.53a.39.39,0,0,1,.77.16c-.18.86-.37,1.71-.58,2.56A.39.39,0,0,1,408.39,348.8Zm-139.82-2.6a.39.39,0,0,1-.38-.32c-.18-.85-.33-1.71-.47-2.58a.39.39,0,1,1,.77-.12c.14.85.29,1.7.46,2.55a.38.38,0,0,1-.3.46Zm140.87-2.51h-.07a.38.38,0,0,1-.32-.45c.14-.85.26-1.7.36-2.56a.41.41,0,0,1,.44-.35.39.39,0,0,1,.34.44c-.11.87-.23,1.74-.37,2.6A.39.39,0,0,1,409.44,343.69Zm-141.7-2.64a.4.4,0,0,1-.39-.34c-.1-.87-.19-1.74-.26-2.61a.39.39,0,0,1,.36-.43.39.39,0,0,1,.42.36c.07.87.16,1.73.26,2.58a.39.39,0,0,1-.34.44Zm142.32-2.54h0a.39.39,0,0,1-.36-.42c.07-.86.12-1.73.16-2.59a.38.38,0,0,1,.41-.38.39.39,0,0,1,.37.41c0,.88-.09,1.75-.16,2.62A.39.39,0,0,1,410.06,338.51Zm-142.73-2.66a.4.4,0,0,1-.4-.37c0-.87-.05-1.75-.05-2.63a.4.4,0,0,1,.79,0c0,.87,0,1.73.05,2.59a.39.39,0,0,1-.38.41Zm142.94-2.58a.37.37,0,0,1-.39-.36v-.08c0-.83,0-1.68-.05-2.52a.39.39,0,0,1,.38-.4.38.38,0,0,1,.41.37c0,.85.05,1.71.05,2.57A.43.43,0,0,1,410.27,333.27Zm-142.95-2.63h0a.4.4,0,0,1-.38-.41c0-.88.09-1.75.16-2.62a.37.37,0,0,1,.42-.36.39.39,0,0,1,.36.42c-.07.86-.12,1.72-.15,2.59A.4.4,0,0,1,267.32,330.64Zm142.75-2.55a.4.4,0,0,1-.39-.36c-.07-.87-.15-1.73-.26-2.58a.4.4,0,0,1,.35-.44.38.38,0,0,1,.43.34c.11.87.19,1.74.26,2.61a.39.39,0,0,1-.36.43Zm-142.33-2.65h-.05a.4.4,0,0,1-.34-.44c.11-.87.23-1.74.37-2.6a.38.38,0,0,1,.45-.32.39.39,0,0,1,.32.45c-.14.85-.26,1.7-.36,2.56A.4.4,0,0,1,267.74,325.44Zm141.71-2.53a.39.39,0,0,1-.38-.33c-.14-.86-.29-1.71-.46-2.55a.38.38,0,0,1,.3-.46.38.38,0,0,1,.46.3c.18.86.33,1.72.47,2.58a.38.38,0,0,1-.32.45Zm-140.88-2.62h-.08a.4.4,0,0,1-.31-.46c.18-.86.37-1.71.58-2.56a.39.39,0,0,1,.47-.29.4.4,0,0,1,.29.48c-.21.83-.4,1.68-.57,2.53A.39.39,0,0,1,268.57,320.29Zm139.85-2.49a.39.39,0,0,1-.38-.3c-.21-.85-.43-1.68-.67-2.51a.4.4,0,1,1,.76-.22c.24.84.46,1.69.67,2.54a.41.41,0,0,1-.29.48Zm-138.61-2.58h-.11a.4.4,0,0,1-.27-.49c.25-.84.51-1.67.78-2.5a.39.39,0,0,1,.5-.25.39.39,0,0,1,.24.49c-.27.82-.52,1.65-.77,2.48A.38.38,0,0,1,269.81,315.22ZM407,312.77a.4.4,0,0,1-.38-.27c-.27-.82-.56-1.64-.86-2.45a.38.38,0,0,1,.23-.5.38.38,0,0,1,.5.23c.31.82.6,1.64.88,2.48a.38.38,0,0,1-.25.49Zm-135.53-2.49-.14,0a.41.41,0,0,1-.23-.51c.31-.82.64-1.63,1-2.43a.39.39,0,0,1,.51-.21.4.4,0,0,1,.21.52q-.51,1.19-1,2.4A.39.39,0,0,1,271.45,310.28Zm133.69-2.4a.38.38,0,0,1-.36-.24c-.34-.79-.69-1.58-1.06-2.37a.39.39,0,1,1,.71-.33c.37.79.73,1.59,1.07,2.4a.39.39,0,0,1-.21.51Zm-131.66-2.39a.35.35,0,0,1-.17,0,.38.38,0,0,1-.18-.52c.37-.79.76-1.58,1.16-2.35a.39.39,0,1,1,.69.36c-.4.77-.78,1.54-1.15,2.32A.38.38,0,0,1,273.48,305.49Zm129.43-2.33a.39.39,0,0,1-.34-.21c-.4-.77-.82-1.53-1.24-2.28a.39.39,0,1,1,.67-.39q.66,1.14,1.26,2.31a.38.38,0,0,1-.17.52A.35.35,0,0,1,402.91,303.16Zm-127-2.3a.34.34,0,0,1-.19-.05.38.38,0,0,1-.15-.53q.65-1.14,1.35-2.25a.38.38,0,0,1,.53-.13.39.39,0,0,1,.13.54c-.46.73-.9,1.48-1.33,2.23A.39.39,0,0,1,275.88,300.86Zm124.45-2.23a.39.39,0,0,1-.33-.19c-.46-.73-.93-1.46-1.42-2.17a.4.4,0,0,1,.11-.55.39.39,0,0,1,.54.11c.49.72,1,1.45,1.43,2.2a.39.39,0,0,1-.12.54A.42.42,0,0,1,400.33,298.63Zm-121.69-2.19a.36.36,0,0,1-.22-.07.38.38,0,0,1-.1-.54c.49-.73,1-1.44,1.51-2.15a.39.39,0,0,1,.63.47c-.51.7-1,1.4-1.5,2.12A.39.39,0,0,1,278.64,296.44Zm118.76-2.13a.38.38,0,0,1-.31-.16c-.51-.7-1-1.38-1.58-2.06a.4.4,0,0,1,.62-.49c.54.69,1.07,1.38,1.59,2.09a.38.38,0,0,1-.08.54A.37.37,0,0,1,397.4,294.31Zm-115.67-2.07a.4.4,0,0,1-.31-.64c.55-.68,1.11-1.36,1.68-2a.38.38,0,0,1,.55,0,.39.39,0,0,1,0,.55c-.56.66-1.11,1.32-1.65,2A.4.4,0,0,1,281.73,292.24Zm112.43-2a.39.39,0,0,1-.3-.13c-.56-.66-1.14-1.3-1.72-1.94a.39.39,0,0,1,.57-.53c.59.64,1.18,1.29,1.75,1.95a.4.4,0,0,1,0,.56A.38.38,0,0,1,394.16,290.23Zm-109-2a.4.4,0,0,1-.28-.66c.59-.64,1.2-1.27,1.82-1.89a.38.38,0,0,1,.55,0,.39.39,0,0,1,0,.55c-.61.61-1.21,1.24-1.8,1.87A.37.37,0,0,1,285.13,288.28Zm105.49-1.87a.43.43,0,0,1-.28-.11c-.61-.61-1.23-1.21-1.87-1.8a.4.4,0,0,1,.54-.58c.64.6,1.27,1.21,1.88,1.82a.39.39,0,0,1-.27.67Zm-101.79-1.83a.4.4,0,0,1-.29-.12.4.4,0,0,1,0-.56c.64-.59,1.29-1.17,2-1.75a.39.39,0,0,1,.55,0,.41.41,0,0,1,0,.56c-.66.56-1.3,1.14-1.94,1.73A.37.37,0,0,1,288.83,284.58Zm98-1.71a.39.39,0,0,1-.25-.1c-.66-.56-1.32-1.11-2-1.66a.4.4,0,0,1-.06-.55.4.4,0,0,1,.55-.06c.69.55,1.36,1.11,2,1.68a.39.39,0,0,1,0,.55A.41.41,0,0,1,386.8,282.87Zm-94-1.7a.39.39,0,0,1-.3-.14.4.4,0,0,1,.06-.56c.68-.54,1.37-1.08,2.08-1.6a.39.39,0,1,1,.47.63c-.7.52-1.39,1.05-2.06,1.59A.46.46,0,0,1,292.78,281.17Zm90-1.56a.34.34,0,0,1-.23-.08c-.7-.51-1.4-1-2.11-1.5a.4.4,0,0,1-.1-.55.39.39,0,0,1,.54-.1c.72.5,1.43,1,2.13,1.52a.39.39,0,0,1,.08.55A.36.36,0,0,1,382.74,279.61ZM297,278.06a.39.39,0,0,1-.22-.71c.72-.5,1.45-1,2.19-1.45a.39.39,0,0,1,.42.66c-.73.46-1.45.94-2.17,1.43A.36.36,0,0,1,297,278.06Zm81.47-1.4a.42.42,0,0,1-.21-.06c-.73-.46-1.46-.91-2.21-1.35a.39.39,0,1,1,.4-.67c.75.44,1.5.89,2.23,1.36a.39.39,0,0,1,.12.54A.38.38,0,0,1,378.45,276.66Zm-77.05-1.4a.39.39,0,0,1-.2-.73c.76-.44,1.52-.87,2.29-1.29a.4.4,0,0,1,.37.7c-.76.41-1.52.83-2.27,1.27A.45.45,0,0,1,301.4,275.26ZM374,274a.39.39,0,0,1-.18,0c-.76-.41-1.53-.81-2.31-1.19a.4.4,0,1,1,.35-.71c.78.39,1.56.79,2.33,1.21a.39.39,0,0,1-.19.73Zm-68-1.24a.39.39,0,0,1-.35-.22.41.41,0,0,1,.18-.53c.79-.38,1.58-.76,2.38-1.11a.39.39,0,0,1,.52.19.39.39,0,0,1-.2.52c-.79.36-1.57.72-2.35,1.11A.58.58,0,0,1,306,272.79Zm63.28-1.06a.53.53,0,0,1-.16,0c-.78-.35-1.58-.69-2.38-1a.39.39,0,0,1-.22-.51.4.4,0,0,1,.51-.22c.82.33,1.62.68,2.41,1a.38.38,0,0,1,.2.51A.39.39,0,0,1,369.28,271.73Zm-58.51-1.08a.39.39,0,0,1-.36-.24.39.39,0,0,1,.22-.51c.81-.33,1.62-.64,2.45-.94a.39.39,0,1,1,.26.73c-.81.3-1.62.61-2.42.93Zm53.68-.89a.31.31,0,0,1-.13,0c-.81-.29-1.63-.58-2.45-.84a.39.39,0,0,1,.24-.75c.83.27,1.66.56,2.48.86a.38.38,0,0,1,.23.5A.4.4,0,0,1,364.45,269.76Zm-48.77-.89a.4.4,0,0,1-.13-.77c.83-.27,1.67-.52,2.51-.76a.4.4,0,0,1,.49.27.39.39,0,0,1-.27.48c-.83.24-1.66.49-2.48.76Zm43.81-.73-.1,0c-.83-.23-1.67-.46-2.51-.67a.39.39,0,0,1-.29-.47.41.41,0,0,1,.48-.29c.85.21,1.69.44,2.53.68a.39.39,0,0,1-.11.77Zm-38.8-.71a.41.41,0,0,1-.38-.29.4.4,0,0,1,.29-.48c.84-.21,1.69-.4,2.55-.58a.39.39,0,1,1,.16.76c-.85.18-1.69.37-2.52.58Zm33.74-.55h-.08c-.84-.18-1.69-.35-2.54-.5a.38.38,0,0,1-.32-.45.39.39,0,0,1,.45-.32c.86.15,1.72.32,2.57.5a.39.39,0,0,1-.08.78Zm-28.64-.52a.39.39,0,0,1-.38-.33.39.39,0,0,1,.32-.45c.86-.15,1.72-.28,2.59-.41a.4.4,0,0,1,.44.34.39.39,0,0,1-.33.44c-.86.12-1.72.25-2.57.4ZM349.3,266h-.06c-.85-.12-1.71-.23-2.57-.32a.39.39,0,1,1,.08-.78c.87.09,1.74.2,2.6.32a.39.39,0,0,1,.33.44A.38.38,0,0,1,349.3,266ZM331,265.64a.39.39,0,0,1,0-.78c.87-.09,1.74-.16,2.61-.22a.37.37,0,0,1,.42.36.39.39,0,0,1-.36.42c-.87.06-1.73.13-2.59.22Zm13.15-.21h0c-.86-.06-1.72-.11-2.59-.14a.39.39,0,0,1-.38-.41.37.37,0,0,1,.41-.37c.88,0,1.75.07,2.62.13a.4.4,0,0,1,.36.42A.39.39,0,0,1,344.11,265.43Zm-7.94-.15a.39.39,0,0,1-.4-.37.41.41,0,0,1,.38-.41c.87,0,1.75,0,2.62,0h.13a.39.39,0,0,1,.39.39.4.4,0,0,1-.39.39h-.13c-.86,0-1.73,0-2.59,0Z" transform="translate(-245.38 -244.69)"/></g><g class="cls-6"><path class="cls-7" d="M412.44,300.4h4v-8.46h-4v-1.41H389.3v11.33a5.07,5.07,0,0,1,.61.12l.13,0,.4.14.12.07.31.18.1.08a2.73,2.73,0,0,1,.25.23l.07.09a1.87,1.87,0,0,1,.2.29s0,0,0,.08a1.68,1.68,0,0,1,.16.39s0,0,0,0c1.2,4-5.88,13.57-1.22,15.54a19.07,19.07,0,0,0,4.13.25c2.57,0,3.1-.71,3.37-3.25.32-2.83.5-5,.79-7.25h7.7a1.28,1.28,0,0,0,1.21-1.21l.33-3.63h0l.2-2.19h4.23Zm-5.81,6.86a.61.61,0,0,1-.61.61h-3.3a7.87,7.87,0,0,1-1-2.9c0-.12,0-.23,0-.34s0-.33,0-.49a1.49,1.49,0,0,0,0-.21,7,7,0,0,1,.09-1.39H406a.61.61,0,0,1,.61.61v4.11Z" transform="translate(-245.38 -244.69)"/><polygon class="cls-7" points="184.39 54.01 184.39 51 184.39 49.87 184.39 49 178.34 49 177.17 50.04 177.17 50.33 177.17 51.2 177.17 52.96 178.34 54.01 184.39 54.01"/><polygon class="cls-7" points="170.54 62.5 175.1 60.09 173.92 57.85 168 60.98 167.55 60.12 165.59 61.15 167.69 65.11 169.64 64.08 169.19 63.21 170.54 62.5 170.54 62.5"/><polygon class="cls-7" points="183.84 59.87 183.21 60.61 178.09 56.31 176.46 58.25 180.41 61.56 180.41 61.56 181.58 62.55 180.96 63.3 182.65 64.72 185.53 61.29 183.84 59.87"/><polygon class="cls-7" points="179.17 63.25 177.14 61.74 173.15 67.1 173.14 67.1 173.14 67.1 173.14 67.1 172.36 66.52 171.03 68.29 174.63 70.97 175.95 69.2 175.17 68.61 176.03 67.46 179.17 63.25"/><polygon class="cls-7" points="172.34 52.97 177.16 52.97 177.16 50.04 172.34 50.04 171.12 50.04 171.12 52.97 171.12 53.01 172.34 53.01 172.34 52.97"/></g><rect class="cls-8" x="141.92" y="43.84" width="23.15" height="11.34"/><rect class="cls-8" x="165.07" y="45.24" width="4.03" height="8.46"/><rect class="cls-9" x="169.12" y="48.04" width="6.05" height="2.92"/><polygon class="cls-10" points="182.39 47 182.39 52.01 176.34 52.01 175.17 50.96 175.17 48.04 176.34 47 182.39 47"/><path class="cls-11" d="M387.3,299.86c7.5.93-4.56,14.86,1.18,17.28a19.07,19.07,0,0,0,4.13.25c2.57,0,3.1-.71,3.37-3.25.32-2.83.5-5,.79-7.25h7.7a1.28,1.28,0,0,0,1.21-1.21l.53-5.82Zm17.33,5.4a.61.61,0,0,1-.61.61h-6.5a.61.61,0,0,1-.61-.61v-4.11a.61.61,0,0,1,.61-.61H404a.61.61,0,0,1,.61.61Z" transform="translate(-245.38 -244.69)"/><path class="cls-8" d="M400.72,305.87h-3.2a.61.61,0,0,1-.61-.61v-4.11a.61.61,0,0,1,.61-.61h2.17A8.39,8.39,0,0,0,400.72,305.87Z" transform="translate(-245.38 -244.69)"/><rect class="cls-12" x="409.89" y="303.06" width="2.21" height="4.48" transform="translate(-340.4 -17.31) rotate(-27.85)"/><rect class="cls-10" x="411.58" y="301.96" width="6.69" height="2.53" transform="translate(-338.99 -15.58) rotate(-27.87)"/><rect class="cls-13" x="411.88" y="303.17" width="1.53" height="2.53" transform="translate(-339.82 -16.54) rotate(-27.86)"/><rect class="cls-12" x="424.38" y="303.88" width="4.48" height="2.21" transform="translate(-326.66 190.87) rotate(-49.98)"/><rect class="cls-10" x="421.95" y="298.77" width="2.53" height="6.69" transform="translate(-325.72 187.13) rotate(-49.97)"/><rect class="cls-13" x="423.92" y="303.02" width="2.53" height="1.53" transform="translate(-326.25 189.35) rotate(-49.98)"/><rect class="cls-12" x="415.76" y="309.19" width="2.21" height="4.48" transform="translate(-327.42 214.59) rotate(-53.27)"/><rect class="cls-10" x="416.18" y="306.6" width="6.69" height="2.53" transform="translate(-323.48 215.31) rotate(-53.27)"/><rect class="cls-13" x="417.23" y="308.67" width="1.53" height="2.53" transform="translate(-325.75 214.95) rotate(-53.28)"/><rect class="cls-14" x="165.07" y="45.24" width="1.22" height="8.46"/><rect class="cls-15" x="169.12" y="48.04" width="1.22" height="2.97"/><path class="cls-13" d="M406.21,299.86l-.2,2.19h-1.38v-.9a.61.61,0,0,0-.61-.61h-6.5a.6.6,0,0,0-.6.61v.9H389.8a2.47,2.47,0,0,0-2.5-2.19Z" transform="translate(-245.38 -244.69)"/><path class="cls-13" d="M399.75,303.21h-2.84v-2.06a.61.61,0,0,1,.61-.61h2.17A7.53,7.53,0,0,0,399.75,303.21Z" transform="translate(-245.38 -244.69)"/><path class="cls-16" d="M398,291a.62.62,0,0,1-.62.62h-6.57a.62.62,0,0,1-.62-.62h0a.62.62,0,0,1,.62-.62h6.57a.62.62,0,0,1,.62.62Z" transform="translate(-245.38 -244.69)"/><path class="cls-16" d="M398,292.87a.62.62,0,0,1-.62.62h-6.57a.62.62,0,0,1-.62-.62h0a.62.62,0,0,1,.62-.62h6.57a.62.62,0,0,1,.62.62Z" transform="translate(-245.38 -244.69)"/><path class="cls-16" d="M398,294.76a.62.62,0,0,1-.62.62h-6.57a.62.62,0,0,1-.62-.62h0a.62.62,0,0,1,.62-.62h6.57a.62.62,0,0,1,.62.62Z" transform="translate(-245.38 -244.69)"/><polygon class="cls-17" points="175.17 48.33 176.31 47.87 182.39 47.87 182.39 49 176.28 49 175.17 49.2 175.17 48.33"/><path class="cls-18" d="M361.2,404.62,359.54,403a17.23,17.23,0,0,0,.21-2.61,18.19,18.19,0,1,0-30.43,13.44h0l.39.33.47.4c.32.26.66.51,1,.75l.26.18q.65.44,1.32.81l.49.25.95.46.58.24c.31.13.63.24,1,.35l.59.2c.48.15,1,.27,1.47.38l.66.11.73.13V419h21.52V409h0v-1.64h.67v-2.76Zm-10.31-9.54-6.72,1.66-.45-6.88A10.79,10.79,0,0,1,350.89,395.08Zm-3,5.75h4.35a9.81,9.81,0,0,1-.11,1.09h-5.4v-.63Zm-9,9.9-.68-.19-.44-.16c-.2-.08-.4-.15-.59-.24l-.14-.07,1.33-1.57.79-.93v3.23Zm2.66-9.16a1.22,1.22,0,0,1-1.21-1.24,1.2,1.2,0,0,1,1.23-1.2,1.22,1.22,0,0,1,0,2.44Zm-3.1,2a3.93,3.93,0,0,0,.64.5l-.61.57v.84l-2.83,3.84-.05,0c-.3-.2-.59-.42-.86-.64l.73-1h0ZM352,399.21l.25-.1s0,.07,0,.1Zm-10.38-9.56.61,0,0,6.26a3.81,3.81,0,0,0-.59,0,3.69,3.69,0,0,0-.58,0l0-6.26C341.2,389.67,341.38,389.65,341.57,389.65ZM339,396.72h0l-6.69-1.7a10.7,10.7,0,0,1,7.19-5.17Zm-1.42,1.67a4.54,4.54,0,0,0-.38,1.09l-5.95-2c.11-.38.23-.74.37-1.09Zm-.27,3.27-3.68,5.87a10.64,10.64,0,0,1-2.77-7.17,11.55,11.55,0,0,1,.09-1.32Zm14.61-4.07-5.06,1.62h-1a4,4,0,0,0-.28-.78l6-1.93A10.69,10.69,0,0,1,351.91,397.59Z" transform="translate(-245.38 -244.69)"/><path class="cls-19" d="M352.84,396.14a9.64,9.64,0,0,0-.32-1.39,5.92,5.92,0,0,0-.35-1.08,10.75,10.75,0,0,0-.56-1.31,13.52,13.52,0,0,0-10-7.3,11.35,11.35,0,0,0-1.42-.13,3.51,3.51,0,0,0-.56,0,3.89,3.89,0,0,0-.6,0,13,13,0,0,0-1.4.11,13.4,13.4,0,0,0-10,7.24,8,8,0,0,0-.6,1.3c-.12.35-.26.71-.36,1.08a12.55,12.55,0,0,0-.31,1.38,12.21,12.21,0,0,0-.21,2.27,13.36,13.36,0,0,0,4,9.57l0,.05,1,.89,0,0a7.16,7.16,0,0,0,.9.66l1.23.75a13.31,13.31,0,0,0,12.45.05,8.09,8.09,0,0,0,1.24-.71l.93-.66L349,408a13.41,13.41,0,0,0,4.06-9.56A14.32,14.32,0,0,0,352.84,396.14Zm-13.27,12.94a10.72,10.72,0,1,1,10.71-10.72A10.71,10.71,0,0,1,339.57,409.08Z" transform="translate(-245.38 -244.69)"/><path class="cls-5" d="M352.9,396.13a9.87,9.87,0,0,0-.31-1.41,7.2,7.2,0,0,0-.36-1.08,10.88,10.88,0,0,0-.56-1.32,13.34,13.34,0,0,0-11.48-7.47,5.25,5.25,0,0,0-.56,0,5.74,5.74,0,0,0-.6,0,10.72,10.72,0,0,0-1.41.12,13.49,13.49,0,0,0-10.1,7.27,8.63,8.63,0,0,0-.6,1.31c-.12.35-.26.72-.36,1.08a9.17,9.17,0,0,0-.31,1.4,13.13,13.13,0,0,0-.22,2.27,13.44,13.44,0,0,0,4,9.63l0,0,1,.9,0,0a9.43,9.43,0,0,0,.9.66l1.25.76a13.43,13.43,0,0,0,12.51.05,8.62,8.62,0,0,0,1.25-.72c.32-.21.63-.44.93-.67l1.06-1a13.44,13.44,0,0,0,4.09-9.61A13.16,13.16,0,0,0,352.9,396.13Zm-1.71-2.06a8.69,8.69,0,0,1,.33,1v0l-7.59,2.43a4.27,4.27,0,0,0-.35-1.08l7.58-2.45A.47.47,0,0,1,351.19,394.07Zm-.6-1.41-8.42,2.08-.57-8.61A12.47,12.47,0,0,1,350.59,392.66Zm-11,4.47a1.22,1.22,0,0,1,0,2.44,1.23,1.23,0,0,1-1.21-1.24A1.2,1.2,0,0,1,339.58,397.13ZM339,386h.68a4.4,4.4,0,0,1,.46,0h0l0,8a3.81,3.81,0,0,0-.59,0,3.69,3.69,0,0,0-.58,0Zm-1.41.14-.62,8.61h0l-8.38-2.13A12.41,12.41,0,0,1,337.61,386.11Zm-10,8.83c.09-.34.21-.67.33-1,0,0,0,0,0,0l7.57,2.49a4.54,4.54,0,0,0-.38,1.09l-7.56-2.5ZM330.69,407a12.38,12.38,0,0,1-3.54-8.71,14,14,0,0,1,.17-1.92l.09,0,7.89,3.25Zm2,1.64,0,0a6,6,0,0,1-.82-.6l-.06,0,4.7-6.43a4.16,4.16,0,0,0,.93.69Zm6.85,2.11a12.16,12.16,0,0,1-5.59-1.37l5.58-6.58,5.59,6.63A12.16,12.16,0,0,1,339.52,410.76Zm7.74-2.68c-.28.21-.55.43-.88.64l0,0-4.67-6.47a4.21,4.21,0,0,0,.94-.69l4.65,6.48Zm1.08-1-4.52-7.42,8-3.2a10.4,10.4,0,0,1,.15,1.93A12.18,12.18,0,0,1,348.34,407.09Z" transform="translate(-245.38 -244.69)"/><path class="cls-20" d="M340.21,395.15a.65.65,0,1,1-.64-.65A.65.65,0,0,1,340.21,395.15Z" transform="translate(-245.38 -244.69)"/><path class="cls-20" d="M337.24,397.34a.65.65,0,1,1-.65-.65A.65.65,0,0,1,337.24,397.34Z" transform="translate(-245.38 -244.69)"/><path class="cls-20" d="M338.36,400.84a.64.64,0,0,1-.64.65.65.65,0,1,1,0-1.29A.64.64,0,0,1,338.36,400.84Z" transform="translate(-245.38 -244.69)"/><path class="cls-20" d="M342.07,400.84a.65.65,0,1,1-.65-.64A.65.65,0,0,1,342.07,400.84Z" transform="translate(-245.38 -244.69)"/><path class="cls-20" d="M343.2,397.34a.65.65,0,1,1-.65-.65A.65.65,0,0,1,343.2,397.34Z" transform="translate(-245.38 -244.69)"/><path class="cls-20" d="M339.56,396.56a1.8,1.8,0,1,0,1.8,1.8A1.8,1.8,0,0,0,339.56,396.56Zm0,3a1.23,1.23,0,0,1-1.21-1.24,1.22,1.22,0,1,1,1.21,1.24Z" transform="translate(-245.38 -244.69)"/><path class="cls-21" d="M339.57,380.16a18.2,18.2,0,1,0,18.18,18.19A18.19,18.19,0,0,0,339.57,380.16ZM349,408l-1.06.95c-.3.22-.6.45-.93.66a8.52,8.52,0,0,1-1.24.72,13.11,13.11,0,0,1-6.21,1.51,13.32,13.32,0,0,1-6.23-1.57l-1.24-.75a8.31,8.31,0,0,1-.9-.66l0,0-1-.89-.05-.05a13.36,13.36,0,0,1-4-9.57,12.92,12.92,0,0,1,.21-2.26,10.07,10.07,0,0,1,.32-1.39c.1-.36.23-.73.35-1.08a8,8,0,0,1,.6-1.3A13.42,13.42,0,0,1,337.63,385a12.79,12.79,0,0,1,1.4-.11,3.7,3.7,0,0,1,.59,0,3.57,3.57,0,0,1,.57,0,11.37,11.37,0,0,1,1.41.13,13.5,13.5,0,0,1,10,7.3,10.75,10.75,0,0,1,.56,1.31,7.2,7.2,0,0,1,.36,1.08,9.45,9.45,0,0,1,.31,1.4,13,13,0,0,1,.19,2.27A13.4,13.4,0,0,1,349,408Z" transform="translate(-245.38 -244.69)"/><path class="cls-22" d="M337.17,405.57,335,408.08a10.7,10.7,0,0,0,2.13.73v7.58a18.12,18.12,0,0,1-9.86-4.59l3.32-3.32.05-.05,1.93-1.93.87-.87-.73,1a10.25,10.25,0,0,0,.91.68l2.83-3.85v1.92h.68Z" transform="translate(-245.38 -244.69)"/><rect class="cls-23" x="91.11" y="157.93" width="22.87" height="2.76"/><rect class="cls-23" x="91.79" y="160.69" width="21.52" height="11.65"/><polygon class="cls-24" points="113.83 157.93 91.11 157.93 93.98 155.23 111.13 155.23 113.83 157.93"/><path class="cls-23" d="M352.56,397.21h-8.75a.72.72,0,0,0-.72.72v3.15h1.66v-2.25h6.87v2.25h1.66v-3.15A.71.71,0,0,0,352.56,397.21Z" transform="translate(-245.38 -244.69)"/><polygon class="cls-5" points="107.32 164.12 107.32 168.28 104.89 168.28 104.89 170.71 100.73 170.71 100.73 168.28 98.3 168.28 98.3 164.12 100.73 164.12 100.73 161.7 104.89 161.7 104.89 164.12 107.32 164.12"/><rect class="cls-25" x="91.79" y="160.69" width="21.52" height="1.64"/><g class="cls-6"><path class="cls-26" d="M418.88,359.15h0a.27.27,0,0,0,.14-.07l3.52-3.52a.22.22,0,0,0,0-.32l-3.52-3.52a.24.24,0,0,0-.33,0l-3.52,3.52a.18.18,0,0,0-.06.13v0l.15,1.67-3,3-.52.52,2.12-6a.86.86,0,0,0-.53-1.1l-2.75-1a.86.86,0,0,0-1.1.53l-3.12,8.85A.87.87,0,0,0,407,363l1.82.63h0L406.9,363l-.35,1h0l-.7,2a4.07,4.07,0,0,1-4.29-.59l-.11-.11-.14.14-8.3-8.3v-1.35a.24.24,0,0,0-.06-.11l-3-3.05a.19.19,0,0,0-.28,0l-3,3.05a.19.19,0,0,0,0,.28l3,3a.2.2,0,0,0,.12.06h1.35l8.3,8.29-.12.12v0h0l.11.11a4.3,4.3,0,0,1,.9,2c0,.1,0,.2,0,.29a3.69,3.69,0,0,1-1,3l0,0,.13.12L387.7,384.69l1.91,1.91,11.71-11.71.13.13,0,0a3.5,3.5,0,0,1,1.36-.83,26.77,26.77,0,0,1-3.77,8.59c-2.48,3.89-3.43,9.55-1.19,10.34s5.05-4.21,5.57-8.8c.31-2.77,1-6.68,2.71-9.57a.62.62,0,0,0,.33,0c.08.06.18.11.26.18l.11.11h0l.13-.13,8.31,8.31.09,1.1v0a.14.14,0,0,0,.05.1l2.76,2.76a.17.17,0,0,0,.25,0l2.76-2.76a.18.18,0,0,0,0-.25l-2.75-2.76a.22.22,0,0,0-.11-.05h0l-1.1-.09-8-8-.35-.35.13-.12h0l-.1-.11a4.55,4.55,0,0,1-.43-.62l-.08-.18a4.31,4.31,0,0,1-.22-.49c0-.06,0-.13-.05-.19a4.77,4.77,0,0,1-.13-.51c0-.06,0-.12,0-.18a4,4,0,0,1,0-.49c0-.12,0-.24,0-.36a2.58,2.58,0,0,1,0-.39.19.19,0,0,1,0-.07,4,4,0,0,1,.17-.59l0,0a3.55,3.55,0,0,1,.77-1.17l0,0h0v0l-.11-.12,8.29-8.29Z" transform="translate(-245.38 -244.69)"/><path class="cls-26" d="M400.32,355.8l4.83,1.7a.22.22,0,0,0,.16,0h0l1.41-.68h0l1.29.46,1.07-3-1.3-.45v0l-.68-1.41,0,0a.16.16,0,0,0-.12-.09l-4.83-1.71a.23.23,0,0,0-.3.15l-1.7,4.83A.24.24,0,0,0,400.32,355.8Z" transform="translate(-245.38 -244.69)"/><path class="cls-26" d="M386,366.1a3.14,3.14,0,1,0-3.14-3.14A3.15,3.15,0,0,0,386,366.1Z" transform="translate(-245.38 -244.69)"/><path class="cls-26" d="M386.19,370.14a2.64,2.64,0,1,0-2.64,2.64A2.64,2.64,0,0,0,386.19,370.14Z" transform="translate(-245.38 -244.69)"/><path class="cls-26" d="M385.19,374.75a2.32,2.32,0,1,0,2.31,2.32A2.32,2.32,0,0,0,385.19,374.75Z" transform="translate(-245.38 -244.69)"/></g><path class="cls-27" d="M420.58,353.56l-3.52,3.52a.27.27,0,0,1-.14.07h0l-1.67-.15-1.91-1.92-.15-1.67v0a.18.18,0,0,1,.06-.13l3.52-3.52a.24.24,0,0,1,.33,0l3.52,3.52A.22.22,0,0,1,420.58,353.56Z" transform="translate(-245.38 -244.69)"/><rect class="cls-11" x="380.94" y="368.49" width="39.03" height="2.71" transform="translate(-389.6 146.79) rotate(-45)"/><path class="cls-27" d="M387.91,350.57l3,3.05a.24.24,0,0,1,.06.11v1.35L389.1,357h-1.35a.2.2,0,0,1-.12-.06l-3-3a.19.19,0,0,1,0-.28l3-3.05A.19.19,0,0,1,387.91,350.57Z" transform="translate(-245.38 -244.69)"/><path class="cls-27" d="M416.2,385.19l-2.76-2.76a.14.14,0,0,1-.05-.1v0l-.09-1.1,1.91-1.92,1.1.09h0a.22.22,0,0,1,.11.05l2.75,2.76a.18.18,0,0,1,0,.25l-2.76,2.76A.17.17,0,0,1,416.2,385.19Z" transform="translate(-245.38 -244.69)"/><rect class="cls-11" x="400.8" y="351.03" width="2.71" height="34.22" transform="translate(-387.9 147.52) rotate(-45)"/><path class="cls-27" d="M407,370.84,404.86,373l-.11-.11a4,4,0,0,0-5.27.08l0,0-2.17-2.17,0,0a4,4,0,0,0,.08-5.27l-.11-.11,2.17-2.18.11.11a4,4,0,0,0,5.28-.08l0,0,2.17,2.17,0,0a3.94,3.94,0,0,0-.08,5.27Z" transform="translate(-245.38 -244.69)"/><path class="cls-13" d="M406,368.11h-7.61a4.28,4.28,0,0,0-1-2.59l-.11-.11,2.17-2.17.11.11a4,4,0,0,0,5.27-.08l0,0,2.17,2.17,0,0A3.61,3.61,0,0,0,406,368.11Z" transform="translate(-245.38 -244.69)"/><path class="cls-27" d="M400.18,348.52l4.83,1.71a.16.16,0,0,1,.12.09l0,0,.68,1.41-1.07,3-1.41.68h0a.22.22,0,0,1-.16,0l-4.83-1.7a.24.24,0,0,1-.14-.3l1.7-4.83A.23.23,0,0,1,400.18,348.52Z" transform="translate(-245.38 -244.69)"/><path class="cls-19" d="M408.81,361.42a.87.87,0,0,1-1.11.52L405,361a.87.87,0,0,1-.52-1.11l3.12-8.85a.86.86,0,0,1,1.1-.53l2.75,1a.86.86,0,0,1,.53,1.1Z" transform="translate(-245.38 -244.69)"/><rect class="cls-21" x="399.6" y="364.71" width="10.1" height="3.02" transform="translate(-320.65 381.4) rotate(-70.58)"/><rect class="cls-13" x="405.62" y="360.45" width="1.06" height="3.02" transform="matrix(0.33, -0.94, 0.94, 0.33, -315.62, 380)"/><path class="cls-28" d="M405,372.34a.64.64,0,0,1-.8.38l-3.2-1.13a.62.62,0,0,1,.41-1.18l3.21,1.13A.64.64,0,0,1,405,372.34Z" transform="translate(-245.38 -244.69)"/><path class="cls-21" d="M395.88,391.09c-2.24-.79-1.29-6.45,1.19-10.34,1.5-2.36,3.4-5.85,3.89-9.16l3.2,1.13c-1.69,2.89-2.4,6.8-2.71,9.57C400.93,386.88,398.12,391.88,395.88,391.09Z" transform="translate(-245.38 -244.69)"/><rect class="cls-23" x="404.34" y="352.84" width="3.2" height="1.38" transform="translate(-307.93 373.93) rotate(-70.56)"/><path class="cls-28" d="M406.9,371l.72.72c-1.07.05-1.39,1.31-1.24,2.22a2.33,2.33,0,0,0,.12.49L405,372.89l-.13.13-.11-.11-.24-.17a.54.54,0,0,0,.23-.11.64.64,0,0,0,.22-.29.62.62,0,0,0-.39-.79l-.17-.06.79-2.24.4-1.14.81-2.29.26-.75v0l.73-2.07.35-1-.05,0a.87.87,0,0,0,1.11-.52l1-2.85,1.7-1.7a2.73,2.73,0,0,0,1.35,2.49l-5.94,5.93,0,0,.12.11,0,0a3.66,3.66,0,0,0-1,1.91c0,.11,0,.23,0,.35a.31.31,0,0,0,0,.1c0,.08,0,.16,0,.23v.08a4.32,4.32,0,0,0,1,2.62l.11.12Z" transform="translate(-245.38 -244.69)"/><path class="cls-27" d="M387.15,361a3.14,3.14,0,1,1-3.14-3.14A3.15,3.15,0,0,1,387.15,361Z" transform="translate(-245.38 -244.69)"/><polygon class="cls-28" points="137.4 118.4 136.17 116.27 137.4 114.14 139.86 114.14 141.09 116.27 139.86 118.4 137.4 118.4"/><path class="cls-27" d="M384.19,368.14a2.64,2.64,0,1,1-2.64-2.64A2.64,2.64,0,0,1,384.19,368.14Z" transform="translate(-245.38 -244.69)"/><polygon class="cls-28" points="135.14 125.24 134.1 123.45 135.14 121.66 137.21 121.66 138.24 123.45 137.21 125.24 135.14 125.24"/><path class="cls-27" d="M385.5,375.07a2.32,2.32,0,1,1-2.31-2.32A2.32,2.32,0,0,1,385.5,375.07Z" transform="translate(-245.38 -244.69)"/><polygon class="cls-28" points="136.9 131.95 135.99 130.38 136.9 128.81 138.72 128.81 139.62 130.38 138.72 131.95 136.9 131.95"/><path class="cls-18" d="M369,337.14l-6.64-2v-.63l-6.33-2v.69l-3.24-1a5.5,5.5,0,0,1-.4,1.09l-2.21-.9v-5.25a18.15,18.15,0,0,0,5.16-9c1.16-.42,2.23-2.15,2.56-4.37s-.22-4.48-1.33-5.18v-5.58c0-6.45-6.59-10.83-14.73-10.83s-14.71,4.38-14.71,10.83v5.58c-1.11.7-1.7,2.82-1.34,5.18a6,6,0,0,0,2.22,4.22,2.6,2.6,0,0,0,.34.16,18.41,18.41,0,0,0,4.7,8.54h0v5.49l-2.33.8a5.79,5.79,0,0,1-.27-.8h0l-3.06.93v-.64l-6.33,2v.59l-5.29,1.59-1.53.46v1h0v27.15H320v3.29h43.14v-3.29H369Z" transform="translate(-245.38 -244.69)"/><path class="cls-29" d="M350.38,331.34c-1.44,2.88-5.72,5-10.77,5-5.23,0-9.63-2.25-10.91-5.28l2.34-.8v-5.49a12.42,12.42,0,0,0,8.79,3.84,12.27,12.27,0,0,0,8.34-3.41v5.25Z" transform="translate(-245.38 -244.69)"/><path class="cls-30" d="M348.17,324.68v.51a12.27,12.27,0,0,1-8.34,3.41,12.42,12.42,0,0,1-8.79-3.84v-.08Z" transform="translate(-245.38 -244.69)"/><path class="cls-31" d="M327.15,316.3a1.65,1.65,0,0,1-1.15-.24,6,6,0,0,1-2.22-4.22c-.41-2.72.43-5.14,1.88-5.4a1.08,1.08,0,0,1,.4,0,.61.61,0,0,1,.23,0,2.07,2.07,0,0,1,.91.5A6.62,6.62,0,0,1,329,310.9C329.44,313.63,328.6,316,327.15,316.3Z" transform="translate(-245.38 -244.69)"/><path class="cls-31" d="M355.89,311.84c-.34,2.26-1.44,4-2.63,4.4a1.44,1.44,0,0,1-.74.06c-1.45-.26-2.29-2.67-1.88-5.4a6.9,6.9,0,0,1,1.7-3.81,2.52,2.52,0,0,1,.92-.59,1.48,1.48,0,0,1,.75-.06l.06,0C355.48,306.76,356.3,309.15,355.89,311.84Z" transform="translate(-245.38 -244.69)"/><path class="cls-32" d="M354,310.8a19.47,19.47,0,0,1-5.85,14.39,12.27,12.27,0,0,1-8.34,3.41,12.42,12.42,0,0,1-8.79-3.84,19.71,19.71,0,0,1-5.39-14C325.65,301,332,293,339.83,293S354,301,354,310.8Z" transform="translate(-245.38 -244.69)"/><path class="cls-33" d="M367,335.14v28.17H312.22V335.14l16.21-4.89a5.79,5.79,0,0,0,.27.8c1.28,3,5.68,5.28,10.91,5.28,5.05,0,9.33-2.11,10.77-5a5.5,5.5,0,0,0,.4-1.09Z" transform="translate(-245.38 -244.69)"/><rect class="cls-24" x="72.66" y="99.37" width="43.14" height="22.54"/><polygon class="cls-23" points="79.99 105.49 73.67 105.49 73.67 87.82 79.99 85.85 79.99 105.49"/><polygon class="cls-23" points="108.64 105.49 114.97 105.49 114.97 87.82 108.64 85.85 108.64 105.49"/><path class="cls-34" d="M324.27,347.11a2.06,2.06,0,1,1-2.06-2.06A2.06,2.06,0,0,1,324.27,347.11Z" transform="translate(-245.38 -244.69)"/><path class="cls-34" d="M359.24,347.11a2.06,2.06,0,1,1-2.06-2.06A2.06,2.06,0,0,1,359.24,347.11Z" transform="translate(-245.38 -244.69)"/><path class="cls-35" d="M348.17,325.19l-11,11h-25v-1l6.82-2.05v-.59l6.33-2v.64l3.06-.93a4.71,4.71,0,0,0,.27.8l2.33-.8v-5.49a12.44,12.44,0,0,0,8.8,3.84A12.27,12.27,0,0,0,348.17,325.19Z" transform="translate(-245.38 -244.69)"/><path class="cls-23" d="M354.56,301.08V307c0-.27-.85-.51-2.32-.71l-.22,0-1.42,2.16s0,0,0,0c-.9,1.37-1,1.69-2.2,1.69h-.19c-.81-.43-4.25-.75-8.36-.75s-7.5.31-8.33.75h-.19c-1.21,0-1.31-.32-2.21-1.69,0,0,0,0,0,0l-1.44-2.16-.21,0c-1.47.2-2.32.44-2.32.71v-5.88c0-6.45,6.58-10.83,14.71-10.83S354.56,294.63,354.56,301.08Z" transform="translate(-245.38 -244.69)"/><path class="cls-36" d="M352.24,306.25l-.22,0-1.42,2.16s0,0,0,0c-.9,1.37-1,1.69-2.2,1.69h-.19c-.81-.43-4.25-.75-8.36-.75s-7.5.31-8.33.75h-.19c-1.21,0-1.31-.32-2.21-1.69,0,0,0,0,0,0l-1.44-2.16-.21,0a94.17,94.17,0,0,1,24.8,0Z" transform="translate(-245.38 -244.69)"/><rect class="cls-23" x="82.21" y="108.61" width="24.03" height="4.34"/><path class="cls-37" d="M347.73,348.57a4.53,4.53,0,0,1-4.36,1.61l-1.73,3.12h-4.19l2.87-5.18a4.56,4.56,0,0,1,4.58-6.91L342.6,344a.91.91,0,0,0,.14,1.28l2.15,1.73a.88.88,0,0,0,1.26-.13l2.29-2.83A4.52,4.52,0,0,1,347.73,348.57Z" transform="translate(-245.38 -244.69)"/><path class="cls-38" d="M342.07,350.23a.85.85,0,0,1-.1.4l-1.49,2.67H338.6l1.92-3.47a.84.84,0,0,1,1.13-.33A.81.81,0,0,1,342.07,350.23Z" transform="translate(-245.38 -244.69)"/><g class="cls-39"><path class="cls-40" d="M340.83,362.74A5.85,5.85,0,0,1,338.9,365a6.13,6.13,0,0,1-6.42-.1,5.83,5.83,0,0,1-2.63-3.86,6.15,6.15,0,0,1,0-2,6.25,6.25,0,0,0,3.08,2.84A11.27,11.27,0,0,0,340.83,362.74Z" transform="translate(-245.38 -244.69)"/></g><path class="cls-18" d="M302,366.78h-7.07l-1.5,1.5H282a4,4,0,0,0-2.39-2.39V354.5l1.5-1.5v-7.07a.46.46,0,0,0-.46-.46h-4.9a.46.46,0,0,0-.46.46V353l1.5,1.5h0v11.39a4,4,0,0,0-2.39,2.39H263l-1.5-1.5h-7.07a.45.45,0,0,0-.46.46v4.9a.45.45,0,0,0,.46.46h7.07l1.5-1.5h11.39a4,4,0,0,0,2.39,2.39v11.39h0l-1.5,1.5v7.07a.45.45,0,0,0,.46.46h4.9a.45.45,0,0,0,.46-.46v-7.07l-1.5-1.5V373.49A4,4,0,0,0,282,371.1h11.39l1.5,1.5H302a.45.45,0,0,0,.46-.46v-4.9A.45.45,0,0,0,302,366.78Z" transform="translate(-245.38 -244.69)"/><rect class="cls-11" x="15.67" y="121.59" width="30.37" height="2.82"/><polygon class="cls-41" points="14.16 120.09 14.16 123 14.16 125.91 15.67 124.41 15.67 123 15.67 121.59 14.16 120.09"/><path class="cls-27" d="M252,370.14a.45.45,0,0,0,.46.46h7.07v-5.82h-7.07a.45.45,0,0,0-.46.46Z" transform="translate(-245.38 -244.69)"/><polygon class="cls-41" points="47.54 120.09 47.54 123 47.54 125.91 46.04 124.41 46.04 123 46.04 121.59 47.54 120.09"/><path class="cls-27" d="M300,370.6h-7.07v-5.82H300a.45.45,0,0,1,.46.46v4.9A.45.45,0,0,1,300,370.6Z" transform="translate(-245.38 -244.69)"/><rect class="cls-11" x="29.44" y="107.81" width="2.82" height="30.37"/><polygon class="cls-41" points="33.77 106.31 30.85 106.31 27.94 106.31 29.44 107.81 30.85 107.81 32.26 107.81 33.77 106.31"/><path class="cls-27" d="M273.78,343.47a.46.46,0,0,0-.46.46V351h5.82v-7.07a.46.46,0,0,0-.46-.46Z" transform="translate(-245.38 -244.69)"/><polygon class="cls-41" points="33.77 139.69 30.85 139.69 27.94 139.69 29.44 138.19 30.85 138.19 32.26 138.19 33.77 139.69"/><path class="cls-27" d="M273.32,391.45v-7.07h5.82v7.07a.45.45,0,0,1-.46.46h-4.9A.45.45,0,0,1,273.32,391.45Z" transform="translate(-245.38 -244.69)"/><path class="cls-41" d="M280.3,367.69a4.07,4.07,0,1,1-4.07-4.07A4.07,4.07,0,0,1,280.3,367.69Z" transform="translate(-245.38 -244.69)"/><circle class="cls-42" cx="30.85" cy="123" r="3.01"/><circle class="cls-33" cx="30.85" cy="123" r="2.72"/><path class="cls-23" d="M278.5,367.69a2.27,2.27,0,1,1-2.27-2.27A2.26,2.26,0,0,1,278.5,367.69Z" transform="translate(-245.38 -244.69)"/><path class="cls-18" d="M295.26,313.81c-.89-.89-3.81-3.8-5.16-5.16s-2.76-1.36-5.34-3.35a13.18,13.18,0,0,1-2.63-2.7l-.32-.47,0-.06-.15-.26,3.65-3.65c3.25-3.25,6.15-3.29,8.61-4.42,2.06-1.53,2.74-5.78,1.51-7.11L293,290.89a5.69,5.69,0,0,1-4.47-2.48l2.36-4.39c-1.27-.21-3.31.46-5.07,3.34-1,2.72.14,5-3.1,8.23l-4.92,4.92-.67-.67h0l-13.19-13.18-1.1-1.63-1.93-1.09-.47.47-.46.46,1.09,1.93,1.62,1.1,13.86,13.86-6.66,6.65c-3.24,3.25-6.33,2.91-8.23,4.81a4.24,4.24,0,1,0,6,6c1.9-1.9,1.56-5,4.8-8.22l5.39-5.39.26.15.05,0c.15.09.31.2.48.32a12.93,12.93,0,0,1,2.69,2.63c2,2.58,2,4,3.36,5.34l5.16,5.16a3.84,3.84,0,0,0,5.43-5.43Zm-27.72,2.52-.57.51.24.73a1.18,1.18,0,0,1-.11.19l-.75.16-.16.75-.19.12-.73-.24-.52.57h-.22l-.51-.57-.74.24-.19-.12-.16-.75-.75-.16-.11-.19.24-.73-.57-.51v-.23l.57-.51-.24-.73.11-.19.75-.16.16-.75.19-.11.74.23.51-.57h.22l.52.57.73-.23.19.11.16.75.75.16a1.18,1.18,0,0,1,.11.19l-.24.73.57.51A.89.89,0,0,1,267.54,316.33Zm.1-1.33a3.39,3.39,0,0,1,.23,1.22A3.39,3.39,0,0,0,267.64,315Z" transform="translate(-245.38 -244.69)"/><rect class="cls-11" x="270.01" y="281.19" width="1.77" height="27.36" transform="translate(-374.54 33.22) rotate(-45)"/><path class="cls-27" d="M261.92,284.66l-1.1-1.63-1.93-1.09-.47.47-.46.46,1.09,1.93,1.62,1.1s2.26,1.61,2.56,1.31S261.92,284.66,261.92,284.66Z" transform="translate(-245.38 -244.69)"/><polygon class="cls-21" points="13.51 37.25 13.05 37.72 12.58 38.18 13.68 40.11 15.44 38.34 13.51 37.25"/><path class="cls-21" d="M293.26,311.81c-.89-.89-3.81-3.8-5.16-5.16s-2.76-1.36-5.34-3.35a11.4,11.4,0,0,1-3.43-4l-2,2-2,2a11.36,11.36,0,0,1,4,3.42c2,2.58,2,4,3.36,5.34l5.16,5.16a3.84,3.84,0,0,0,5.43-5.43Z" transform="translate(-245.38 -244.69)"/><path class="cls-23" d="M292.65,313.23c-.82-1.15-9.26-8.33-10.5-7.1h0c-1.24,1.24,6,9.68,7.1,10.5s2.28,0,2.82-.57S293.48,314.4,292.65,313.23Z" transform="translate(-245.38 -244.69)"/><path class="cls-27" d="M279.33,299.28l-.43-.44-1.83-.29-.63.63-1.33-1.34-1.25,1.25,1.33,1.33-.62.63.29,1.83.44.44h0a7.73,7.73,0,0,1,1.34.81l3.5-3.51A8.12,8.12,0,0,1,279.33,299.28Z" transform="translate(-245.38 -244.69)"/><path class="cls-11" d="M259.64,317.21a4.24,4.24,0,0,0,6,0c1.9-1.9,1.56-5,4.8-8.22l12.83-12.83c3.25-3.25,6.15-3.29,8.61-4.42,2.06-1.53,2.74-5.78,1.51-7.11L291,288.89a5.69,5.69,0,0,1-4.47-2.48l2.36-4.39c-1.27-.21-3.31.46-5.07,3.34-1,2.72.14,5-3.1,8.23l-12.83,12.82c-3.24,3.25-6.33,2.91-8.23,4.81A4.24,4.24,0,0,0,259.64,317.21Zm.72-5.28a3.23,3.23,0,1,1,0,4.57A3.24,3.24,0,0,1,260.36,311.93Z" transform="translate(-245.38 -244.69)"/><rect class="cls-27" x="265.56" y="300.05" width="20.03" height="2.48" rx="0.53" transform="translate(-377.7 38.42) rotate(-45)"/><path class="cls-21" d="M264.93,316.5a3.23,3.23,0,1,0-4.57,0A3.24,3.24,0,0,0,264.93,316.5Zm-5.19-2.17v-.23l.57-.51-.24-.73.11-.19.75-.16.16-.75.19-.11.74.23.51-.57h.22l.52.57.73-.23.19.11.16.75.75.16a1.18,1.18,0,0,1,.11.19l-.24.73.57.51a.89.89,0,0,1,0,.23l-.57.51.24.73a1.18,1.18,0,0,1-.11.19l-.75.16-.16.75-.19.12-.73-.24-.52.57h-.22l-.51-.57-.74.24-.19-.12-.16-.75-.75-.16-.11-.19.24-.73Z" transform="translate(-245.38 -244.69)"/><path class="cls-18" d="M342.28,248.24a17.48,17.48,0,0,0-13.57,6.44H314.34a1.39,1.39,0,0,0-1.39,1.39v9.81a1.39,1.39,0,0,0,1.39,1.39h5.2a1.31,1.31,0,0,0-.77.25,1.34,1.34,0,0,0-.54.77l0,.09v0a1.07,1.07,0,0,0,0,.25h0v9.82a1.38,1.38,0,0,0,1.39,1.38h12.38a17.5,17.5,0,1,0,10.34-31.61Zm5.73,13v-.52h0V260h0v-2.81a10.54,10.54,0,0,1,3.24,3.5l-3.24.8v-.24Zm4.58,4.51a10,10,0,0,1-.15,1.66,1.31,1.31,0,0,0-.59-.14h-5.23a1.4,1.4,0,0,0,1.29-.87l4.6-1.85A9.67,9.67,0,0,1,352.59,265.75Zm-.36-2.66L348,264.45v-1.16l3.88-1.25A10.68,10.68,0,0,1,352.23,263.09Z" transform="translate(-245.38 -244.69)"/><rect class="cls-21" x="70.8" y="20.58" width="35.06" height="12.59" rx="1.39"/><path class="cls-43" d="M316.21,266.79h.57l1.67,3.16h-2.28v-3A.58.58,0,0,1,316.21,266.79Z" transform="translate(-245.38 -244.69)"/><polygon class="cls-43" points="75.73 22.1 77.4 25.26 74.07 25.26 72.41 22.1 75.73 22.1"/><polygon class="cls-43" points="80.06 22.1 81.72 25.26 78.39 25.26 76.73 22.1 80.06 22.1"/><polygon class="cls-43" points="84.38 22.1 86.04 25.26 82.72 25.26 81.06 22.1 84.38 22.1"/><polygon class="cls-43" points="88.7 22.1 90.36 25.26 87.04 25.26 85.38 22.1 88.7 22.1"/><polygon class="cls-43" points="93.03 22.1 94.69 25.26 91.36 25.26 89.7 22.1 93.03 22.1"/><polygon class="cls-43" points="97.35 22.1 99.01 25.26 95.69 25.26 94.02 22.1 97.35 22.1"/><polygon class="cls-43" points="101.67 22.1 103.33 25.26 100.01 25.26 98.35 22.1 101.67 22.1"/><path class="cls-43" d="M348.05,266.79h3.15a.57.57,0,0,1,0,.18v3h-1.52Z" transform="translate(-245.38 -244.69)"/><rect class="cls-43" x="70.8" y="25.88" width="35.06" height="0.73"/><polygon class="cls-43" points="70.8 28.48 73.07 28.48 71.41 31.64 70.8 31.64 70.8 28.48"/><polygon class="cls-43" points="75.73 31.64 77.4 28.48 74.07 28.49 72.41 31.64 75.73 31.64"/><polygon class="cls-43" points="80.06 31.64 81.72 28.48 78.39 28.48 76.73 31.64 80.06 31.64"/><polygon class="cls-43" points="84.38 31.64 86.04 28.48 82.72 28.48 81.06 31.64 84.38 31.64"/><polygon class="cls-43" points="88.7 31.64 90.36 28.48 87.04 28.48 85.38 31.64 88.7 31.64"/><polygon class="cls-43" points="93.03 31.64 94.69 28.48 91.36 28.48 89.7 31.64 93.03 31.64"/><polygon class="cls-43" points="97.35 31.64 99.01 28.48 95.69 28.48 94.02 31.64 97.35 31.64"/><polygon class="cls-43" points="101.67 31.64 103.33 28.48 100.01 28.48 98.35 31.64 101.67 31.64"/><polygon class="cls-43" points="105.85 31.64 102.67 31.64 104.33 28.48 105.85 28.48 105.85 31.64"/><rect class="cls-21" x="70.8" y="27.13" width="35.06" height="0.73"/><path class="cls-21" d="M67,8H99.25a1.39,1.39,0,0,1,1.39,1.39v9.81a1.39,1.39,0,0,1-1.39,1.39H67a1.38,1.38,0,0,1-1.38-1.38V9.38A1.39,1.39,0,0,1,67,8Z"/><path class="cls-43" d="M311,254.21h.58l1.67,3.15H311v-3A.52.52,0,0,1,311,254.21Z" transform="translate(-245.38 -244.69)"/><polygon class="cls-43" points="70.51 9.52 72.17 12.67 68.85 12.67 67.19 9.52 70.51 9.52"/><polygon class="cls-43" points="74.83 9.52 76.5 12.67 73.17 12.67 71.51 9.52 74.83 9.52"/><polygon class="cls-43" points="79.16 9.52 80.82 12.67 77.5 12.67 75.83 9.52 79.16 9.52"/><polygon class="cls-43" points="83.48 9.52 85.14 12.67 81.82 12.67 80.16 9.52 83.48 9.52"/><polygon class="cls-43" points="87.8 9.52 89.46 12.67 86.14 12.67 84.48 9.52 87.8 9.52"/><polygon class="cls-43" points="92.13 9.52 93.79 12.67 90.46 12.67 88.8 9.52 92.13 9.52"/><polygon class="cls-43" points="96.45 9.52 98.11 12.67 94.79 12.67 93.13 9.52 96.45 9.52"/><path class="cls-43" d="M342.83,254.21H346a.52.52,0,0,1,0,.18v3h-1.52Z" transform="translate(-245.38 -244.69)"/><rect class="cls-43" x="65.57" y="13.3" width="35.06" height="0.73"/><polygon class="cls-43" points="65.57 15.9 67.85 15.9 66.19 19.06 65.57 19.06 65.57 15.9"/><polygon class="cls-43" points="70.51 19.06 72.17 15.9 68.85 15.9 67.19 19.06 70.51 19.06"/><polygon class="cls-43" points="74.83 19.06 76.5 15.9 73.17 15.9 71.51 19.06 74.83 19.06"/><polygon class="cls-43" points="79.16 19.06 80.82 15.9 77.5 15.9 75.83 19.06 79.16 19.06"/><polygon class="cls-43" points="83.48 19.06 85.14 15.9 81.82 15.9 80.16 19.06 83.48 19.06"/><polygon class="cls-43" points="87.8 19.06 89.46 15.9 86.14 15.9 84.48 19.06 87.8 19.06"/><polygon class="cls-43" points="92.13 19.06 93.79 15.9 90.46 15.9 88.8 19.06 92.13 19.06"/><polygon class="cls-43" points="96.45 19.06 98.11 15.9 94.79 15.9 93.13 19.06 96.45 19.06"/><polygon class="cls-43" points="100.63 19.06 97.45 19.06 99.11 15.9 100.63 15.9 100.63 19.06"/><rect class="cls-43" x="65.57" y="14.55" width="35.06" height="0.73"/><path class="cls-44" d="M344.62,265.27l-15,1.52-3,.31-1,.1-3.16.32-.94.09-3.16.32-.95.1-1.27.13v-1.51a1.39,1.39,0,0,1,1.39-1.38Z" transform="translate(-245.38 -244.69)"/><path class="cls-19" d="M353.05,261.62a7.66,7.66,0,0,0-.31-1.34,5.5,5.5,0,0,0-.34-1,10,10,0,0,0-.54-1.26,13,13,0,0,0-9.62-7,12.48,12.48,0,0,0-1.36-.12,3.26,3.26,0,0,0-.54,0,3.57,3.57,0,0,0-.58,0,9.82,9.82,0,0,0-1.34.11,12.87,12.87,0,0,0-9.67,7,7.77,7.77,0,0,0-.57,1.25c-.12.34-.25.69-.35,1a9.53,9.53,0,0,0-.3,1.33,12.11,12.11,0,0,0-.2,2.18,12.87,12.87,0,0,0,3.83,9.22l0,0,.93.86.05,0a9.13,9.13,0,0,0,.86.64l1.19.72a12.85,12.85,0,0,0,6,1.5,12.6,12.6,0,0,0,6-1.46,8.29,8.29,0,0,0,1.19-.68c.31-.21.6-.42.9-.64l1-.91a13,13,0,0,0,3.92-9.2A13.21,13.21,0,0,0,353.05,261.62Zm-12.77,12.45a10.32,10.32,0,1,1,10.31-10.32A10.31,10.31,0,0,1,340.28,274.07Z" transform="translate(-245.38 -244.69)"/><path class="cls-5" d="M353.11,261.61a8,8,0,0,0-.3-1.35,6.43,6.43,0,0,0-.34-1.05,11.65,11.65,0,0,0-.54-1.26,13.07,13.07,0,0,0-9.68-7.07,12.71,12.71,0,0,0-1.36-.12,3.38,3.38,0,0,0-.55,0,3.69,3.69,0,0,0-.58,0,8.68,8.68,0,0,0-1.35.11,13,13,0,0,0-9.72,7,9.7,9.7,0,0,0-.58,1.27c-.11.34-.24.69-.34,1a9.67,9.67,0,0,0-.3,1.34,11.37,11.37,0,0,0-.21,2.19,12.92,12.92,0,0,0,3.85,9.26l.05.05.93.86,0,0a10.2,10.2,0,0,0,.87.64l1.21.72a12.89,12.89,0,0,0,12,.06,8.37,8.37,0,0,0,1.2-.7c.32-.2.61-.42.9-.64l1-.92a13,13,0,0,0,3.94-9.25A13.21,13.21,0,0,0,353.11,261.61Zm-1.64-2a7.92,7.92,0,0,1,.31.94v0l-7.31,2.33a3.84,3.84,0,0,0-.34-1l7.3-2.35A.32.32,0,0,0,351.47,259.63Zm-.58-1.36-8.1,2-.55-8.28A12,12,0,0,1,350.89,258.27Zm-10.6,4.3a1.18,1.18,0,1,1-1.18,1.16A1.16,1.16,0,0,1,340.29,262.57Zm-.53-10.73.12,0h.53a2.66,2.66,0,0,1,.44,0h0l0,7.66-.57,0a5.12,5.12,0,0,0-.56,0Zm-1.36.12-.6,8.29h0l-8.06-2.06A11.94,11.94,0,0,1,338.4,252Zm-9.59,8.5c.08-.32.2-.64.31-1,0,0,0,0,0,0l7.29,2.4a4.37,4.37,0,0,0-.37,1.05l-7.28-2.41Zm2.93,11.62a11.87,11.87,0,0,1-3.4-8.38,13.08,13.08,0,0,1,.16-1.85l.08,0,7.6,3.12Zm1.91,1.58,0,0a7,7,0,0,1-.79-.58l-.05,0,4.52-6.19a3.9,3.9,0,0,0,.9.67Zm6.59,2a11.73,11.73,0,0,1-5.39-1.32l5.37-6.33,5.39,6.38A11.67,11.67,0,0,1,340.24,275.69Zm7.45-2.58c-.28.2-.54.41-.85.61,0,0,0,0,0,0l-4.5-6.23a4,4,0,0,0,.91-.66l4.47,6.23S347.7,273.1,347.69,273.11Zm1-.95L344.38,265l7.69-3.08a11.9,11.9,0,0,1-3.34,10.23Z" transform="translate(-245.38 -244.69)"/><path class="cls-45" d="M340.9,260.67a.62.62,0,1,1-.62-.63A.62.62,0,0,1,340.9,260.67Z" transform="translate(-245.38 -244.69)"/><path class="cls-45" d="M338.05,262.77a.63.63,0,1,1-.63-.62A.63.63,0,0,1,338.05,262.77Z" transform="translate(-245.38 -244.69)"/><path class="cls-45" d="M339.13,266.15a.63.63,0,1,1-.63-.63A.63.63,0,0,1,339.13,266.15Z" transform="translate(-245.38 -244.69)"/><path class="cls-45" d="M342.69,266.15a.63.63,0,1,1-.62-.63A.62.62,0,0,1,342.69,266.15Z" transform="translate(-245.38 -244.69)"/><path class="cls-45" d="M343.78,262.77a.63.63,0,1,1-.62-.62A.63.63,0,0,1,343.78,262.77Z" transform="translate(-245.38 -244.69)"/><path class="cls-45" d="M340.28,262a1.73,1.73,0,1,0,1.73,1.73A1.74,1.74,0,0,0,340.28,262Zm0,2.9a1.18,1.18,0,0,1-1.17-1.19,1.16,1.16,0,0,1,1.18-1.16,1.18,1.18,0,0,1,0,2.35Z" transform="translate(-245.38 -244.69)"/><path class="cls-21" d="M340.28,246.24a17.51,17.51,0,1,0,17.5,17.51A17.51,17.51,0,0,0,340.28,246.24Zm9,26.76-1,.91c-.28.22-.58.44-.89.64a8.36,8.36,0,0,1-1.19.69,12.71,12.71,0,0,1-6,1.46,12.86,12.86,0,0,1-6-1.51l-1.19-.72a7.47,7.47,0,0,1-.87-.64l0,0-.93-.85,0,0a12.85,12.85,0,0,1-3.84-9.21,13,13,0,0,1,.21-2.18,9.67,9.67,0,0,1,.3-1.34c.09-.35.23-.7.34-1a7.54,7.54,0,0,1,.58-1.26,12.92,12.92,0,0,1,9.67-7,11.72,11.72,0,0,1,1.34-.11,5.22,5.22,0,0,1,.58,0l.54,0a10.43,10.43,0,0,1,1.36.13,13,13,0,0,1,9.62,7,12.78,12.78,0,0,1,.55,1.25,7.84,7.84,0,0,1,.33,1,8.07,8.07,0,0,1,.3,1.34,13.21,13.21,0,0,1,.19,2.19A12.91,12.91,0,0,1,349.31,273Z" transform="translate(-245.38 -244.69)"/><path class="cls-44" d="M329.91,277.85h-5.49a17.45,17.45,0,0,1-5.12-12.37v-.21a17.48,17.48,0,0,1,5.56-12.59h1.86a17.44,17.44,0,0,0-4,11.07c0,.51,0,1,.07,1.52A17.5,17.5,0,0,0,329.91,277.85Z" transform="translate(-245.38 -244.69)"/><g class="cls-46"><path class="cls-47" d="M397.22,406l.59-.1-.05-.3-.26-1.56-.6.1c-.07-.26-.15-.52-.24-.77s-.19-.5-.3-.74l.53-.3-.56-1-.38-.66-.52.3a10.43,10.43,0,0,0-1-1.24l.39-.46-1.44-1.22-.39.46c-.25-.17-.51-.34-.77-.49l-.62-.32.21-.56-1.76-.66-.21.57a10.6,10.6,0,0,0-1.59-.29v-.6h-1.89v.6a11,11,0,0,0-1.59.27l-.2-.56-1.78.64.21.56a9.59,9.59,0,0,0-1.4.8l-.38-.47-1.45,1.2.39.47a8.68,8.68,0,0,0-1,1.23l-.53-.31-.95,1.63.52.31a8.68,8.68,0,0,0-.55,1.5l-.6-.11-.34,1.86.6.1a9.62,9.62,0,0,0,0,1.61l-.59.11.31,1.86.6-.11c.07.26.15.52.24.77s.19.5.3.74l-.52.31.85,1.48.08.15.53-.29a9.25,9.25,0,0,0,1,1.23l-.39.46,1.44,1.22.39-.46a9.68,9.68,0,0,0,1.39.81l-.21.57,1.77.65.21-.57a9.17,9.17,0,0,0,1.58.29v.6l1.88,0v-.61a11,11,0,0,0,1.59-.27l.2.57,1.78-.63-.21-.58a8.7,8.7,0,0,0,1.4-.79l.39.46,1.44-1.2-.38-.47a8.36,8.36,0,0,0,.91-1.05,10.22,10.22,0,0,0-2.25-1.21,6.77,6.77,0,0,1-.52.56l-.57.51a6.42,6.42,0,0,1-.54.39,4.92,4.92,0,0,1-.7.41,7.39,7.39,0,0,1-3.43.83h0a7.2,7.2,0,0,1-3.47-.87l-.68-.4a5.93,5.93,0,0,1-.5-.37h0l-.07-.05-.5-.46-.05,0a7.47,7.47,0,0,1-2.21-5.35,6.44,6.44,0,0,1,.12-1.27,7.08,7.08,0,0,1,.17-.77l.13-.41.06-.17a5,5,0,0,1,.35-.76,7.48,7.48,0,0,1,5.6-4,7.1,7.1,0,0,1,.77-.07h.67c.27,0,.53,0,.77.07a7.54,7.54,0,0,1,5.59,4.08,7.24,7.24,0,0,1,.32.73,3.13,3.13,0,0,1,.19.62,3.66,3.66,0,0,1,.18.78,6.85,6.85,0,0,1,.1,1.24,7.25,7.25,0,0,1-.94,3.61,13.68,13.68,0,0,1,2.69,1.49l.35-.6-.52-.3a8.78,8.78,0,0,0,.55-1.51l.6.11.33-1.85-.58-.11A9.62,9.62,0,0,0,397.22,406Z" transform="translate(-245.38 -244.69)"/><path class="cls-47" d="M392.44,408.67a.06.06,0,0,1,0,0l-.09.21a5.58,5.58,0,0,1-.35.69c-.11.18-.22.35-.34.51l0,0a2.7,2.7,0,0,1,.65-.07,4,4,0,0,1,1.07.15,7,7,0,0,0,.93-3.45,7.74,7.74,0,0,0-.1-1.19,3.85,3.85,0,0,0-.17-.73,3.65,3.65,0,0,0-.18-.56c-.08-.23-.19-.46-.29-.68a7.08,7.08,0,0,0-5.23-3.83,6.32,6.32,0,0,0-.74-.06l-.3,0a3,3,0,0,0-.31,0,5.83,5.83,0,0,0-.73.06,7,7,0,0,0-5.25,3.78,4.32,4.32,0,0,0-.32.69c-.06.17-.13.37-.19.56a4.18,4.18,0,0,0-.15.72,6.65,6.65,0,0,0-.12,1.18,7.07,7.07,0,0,0,2.08,5l0,0,.51.47h0a4.1,4.1,0,0,0,.47.35l.65.39a6.82,6.82,0,0,0,3.26.82,7,7,0,0,0,3.25-.79,5.07,5.07,0,0,0,.64-.37c.17-.11.33-.24.49-.36l.55-.49c.12-.11.22-.22.33-.34h-.21a1.32,1.32,0,0,0-1.07.52l-.07.08a.73.73,0,0,1-.49.19.71.71,0,0,1-.71-.72.44.44,0,0,1,0-.16v-.11l.11-.13.14-.15a3,3,0,0,1,1-.67l-1.73-2.84,3.29-1.33a4.82,4.82,0,0,1,0,.65v0A5.57,5.57,0,0,1,392.44,408.67Zm-4-.85a.32.32,0,0,1,.09.24.34.34,0,0,1-.33.34.33.33,0,0,1-.24-.1.26.26,0,0,1-.07-.11.31.31,0,0,1,0-.13.36.36,0,0,1,0-.1h0s0,0,0,0l0,0h0a.1.1,0,0,1,0-.05l0,0a.34.34,0,0,1,.46,0Zm0-1.58a.33.33,0,0,1,.1-.24.23.23,0,0,1,.1-.07l.06,0h.07a.32.32,0,0,1,.14,0h0a.09.09,0,0,1,.05,0h0l0,0a.3.3,0,0,1,.1.24.34.34,0,0,1-.67,0ZM386.92,405a.06.06,0,0,1,0,0l.05-.07v0a.34.34,0,0,1,.24-.09.36.36,0,0,1,.24.09.05.05,0,0,1,0,0h0v0h0l0,.05h0v0h0a0,0,0,0,1,0,0h0v.05a.3.3,0,0,1,0,.13l0,0h0l0,0a.33.33,0,0,1-.24.1.34.34,0,0,1-.27-.13l0,0,0,0a.31.31,0,0,0,0-.08s0,0,0-.06A.24.24,0,0,1,386.92,405Zm-.58,1.52a.31.31,0,0,1,0-.08s0-.07.05-.1a.94.94,0,0,1,1.76.44.91.91,0,0,1-.28.66.81.81,0,0,1-.3.21,1,1,0,0,1-.72,0,1,1,0,0,1-.3-.21.83.83,0,0,1-.16-.21s0-.07-.05-.1a.31.31,0,0,1,0-.08.8.8,0,0,1,0-.27A.78.78,0,0,1,386.34,406.5Zm-.11,1.22h.14l.05,0a.12.12,0,0,1,.07.05l0,0a.31.31,0,0,1,.08.15.22.22,0,0,1,0,.08.17.17,0,0,1,0,.07.14.14,0,0,1,0,.06l0,.06,0,0-.05,0,0,0h0a.28.28,0,0,1-.13,0,.34.34,0,0,1-.34-.34.06.06,0,0,1,0,0A.33.33,0,0,1,386.23,407.72Zm-.54-1.15h-.1l-.06,0-.06,0a.38.38,0,0,1-.09-.12h0a.31.31,0,0,1,0-.13.32.32,0,0,1,0-.14l0-.05h0v0l0,0a.31.31,0,0,1,.09-.07h0l.12,0a.31.31,0,0,1,.13,0h0l0,0h0l0,0a.3.3,0,0,1,.1.24A.33.33,0,0,1,385.69,406.57ZM383,403.19l0,0a5.49,5.49,0,0,1,1.38-1.15l.07-.05,0,0a5.3,5.3,0,0,1,.59-.27,2.36,2.36,0,0,1,.28-.12l.3-.1.49-.12-.26,3.55h0l-3.47-.88A5.48,5.48,0,0,1,383,403.19Zm.13,7.29-.13-.16,0,0a5.24,5.24,0,0,1-.93-1.63l0-.05a5.17,5.17,0,0,1-.19-.64,5,5,0,0,1-.11-.76,3.54,3.54,0,0,1,0-.46v0h0a.49.49,0,0,1,0-.12,4.07,4.07,0,0,1,0-.5l3.3,1.35Zm6.4,1.34a2.9,2.9,0,0,1-.41.16,6.17,6.17,0,0,1-.91.25h0a4.94,4.94,0,0,1-1.43.06l-.46-.06h0a2.27,2.27,0,0,1-.25-.06,3.78,3.78,0,0,1-.6-.17,3.9,3.9,0,0,1-.47-.2l2.3-2.71Zm-.92-6.94-.24-3.56A5.77,5.77,0,0,1,390,402l0,0a4.84,4.84,0,0,1,.82.58,7.27,7.27,0,0,1,.55.56l.07.08,0,0c.1.12.19.24.28.37a3.52,3.52,0,0,1,.27.43Z" transform="translate(-245.38 -244.69)"/><path class="cls-47" d="M387.23,405.83a.94.94,0,0,0-.82.49s0,.07-.05.1a.31.31,0,0,0,0,.08.78.78,0,0,0,0,.26.8.8,0,0,0,0,.27.31.31,0,0,0,0,.08s0,.07.05.1a.83.83,0,0,0,.16.21,1,1,0,0,0,.3.21,1,1,0,0,0,.72,0,.81.81,0,0,0,.3-.21.91.91,0,0,0,.28-.66A.94.94,0,0,0,387.23,405.83Zm0,1.56a.64.64,0,0,1,0-1.27.64.64,0,1,1,0,1.27Z" transform="translate(-245.38 -244.69)"/><path class="cls-47" d="M399.58,396.11a3.06,3.06,0,0,0-1.24,5.86v1.47h2.49V402a3.06,3.06,0,0,0-1.25-5.86Zm1,5.39a2.53,2.53,0,0,1-2,0,2.53,2.53,0,1,1,2,0Z" transform="translate(-245.38 -244.69)"/><path class="cls-47" d="M399.58,397.53a3.12,3.12,0,0,1,.82.1l-.51.7h-.31a2.42,2.42,0,0,0-1.73.72l-.56-.56A3.23,3.23,0,0,1,399.58,397.53Z" transform="translate(-245.38 -244.69)"/><path class="cls-47" d="M401.88,398.48l-.56.56a1.54,1.54,0,0,0-.19-.17,1,1,0,0,0-.2-.15,1.13,1.13,0,0,0-.21-.12l0,0-.08,0v-.85l.14.06h0l.16.06.15.08.15.07A3.76,3.76,0,0,1,401.88,398.48Z" transform="translate(-245.38 -244.69)"/><path class="cls-47" d="M399.9,400.44a.38.38,0,0,1-.49.23.4.4,0,0,1-.23-.5.16.16,0,0,1,0-.07l1.19-2.12-.49,2.38A.24.24,0,0,1,399.9,400.44Z" transform="translate(-245.38 -244.69)"/><path class="cls-47" d="M400.38,414.39c-2.92.82-7.22-5.45-9.55-2.74l0,0a.24.24,0,0,1-.41-.17.29.29,0,0,1,0-.09h0l.12-.11c2.19-2.2,5.57,1.14,7.6,2.14.91.45,2.17.93,2.94-.05,1.16-1.49,0-2.79-1-3.85-1.64-1.72-1-3.68-.83-5.85h.58c-.11,1.28-.58,2.76-.25,4,.4,1.4,1.58,2.08,2.21,3.32A2.34,2.34,0,0,1,400.38,414.39Z" transform="translate(-245.38 -244.69)"/></g><g class="cls-46"><path class="cls-47" d="M288.05,258.42a2.7,2.7,0,0,1-.22-.33,5.18,5.18,0,0,1-.33-.62v2.42a.36.36,0,0,1-.36.37h-6.89a.37.37,0,0,1-.36-.37v-.6h-.36a.32.32,0,0,1-.33-.33.33.33,0,0,1,.33-.33h.36v-1.94h-.36a.33.33,0,1,1,0-.66h.36v-.67a.36.36,0,0,1,.36-.36h6.65c0-.18,0-.36,0-.54a.86.86,0,0,1,0-.16c0-.1,0-.21,0-.31a6.26,6.26,0,0,1,.09-.81s0-.08,0-.13h-8.92v16.32H288.8V259.24A4.57,4.57,0,0,1,288.05,258.42Zm-.55,8.68a.35.35,0,0,1-.36.36h-6.89a.36.36,0,0,1-.36-.36v-.6h-.36a.33.33,0,0,1,0-.66h.36v-1.95h-.36a.33.33,0,0,1,0-.66h.36v-.67a.36.36,0,0,1,.36-.36h6.89a.35.35,0,0,1,.36.36Z" transform="translate(-245.38 -244.69)"/><path class="cls-47" d="M295.4,262.66v6.71h-6.09V259.6l0,0a2.83,2.83,0,0,0,.57.25v1.59a1.29,1.29,0,0,0,.85,1.21l.09,0h0a1,1,0,0,0,.35.05h3.18a1.15,1.15,0,0,0,.33,0h.07A4.18,4.18,0,0,0,295.4,262.66Z" transform="translate(-245.38 -244.69)"/><path class="cls-47" d="M300.16,254.27a10.17,10.17,0,0,1-1.52,5.53,5,5,0,0,1-.32.44,5.25,5.25,0,0,1-.62.7,4.43,4.43,0,0,1-.59.48,3.74,3.74,0,0,1-.42.27,3.41,3.41,0,0,1-.33.17,3.81,3.81,0,0,1-.87.27.35.35,0,0,0,.05-.08,1.31,1.31,0,0,0,.14-.59v-1.59a2.11,2.11,0,0,0,.33-.18l.2-.14.1-.08.15-.13.22-.23a1.47,1.47,0,0,1,.1-.13l.11-.13.1-.15.11-.15.09-.16.1-.17a7.7,7.7,0,0,0,.56-1.33c0-.08,0-.17.07-.26l.06-.23c0-.12,0-.24.07-.35a2.84,2.84,0,0,0,.06-.31,2.91,2.91,0,0,0,0-.31c0-.13,0-.26,0-.39l0-.41c0-.12,0-.24,0-.36,0-2.83-1.24-5-2.55-5.6v-1.54a1.32,1.32,0,0,0-.21-.72C298.11,246.9,300.16,250.23,300.16,254.27Z" transform="translate(-245.38 -244.69)"/><path class="cls-47" d="M295.17,247.13v1.41h-.31v-1.41a.47.47,0,0,0-.47-.47h-3.18a.48.48,0,0,0-.47.47v1.41h-.31v-1.41a.77.77,0,0,1,.73-.78h3.37A.78.78,0,0,1,295.17,247.13Z" transform="translate(-245.38 -244.69)"/><path class="cls-47" d="M295.17,260v1.45a.78.78,0,0,1-.08.35.77.77,0,0,1-.43.38h0a.66.66,0,0,1-.27.06h-3.18a.58.58,0,0,1-.26-.06h0a.76.76,0,0,1-.51-.73V260h.31v1.45a.48.48,0,0,0,.47.47h3.18a.47.47,0,0,0,.47-.47V260h.31Z" transform="translate(-245.38 -244.69)"/><polygon class="cls-47" points="33.97 7.85 34.42 7.67 34.42 7.85 33.97 7.85"/><path class="cls-47" d="M287.47,251.54a1,1,0,0,0-.07.15c0,.1-.08.2-.11.29s-.12.37-.17.56h-3v-.2h2.79v-.8Z" transform="translate(-245.38 -244.69)"/><path class="cls-47" d="M281.18,246.18v2.59a1.08,1.08,0,0,1,.28.46,1.1,1.1,0,0,1-.12.92l.28.88h.66l.2-.63h-.64v-3.58h6.22v3.58h-3.83a1.67,1.67,0,0,1-.28.18l-.19.6h.34v.66h2.28V251h1.33a3.21,3.21,0,0,1,.19-.31,1,1,0,0,1,.09-.13l.1-.14a4.12,4.12,0,0,1,.62-.69v-3.58Z" transform="translate(-245.38 -244.69)"/><rect class="cls-47" x="36.92" y="2.6" width="2.89" height="0.7"/><path class="cls-47" d="M284.87,248.33v.34h-.7a1.35,1.35,0,0,0-.34-.17,1,1,0,0,0-.33-.05,1.14,1.14,0,0,0-.67.22h-.54v-.34Z" transform="translate(-245.38 -244.69)"/><rect class="cls-47" x="39.87" y="3.64" width="1.58" height="0.34"/><path class="cls-47" d="M282.29,249h.28a.92.92,0,0,0-.14.28s0,0,0,0h-.13Z" transform="translate(-245.38 -244.69)"/><path class="cls-47" d="M285.8,249v.33h-1.22a1,1,0,0,0-.15-.33Z" transform="translate(-245.38 -244.69)"/><path class="cls-47" d="M282.39,249.59a1,1,0,0,0,.06.34h-.16v-.34Z" transform="translate(-245.38 -244.69)"/><path class="cls-47" d="M285.19,249.59v.34h-.64a.08.08,0,0,0,0,0,1,1,0,0,0,.05-.3Z" transform="translate(-245.38 -244.69)"/><path class="cls-47" d="M293.39,249.42a2.52,2.52,0,0,0-1.3.38,3.65,3.65,0,0,0-1.06,1,6.85,6.85,0,0,0,0,7.29,3.78,3.78,0,0,0,1.06,1,2.51,2.51,0,0,0,1.3.37c1.88,0,3.41-2.26,3.41-5S295.27,249.42,293.39,249.42Zm.16,8.39a1.28,1.28,0,0,1-.84-.37l.83-1.78.84,1.79A1.22,1.22,0,0,1,293.55,257.81Zm-1.82-3.88h0l1.18.87-.69,2a4.9,4.9,0,0,1-.52-2.34C291.71,254.27,291.72,254.1,291.73,253.93Zm1.53-2.77-.09,2.32h0l-1.25-.57A2.36,2.36,0,0,1,293.26,251.16Zm.29,3c.11,0,.19.15.19.33s-.08.33-.19.33-.18-.15-.18-.33S293.45,254.13,293.55,254.13Zm.31-3a2.42,2.42,0,0,1,1.34,1.77l-1.26.56Zm.33,3.66,1.19-.87a4.52,4.52,0,0,1,0,.52,4.91,4.91,0,0,1-.54,2.35Z" transform="translate(-245.38 -244.69)"/><path class="cls-47" d="M291.74,259.5h-.94a2.42,2.42,0,0,1-1.2-.32,3,3,0,0,1-.43-.29,4,4,0,0,1-.71-.76l-.2-.31a5.54,5.54,0,0,1-.47-1,2.47,2.47,0,0,1-.1-.29,6.55,6.55,0,0,1-.21-.9c0-.1,0-.19,0-.29a8.14,8.14,0,0,1-.05-.87v-.14c0-.09,0-.19,0-.29a6.31,6.31,0,0,1,.08-.76,2.93,2.93,0,0,1,.05-.29,6.7,6.7,0,0,1,.23-.83l.1-.27a4.57,4.57,0,0,1,.46-.88,2,2,0,0,1,.16-.24,3.49,3.49,0,0,1,1-.94l.26-.14a2.28,2.28,0,0,1,1-.26h1a4,4,0,0,0-1.12,1.1,7.32,7.32,0,0,0,0,7.88A4,4,0,0,0,291.74,259.5Z" transform="translate(-245.38 -244.69)"/><path class="cls-47" d="M283.92,255.76v3.78h3v-3.78Zm.9,3.43h-.6v-.49h.6Zm0-.74h-.6V258h.6Zm0-.74h-.6v-.49h.6Zm.91,1.48h-.59v-.49h.59Zm0-.74h-.59V258h.59Zm0-.74h-.59v-.49h.59Zm.91,1.48h-.59v-.49h.59Zm0-.74h-.59V258h.59Zm0-.74h-.59v-.49h.59Zm0-.84h-2.42v-.8h2.42Z" transform="translate(-245.38 -244.69)"/><path class="cls-47" d="M300,261.18a1,1,0,0,0,.13-.47.87.87,0,0,0-.48-.8,1.52,1.52,0,0,0-.38-.11l-.18.28a.21.21,0,0,1,0,.06,1.13,1.13,0,0,1,.43.1.47.47,0,0,1,.29.47.56.56,0,0,1-.11.32,1.26,1.26,0,0,0-1.25.27c-.24.22-.3.42-.18.57s.86.08,1.08,0a2.26,2.26,0,0,0,.47-.36h0a.7.7,0,0,1,.39.78,1.08,1.08,0,0,1-.78.75h0a1.28,1.28,0,0,0-1-.52.57.57,0,0,0-.44.39.41.41,0,0,0,.1.39,1.47,1.47,0,0,0,1.23.17.5.5,0,0,1,0,.39,1,1,0,0,1-.85.6c-.1-.28-.29-.6-.56-.64a.41.41,0,0,0-.42.18.4.4,0,0,0,0,.45.89.89,0,0,0,.73.37.92.92,0,0,1-.22.79.84.84,0,0,1-.62.23,1.44,1.44,0,0,0-.3-.66.54.54,0,0,0-.8-.16.45.45,0,0,0-.15.46,1.1,1.1,0,0,0,.8.65l.11,0a.64.64,0,0,1-.21.49,1,1,0,0,1-.81.22v.37h.18a1.34,1.34,0,0,0,.87-.33,1,1,0,0,0,.33-.72,1.18,1.18,0,0,0,.85-.33,1.22,1.22,0,0,0,.33-1.05,1.33,1.33,0,0,0,1.12-.82.82.82,0,0,0,0-.63,1.47,1.47,0,0,0,.95-1A1.07,1.07,0,0,0,300,261.18Zm-.86.33a1.34,1.34,0,0,1-.56.13.59.59,0,0,1,.08-.08.83.83,0,0,1,.72-.21A1.67,1.67,0,0,1,299.11,261.51Zm-.88,1.47a.22.22,0,0,1,.15-.15h0a.89.89,0,0,1,.54.28A1,1,0,0,1,298.23,263Zm-.54,1.26a.06.06,0,0,1,0-.06s0-.05.06-.05h0c.05,0,.14.1.22.27A.55.55,0,0,1,297.69,264.24Zm-1.31,1.11s0-.05,0-.1l.08,0c.06,0,.12,0,.2.13a1.11,1.11,0,0,1,.18.36A.72.72,0,0,1,296.38,265.35Z" transform="translate(-245.38 -244.69)"/><path class="cls-47" d="M284.08,249.74a.62.62,0,0,1-.54.43h0l-.46,1.52h.51v1.05h-1.42v-1.05h.44l.51-1.65h0a.61.61,0,1,1,1-.29Z" transform="translate(-245.38 -244.69)"/><path class="cls-47" d="M281.73,251.69v1.05H280.3v-1.05h.52l-.47-1.52h0a.61.61,0,1,1,.62-.79.59.59,0,0,1-.19.65h0l.51,1.65Z" transform="translate(-245.38 -244.69)"/></g><g class="cls-46"><path class="cls-47" d="M292.61,412.06l0,0c-.14-.27-.28-.54-.4-.83a3.84,3.84,0,0,1-.22.39l.61.61.11,0Zm7.28-13.36a5.72,5.72,0,0,0-4-1.78,5.35,5.35,0,0,0-2.78.81,7.74,7.74,0,0,0-2.28,2.19,11.71,11.71,0,0,0-1.67,3.54,5.45,5.45,0,0,1,2,1.29l.25.27c0-.19.05-.37.08-.55s.05-.31.08-.46l0-.13a6.9,6.9,0,0,1,.2-.78c.63-2.28,1.9-3.89,3.38-4.27a1.61,1.61,0,0,1,.48-.08.65.65,0,0,1,.18,0h.05l.24,0a2.48,2.48,0,0,1,.49.08,4.4,4.4,0,0,1,2.47,2.14,9.2,9.2,0,0,1,.91,2.2c.05.22.12.48.18.75s.07.4.11.62.08.56.09.8a12.17,12.17,0,0,1,.06,1.27,11.25,11.25,0,0,1-1.29,5.47l-.34.55h0c-.09.14-.2.27-.3.4s-.29.32-.43.45a3.23,3.23,0,0,1-2.18.94h0a2.4,2.4,0,0,1-.46-.05l2,2c2.9-1.2,5-5.14,5-9.8A12.45,12.45,0,0,0,299.89,398.7Zm-9.55-2.29h-.18a4.94,4.94,0,0,0-2,.52,3.92,3.92,0,0,0-.53.29,7.18,7.18,0,0,0-2,1.89,5,5,0,0,0-.33.47,10.86,10.86,0,0,0-.92,1.8c-.07.17-.14.36-.2.54a12.15,12.15,0,0,0-.47,1.68c0,.19-.07.38-.1.57s0,.23,0,.34a5.49,5.49,0,0,1,3.66-1.38,5.72,5.72,0,0,1,1.75.28,13.11,13.11,0,0,1,.45-1.58c.08-.2.15-.4.24-.59a10.06,10.06,0,0,1,.72-1.43c.12-.21.25-.4.38-.59h0a8.13,8.13,0,0,1,1.29-1.43,4.72,4.72,0,0,1,.69-.51l.16-.11a4.74,4.74,0,0,1,1.15-.52,1.4,1.4,0,0,1,.29-.09,2.33,2.33,0,0,1,.38-.08,2,2,0,0,1,.42-.05,2.36,2.36,0,0,1,.37,0Zm.7,18.51a1,1,0,0,1-.27-.91l-.61-.61a5.56,5.56,0,0,1-4.54.59,8.36,8.36,0,0,0,1.42,1.53,6.74,6.74,0,0,0,.86.57,5,5,0,0,0,2.44.66h2.53Zm1.57-2.86,0,0c-.14-.27-.28-.54-.4-.83a3.84,3.84,0,0,1-.22.39l.61.61.11,0Z" transform="translate(-245.38 -244.69)"/><path class="cls-47" d="M294.78,400.72l-.13,3.14-.26-.12a9.17,9.17,0,0,0-.64-1.81A3.91,3.91,0,0,1,294.78,400.72Z" transform="translate(-245.38 -244.69)"/><path class="cls-47" d="M295.87,410.16l1.08,2.31a1.73,1.73,0,0,1-2.16,0Z" transform="translate(-245.38 -244.69)"/><path class="cls-47" d="M298.6,403.22l-1.47.65-.11-3.13A5,5,0,0,1,298.6,403.22Z" transform="translate(-245.38 -244.69)"/><path class="cls-47" d="M299.13,406.48v.13a10.6,10.6,0,0,1-.54,3.38l-.85-2.51Z" transform="translate(-245.38 -244.69)"/><path class="cls-47" d="M299.89,405.37a6.48,6.48,0,0,0-.09-.77c0-.19-.06-.39-.1-.59s-.11-.48-.17-.71c-.58-2.1-1.7-3.63-3-4a2,2,0,0,0-.42-.06.52.52,0,0,0-.17,0,.58.58,0,0,0-.19,0,1.52,1.52,0,0,0-.42.06c-1.33.35-2.45,1.86-3,3.95-.08.23-.13.47-.19.72s-.07.39-.1.59-.07.49-.1.75c0,.09,0,.18,0,.27s.21.34.31.51c0-.19,0-.38,0-.58h0l2.38,1.77-1.39,4a7.69,7.69,0,0,1-.56-1.34,4.31,4.31,0,0,1-.19.61,8.75,8.75,0,0,0,.55,1.23v0l.3.49h0l.05.07.1.09,1.07,1.06a2.44,2.44,0,0,0,1.31.41,2.69,2.69,0,0,0,1.88-.83,3.54,3.54,0,0,0,.38-.39l.28-.36.31-.52a10.72,10.72,0,0,0,1.23-5.23C300,406.19,299.93,405.77,299.89,405.37Zm-.51-1.12c0,.17.07.37.1.53v0l-2.28,1.32a3.63,3.63,0,0,0-.11-.59l2.28-1.33A.09.09,0,0,1,299.38,404.25Zm-.18-.77-2.53,1.14-.17-4.69C297.66,400.27,298.65,401.6,299.2,403.48ZM297,406c0,.19-.09.35-.19.35s-.2-.16-.2-.35.09-.35.2-.35S297,405.83,297,406Zm-.34,1.9c0,.2-.09.36-.2.36s-.19-.16-.19-.36.09-.35.19-.35S296.64,407.74,296.64,407.93Zm-.92-8.08h.21a.45.45,0,0,1,.14,0h0v4.33a.52.52,0,0,0-.17,0,.55.55,0,0,0-.18,0Zm.17,4.63c.1,0,.19.16.19.36s-.09.35-.19.35-.2-.16-.2-.35S295.78,404.48,295.89,404.48Zm0,1.12c.29,0,.54.44.54,1s-.25,1-.54,1-.54-.44-.54-1S295.59,405.6,295.89,405.6Zm-.56,2c.11,0,.2.16.2.35s-.09.36-.2.36-.19-.16-.19-.36S295.22,407.58,295.33,407.58Zm-.34-1.2c-.1,0-.19-.16-.19-.35s.09-.35.19-.35.2.15.2.35S295.1,406.38,295,406.38Zm.31-6.46-.19,4.68h0l-2.52-1.16C293.14,401.56,294.14,400.25,295.3,399.92Zm-.73,6.19-2.27-1.37v0c0-.18.06-.36.1-.54a.1.1,0,0,0,0,0l2.28,1.36A3.75,3.75,0,0,0,294.57,406.11Zm-.77,6.05a2.43,2.43,0,0,1-.24-.32l0,0,1.41-3.5a1.88,1.88,0,0,0,.28.37l-1.42,3.49Zm2.07,1.17a2.5,2.5,0,0,1-1.68-.75l1.68-3.58,1.68,3.61A2.42,2.42,0,0,1,295.87,413.33Zm2.33-1.46-.26.35h0l-1.41-3.52a1.83,1.83,0,0,0,.29-.37l1.4,3.52Zm.33-.54-1.36-4,2.4-1.74c0,.35,0,.71,0,1.06A10,10,0,0,1,298.53,411.33Z" transform="translate(-245.38 -244.69)"/><path class="cls-47" d="M285.77,405.45v6.46a3.92,3.92,0,0,1-.95-.63v-2.76l-1.08-.38a3.25,3.25,0,0,1,.27-.92l.81.29v-1.43A3.65,3.65,0,0,1,285.77,405.45Z" transform="translate(-245.38 -244.69)"/><path class="cls-47" d="M287.65,405.15v7.06a2.61,2.61,0,0,1-.4,0,2.42,2.42,0,0,1-.38,0v-7.06a2.42,2.42,0,0,1,.38,0A2.68,2.68,0,0,1,287.65,405.15Z" transform="translate(-245.38 -244.69)"/><path class="cls-47" d="M290.77,408.14l-1.07.38v2.74a3.76,3.76,0,0,1-.94.65v-6.46a3.76,3.76,0,0,1,.94.65v1.41l.8-.29A3.61,3.61,0,0,1,290.77,408.14Z" transform="translate(-245.38 -244.69)"/><path class="cls-47" d="M297.47,417.14l-4.32-4.33a.52.52,0,0,0-.68,0l-1.13-1.13a5.06,5.06,0,1,0-1.12,1.12l1.14,1.13a.48.48,0,0,0,0,.67l4.32,4.33a.53.53,0,0,0,.72,0l1-1A.5.5,0,0,0,297.47,417.14Zm-7.36-5.6a4,4,0,1,1,0-5.72A4,4,0,0,1,290.11,411.54Z" transform="translate(-245.38 -244.69)"/></g><g class="cls-46"><path class="cls-47" d="M400.48,264.8l-.06.12a1,1,0,0,1-.88.44l-.29,0-.73-.06-2-.17v1.16a.64.64,0,0,0,.64.63H400a.64.64,0,0,0,.64-.63V264.8Z" transform="translate(-245.38 -244.69)"/><path class="cls-47" d="M377.94,266v1.06H374.5V266h.71v-5.41h-.95v1.82h-2.34v-.57h1.66v-2.09h1.63v-.47h.42v.05c0,.87,0,1.71,0,2.13,0,0,0,.16,0,.38h0a1.73,1.73,0,0,0,.22.93l0,0,.05.05a1.38,1.38,0,0,0,.78.25c.07,0,.23,0,.53.07V266Z" transform="translate(-245.38 -244.69)"/><path class="cls-47" d="M399.11,254.79c.09,0,.1.13.21.18a1.57,1.57,0,0,0,.48,0c.29,0,.6,0,.88-.06a.86.86,0,0,0,.69-.91c0-.41-.39-.58-.71-.65s-.74-.28-1.07-.13-.37,1.07-1,.89c-.44-1-1.77-3.6-1.88-3.75a1.91,1.91,0,0,0-.94-.64c-.47-.13-5.32-.87-6.24-1s-5.81-.3-6.31-.27a2,2,0,0,0-1,.45c-.14.12-1.94,2.39-2.58,3.31-.68.06-.42-.75-.84-1.07s-.74-.11-1.07-.09-.75.12-.82.51a.83.83,0,0,0,.5,1c.28.1.57.17.85.25a2,2,0,0,0,.47.11c.11,0,.14-.11.24-.15s.22,0,.33.08-.16.12-.21.14l0,0a5.87,5.87,0,0,0-1.05.68c-.49.42-1.33,1.05-1.38,1.45a6.63,6.63,0,0,0-.3,1.47c0,.4,0,1.59,0,2.72s0,2.33,0,2.41a1.52,1.52,0,0,0,0,.52c.06.16.24.22.55.24l2.5.29,8.76,1,8.93.75,2.35.2c.31,0,.51,0,.59-.13a1.5,1.5,0,0,0,.09-.52c0-.11.42-2.11.7-3.59.12-.64.22-1.2.26-1.44a7.15,7.15,0,0,0,0-1.51c0-.39-.84-1.35-1.08-1.65a10.09,10.09,0,0,0-.92-.93c-.12-.1-.14-.1-.17-.18A.65.65,0,0,1,399.11,254.79Zm-16.72-5.74,7,.37,7,1a43,43,0,0,1,1.95,4.16c-.19,0-6.47-1-9.31-1.21s-9.19-.6-9.38-.61A42.76,42.76,0,0,1,382.39,249.05Zm-4.16,12.7a.87.87,0,1,1,.17-1.74.86.86,0,0,1,.79,1A.88.88,0,0,1,378.23,261.75Zm1.78-.08a.62.62,0,1,1,.13-1.24.62.62,0,1,1-.13,1.24Zm-.42-4.48c-.69-.06-1.75-.17-1.84-1a2.34,2.34,0,0,1,.08-.82c.13-.4.21-.33.63-.29a10.69,10.69,0,0,1,1.94.36,25.38,25.38,0,0,1,2.68.63C381.92,257.74,380.85,257.32,379.59,257.19Zm14.17,3c-.19.54-.68,1.61-1,2.27s-1.26.48-1.35.47l-6.61-.65c-.1,0-1.06,0-1.24-.72s-.46-1.86-.54-2.42-.46-1.64,2.35-1.3c1.44.17,2.49.28,3.16.33s1.73.18,3.17.29C394.52,258.66,394,259.61,393.76,260.18Zm2.39,3.07a.62.62,0,0,1,.13-1.24.63.63,0,0,1,.56.68A.62.62,0,0,1,396.15,263.25Zm2.78-.35a.88.88,0,0,1-1,.79.88.88,0,1,1,.17-1.75A.87.87,0,0,1,398.93,262.9Zm.17-5.83c.43.05.52,0,.57.41a2.52,2.52,0,0,1-.08.83c-.26.81-1.32.71-2,.64-1.26-.12-2.38.08-3.2-1.79a23,23,0,0,1,2.75-.1A11.78,11.78,0,0,1,399.1,257.07Z" transform="translate(-245.38 -244.69)"/></g><g class="cls-46"><path class="cls-47" d="M429.26,325.2a9.94,9.94,0,0,0-.7,2,5.9,5.9,0,0,0-.75-.05,6.77,6.77,0,0,0-1,.07,13,13,0,0,1,0-2.07,3.28,3.28,0,0,0,1.28.25A3.18,3.18,0,0,0,429.26,325.2Z" transform="translate(-245.38 -244.69)"/><path class="cls-47" d="M425.09,330.09l-.3.37s0,2.27,0,4.39c0,1,0,1.92.06,2.6a1.31,1.31,0,0,1-.51-2.43,37,37,0,0,1,0-5.16,9.22,9.22,0,0,1,.87-4.05A21.87,21.87,0,0,0,425.09,330.09Z" transform="translate(-245.38 -244.69)"/><path class="cls-47" d="M424.55,340.81s0,0,0,0l-.62.32s0,0,0,0l-.32-.62v0h0l0-.19-1-1.85h0l0,0a.7.7,0,0,0-.9-.27h0l0,0-1.86,1-.06.3h0l0,0-.79.41a0,0,0,0,1-.05,0l-.41-.78a0,0,0,0,1,0-.06l.78-.41h0l.27.12,1.86-1v0h0a.7.7,0,0,0,.3-.89v0h0l-1-1.86-.22-.07h0v0l-.36-.68s0,0,0-.05l.68-.35s0,0,0,0l.36.69v0h0l-.07.22,1,1.86,0,0,0,0a.69.69,0,0,0,.89.27h0v0l.19-.09a1.94,1.94,0,0,0,.22.43l-.18.09,0,0h0a.71.71,0,0,0-.3.89v0h0l1,1.86.18.08h0Z" transform="translate(-245.38 -244.69)"/><path class="cls-47" d="M430.77,330.16l-.11-.05-.21-.1h0a1.14,1.14,0,0,0-.26-.09l-.27-.08a8.69,8.69,0,0,1,0-1.45,19.67,19.67,0,0,1,1.15-3.77,4.73,4.73,0,0,0-.47-.2l-.2-.07a8,8,0,0,0-1.47,3.46,6.56,6.56,0,0,0-2.58,0,12.53,12.53,0,0,1-.07-3.12,2.67,2.67,0,0,0-.71.62h0c-.12.74-.15,1.51-.23,2.24a12.69,12.69,0,0,0,.1,2.71,1.45,1.45,0,0,0-.4.38c0,.44,0,2.09.11,4.17,0,.81,0,1.7.08,2.6.1,3.12.25,6.5.39,8.31l.24,0,2.27.23.36,0,0-1.69a5.88,5.88,0,0,1,2.19-10.15h0a2.65,2.65,0,0,0,.06-.3s0-.1,0-.16,0-.11,0-.17a1.5,1.5,0,0,0,0-.22,1.09,1.09,0,0,0,0-.18c0-.07,0-.13,0-.2v-.21c0-.28,0-.58,0-.87C430.83,331.29,430.8,330.68,430.77,330.16Zm-4.78-1c-.17,0-.34-.11-.39-.34a.36.36,0,0,1,.21-.47c.17,0,.34.11.39.34S426.16,329.11,426,329.14Zm3.26-.12a.39.39,0,0,1-.27-.45c0-.23.17-.4.35-.39a.39.39,0,0,1,.27.45C429.58,328.86,429.43,329,429.25,329Z" transform="translate(-245.38 -244.69)"/><path class="cls-47" d="M431.85,338.55l.16,0c0,1.05.06,2.55.1,4a2.71,2.71,0,0,1-1.44-4.9A2,2,0,0,0,431.85,338.55Z" transform="translate(-245.38 -244.69)"/><path class="cls-47" d="M432.26,346.21h-.21l-2.3-.13H429c0-.42-.09-.9-.13-1.4a5.78,5.78,0,0,0,3.32,1.06C432.24,345.92,432.25,346.08,432.26,346.21Z" transform="translate(-245.38 -244.69)"/><path class="cls-47" d="M434.2,334.86c0,.28,0,.56-.05.85a2,2,0,0,1,.22.92,1.89,1.89,0,0,1-.12.67,3.23,3.23,0,0,1-2,5.78h-.14a3.23,3.23,0,0,1-1.66-5.91,2.33,2.33,0,0,1-.07-.53,2,2,0,0,1,.66-1.49,4.26,4.26,0,0,0,0-.5,5.36,5.36,0,1,0,3.17.22Z" transform="translate(-245.38 -244.69)"/><path class="cls-47" d="M433.85,336.63a1.47,1.47,0,0,1-1.47,1.47,1.27,1.27,0,0,1-.39-.05,1.47,1.47,0,0,1-1.09-1.42,1.45,1.45,0,0,1,.66-1.23c0-.31,0-.65,0-1-.1-1.31-.39-2.91-.59-4.13l-.13-.67-.16-.81c0,.1,0,.46.08,1l-.41-.28c-.14-.94.57-3.21,1-4.69l.13.07a5,5,0,0,1,1.23,1c.74.82,1.25,3.34,1,8.45,0,.5-.06,1-.1,1.59A1.44,1.44,0,0,1,433.85,336.63Z" transform="translate(-245.38 -244.69)"/><path class="cls-47" d="M430.89,322.37a2.85,2.85,0,0,1-2.82,2.54,2.82,2.82,0,0,1-2.83-2.83,2.56,2.56,0,0,1,0-.39Z" transform="translate(-245.38 -244.69)"/><path class="cls-47" d="M431,322.15l-5.75-.83-.35-.05c-.61-.1-1.33-.35-1.43-.71a5.5,5.5,0,0,1,1.28,0,3.87,3.87,0,0,0,.75.09l.24-.44a1.81,1.81,0,0,0,.7.12c.32,0,.9-.15,1.07-.48.28-.51-.35-.68-.85-.7a1.84,1.84,0,0,1,1.47-.29A3.11,3.11,0,0,1,431,322.15Z" transform="translate(-245.38 -244.69)"/><path class="cls-47" d="M427.81,347.39a1.64,1.64,0,0,1,0-.23h-3.92a1.13,1.13,0,0,1,.49-1,1.68,1.68,0,0,1,.76-.16c.15,0,.53.07.65-.09l2.31.31c0,.1,0,.21,0,.32a.7.7,0,0,1,.19-.15,1.66,1.66,0,0,1,.75-.16,3.48,3.48,0,0,0,.47,0l2.53.26c0,.28.1.58.11.84Z" transform="translate(-245.38 -244.69)"/></g><g class="cls-46"><path class="cls-47" d="M256.62,323.06v-.23a.26.26,0,0,0-.28-.24H245.66a.25.25,0,0,0-.28.24v.32h11.24Z" transform="translate(-245.38 -244.69)"/><polygon class="cls-47" points="0 79.01 0 79.33 0 79.57 11.24 79.57 11.24 79.33 11.24 79.01 0 79.01"/><path class="cls-47" d="M245.38,326.17v7.23a.27.27,0,0,0,.28.28h1.13a.31.31,0,0,0,.31-.28l.09-.68a.31.31,0,0,1,.31-.28h7a.32.32,0,0,1,.31.28l.08.68a.32.32,0,0,0,.32.28h1.13a.28.28,0,0,0,.28-.28v-8.58H245.38Zm5.62,4.09a1.73,1.73,0,1,1,1.73-1.73A1.73,1.73,0,0,1,251,330.26Z" transform="translate(-245.38 -244.69)"/><path class="cls-47" d="M247.83,343.67h-1.25v3.7a.28.28,0,0,0,.28.28h8.28a.28.28,0,0,0,.28-.28v-3.7h-1.25a3.19,3.19,0,0,1-6.34,0Z" transform="translate(-245.38 -244.69)"/><path class="cls-47" d="M252.73,338.84V333h-3.46v5.82a.28.28,0,0,1-.28.28h-2.13a.29.29,0,0,0-.28.28v3.71h1.24a3.18,3.18,0,0,1,6.36,0h1.24V339.4a.29.29,0,0,0-.28-.28H253A.27.27,0,0,1,252.73,338.84Z" transform="translate(-245.38 -244.69)"/></g><path class="cls-5" d="M303.82,437.45l-1.94-3.53h-1.36v3.53h-1.6v-9h3c1.87,0,3.32.66,3.32,2.67a2.52,2.52,0,0,1-1.8,2.58l2.14,3.76Zm-3.3-4.8h1.27c1.23,0,1.9-.52,1.9-1.54s-.67-1.39-1.9-1.39h-1.27Z" transform="translate(-245.38 -244.69)"/><path class="cls-5" d="M307.13,428.44h5.41v1.35h-3.81v2.3H312v1.35h-3.23v2.66h3.95v1.35h-5.55Z" transform="translate(-245.38 -244.69)"/><path class="cls-5" d="M314.48,428.44h3c2,0,3.42.69,3.42,2.78s-1.49,2.92-3.42,2.92h-1.43v3.31h-1.6Zm2.89,4.42c1.35,0,2-.54,2-1.64s-.68-1.5-2-1.5h-1.29v3.14Z" transform="translate(-245.38 -244.69)"/><path class="cls-5" d="M326.06,435h-3l-.71,2.44h-1.63l2.94-9h1.88l2.93,9h-1.7Zm-.36-1.25-.31-1.11c-.28-.95-.55-2-.81-3h-.06c-.25,1-.51,2-.8,3l-.32,1.11Z" transform="translate(-245.38 -244.69)"/><path class="cls-5" d="M329.53,428.44h1.6v9h-1.6Z" transform="translate(-245.38 -244.69)"/><path class="cls-5" d="M338.28,437.45l-1.95-3.53H335v3.53h-1.6v-9h3c1.88,0,3.32.66,3.32,2.67a2.51,2.51,0,0,1-1.8,2.58l2.15,3.76Zm-3.31-4.8h1.27c1.24,0,1.9-.52,1.9-1.54s-.66-1.39-1.9-1.39H335Z" transform="translate(-245.38 -244.69)"/><path class="cls-5" d="M346.22,429.79h-2.6v-1.35h6.79v1.35h-2.59v7.66h-1.6Z" transform="translate(-245.38 -244.69)"/><path class="cls-5" d="M351,432.9c0-2.9,1.63-4.62,4-4.62s4,1.72,4,4.62-1.63,4.71-4,4.71S351,435.82,351,432.9Zm6.31,0c0-2-.93-3.23-2.33-3.23s-2.34,1.22-2.34,3.23.92,3.32,2.34,3.32S357.35,434.93,357.35,432.9Z" transform="translate(-245.38 -244.69)"/><path class="cls-5" d="M360.28,432.9c0-2.9,1.63-4.62,4-4.62s4,1.72,4,4.62-1.63,4.71-4,4.71S360.28,435.82,360.28,432.9Zm6.31,0c0-2-.93-3.23-2.33-3.23s-2.34,1.22-2.34,3.23.92,3.32,2.34,3.32S366.59,434.93,366.59,432.9Z" transform="translate(-245.38 -244.69)"/><path class="cls-5" d="M370,428.44h1.6v7.66h3.73v1.35H370Z" transform="translate(-245.38 -244.69)"/><path class="cls-5" d="M376.83,435.2a3.59,3.59,0,0,0,2.36,1c1,0,1.57-.45,1.57-1.16s-.58-1-1.41-1.32l-1.22-.53a2.59,2.59,0,0,1-1.82-2.4,2.73,2.73,0,0,1,3-2.53,4,4,0,0,1,2.79,1.14l-.83,1a2.94,2.94,0,0,0-2-.77c-.85,0-1.4.4-1.4,1.06s.69,1,1.43,1.26l1.21.51a2.51,2.51,0,0,1,1.82,2.44c0,1.46-1.21,2.67-3.23,2.67a4.62,4.62,0,0,1-3.24-1.32Z" transform="translate(-245.38 -244.69)"/></g></g></svg>