<svg xmlns="http://www.w3.org/2000/svg" xmlns:xlink="http://www.w3.org/1999/xlink" viewBox="0 0 199.9 180.35"><defs><style>.cls-1{isolation:isolate;}.cls-2{opacity:0.25;mix-blend-mode:color-burn;}.cls-26,.cls-3{fill:gray;}.cls-26,.cls-4,.cls-6{opacity:0.7;}.cls-5{fill:#fff;}.cls-21,.cls-26,.cls-6{mix-blend-mode:multiply;}.cls-7{fill:url(#linear-gradient);}.cls-8{fill:#eef4f5;}.cls-9{fill:#fd582d;}.cls-10{fill:#5e9ea7;}.cls-11{fill:#292e30;}.cls-12{fill:#154e58;}.cls-13{fill:#feaf3b;}.cls-14{fill:#46483c;}.cls-15{fill:#83c9d9;}.cls-16{fill:#1f8394;}.cls-17{fill:#e63f15;}.cls-18{fill:#3e5d64;}.cls-19{fill:#333;}.cls-20{fill:#f2f2f2;}.cls-20,.cls-21{opacity:0.63;}.cls-21{fill:#b3b3b3;}.cls-22{fill:#a3a3a3;}.cls-23{fill:#f49c1d;}.cls-24{fill:#3a7079;}.cls-25{fill:#e74720;}.cls-27{fill:#639ca8;}.cls-28{fill:#70889c;}.cls-29{fill:#2f5f6c;}.cls-30{opacity:0.6;mix-blend-mode:screen;}.cls-31{fill:#828282;}</style><linearGradient id="linear-gradient" x1="100.18" y1="187.64" x2="126.61" y2="161.21" gradientUnits="userSpaceOnUse"><stop offset="0" stop-color="#8c8f7c"/><stop offset="0.24" stop-color="#bbbcad"/><stop offset="0.5" stop-color="#8c8f7c"/><stop offset="0.75" stop-color="#bbbcad"/><stop offset="1" stop-color="#8c8f7c"/></linearGradient></defs><title>repuestoVehiculo</title><g class="cls-1"><g id="Layer_1" data-name="Layer 1"><g class="cls-2"><circle class="cls-3" cx="111.12" cy="105" r="42.6" transform="translate(-42.67 148.54) rotate(-65.8)"/><path class="cls-3" d="M187.83,126.37h0c-13.05-9.48-13.05-26.78,0-36.26h0a20.16,20.16,0,0,0-20-34.74c-14.77,6.25-33-4.58-34.51-20.57h0a20.16,20.16,0,0,0-40.09-.52c-2,15.93-23.65,28-38.26,21.32A20.16,20.16,0,0,0,35.51,90.85c13.52,8.68,14.55,26,2.14,36.26a20.16,20.16,0,0,0,22.44,33.28c14.17-7.4,30.41.55,33.26,16.3a20.16,20.16,0,0,0,39.74,0c2.84-15.75,19.09-23.7,33.26-16.3a20.16,20.16,0,0,0,21.48-34Zm-65,29.21a20.22,20.22,0,0,0-19.26,0c-14.17,7.4-30.42-.54-33.26-16.3a20.18,20.18,0,0,0-9.11-13.65c-13.52-8.68-14.56-26-2.15-36.26a20.13,20.13,0,0,0,7.21-13.15c2-15.93,23.66-28,38.26-21.32a20.2,20.2,0,0,0,16.86.23c14.77-6.25,33,4.58,34.51,20.57h0a20.19,20.19,0,0,0,8.22,14.41h0c13.05,9.48,13.05,26.78,0,36.26h0a20.18,20.18,0,0,0-8,12.91C153.27,155,137,163,122.85,155.58Z" transform="translate(-12.46 -14.77)"/></g><g class="cls-4"><path class="cls-5" d="M112.06,173.9h0c-.89,0-1.78,0-2.66-.05a.39.39,0,0,1-.38-.41.42.42,0,0,1,.41-.38c.87,0,1.75,0,2.63,0a.4.4,0,0,1,0,.8Zm2.63-.05a.4.4,0,0,1,0-.79c.88,0,1.75-.07,2.62-.13a.38.38,0,0,1,.42.36.39.39,0,0,1-.36.43c-.88.06-1.77.1-2.65.13Zm-7.91-.14h0c-.88-.07-1.77-.14-2.64-.24a.39.39,0,1,1,.08-.78c.87.09,1.74.17,2.62.23a.38.38,0,0,1,.36.42A.39.39,0,0,1,106.78,173.71Zm13.18-.22a.4.4,0,0,1,0-.79c.87-.09,1.74-.2,2.61-.32a.41.41,0,0,1,.44.34.4.4,0,0,1-.33.45c-.88.12-1.76.23-2.64.32Zm-18.43-.34h0c-.88-.12-1.76-.26-2.63-.42a.41.41,0,0,1-.32-.46A.4.4,0,0,1,99,172c.86.15,1.72.29,2.6.42a.39.39,0,0,1,.33.44A.4.4,0,0,1,101.53,173.15Zm23.66-.39a.39.39,0,0,1-.07-.78c.87-.16,1.72-.32,2.58-.5a.39.39,0,1,1,.16.77c-.86.18-1.73.35-2.6.51Zm-28.86-.53h-.08c-.87-.18-1.73-.38-2.59-.6a.39.39,0,0,1-.28-.48.4.4,0,0,1,.48-.29c.84.21,1.7.41,2.55.6a.39.39,0,0,1,.31.47A.41.41,0,0,1,96.33,172.23Zm34-.57a.39.39,0,0,1-.38-.3.39.39,0,0,1,.29-.48c.85-.21,1.69-.44,2.53-.68a.4.4,0,0,1,.22.76c-.85.25-1.7.48-2.56.69Zm-39.14-.72a.23.23,0,0,1-.11,0c-.85-.24-1.69-.5-2.53-.78a.4.4,0,0,1,.25-.75c.82.27,1.66.53,2.5.77a.39.39,0,0,1,.27.49A.38.38,0,0,1,91.21,170.94Zm44.21-.74a.38.38,0,0,1-.37-.27.39.39,0,0,1,.25-.5c.83-.27,1.66-.56,2.48-.86a.4.4,0,0,1,.51.23.39.39,0,0,1-.24.51c-.82.31-1.66.6-2.5.87A.27.27,0,0,1,135.42,170.2Zm-49.22-.91a.35.35,0,0,1-.14,0c-.83-.3-1.65-.63-2.47-1a.4.4,0,0,1,.3-.74c.81.34,1.62.66,2.45,1a.4.4,0,0,1-.14.77Zm54.18-.91a.39.39,0,0,1-.15-.76c.81-.34,1.62-.68,2.41-1a.39.39,0,0,1,.52.2.38.38,0,0,1-.19.52c-.81.36-1.62.71-2.44,1A.4.4,0,0,1,140.38,168.38Zm-59.06-1.1a.35.35,0,0,1-.17,0c-.8-.37-1.6-.75-2.39-1.14a.4.4,0,0,1,.35-.71c.78.39,1.57.77,2.37,1.13a.39.39,0,0,1,.2.52A.4.4,0,0,1,81.32,167.28Zm63.88-1.08a.4.4,0,0,1-.36-.22.39.39,0,0,1,.18-.53c.79-.39,1.57-.8,2.34-1.22a.39.39,0,0,1,.53.16.39.39,0,0,1-.16.54c-.77.42-1.56.83-2.36,1.23A.33.33,0,0,1,145.2,166.2Zm-68.6-1.28a.41.41,0,0,1-.19,0c-.78-.42-1.55-.86-2.3-1.31a.39.39,0,1,1,.4-.68c.75.44,1.51.88,2.28,1.29a.4.4,0,0,1,.15.54A.39.39,0,0,1,76.6,164.92Zm73.25-1.25a.39.39,0,0,1-.34-.19.41.41,0,0,1,.14-.55c.75-.44,1.5-.9,2.24-1.38a.4.4,0,0,1,.54.12.39.39,0,0,1-.12.55c-.74.48-1.5.94-2.26,1.4A.46.46,0,0,1,149.85,163.67Zm-77.78-1.44a.46.46,0,0,1-.22-.06c-.74-.48-1.47-1-2.2-1.48a.39.39,0,0,1-.09-.55.4.4,0,0,1,.55-.1c.71.5,1.44,1,2.17,1.46a.39.39,0,0,1,.12.55A.38.38,0,0,1,72.07,162.23Zm82.23-1.42a.4.4,0,0,1-.33-.17.4.4,0,0,1,.1-.55c.72-.5,1.43-1,2.13-1.54a.4.4,0,0,1,.56.08.39.39,0,0,1-.08.55c-.71.53-1.43,1-2.15,1.56A.39.39,0,0,1,154.3,160.81Zm-86.55-1.59a.43.43,0,0,1-.24-.08c-.71-.53-1.4-1.08-2.09-1.64a.39.39,0,0,1,0-.55.39.39,0,0,1,.55-.06q1,.83,2.07,1.62a.4.4,0,0,1,.08.55A.42.42,0,0,1,67.75,159.22Zm90.78-1.59a.39.39,0,0,1-.25-.7c.68-.55,1.35-1.12,2-1.7a.4.4,0,0,1,.56,0,.41.41,0,0,1,0,.56q-1,.87-2,1.71A.38.38,0,0,1,158.53,157.63Zm-94.87-1.74a.39.39,0,0,1-.26-.1c-.66-.58-1.32-1.17-2-1.78a.4.4,0,0,1,.55-.58c.63.6,1.28,1.19,1.93,1.77a.39.39,0,0,1-.26.69Zm98.84-1.74a.35.35,0,0,1-.28-.13.4.4,0,0,1,0-.56c.64-.6,1.27-1.21,1.88-1.84a.4.4,0,0,1,.56,0,.39.39,0,0,1,0,.56q-.93.94-1.89,1.86A.43.43,0,0,1,162.5,154.15ZM59.83,152.27a.39.39,0,0,1-.28-.12c-.62-.63-1.23-1.27-1.82-1.93a.4.4,0,0,1,0-.56.4.4,0,0,1,.56,0c.59.65,1.19,1.28,1.8,1.91a.39.39,0,0,1,0,.56A.43.43,0,0,1,59.83,152.27Zm106.38-1.89a.41.41,0,0,1-.3-.67c.59-.64,1.17-1.3,1.73-2a.4.4,0,0,1,.61.51c-.57.68-1.16,1.34-1.75,2A.43.43,0,0,1,166.21,150.38Zm-109.92-2a.41.41,0,0,1-.31-.14c-.57-.68-1.12-1.37-1.67-2.06a.4.4,0,1,1,.63-.49q.8,1,1.65,2a.4.4,0,0,1-.05.56A.38.38,0,0,1,56.29,148.37Zm113.32-2a.4.4,0,0,1-.31-.64c.54-.69,1.06-1.39,1.57-2.1a.39.39,0,0,1,.64.46c-.51.72-1,1.43-1.59,2.12A.4.4,0,0,1,169.61,146.34ZM53,144.21a.4.4,0,0,1-.32-.17c-.51-.72-1-1.44-1.5-2.18a.4.4,0,1,1,.66-.44c.48.73,1,1.45,1.49,2.16a.4.4,0,0,1-.33.63Zm119.65-2.16a.38.38,0,0,1-.22-.07.39.39,0,0,1-.11-.54q.72-1.09,1.41-2.22a.39.39,0,1,1,.67.41c-.46.76-.93,1.5-1.42,2.24A.38.38,0,0,1,172.69,142.05ZM50.13,139.8a.37.37,0,0,1-.33-.19c-.46-.75-.91-1.52-1.34-2.29a.4.4,0,0,1,.16-.54.4.4,0,0,1,.54.15c.42.77.86,1.53,1.31,2.27a.39.39,0,0,1-.13.55A.36.36,0,0,1,50.13,139.8Zm125.3-2.26a.41.41,0,0,1-.19,0,.39.39,0,0,1-.16-.54c.42-.76.83-1.54,1.23-2.32a.39.39,0,0,1,.7.36c-.39.79-.81,1.57-1.24,2.34A.39.39,0,0,1,175.43,137.54ZM47.58,135.18a.38.38,0,0,1-.35-.21c-.4-.79-.78-1.59-1.15-2.4a.4.4,0,0,1,.2-.53.39.39,0,0,1,.52.2c.36.8.74,1.59,1.13,2.37a.39.39,0,0,1-.35.57Zm130.22-2.35a.35.35,0,0,1-.17,0,.38.38,0,0,1-.19-.52c.36-.79.7-1.6,1-2.41a.39.39,0,0,1,.52-.21.38.38,0,0,1,.21.51c-.33.82-.68,1.63-1,2.44A.41.41,0,0,1,177.8,132.83ZM45.4,130.37a.39.39,0,0,1-.37-.25c-.33-.82-.65-1.64-1-2.48a.39.39,0,0,1,.24-.51.4.4,0,0,1,.5.24c.3.83.61,1.65.94,2.46a.39.39,0,0,1-.22.51A.32.32,0,0,1,45.4,130.37ZM179.78,128l-.13,0a.39.39,0,0,1-.24-.51c.29-.82.57-1.65.83-2.48a.4.4,0,0,1,.76.24c-.27.84-.55,1.68-.85,2.51A.4.4,0,0,1,179.78,128ZM43.61,125.4a.4.4,0,0,1-.38-.28c-.27-.85-.51-1.7-.75-2.56a.39.39,0,0,1,.28-.48.39.39,0,0,1,.49.28c.23.84.47,1.69.74,2.52a.41.41,0,0,1-.26.5Zm137.75-2.48h-.1a.4.4,0,0,1-.28-.49c.23-.84.44-1.69.64-2.54a.39.39,0,0,1,.77.17c-.2.87-.41,1.73-.64,2.58A.4.4,0,0,1,181.36,122.92ZM42.23,120.29a.4.4,0,0,1-.39-.31c-.19-.86-.37-1.72-.53-2.6a.4.4,0,0,1,.32-.46.39.39,0,0,1,.46.32c.16.86.33,1.72.53,2.57a.4.4,0,0,1-.3.47Zm140.31-2.51h-.08a.4.4,0,0,1-.31-.46c.16-.86.3-1.72.42-2.59a.4.4,0,1,1,.79.11c-.13.88-.27,1.75-.43,2.62A.41.41,0,0,1,182.54,117.78ZM41.27,115.1a.4.4,0,0,1-.39-.34c-.12-.87-.23-1.75-.32-2.63a.4.4,0,0,1,.35-.44.4.4,0,0,1,.44.36c.09.87.19,1.74.32,2.6a.4.4,0,0,1-.34.45Zm142-2.55h0a.4.4,0,0,1-.36-.43c.09-.87.16-1.74.22-2.62a.4.4,0,1,1,.79,0c-.06.89-.13,1.77-.22,2.65A.39.39,0,0,1,183.29,112.55Zm-142.55-2.7a.39.39,0,0,1-.39-.37c-.06-.88-.09-1.76-.11-2.65a.41.41,0,0,1,.39-.41.38.38,0,0,1,.4.39c0,.88.06,1.75.11,2.62a.39.39,0,0,1-.37.42Zm142.87-2.57h0a.39.39,0,0,1-.39-.4c0-.46,0-.92,0-1.38s0-.83,0-1.25a.4.4,0,0,1,.38-.4h0a.4.4,0,0,1,.4.39c0,.42,0,.84,0,1.26s0,.93,0,1.4A.39.39,0,0,1,183.61,107.28Zm-143-2.71h0a.39.39,0,0,1-.39-.4c0-.89.06-1.77.11-2.65a.38.38,0,0,1,.42-.37.39.39,0,0,1,.37.41c0,.87-.09,1.75-.11,2.63A.39.39,0,0,1,40.64,104.57ZM183.51,102a.41.41,0,0,1-.4-.38c-.05-.87-.12-1.74-.2-2.61a.38.38,0,0,1,.35-.43.39.39,0,0,1,.43.35c.09.88.16,1.76.21,2.65a.39.39,0,0,1-.37.42ZM41,99.31h-.05a.39.39,0,0,1-.35-.43c.09-.88.2-1.76.32-2.64a.4.4,0,0,1,.45-.33.4.4,0,0,1,.34.45c-.13.86-.23,1.73-.32,2.6A.4.4,0,0,1,41,99.31Zm142-2.55a.41.41,0,0,1-.39-.35c-.12-.86-.26-1.73-.42-2.58a.4.4,0,0,1,.32-.47.41.41,0,0,1,.46.32c.16.87.3,1.74.43,2.62a.4.4,0,0,1-.34.45ZM41.7,94.08h-.07a.39.39,0,0,1-.32-.46c.16-.87.34-1.74.53-2.6a.4.4,0,0,1,.78.18c-.2.85-.37,1.7-.53,2.57A.4.4,0,0,1,41.7,94.08ZM182,91.56a.39.39,0,0,1-.38-.3q-.3-1.29-.63-2.55a.4.4,0,0,1,.28-.49.39.39,0,0,1,.48.28c.23.86.44,1.71.64,2.58a.39.39,0,0,1-.3.47ZM42.87,88.93h-.11a.41.41,0,0,1-.28-.49c.23-.85.48-1.7.75-2.54a.39.39,0,1,1,.75.23c-.26.84-.5,1.67-.73,2.52A.39.39,0,0,1,42.87,88.93Zm137.79-2.47a.41.41,0,0,1-.38-.28c-.26-.83-.54-1.67-.83-2.49a.39.39,0,0,1,.24-.51.4.4,0,0,1,.5.24c.3.84.58,1.68.85,2.53a.39.39,0,0,1-.26.49ZM44.44,83.91a.31.31,0,0,1-.13,0,.39.39,0,0,1-.24-.5c.3-.84.62-1.66,1-2.48a.39.39,0,1,1,.73.3c-.33.81-.64,1.62-.93,2.44A.41.41,0,0,1,44.44,83.91Zm134.44-2.43a.39.39,0,0,1-.37-.25c-.33-.81-.67-1.61-1-2.41a.4.4,0,0,1,.72-.33c.36.81.71,1.62,1.05,2.45a.39.39,0,0,1-.22.51A.4.4,0,0,1,178.88,81.48ZM46.42,79a.45.45,0,0,1-.16,0,.4.4,0,0,1-.2-.53c.37-.8.75-1.6,1.14-2.39a.41.41,0,0,1,.54-.17.39.39,0,0,1,.17.53c-.39.78-.77,1.56-1.13,2.36A.38.38,0,0,1,46.42,79ZM176.7,76.67a.39.39,0,0,1-.35-.22c-.4-.78-.8-1.56-1.23-2.32a.4.4,0,0,1,.16-.54.4.4,0,0,1,.54.15c.42.78.84,1.56,1.23,2.35a.41.41,0,0,1-.17.54A.58.58,0,0,1,176.7,76.67ZM48.79,74.31a.32.32,0,0,1-.19,0,.4.4,0,0,1-.16-.54c.43-.77.87-1.54,1.33-2.29a.39.39,0,0,1,.54-.14.41.41,0,0,1,.14.55c-.45.75-.89,1.5-1.32,2.27A.38.38,0,0,1,48.79,74.31ZM174.15,72a.38.38,0,0,1-.34-.19c-.45-.75-.92-1.48-1.4-2.21a.4.4,0,1,1,.66-.44c.49.74,1,1.49,1.42,2.24a.41.41,0,0,1-.14.55A.35.35,0,0,1,174.15,72ZM51.52,69.8a.36.36,0,0,1-.22-.07.4.4,0,0,1-.11-.55c.49-.74,1-1.46,1.5-2.18a.41.41,0,0,1,.56-.1.42.42,0,0,1,.09.56c-.51.71-1,1.43-1.49,2.16A.41.41,0,0,1,51.52,69.8Zm119.72-2.16a.4.4,0,0,1-.32-.17c-.51-.71-1-1.41-1.57-2.1a.4.4,0,0,1,.63-.49c.54.7,1.07,1.41,1.58,2.13a.39.39,0,0,1-.09.55A.4.4,0,0,1,171.24,67.64ZM54.6,65.51a.38.38,0,0,1-.25-.09.4.4,0,0,1-.07-.55c.55-.7,1.1-1.39,1.67-2.07a.42.42,0,0,1,.56,0,.4.4,0,0,1,.05.56q-.84,1-1.65,2A.41.41,0,0,1,54.6,65.51Zm113.41-2a.41.41,0,0,1-.31-.14c-.56-.67-1.13-1.33-1.72-2a.39.39,0,0,1,0-.56.4.4,0,0,1,.56,0c.59.66,1.17,1.33,1.74,2a.4.4,0,0,1-.05.56A.38.38,0,0,1,168,63.47Zm-110-2a.38.38,0,0,1-.27-.1.4.4,0,0,1,0-.56c.6-.65,1.21-1.3,1.83-1.93a.39.39,0,1,1,.56.55c-.61.63-1.21,1.27-1.8,1.91A.39.39,0,0,1,58,61.46Zm106.46-1.89a.39.39,0,0,1-.28-.12c-.61-.63-1.23-1.24-1.87-1.84a.4.4,0,0,1,.55-.57q1,.9,1.89,1.86a.38.38,0,0,1,0,.55A.39.39,0,0,1,164.46,59.57ZM61.69,57.69a.38.38,0,0,1-.28-.12.4.4,0,0,1,0-.56c.65-.61,1.3-1.21,2-1.79a.4.4,0,0,1,.56,0,.41.41,0,0,1,0,.56c-.66.58-1.31,1.17-1.94,1.77A.43.43,0,0,1,61.69,57.69Zm98.95-1.75a.35.35,0,0,1-.26-.1c-.66-.57-1.33-1.14-2-1.69a.39.39,0,1,1,.5-.61c.68.56,1.36,1.13,2,1.71a.41.41,0,0,1,0,.56A.39.39,0,0,1,160.64,55.94Zm-95-1.74a.41.41,0,0,1-.31-.14.4.4,0,0,1,.06-.56c.69-.56,1.38-1.11,2.09-1.64a.4.4,0,1,1,.48.63q-1,.8-2.07,1.62A.4.4,0,0,1,65.67,54.2Zm90.88-1.59a.38.38,0,0,1-.24-.08c-.69-.52-1.4-1-2.12-1.54a.39.39,0,0,1-.09-.55.4.4,0,0,1,.55-.1c.72.51,1.44,1,2.14,1.56a.4.4,0,0,1,.08.56A.41.41,0,0,1,156.55,52.61ZM69.89,51a.4.4,0,0,1-.22-.72c.72-.51,1.46-1,2.21-1.48a.39.39,0,1,1,.42.66c-.73.48-1.46,1-2.18,1.47A.48.48,0,0,1,69.89,51Zm82.35-1.42a.36.36,0,0,1-.22-.07q-1.1-.7-2.22-1.38a.39.39,0,0,1,.4-.68c.76.45,1.51.92,2.25,1.4a.38.38,0,0,1,.12.54A.4.4,0,0,1,152.24,49.6Zm-77.9-1.45A.4.4,0,0,1,74,48a.39.39,0,0,1,.14-.54q1.14-.68,2.31-1.32a.4.4,0,1,1,.38.7c-.77.42-1.53.85-2.29,1.3A.35.35,0,0,1,74.34,48.15Zm73.37-1.25a.34.34,0,0,1-.19,0c-.76-.41-1.54-.82-2.32-1.21a.4.4,0,1,1,.35-.71c.79.4,1.58.81,2.35,1.23a.41.41,0,0,1,.16.54A.39.39,0,0,1,147.71,46.9ZM79,45.62a.4.4,0,0,1-.18-.75c.8-.39,1.6-.78,2.41-1.14a.39.39,0,1,1,.32.72c-.8.36-1.59.74-2.37,1.13A.39.39,0,0,1,79,45.62Zm64-1.08a.45.45,0,0,1-.16,0c-.8-.37-1.6-.72-2.41-1a.4.4,0,0,1-.22-.52.4.4,0,0,1,.52-.21c.82.34,1.63.69,2.44,1.05a.4.4,0,0,1,.19.53A.38.38,0,0,1,143,44.54ZM83.8,43.44a.4.4,0,0,1-.36-.25.4.4,0,0,1,.21-.52c.82-.33,1.65-.65,2.48-1a.4.4,0,0,1,.51.24.39.39,0,0,1-.24.5c-.82.31-1.64.63-2.44,1A.45.45,0,0,1,83.8,43.44Zm54.31-.91-.14,0c-.81-.3-1.64-.59-2.47-.87a.4.4,0,1,1,.25-.75c.84.28,1.67.57,2.5.88a.39.39,0,0,1,.23.51A.4.4,0,0,1,138.11,42.53Zm-49.35-.92a.41.41,0,0,1-.38-.27.4.4,0,0,1,.25-.5c.84-.28,1.69-.54,2.54-.79a.4.4,0,0,1,.22.76c-.84.25-1.68.51-2.51.78Zm44.34-.74-.11,0c-.84-.24-1.68-.47-2.53-.69a.39.39,0,0,1-.29-.48.39.39,0,0,1,.48-.28c.86.21,1.71.45,2.56.69a.4.4,0,0,1-.11.78Zm-39.27-.73a.41.41,0,0,1-.39-.3.4.4,0,0,1,.29-.48c.86-.21,1.72-.41,2.59-.6a.4.4,0,0,1,.16.78c-.86.18-1.71.38-2.56.59ZM128,39.57h-.08c-.85-.18-1.71-.35-2.58-.5a.4.4,0,0,1-.32-.46.39.39,0,0,1,.46-.32c.88.15,1.74.32,2.61.51a.4.4,0,0,1,.3.47A.39.39,0,0,1,128,39.57ZM99,39a.4.4,0,0,1-.39-.33.4.4,0,0,1,.32-.46c.87-.15,1.74-.29,2.62-.41a.4.4,0,0,1,.45.34.39.39,0,0,1-.34.44c-.87.13-1.73.26-2.59.41Zm23.8-.39h-.06c-.86-.12-1.73-.23-2.61-.32a.4.4,0,0,1,.09-.79c.88.1,1.76.2,2.63.33a.4.4,0,0,1,.34.45A.41.41,0,0,1,122.79,38.65Zm-18.57-.34a.42.42,0,0,1-.4-.36.39.39,0,0,1,.36-.43c.87-.1,1.75-.17,2.64-.23a.38.38,0,0,1,.42.36.4.4,0,0,1-.36.43c-.88.06-1.75.13-2.62.22Zm13.32-.22h0c-.87-.07-1.74-.11-2.62-.14a.4.4,0,0,1-.38-.41.38.38,0,0,1,.41-.39c.88,0,1.77.08,2.65.15a.39.39,0,0,1,.36.42A.39.39,0,0,1,117.54,38.09Zm-8.05-.15a.4.4,0,0,1-.4-.38.39.39,0,0,1,.38-.41c.88,0,1.77,0,2.65,0h.14a.4.4,0,1,1,0,.8h-.14c-.87,0-1.75,0-2.62,0Z" transform="translate(-12.46 -14.77)"/></g><g class="cls-6"><path class="cls-3" d="M131.12,166.35h.61s.31-.19.15-.35-.63-.47-.63-1,1-.72.75-1.05c-1.74-2.71-6.28-5.52-6.67-5.65a20.34,20.34,0,0,1-3.56-.8c-2-.73-2.12-1.39-3.2-1.39h-6.35c-1.09,0-1.18.66-3.21,1.39a20.31,20.31,0,0,1-3.55.8c-.4.13-4.93,2.94-6.68,5.65-.21.33.75.5.75,1.05a1.42,1.42,0,0,1-.62,1c-.16.16.15.35.15.35h.61a18.69,18.69,0,1,0,31.45,0Zm-15.73,1.55a8.53,8.53,0,1,1-8.52,8.53A8.53,8.53,0,0,1,115.39,167.9Z" transform="translate(-12.46 -14.77)"/><path class="cls-3" d="M115.39,184.94a8.51,8.51,0,1,0-8.51-8.51A8.51,8.51,0,0,0,115.39,184.94Zm5.54-11.31a.93.93,0,1,1-.6,1.18A.94.94,0,0,1,120.93,173.63Zm-1.39,8.48a.93.93,0,1,1,.2-1.29A.93.93,0,0,1,119.54,182.11Zm-4.15-12.75a.93.93,0,1,1-.93.93A.93.93,0,0,1,115.39,169.36Zm0,3a4.09,4.09,0,1,1-4.08,4.09A4.09,4.09,0,0,1,115.39,172.34ZM111,180.82a.93.93,0,1,1,.21,1.29A.92.92,0,0,1,111,180.82Zm-2.35-6.59a.94.94,0,0,1,1.17-.6,1,1,0,0,1,.6,1.18.93.93,0,0,1-1.77-.58Z" transform="translate(-12.46 -14.77)"/></g><path class="cls-7" d="M132.08,174.43a18.69,18.69,0,1,1-18.69-18.69A18.69,18.69,0,0,1,132.08,174.43Zm-18.69-13.14a13.14,13.14,0,1,0,13.14,13.14A13.14,13.14,0,0,0,113.39,161.29Z" transform="translate(-12.46 -14.77)"/><path class="cls-8" d="M132.08,174.43a18.69,18.69,0,1,1-18.69-18.69A18.69,18.69,0,0,1,132.08,174.43Zm-18.69-13.14a13.14,13.14,0,1,0,13.14,13.14A13.14,13.14,0,0,0,113.39,161.29Z" transform="translate(-12.46 -14.77)"/><path class="cls-9" d="M126.61,174.43a13.22,13.22,0,1,1-13.22-13.22A13.22,13.22,0,0,1,126.61,174.43Zm-13.22-12.25a12.25,12.25,0,1,0,12.25,12.25A12.25,12.25,0,0,0,113.39,162.18Z" transform="translate(-12.46 -14.77)"/><path class="cls-10" d="M126,174.43a12.63,12.63,0,1,1-12.63-12.63A12.62,12.62,0,0,1,126,174.43Zm-12.63-8.53a8.53,8.53,0,1,0,8.53,8.53A8.53,8.53,0,0,0,113.39,165.9Z" transform="translate(-12.46 -14.77)"/><path class="cls-11" d="M121.9,174.43a8.51,8.51,0,1,1-8.51-8.51A8.51,8.51,0,0,1,121.9,174.43Zm-8.51-4.09a4.09,4.09,0,1,0,4.09,4.09A4.09,4.09,0,0,0,113.39,170.34Zm0-3a.93.93,0,1,0,.93.93A.93.93,0,0,0,113.39,167.36Zm-6.7,4.87a.93.93,0,0,0,1.77.58,1,1,0,0,0-.6-1.18A.94.94,0,0,0,106.69,172.23Zm2.56,7.88a.93.93,0,1,0-.21-1.29A.92.92,0,0,0,109.25,180.11Zm8.29,0a.93.93,0,0,0-1.1-1.5.93.93,0,1,0,1.1,1.5Zm2.56-7.88a.93.93,0,1,0-.6,1.17A.94.94,0,0,0,120.1,172.23Z" transform="translate(-12.46 -14.77)"/><path class="cls-10" d="M99,174.18a.4.4,0,0,1,0-.79.4.4,0,1,1,0,.79Z" transform="translate(-12.46 -14.77)"/><path class="cls-10" d="M97.92,175.27a.4.4,0,1,1,.39-.39A.39.39,0,0,1,97.92,175.27Z" transform="translate(-12.46 -14.77)"/><path class="cls-10" d="M97,176.53a.39.39,0,1,1,.39-.39A.38.38,0,0,1,97,176.53Z" transform="translate(-12.46 -14.77)"/><path class="cls-10" d="M96.41,177.91a.4.4,0,1,1,.39-.39A.4.4,0,0,1,96.41,177.91Z" transform="translate(-12.46 -14.77)"/><path class="cls-10" d="M96,179.44a.4.4,0,0,1,0-.79.4.4,0,1,1,0,.79Z" transform="translate(-12.46 -14.77)"/><path class="cls-10" d="M100.15,180.05a.39.39,0,0,1-.52-.2.4.4,0,0,1,.2-.52.39.39,0,0,1,.32.72Z" transform="translate(-12.46 -14.77)"/><path class="cls-10" d="M99.6,181.49a.39.39,0,1,1,.2-.52A.39.39,0,0,1,99.6,181.49Z" transform="translate(-12.46 -14.77)"/><path class="cls-10" d="M99.26,183a.39.39,0,0,1-.52-.2.41.41,0,0,1,.2-.52.41.41,0,0,1,.52.2A.39.39,0,0,1,99.26,183Z" transform="translate(-12.46 -14.77)"/><path class="cls-10" d="M99.29,184.52a.39.39,0,1,1,.2-.52A.39.39,0,0,1,99.29,184.52Z" transform="translate(-12.46 -14.77)"/><path class="cls-10" d="M99.58,186.06a.39.39,0,1,1-.32-.72.41.41,0,0,1,.52.2A.39.39,0,0,1,99.58,186.06Z" transform="translate(-12.46 -14.77)"/><path class="cls-10" d="M103.58,185a.39.39,0,1,1-.58-.53.4.4,0,0,1,.56,0A.4.4,0,0,1,103.58,185Z" transform="translate(-12.46 -14.77)"/><path class="cls-10" d="M103.67,186.49a.39.39,0,0,1-.59-.52.39.39,0,0,1,.56,0A.39.39,0,0,1,103.67,186.49Z" transform="translate(-12.46 -14.77)"/><path class="cls-10" d="M104,188a.39.39,0,1,1,0-.56A.39.39,0,0,1,104,188Z" transform="translate(-12.46 -14.77)"/><path class="cls-10" d="M104.61,189.38a.39.39,0,1,1,0-.56A.39.39,0,0,1,104.61,189.38Z" transform="translate(-12.46 -14.77)"/><path class="cls-10" d="M105.51,190.68a.4.4,0,1,1,0-.56A.4.4,0,0,1,105.51,190.68Z" transform="translate(-12.46 -14.77)"/><path class="cls-10" d="M108.71,188a.39.39,0,0,1-.49.25.39.39,0,1,1,.24-.75A.4.4,0,0,1,108.71,188Z" transform="translate(-12.46 -14.77)"/><path class="cls-10" d="M109.41,189.41a.39.39,0,0,1-.49.25.41.41,0,0,1-.26-.5.4.4,0,0,1,.5-.25A.39.39,0,0,1,109.41,189.41Z" transform="translate(-12.46 -14.77)"/><path class="cls-10" d="M110.33,190.68a.39.39,0,0,1-.5.25.38.38,0,0,1-.25-.49.4.4,0,0,1,.49-.26A.41.41,0,0,1,110.33,190.68Z" transform="translate(-12.46 -14.77)"/><path class="cls-10" d="M111.45,191.66a.39.39,0,0,1-.74-.24.39.39,0,1,1,.74.24Z" transform="translate(-12.46 -14.77)"/><path class="cls-10" d="M112.8,192.48a.4.4,0,0,1-.75-.25.4.4,0,0,1,.75.25Z" transform="translate(-12.46 -14.77)"/><path class="cls-10" d="M114.65,188.76a.4.4,0,0,1-.35.43.39.39,0,0,1-.43-.35.38.38,0,0,1,.35-.43A.39.39,0,0,1,114.65,188.76Z" transform="translate(-12.46 -14.77)"/><path class="cls-10" d="M115.85,189.73a.39.39,0,0,1-.35.43.39.39,0,0,1-.08-.78A.39.39,0,0,1,115.85,189.73Z" transform="translate(-12.46 -14.77)"/><path class="cls-10" d="M117.2,190.52a.39.39,0,1,1-.78.08.39.39,0,0,1,.78-.08Z" transform="translate(-12.46 -14.77)"/><path class="cls-10" d="M118.63,191a.39.39,0,0,1-.35.43.39.39,0,1,1,.35-.43Z" transform="translate(-12.46 -14.77)"/><path class="cls-10" d="M120.19,191.16a.39.39,0,1,1-.78.08.39.39,0,0,1,.78-.08Z" transform="translate(-12.46 -14.77)"/><path class="cls-10" d="M120.37,187a.39.39,0,1,1-.54-.15A.4.4,0,0,1,120.37,187Z" transform="translate(-12.46 -14.77)"/><path class="cls-10" d="M121.86,187.41a.39.39,0,1,1-.54-.15A.4.4,0,0,1,121.86,187.41Z" transform="translate(-12.46 -14.77)"/><path class="cls-10" d="M123.42,187.58a.4.4,0,0,1-.15.54.39.39,0,0,1-.39-.68A.39.39,0,0,1,123.42,187.58Z" transform="translate(-12.46 -14.77)"/><path class="cls-10" d="M124.9,187.4a.39.39,0,0,1-.14.54.4.4,0,1,1,.14-.54Z" transform="translate(-12.46 -14.77)"/><path class="cls-10" d="M126.41,187a.39.39,0,1,1-.54-.15A.4.4,0,0,1,126.41,187Z" transform="translate(-12.46 -14.77)"/><path class="cls-10" d="M124.88,183.08a.39.39,0,1,1-.55.09A.4.4,0,0,1,124.88,183.08Z" transform="translate(-12.46 -14.77)"/><path class="cls-10" d="M126.41,182.84a.4.4,0,0,1,.08.55.38.38,0,0,1-.54.09.39.39,0,1,1,.46-.64Z" transform="translate(-12.46 -14.77)"/><path class="cls-10" d="M127.9,182.37a.39.39,0,0,1,.09.55.4.4,0,0,1-.55.08.39.39,0,0,1-.09-.55A.4.4,0,0,1,127.9,182.37Z" transform="translate(-12.46 -14.77)"/><path class="cls-10" d="M129.18,181.6a.39.39,0,0,1,.09.55.4.4,0,0,1-.55.08.39.39,0,0,1-.09-.55A.4.4,0,0,1,129.18,181.6Z" transform="translate(-12.46 -14.77)"/><path class="cls-10" d="M130.38,180.57a.4.4,0,0,1,.08.55.39.39,0,0,1-.55.09.4.4,0,0,1-.08-.55A.39.39,0,0,1,130.38,180.57Z" transform="translate(-12.46 -14.77)"/><path class="cls-10" d="M127.41,177.66a.4.4,0,0,1,.3.47.39.39,0,0,1-.77-.16A.4.4,0,0,1,127.41,177.66Z" transform="translate(-12.46 -14.77)"/><path class="cls-10" d="M128.71,176.82a.4.4,0,0,1,.3.47.4.4,0,0,1-.47.3.39.39,0,0,1-.3-.47A.39.39,0,0,1,128.71,176.82Z" transform="translate(-12.46 -14.77)"/><path class="cls-10" d="M129.88,175.78a.39.39,0,0,1,.3.47.39.39,0,1,1-.77-.17A.39.39,0,0,1,129.88,175.78Z" transform="translate(-12.46 -14.77)"/><path class="cls-10" d="M130.73,174.55a.41.41,0,0,1,.31.47.4.4,0,0,1-.47.3.38.38,0,0,1-.3-.46A.4.4,0,0,1,130.73,174.55Z" transform="translate(-12.46 -14.77)"/><path class="cls-10" d="M131.41,173.13a.4.4,0,0,1,.3.47.39.39,0,0,1-.77-.16A.4.4,0,0,1,131.41,173.13Z" transform="translate(-12.46 -14.77)"/><path class="cls-10" d="M127.51,171.68a.4.4,0,0,1,.47.31.39.39,0,0,1-.77.16A.4.4,0,0,1,127.51,171.68Z" transform="translate(-12.46 -14.77)"/><path class="cls-10" d="M128.35,170.39a.39.39,0,0,1,.47.3.4.4,0,0,1-.3.47.41.41,0,0,1-.47-.31A.39.39,0,0,1,128.35,170.39Z" transform="translate(-12.46 -14.77)"/><path class="cls-10" d="M129,169a.4.4,0,0,1,.47.3.4.4,0,0,1-.31.47.39.39,0,0,1-.46-.31A.38.38,0,0,1,129,169Z" transform="translate(-12.46 -14.77)"/><path class="cls-10" d="M129.28,167.49a.39.39,0,0,1,.47.3.39.39,0,0,1-.3.47.4.4,0,0,1-.47-.3A.4.4,0,0,1,129.28,167.49Z" transform="translate(-12.46 -14.77)"/><path class="cls-10" d="M129.32,165.92a.39.39,0,0,1,.47.3.4.4,0,0,1-.3.47.4.4,0,0,1-.47-.3A.39.39,0,0,1,129.32,165.92Z" transform="translate(-12.46 -14.77)"/><path class="cls-10" d="M125.18,166.18a.38.38,0,0,1,.54.08.39.39,0,0,1-.63.47A.39.39,0,0,1,125.18,166.18Z" transform="translate(-12.46 -14.77)"/><path class="cls-10" d="M125.42,164.65a.39.39,0,0,1,.55.09.39.39,0,1,1-.64.46A.39.39,0,0,1,125.42,164.65Z" transform="translate(-12.46 -14.77)"/><path class="cls-10" d="M125.43,163.08a.39.39,0,0,1,.55.09.41.41,0,0,1-.09.55.39.39,0,1,1-.46-.64Z" transform="translate(-12.46 -14.77)"/><path class="cls-10" d="M125.09,161.63a.4.4,0,0,1,.55.08.39.39,0,0,1-.09.55.39.39,0,1,1-.46-.63Z" transform="translate(-12.46 -14.77)"/><path class="cls-10" d="M124.48,160.17a.41.41,0,0,1,.55.09.4.4,0,0,1-.08.55.39.39,0,0,1-.55-.09A.4.4,0,0,1,124.48,160.17Z" transform="translate(-12.46 -14.77)"/><path class="cls-10" d="M120.8,162.1a.4.4,0,0,1,.54-.15.39.39,0,0,1,.14.54.39.39,0,1,1-.68-.39Z" transform="translate(-12.46 -14.77)"/><path class="cls-10" d="M120.4,160.6a.4.4,0,0,1,.54-.14.39.39,0,0,1-.4.68A.4.4,0,0,1,120.4,160.6Z" transform="translate(-12.46 -14.77)"/><path class="cls-10" d="M119.77,159.17a.4.4,0,0,1,.54-.15.4.4,0,1,1-.54.15Z" transform="translate(-12.46 -14.77)"/><path class="cls-10" d="M118.87,158a.39.39,0,1,1,.68.39.39.39,0,0,1-.68-.39Z" transform="translate(-12.46 -14.77)"/><path class="cls-10" d="M117.73,156.9a.4.4,0,0,1,.54-.15.4.4,0,0,1,.14.54.39.39,0,0,1-.68-.39Z" transform="translate(-12.46 -14.77)"/><path class="cls-10" d="M115.15,160.15a.39.39,0,0,1,.43-.35.4.4,0,0,1,.35.43.39.39,0,0,1-.43.35A.38.38,0,0,1,115.15,160.15Z" transform="translate(-12.46 -14.77)"/><path class="cls-10" d="M114.17,159a.4.4,0,1,1,.35.43A.39.39,0,0,1,114.17,159Z" transform="translate(-12.46 -14.77)"/><path class="cls-10" d="M113,157.89a.4.4,0,1,1,.35.44A.41.41,0,0,1,113,157.89Z" transform="translate(-12.46 -14.77)"/><path class="cls-10" d="M111.71,157.17a.39.39,0,0,1,.43-.35.39.39,0,0,1,.35.43.39.39,0,0,1-.43.35A.38.38,0,0,1,111.71,157.17Z" transform="translate(-12.46 -14.77)"/><path class="cls-10" d="M110.22,156.65a.4.4,0,0,1,.44-.35.39.39,0,0,1,.35.43.4.4,0,0,1-.79-.08Z" transform="translate(-12.46 -14.77)"/><path class="cls-10" d="M109.19,160.67a.38.38,0,0,1,.25-.49.39.39,0,0,1,.5.25.41.41,0,0,1-.26.5A.39.39,0,0,1,109.19,160.67Z" transform="translate(-12.46 -14.77)"/><path class="cls-10" d="M107.81,160a.38.38,0,0,1,.25-.49.39.39,0,1,1-.25.49Z" transform="translate(-12.46 -14.77)"/><path class="cls-10" d="M106.32,159.48a.4.4,0,1,1,.5.25A.4.4,0,0,1,106.32,159.48Z" transform="translate(-12.46 -14.77)"/><path class="cls-10" d="M104.83,159.35a.41.41,0,0,1,.26-.5.4.4,0,0,1,.49.26.38.38,0,0,1-.25.49A.4.4,0,0,1,104.83,159.35Z" transform="translate(-12.46 -14.77)"/><path class="cls-10" d="M103.27,159.47a.38.38,0,0,1,.25-.49.38.38,0,0,1,.49.25.39.39,0,1,1-.74.24Z" transform="translate(-12.46 -14.77)"/><path class="cls-10" d="M104,163.57a.39.39,0,0,1,.58-.52.39.39,0,1,1-.58.52Z" transform="translate(-12.46 -14.77)"/><path class="cls-10" d="M102.41,163.49a.39.39,0,0,1,0-.55.39.39,0,0,1,.56,0,.39.39,0,0,1-.59.52Z" transform="translate(-12.46 -14.77)"/><path class="cls-10" d="M100.85,163.65a.4.4,0,1,1,.56,0A.41.41,0,0,1,100.85,163.65Z" transform="translate(-12.46 -14.77)"/><path class="cls-10" d="M99.44,164.13a.39.39,0,1,1,.56,0A.4.4,0,0,1,99.44,164.13Z" transform="translate(-12.46 -14.77)"/><path class="cls-10" d="M98.06,164.89a.39.39,0,1,1,.58-.53.39.39,0,0,1,0,.56A.39.39,0,0,1,98.06,164.89Z" transform="translate(-12.46 -14.77)"/><path class="cls-10" d="M100.36,168.35a.39.39,0,1,1,.32-.72.4.4,0,0,1,.2.52A.39.39,0,0,1,100.36,168.35Z" transform="translate(-12.46 -14.77)"/><path class="cls-10" d="M98.91,168.9a.41.41,0,0,1-.2-.52.41.41,0,0,1,.52-.2.39.39,0,0,1-.32.72Z" transform="translate(-12.46 -14.77)"/><path class="cls-10" d="M97.55,169.68a.39.39,0,1,1,.52-.2A.39.39,0,0,1,97.55,169.68Z" transform="translate(-12.46 -14.77)"/><path class="cls-10" d="M96.46,170.7a.39.39,0,1,1,.52-.2A.39.39,0,0,1,96.46,170.7Z" transform="translate(-12.46 -14.77)"/><path class="cls-10" d="M95.5,172a.41.41,0,0,1-.2-.52.39.39,0,1,1,.72.32A.39.39,0,0,1,95.5,172Z" transform="translate(-12.46 -14.77)"/><path class="cls-12" d="M130,161.94c-1.74-2.71-6.28-5.52-6.67-5.65a20.34,20.34,0,0,1-3.56-.8c-2-.73-2.12-1.39-3.2-1.39h-6.35c-1.09,0-1.18.66-3.21,1.39a20.31,20.31,0,0,1-3.55.8c-.4.13-4.93,2.94-6.68,5.65-.21.33.75.5.75,1.05a1.42,1.42,0,0,1-.62,1c-.16.16.15.35.15.35h8.8a14.25,14.25,0,0,1,7.53-2.3,13.67,13.67,0,0,1,7.54,2.3h8.8s.31-.19.15-.35-.63-.47-.63-1S130.22,162.27,130,161.94Z" transform="translate(-12.46 -14.77)"/><path class="cls-13" d="M121.58,162.53a16.17,16.17,0,0,0-8.19-2.3,16.57,16.57,0,0,0-8.17,2.3s-1.84-3.34-1-3.8l.26,0a14.29,14.29,0,0,0,3.3-.78A11.69,11.69,0,0,0,110,156.8l.23-.14h6.25l.22.14a11.86,11.86,0,0,0,2.29,1.11,14.06,14.06,0,0,0,3.3.78l.26,0C123.4,159.19,121.58,162.53,121.58,162.53Z" transform="translate(-12.46 -14.77)"/><path class="cls-14" d="M110.92,155.52a.9.9,0,1,1-.9-.9A.9.9,0,0,1,110.92,155.52Z" transform="translate(-12.46 -14.77)"/><path class="cls-15" d="M110.86,155.52a.84.84,0,0,1-1.68,0,.84.84,0,0,1,1.68,0Z" transform="translate(-12.46 -14.77)"/><path class="cls-14" d="M110.48,155.52a.46.46,0,0,1-.92,0,.46.46,0,0,1,.92,0Z" transform="translate(-12.46 -14.77)"/><path class="cls-14" d="M104.76,157.58a.91.91,0,1,1-.9-.9A.9.9,0,0,1,104.76,157.58Z" transform="translate(-12.46 -14.77)"/><path class="cls-15" d="M104.69,157.58a.84.84,0,0,1-1.67,0,.84.84,0,1,1,1.67,0Z" transform="translate(-12.46 -14.77)"/><path class="cls-14" d="M104.31,157.58a.46.46,0,0,1-.91,0,.46.46,0,1,1,.91,0Z" transform="translate(-12.46 -14.77)"/><path class="cls-14" d="M115.86,155.52a.91.91,0,1,0,.91-.9A.9.9,0,0,0,115.86,155.52Z" transform="translate(-12.46 -14.77)"/><path class="cls-15" d="M115.93,155.52a.84.84,0,1,0,1.67,0,.84.84,0,0,0-1.67,0Z" transform="translate(-12.46 -14.77)"/><path class="cls-14" d="M116.31,155.52a.46.46,0,1,0,.91,0,.46.46,0,0,0-.91,0Z" transform="translate(-12.46 -14.77)"/><path class="cls-14" d="M122,157.58a.9.9,0,1,0,.9-.9A.9.9,0,0,0,122,157.58Z" transform="translate(-12.46 -14.77)"/><path class="cls-15" d="M122.1,157.58a.83.83,0,0,0,.83.83.84.84,0,0,0,.84-.83.85.85,0,0,0-.84-.84A.84.84,0,0,0,122.1,157.58Z" transform="translate(-12.46 -14.77)"/><path class="cls-14" d="M122.48,157.58a.45.45,0,0,0,.45.45.46.46,0,0,0,.46-.45.47.47,0,0,0-.46-.46A.46.46,0,0,0,122.48,157.58Z" transform="translate(-12.46 -14.77)"/><g class="cls-6"><path class="cls-3" d="M146,119.37a19.64,19.64,0,0,0-.41-3.9c-.06-1.06-2.52-3.33-3.22-4-.36-.36-1.42-1.28-2.14-1.84a5.52,5.52,0,0,0-.51-.37l-.19-.11a.49.49,0,0,1-.25-.24l0-.05a3.14,3.14,0,0,1,.66-.15.64.64,0,0,1,.2,0l.1.06a2.85,2.85,0,0,1,.26.23l.06,0h0a.8.8,0,0,0,.16.08h.08A4.53,4.53,0,0,0,142,109c.75-.13,1.53-.23,2.29-.4a2.22,2.22,0,0,0,1.54-2.53c-.08-1-1.15-1.4-2-1.53s-2-.53-2.8,0c-1.17.71-.71,2.87-2.45,2.57h0c-1.42-2.55-5.53-8.9-5.87-9.26l-.13-.12a5.31,5.31,0,0,0-1.93-1.15c-.17,0-.34-.12-.53-.16-1.27-.22-14-.88-16.43-.88-2,0-11,.47-14.82.76-.82.06-1.42.12-1.64.16a4.56,4.56,0,0,0-.79.23l-.09,0a4.86,4.86,0,0,0-1.28.79l0,0,0,0a4.63,4.63,0,0,0-.37.33c-.07.08-.33.44-.68,1-1.25,1.87-3.87,6-5,8.08l-.13.22h0a1.81,1.81,0,0,1-.56,0c-1.09-.22-.87-2-1.89-2.59a1.66,1.66,0,0,0-.65-.21,7.64,7.64,0,0,0-2.15.26c-.79.12-1.75.43-2,1.29a.94.94,0,0,0-.06.24v.33a2.33,2.33,0,0,0,.8,1.85,2,2,0,0,0,.76.35c.75.17,1.53.27,2.29.4.24,0,.58.14.89.18h0a1.5,1.5,0,0,0,.3,0c.29-.08.33-.33.59-.43a1.74,1.74,0,0,1,.86.11,1.54,1.54,0,0,1-.51.43l0,0a18,18,0,0,0-2.55,2l-.93,1-.23.24-.35.36h0a5.84,5.84,0,0,0-1.72,2.58,19.39,19.39,0,0,0-.39,3.91c0,1,.3,3.8.57,6.59h0l0,.46,0,.17V139.4a.61.61,0,0,0,.6.6h7.56a.62.62,0,0,0,.6-.61v-4.72l23,.29h0l23.39-.34h0v4.73a.61.61,0,0,0,.59.6h7.56a.6.6,0,0,0,.61-.6l0-15.82a.54.54,0,0,0-.11-.35c0,.29,0,.6-.07.9,0-.3.05-.61.07-.9C145.88,121.46,146,120,146,119.37ZM144.75,134c.19-.4,0-.9.1-1.35a1,1,0,0,1,0-.14,1,1,0,0,0,0,.14C144.79,133.13,144.94,133.63,144.75,134Z" transform="translate(-12.46 -14.77)"/><path class="cls-3" d="M96.5,90.48l2.26-.33,5-2.29,1.59.29L114,84.21c1.6,2.12,3.64,3.74,5.49,3.87,3.36.24,9.26-4.6,11.83-7.37,2.81-3,4-6.28,2.53-9.54s-4.76-4.46-8.88-4.31c-3.77.15-11.29,1.46-13.3,4.16-1.11,1.49-1.2,4.08-.64,6.69l-8.62,4-.82,1.4-5,2.28-1.72,1.5-3.78,1.73-.69,2.52,2.36,1.13Zm31.6-21.56a5.26,5.26,0,0,1,3.69,8c-.18.33-.6.16-.79-.45a17.16,17.16,0,0,0-.91-3.64,17.46,17.46,0,0,0-2.17-3.06C127.59,69.27,127.74,68.84,128.1,68.92Z" transform="translate(-12.46 -14.77)"/></g><path class="cls-16" d="M86.52,104.82a6.47,6.47,0,0,0-.45.91c-.16.5-.23.75-.28.88a1.79,1.79,0,0,0-.87-.11c-.26.1-.3.35-.59.43a5.07,5.07,0,0,1-1.23-.17c-.75-.14-1.54-.24-2.28-.41a2.19,2.19,0,0,1-1.56-2.52c.08-1.06,1.15-1.41,2-1.53s2-.54,2.8,0C85.23,103,84.77,105.14,86.52,104.82Z" transform="translate(-12.46 -14.77)"/><path class="cls-17" d="M143.35,113.19c-.06-1.06-2.52-3.32-3.22-4a26.31,26.31,0,0,0-2.64-2.2c-.32-.2-.39-.2-.47-.41s-.12-.39-.28-.89a7.87,7.87,0,0,0-.45-.91c-1.41-2.55-5.53-8.9-5.87-9.26a5.19,5.19,0,0,0-2.58-1.43c-1.28-.22-14-.88-16.44-.88s-15.18.7-16.45.92a5,5,0,0,0-2.58,1.43c-.35.35-4.44,6.72-5.86,9.26a8,8,0,0,0-.44.92c-.16.5-.22.75-.28.89a1.52,1.52,0,0,1-.51.43.06.06,0,0,1,0,0,19.56,19.56,0,0,0-2.56,2c-1.16,1.23-3.16,3.09-3.21,4.14a18.58,18.58,0,0,0-.4,3.91c.05,1,.33,4.11.61,7.06s.57,6,.61,6.25c0,.44-.1.95.09,1.34s.7.51,1.5.51l6.57.08,23,.29,23.4-.33,6.15-.1c.79,0,1.3-.09,1.5-.49s0-.91.1-1.36.55-5.6.89-9.51c.14-1.71.27-3.16.3-3.79A19.77,19.77,0,0,0,143.35,113.19Zm-31.95-7.83c-7.43-.15-24,.81-24.48.82S93,95.85,93,95.85l18.39-.63,18.35.6s6.63,10.3,6.13,10.3S118.85,105.2,111.4,105.36Z" transform="translate(-12.46 -14.77)"/><path class="cls-18" d="M135.9,106.12c-.48,0-17.05-.92-24.49-.75-7.44-.16-24,.8-24.48.8S93,95.86,93,95.86l18.39-.64,18.35.6S136.4,106.12,135.9,106.12Z" transform="translate(-12.46 -14.77)"/><path class="cls-19" d="M88.45,132.39v4.72a.62.62,0,0,1-.6.61H80.29a.6.6,0,0,1-.6-.6V124.21c.28,3.09.58,6,.61,6.24,0,.45-.1,1,.09,1.36s.7.5,1.5.5Z" transform="translate(-12.46 -14.77)"/><path class="cls-19" d="M143.57,121.24v15.82a.6.6,0,0,1-.6.6h-7.56a.61.61,0,0,1-.6-.6v-4.73c3.43,0,5.92-.09,6.15-.09.79,0,1.3-.09,1.5-.49a4.37,4.37,0,0,0,.1-1.36c0-.31.54-5.6.89-9.51A.61.61,0,0,1,143.57,121.24Z" transform="translate(-12.46 -14.77)"/><path class="cls-16" d="M142,106.3c-.76.18-1.54.28-2.29.4a3.69,3.69,0,0,1-1.22.18c-.3-.08-.35-.33-.6-.43a1.8,1.8,0,0,0-.87.12c-.05-.14-.12-.4-.28-.89a6.47,6.47,0,0,0-.45-.91c1.74.32,1.28-1.85,2.45-2.57.79-.48,1.95-.1,2.8,0s1.93.47,2,1.52A2.19,2.19,0,0,1,142,106.3Z" transform="translate(-12.46 -14.77)"/><path class="cls-20" d="M128.15,113.48H94.67a.78.78,0,0,0-.66.86v7.6a.78.78,0,0,0,.66.85h33.48a.77.77,0,0,0,.66-.85v-7.6C128.81,113.86,128.52,113.48,128.15,113.48Zm-.08,8.46a.37.37,0,0,1,0,.12H94.77a.37.37,0,0,1,0-.12v-7.6a.37.37,0,0,1,0-.12h33.28a.37.37,0,0,1,0,.12Z" transform="translate(-12.46 -14.77)"/><path class="cls-21" d="M128.07,114.34v7.6a.37.37,0,0,1,0,.12H94.77a.37.37,0,0,1,0-.12v-7.6a.37.37,0,0,1,0-.12h33.28A.37.37,0,0,1,128.07,114.34Z" transform="translate(-12.46 -14.77)"/><path class="cls-21" d="M128.07,114.34v7.6a.37.37,0,0,1,0,.12H94.77a.37.37,0,0,1,0-.12v-7.6a.37.37,0,0,1,0-.12h33.28A.37.37,0,0,1,128.07,114.34Z" transform="translate(-12.46 -14.77)"/><path class="cls-5" d="M91.65,115.16c0,.87-.39,4-1.06,4.7-1,1-3.38.92-4.73.92-1.72,0-3.39-.12-5.09-.18-.15-1.56-.26-2.85-.29-3.45a14.54,14.54,0,0,1,.38-3.63c2,0,4.12-.08,6.13,0C88.36,113.58,91.59,113.09,91.65,115.16Z" transform="translate(-12.46 -14.77)"/><path class="cls-5" d="M131.3,115.16c0,.87.39,4,1,4.7,1,1,3.38.92,4.73.92,1.72,0,3.4-.12,5.1-.18.15-1.56.25-2.85.28-3.45a14.54,14.54,0,0,0-.38-3.63c-2,0-4.12-.08-6.13,0C134.58,113.58,131.35,113.09,131.3,115.16Z" transform="translate(-12.46 -14.77)"/><path class="cls-21" d="M142.46,131.76c-.21.4-.71.5-1.5.5l-6.17.09-23.38.33-23-.29-6.56-.08c-.8,0-1.3-.1-1.5-.51s-.05-.9-.1-1.34c0-.23-.32-3.16-.6-6.25l0-.46h63.56c-.29,3.22-.6,6.41-.63,6.65C142.5,130.85,142.65,131.35,142.46,131.76Z" transform="translate(-12.46 -14.77)"/><path class="cls-13" d="M89.71,128.39a.74.74,0,0,1-.73.74H81.71a.74.74,0,0,1-.73-.74V126.5a.74.74,0,0,1,.73-.74H89a.73.73,0,0,1,.73.74Z" transform="translate(-12.46 -14.77)"/><rect class="cls-13" x="120.65" y="110.99" width="8.74" height="3.37" rx="0.74"/><rect class="cls-20" x="82.29" y="100.27" width="33.33" height="0.67"/><rect class="cls-20" x="82.29" y="101.69" width="33.33" height="0.67"/><rect class="cls-20" x="82.29" y="103.11" width="33.33" height="0.67"/><rect class="cls-20" x="82.29" y="104.53" width="33.33" height="0.68"/><rect class="cls-20" x="82.29" y="105.95" width="33.33" height="0.67"/><path class="cls-21" d="M142,106.29c-.75.18-1.53.29-2.29.41a4.19,4.19,0,0,1-1.22.18c-.29-.08-.34-.33-.6-.43a1.76,1.76,0,0,0-.86.12c.07.21.14.21.47.4a28.88,28.88,0,0,1,2.64,2.21c.29.3.88.85,1.49,1.48-6.3-1.89-17.48-3.15-30.22-3.15s-23.94,1.26-30.22,3.15c.52-.56,1.07-1.11,1.5-1.56a18,18,0,0,1,2.55-2l0,0a1.87,1.87,0,0,0,.52-.44,1.69,1.69,0,0,0-.87-.11c-.26.1-.3.35-.61.43a4.36,4.36,0,0,1-1.22-.19c-.75-.12-1.53-.21-2.27-.39a2.18,2.18,0,0,1-1.56-2.53c.07-1,1.15-1.4,2-1.53s2-.53,2.8,0c1.17.7.7,2.89,2.45,2.57,1.41-2.55,5.51-8.92,5.86-9.27a5,5,0,0,1,2.57-1.43c1.28-.22,14-.91,16.45-.91s15.17.65,16.44.87a5,5,0,0,1,2.58,1.43c.35.36,4.46,6.71,5.88,9.26,1.74.31,1.28-1.86,2.45-2.57.79-.48,1.94-.1,2.79,0s1.93.47,2,1.51A2.17,2.17,0,0,1,142,106.29Z" transform="translate(-12.46 -14.77)"/><polygon class="cls-10" points="76.31 71.53 80.09 69.79 81.81 68.3 86.8 66.01 87.62 64.61 98.11 59.8 101.08 66.3 90.6 71.11 89.01 70.82 84.02 73.1 81.76 73.44 77.98 75.17 75.62 74.05 76.31 71.53"/><polygon class="cls-8" points="99.46 63.11 98.03 60 87.72 64.73 86.9 66.12 81.89 68.42 80.17 69.92 76.43 71.63 75.79 73.97 77.98 75.01 81.72 73.29 83.98 72.96 88.99 70.66 90.58 70.96 100.89 66.23 99.46 63.11"/><polygon class="cls-10" points="81.9 70.11 79.93 71.28 76.17 73.01 75.79 73.97 76.77 74.31 80.52 72.58 82.7 71.86 87.9 69.47 99.86 63.98 99.46 63.11 99.06 62.24 87.1 67.72 81.9 70.11"/><polygon class="cls-22" points="81.98 70.29 79.99 71.42 76.23 73.14 75.79 73.97 76.71 74.17 80.46 72.45 82.61 71.68 87.82 69.29 99.78 63.8 99.46 63.11 99.14 62.42 87.18 67.91 81.98 70.29"/><path class="cls-12" d="M117.16,85.8c-2.68-.19-5.75-3.49-7.34-7s-2.08-7.95-.48-10.11c2-2.69,9.53-4,13.31-4.16,4.11-.15,7.38,1,8.87,4.31s.28,6.52-2.52,9.54C126.42,81.2,120.52,86,117.16,85.8Zm12.35-11.12a5.26,5.26,0,0,0-3.69-8c-.36-.08-.51.35-.17.89a18.08,18.08,0,0,1,2.16,3.06,17.22,17.22,0,0,1,.91,3.65C128.91,74.84,129.34,75,129.51,74.68Z" transform="translate(-12.46 -14.77)"/><path class="cls-23" d="M122,81.6c1.3-1.74.9-5.35-.38-8.14s-3.76-5.45-5.92-5.61a5.29,5.29,0,0,0-2.4.56,5.38,5.38,0,0,0-2,1.45c-1.29,1.74-.89,5.36.39,8.15s3.76,5.45,5.92,5.6a5.29,5.29,0,0,0,2.4-.56A5.15,5.15,0,0,0,122,81.6Z" transform="translate(-12.46 -14.77)"/><path class="cls-12" d="M115.69,68.18a5.26,5.26,0,0,0-2.3.54,5,5,0,0,0-1.9,1.39c-1.19,1.6-.88,4.85.23,7.47l9.49-4.35C119.94,70.68,117.68,68.32,115.69,68.18Z" transform="translate(-12.46 -14.77)"/><path class="cls-12" d="M121.73,81.35c1.19-1.59.88-4.85-.23-7.47L112,78.23c1.27,2.55,3.53,4.91,5.52,5a5.82,5.82,0,0,0,4.2-1.93Z" transform="translate(-12.46 -14.77)"/><path class="cls-23" d="M124.86,74a1.89,1.89,0,1,1,.93-2.5A1.88,1.88,0,0,1,124.86,74Z" transform="translate(-12.46 -14.77)"/><path class="cls-24" d="M124.77,73.82a1.66,1.66,0,1,1,.81-2.2A1.66,1.66,0,0,1,124.77,73.82Z" transform="translate(-12.46 -14.77)"/><path class="cls-9" d="M116.63,78H119a0,0,0,0,1,0,0v1.84a.33.33,0,0,1-.33.33H117a.33.33,0,0,1-.33-.33V78a0,0,0,0,1,0,0Z" transform="translate(128.15 -75.75) rotate(65.36)"/><path class="cls-25" d="M119.45,78.36a.71.71,0,0,1-.34.92l.09.21a.92.92,0,1,0-.77-1.68l.1.21A.7.7,0,0,1,119.45,78.36Z" transform="translate(-12.46 -14.77)"/><path class="cls-23" d="M113.62,71.45H116a0,0,0,0,1,0,0v1.84a.33.33,0,0,1-.33.33h-1.75a.33.33,0,0,1-.33-.33V71.45A0,0,0,0,1,113.62,71.45Z" transform="translate(120.43 -76.84) rotate(65.36)"/><path class="cls-23" d="M117.11,73.27a.69.69,0,0,1-.34.92l.1.22a.94.94,0,0,0,.46-1.24.93.93,0,0,0-1.23-.45l.1.21A.69.69,0,0,1,117.11,73.27Z" transform="translate(-12.46 -14.77)"/><path class="cls-26" d="M135.33,36.31a19.58,19.58,0,0,0-3.39-11l-.15.11a19.55,19.55,0,0,0-32.4,0l-.15-.11a19.68,19.68,0,0,0,1.51,24l.14-.14a19.5,19.5,0,0,0,29.4,0l.14.14A19.63,19.63,0,0,0,135.33,36.31Zm-3.45,0q0-.69-.06-1.38Q131.88,35.62,131.88,36.31Zm-.1-1.77c0-.33-.08-.65-.14-1C131.7,33.89,131.74,34.21,131.78,34.54Zm-.2,4.86c0-.13,0-.27.07-.4C131.63,39.13,131.61,39.27,131.58,39.4Zm.2-1.35c0-.13,0-.27,0-.4C131.81,37.78,131.8,37.92,131.78,38.05ZM115.59,19.82a16.47,16.47,0,0,1,13.77,7.43l-.16.12a16.2,16.2,0,0,1,2.41,6,45.65,45.65,0,0,0-6.69-1.9,45.4,45.4,0,0,0-18.67,0,11.45,11.45,0,0,0-1,3.56,11.45,11.45,0,0,1,1-3.56,45,45,0,0,0-6.68,1.9,16.18,16.18,0,0,1,2.4-6l-.15-.12A16.47,16.47,0,0,1,115.59,19.82Zm11.65,13.79c1.26.33,2.27.66,3,.91a13.34,13.34,0,0,1,.11,1.79,14.41,14.41,0,0,1-.2,2.46A10.23,10.23,0,0,0,129,38.7a10.75,10.75,0,0,0-1.68.13,13.13,13.13,0,0,0,.24-2.52A12.75,12.75,0,0,0,127.24,33.61Zm-9.95,17.55a16.28,16.28,0,0,1-1.7.09,16,16,0,0,1-1.7-.09c-.09-.67-.22-1.51-.43-2.44a12,12,0,0,0,4.26,0A24.52,24.52,0,0,0,117.29,51.16Zm.8,1.44c-.29,0-.59.09-.89.12C117.5,52.69,117.8,52.64,118.09,52.6Zm-4.12.12c-.3,0-.59-.08-.89-.13C113.38,52.64,113.67,52.69,114,52.72ZM103.89,38.83a10.71,10.71,0,0,0-1.67-.13,10.23,10.23,0,0,0-1.17.07,14.42,14.42,0,0,1-.21-2.46,15.22,15.22,0,0,1,.11-1.79c.71-.25,1.73-.58,3-.91a13.44,13.44,0,0,0-.27,2.7A14,14,0,0,0,103.89,38.83Zm-4.54-1.18c0,.13,0,.27,0,.4C99.38,37.92,99.36,37.78,99.35,37.65ZM99.52,39c0,.13,0,.27.07.4C99.57,39.27,99.55,39.13,99.52,39Zm0-5.43c0,.32-.1.64-.13,1C99.43,34.21,99.48,33.89,99.53,33.57Zm-.18,1.36c0,.46-.06.92-.06,1.38C99.29,35.85,99.32,35.39,99.35,34.93ZM103.05,47l.14-.14a16.23,16.23,0,0,1-3.32-6.26c.63-.23,2.86-.84,6.31.38l.62.23c2.15.86,3.49,2.93,4.32,5.07a22.72,22.72,0,0,1,1.34,6.21A16.46,16.46,0,0,1,103.05,47Zm15.66,5.49a22.86,22.86,0,0,1,1.35-6.21h0c.83-2.14,2.17-4.21,4.32-5.07L125,41a11.82,11.82,0,0,0,.72-2.25A11.82,11.82,0,0,1,125,41a9.49,9.49,0,0,1,6.31-.38A16.23,16.23,0,0,1,128,46.87l.14.14A16.45,16.45,0,0,1,118.71,52.5Z" transform="translate(-12.46 -14.77)"/><path class="cls-8" d="M133.13,34.31a19.55,19.55,0,1,1-19.54-19.54A19.54,19.54,0,0,1,133.13,34.31ZM113.59,17.82a16.49,16.49,0,1,0,16.49,16.49A16.49,16.49,0,0,0,113.59,17.82Z" transform="translate(-12.46 -14.77)"/><path class="cls-12" d="M113.59,45.36a9.82,9.82,0,0,0,4.47-1.07,22.52,22.52,0,0,0-1.35,6.22,16.93,16.93,0,0,1-6.24,0,23.32,23.32,0,0,0-1.35-6.22A9.79,9.79,0,0,0,113.59,45.36Zm1.7,3.8a24.52,24.52,0,0,1,.43-2.44,12,12,0,0,1-4.26,0c.21.93.34,1.77.43,2.44a16,16,0,0,0,1.7.09A16.28,16.28,0,0,0,115.29,49.16Z" transform="translate(-12.46 -14.77)"/><path class="cls-11" d="M122.92,29.47a45.4,45.4,0,0,0-18.67,0,11.78,11.78,0,0,0-.07,9.52l.62.23c2.15.86,3.49,2.93,4.32,5.07a9.87,9.87,0,0,0,8.94,0c.83-2.14,2.17-4.21,4.32-5.07L123,39a11.73,11.73,0,0,0-.08-9.52Z" transform="translate(-12.46 -14.77)"/><path class="cls-12" d="M113.59,45.21a9.08,9.08,0,0,1-4.2-1c-1-2.63-2.42-4.35-4.23-5.1l-.55-.22a11.87,11.87,0,0,1-.9-4.55,11.74,11.74,0,0,1,1-4.7,41.83,41.83,0,0,1,17.82,0,12,12,0,0,1,.06,9.25l-.54.22c-1.81.75-3.24,2.47-4.24,5.1A9,9,0,0,1,113.59,45.21Z" transform="translate(-12.46 -14.77)"/><path class="cls-11" d="M117.31,34.23a3.73,3.73,0,1,1-3.72-3.72A3.72,3.72,0,0,1,117.31,34.23Z" transform="translate(-12.46 -14.77)"/><path class="cls-13" d="M117,34.23a3.41,3.41,0,1,1-3.41-3.41A3.41,3.41,0,0,1,117,34.23Z" transform="translate(-12.46 -14.77)"/><path class="cls-27" d="M97.29,34.31a16.19,16.19,0,0,0,3.9,10.56l-2.44,2.44a19.68,19.68,0,0,1-1.51-24l2.73,2.1A16.22,16.22,0,0,0,97.29,34.31Z" transform="translate(-12.46 -14.77)"/><path class="cls-27" d="M129.88,34.31A16.18,16.18,0,0,1,126,44.87l2.44,2.44a19.68,19.68,0,0,0,1.51-24l-2.74,2.1A16.14,16.14,0,0,1,129.88,34.31Z" transform="translate(-12.46 -14.77)"/><path class="cls-9" d="M123,39a11.73,11.73,0,0,0-.08-9.52,45.12,45.12,0,0,1,6.7,1.9,16.83,16.83,0,0,1,.26,2.94,16.46,16.46,0,0,1-.57,4.3C128.68,38.38,126.45,37.77,123,39Zm4-2.29a10.23,10.23,0,0,1,1.17.07,14.41,14.41,0,0,0,.2-2.46,13.34,13.34,0,0,0-.11-1.79c-.71-.25-1.72-.58-3-.91a12.75,12.75,0,0,1,.28,2.7,13.13,13.13,0,0,1-.24,2.52A10.75,10.75,0,0,1,127,36.7Z" transform="translate(-12.46 -14.77)"/><path class="cls-9" d="M97.87,38.61a16.19,16.19,0,0,1-.31-7.24,44.47,44.47,0,0,1,6.69-1.9,11.78,11.78,0,0,0-.07,9.52C100.73,37.77,98.49,38.38,97.87,38.61Zm3.79-4.3a13.44,13.44,0,0,1,.27-2.7c-1.25.33-2.27.66-3,.91a15.22,15.22,0,0,0-.11,1.79,14.42,14.42,0,0,0,.21,2.46,10.23,10.23,0,0,1,1.17-.07,10.71,10.71,0,0,1,1.67.13A14,14,0,0,1,101.66,34.31Z" transform="translate(-12.46 -14.77)"/><g class="cls-6"><path class="cls-3" d="M45.86,155.63a5.72,5.72,0,1,0,5.72-5.72A5.72,5.72,0,0,0,45.86,155.63Zm10.5,0a4.79,4.79,0,1,1-4.78-4.78A4.79,4.79,0,0,1,56.36,155.63Z" transform="translate(-12.46 -14.77)"/><path class="cls-3" d="M51.58,122.41H42.2v17.68h2.64v-.93c0-1.92,1.31-2.81,3.09-2.81h1.72a51.53,51.53,0,0,1-.78,7.16c-.83,4.88-3.35,8.68-3.95,8.68h0v-.73H43.21v.73h-.15v1.92s-.66.44-.66.93v1.18c0,.49.66.94.66.94v1.91h.15v.74h1.67v-.74h0c.3,0,.75.59.89.78a7.14,7.14,0,0,0,11.53,0c.14-.19.59-.78.9-.78h0v.74h1.67v-.74h.15v-1.91s.67-.45.67-.94V155c0-.49-.67-.93-.67-.93v-1.92h-.15v-.73H58.27v.73h0c-.6,0-3.12-3.8-4-8.68a49.33,49.33,0,0,1-.77-7.16h1.71c1.78,0,3.09.89,3.09,2.81v.93H61V122.41Zm5.75,33.22a5.76,5.76,0,1,1-5.75-5.75A5.76,5.76,0,0,1,57.33,155.63Z" transform="translate(-12.46 -14.77)"/></g><rect class="cls-24" x="28.75" y="134.69" width="1.67" height="0.73"/><rect class="cls-24" x="28.75" y="142.3" width="1.67" height="0.73"/><rect class="cls-24" x="56.27" y="149.46" width="1.67" height="0.73" transform="translate(101.75 284.88) rotate(180)"/><rect class="cls-24" x="56.27" y="157.07" width="1.67" height="0.73" transform="translate(101.75 300.11) rotate(180)"/><path class="cls-8" d="M54.36,153.63a4.79,4.79,0,1,1-4.78-4.78A4.79,4.79,0,0,1,54.36,153.63Zm-4.78-5.72a5.72,5.72,0,1,0,5.72,5.72A5.72,5.72,0,0,0,49.58,147.91Z" transform="translate(-12.46 -14.77)"/><path class="cls-12" d="M55.33,153.63a5.76,5.76,0,1,1-5.75-5.75A5.76,5.76,0,0,1,55.33,153.63Zm2.76-1.52v-1.92H56.24c-.6,0-3.12-3.8-4-8.68a46,46,0,0,1-.78-7.68H47.65a44.65,44.65,0,0,1-.78,7.68c-.83,4.88-3.35,8.68-3.95,8.68H41.06v1.92s-.66.44-.66.93v1.18c0,.49.66.94.66.94v1.91h1.86c.3,0,.75.59.89.78a7.14,7.14,0,0,0,11.53,0c.14-.19.59-.78.9-.78h1.85v-1.91s.67-.45.67-.94V153C58.76,152.55,58.09,152.11,58.09,152.11Z" transform="translate(-12.46 -14.77)"/><path class="cls-9" d="M51.59,147.41a.7.7,0,0,0,.65-.25.73.73,0,0,0,.1-.7A24.38,24.38,0,0,1,51,141.74a55.5,55.5,0,0,1-.76-6.57H49a55.5,55.5,0,0,1-.76,6.57,24.67,24.67,0,0,1-1.38,4.73.72.72,0,0,0,.1.69.71.71,0,0,0,.65.26c.8-.12,1.74-.25,2-.25S50.81,147.3,51.59,147.41Z" transform="translate(-12.46 -14.77)"/><path class="cls-12" d="M42.05,137.16v.93h.79v-.93c0-1.92,1.31-2.81,3.09-2.81h-.79C43.36,134.35,42.05,135.24,42.05,137.16Z" transform="translate(-12.46 -14.77)"/><path class="cls-8" d="M49.58,120.41H40.2v17.68h1.85v-.93c0-1.92,1.31-2.81,3.09-2.81H54c1.78,0,3.08.89,3.08,2.81v.93H59V120.41Z" transform="translate(-12.46 -14.77)"/><path class="cls-12" d="M57.1,137.16v.93h-.79v-.93c0-1.92-1.31-2.81-3.09-2.81H54C55.8,134.35,57.1,135.24,57.1,137.16Z" transform="translate(-12.46 -14.77)"/><path class="cls-12" d="M52.18,130.23a2.61,2.61,0,1,1-2.6-2.6A2.6,2.6,0,0,1,52.18,130.23Zm-2.6-2.38A2.38,2.38,0,1,0,52,130.23,2.38,2.38,0,0,0,49.58,127.85Z" transform="translate(-12.46 -14.77)"/><rect class="cls-12" x="27.73" y="107.2" width="18.76" height="0.53"/><rect class="cls-12" x="27.73" y="108.3" width="18.76" height="0.53"/><rect class="cls-12" x="27.73" y="109.4" width="18.76" height="0.53"/><circle class="cls-26" cx="165.75" cy="61.07" r="19.86"/><circle class="cls-28" cx="176.21" cy="73.84" r="19.86" transform="translate(-13.07 -13.31) rotate(-0.47)"/><circle class="cls-27" cx="176.21" cy="73.84" r="19.69" transform="translate(53.71 215.25) rotate(-77.57)"/><path class="cls-11" d="M185.05,60.91A2,2,0,0,0,183,63v8.83h-4.74V63a2.05,2.05,0,1,0-4.1,0v8.83h-4.74V63a2,2,0,1,0-4.09,0V84.72a2,2,0,1,0,4.09,0V75.88h4.74v8.84a2,2,0,1,0,4.1,0V75.88H183v8.84a2,2,0,1,0,4.09,0V63A2,2,0,0,0,185.05,60.91Z" transform="translate(-12.46 -14.77)"/><path class="cls-12" d="M185.05,86.59a1.88,1.88,0,0,1-1.88-1.87v-9h-5.09v9a1.87,1.87,0,0,1-3.74,0v-9h-5.09v9a1.88,1.88,0,0,1-3.75,0V63a1.88,1.88,0,1,1,3.75,0v9h5.09V63a1.87,1.87,0,1,1,3.74,0v9h5.09V63a1.88,1.88,0,1,1,3.75,0V84.72A1.87,1.87,0,0,1,185.05,86.59Z" transform="translate(-12.46 -14.77)"/><path class="cls-8" d="M192.22,79.75c0-4.54-3.26-8.23-7.29-8.23s-7.29,3.69-7.29,8.23a9,9,0,0,0,.83,3.81h0c1,2.28,2.94,5.27,3.85,5.67a9.68,9.68,0,0,0,5.23,0c.9-.4,2.88-3.39,3.85-5.67h0A9,9,0,0,0,192.22,79.75Z" transform="translate(-12.46 -14.77)"/><path class="cls-12" d="M190.08,79.69c0,3.21-2.3,5.82-5.15,5.82s-5.15-2.61-5.15-5.82,2.31-5.81,5.15-5.81S190.08,76.48,190.08,79.69Z" transform="translate(-12.46 -14.77)"/><path class="cls-23" d="M187,81.72a.1.1,0,0,1-.1-.1V80a.11.11,0,0,0-.1-.1h-1.49a.11.11,0,0,0-.1.1v1.6a.1.1,0,0,1-.1.1h-.26a.11.11,0,0,1-.1-.1V80a.1.1,0,0,0-.1-.1h-1.48a.1.1,0,0,0-.1.1v1.6a.11.11,0,0,1-.1.1h-.27a.1.1,0,0,1-.09-.1V77.77a.09.09,0,0,1,.09-.1h.27a.1.1,0,0,1,.1.1v1.59a.09.09,0,0,0,.1.1h1.48a.09.09,0,0,0,.1-.1V77.77a.1.1,0,0,1,.1-.1h.26a.09.09,0,0,1,.1.1v1.59a.1.1,0,0,0,.1.1h1.49a.1.1,0,0,0,.1-.1V77.77a.09.09,0,0,1,.1-.1h.26a.1.1,0,0,1,.1.1v3.85a.11.11,0,0,1-.1.1Z" transform="translate(-12.46 -14.77)"/><path class="cls-5" d="M187,82.9v.48h-.23v-1.2h.36c.32,0,.48.11.48.35a.33.33,0,0,1-.25.33l.32.52h-.27l-.26-.48Zm.15-.17c.14,0,.22,0,.22-.2s-.08-.18-.24-.18H187v.38Z" transform="translate(-12.46 -14.77)"/><path class="cls-5" d="M182.78,77.16v-1l-.26.16-.1-.15.39-.23H183v1.17Z" transform="translate(-12.46 -14.77)"/><path class="cls-5" d="M185.24,76.26a.28.28,0,0,1-.23.28.27.27,0,0,1,.27.28.38.38,0,0,1-.42.36.5.5,0,0,1-.38-.16l.12-.12a.35.35,0,0,0,.24.11.19.19,0,0,0,.21-.2c0-.14-.08-.18-.21-.18h-.09l0-.16h.07a.18.18,0,0,0,.19-.18c0-.1-.07-.15-.18-.15a.3.3,0,0,0-.23.1l-.11-.12a.49.49,0,0,1,.36-.15C185.11,76,185.24,76.1,185.24,76.26Z" transform="translate(-12.46 -14.77)"/><path class="cls-5" d="M187,76.15v.29a.39.39,0,0,1,.18,0,.34.34,0,0,1,.34.38.4.4,0,0,1-.44.4.46.46,0,0,1-.37-.16l.13-.12a.3.3,0,0,0,.23.11.21.21,0,0,0,.22-.23c0-.17-.08-.22-.19-.22a.26.26,0,0,0-.15,0h-.16V76h.68l0,.16Z" transform="translate(-12.46 -14.77)"/><path class="cls-5" d="M183.17,82.52c0,.2-.11.34-.47.68h.5l0,.18h-.73v-.16c.4-.41.5-.52.5-.68a.16.16,0,0,0-.17-.17.25.25,0,0,0-.22.12l-.14-.11a.46.46,0,0,1,.38-.19A.34.34,0,0,1,183.17,82.52Z" transform="translate(-12.46 -14.77)"/><path class="cls-5" d="M185.24,83.11v.27H185v-.27h-.49V83l.34-.77.19.07-.3.68H185l0-.29h.19v.29h.14v.17Z" transform="translate(-12.46 -14.77)"/><g class="cls-6"><path class="cls-3" d="M182.25,140.82h0v0a1.37,1.37,0,0,0-1.36-1.37h0v-5a.62.62,0,0,1,0-.81h0a.73.73,0,0,0,0-1.11.62.62,0,0,1,0-.81h0a1,1,0,0,0,.2-.3h0a.8.8,0,0,0,.05-.21v-.09a.8.8,0,0,0-.05-.21h0a1,1,0,0,0-.2-.3h0a.62.62,0,0,1,0-.81h0a1,1,0,0,0,.2-.29h0a.8.8,0,0,0,.05-.21v-.1a.8.8,0,0,0-.05-.21h0a1,1,0,0,0-.2-.3.61.61,0,0,1,0-.8h0a1,1,0,0,0,.2-.3h0a.87.87,0,0,0,.05-.22v-.1a.84.84,0,0,0-.05-.2h0a1,1,0,0,0-.2-.3h0a.61.61,0,0,1,0-.8q-3.42,0-6.86,0a.6.6,0,0,1,0,.8h0a1,1,0,0,0-.19.3h0a.79.79,0,0,0,0,.2.33.33,0,0,0,0,.1.57.57,0,0,0,0,.22h0a1,1,0,0,0,.19.3h0a.6.6,0,0,1,0,.8,1,1,0,0,0-.19.3h0a.52.52,0,0,0,0,.21v.1a.52.52,0,0,0,0,.21h0a1,1,0,0,0,.19.29h0a.62.62,0,0,1,0,.81h0a1,1,0,0,0-.19.3h0a.52.52,0,0,0,0,.21v.09a.52.52,0,0,0,0,.21h0a1,1,0,0,0,.19.3h0a.61.61,0,0,1,0,.81.73.73,0,0,0,0,1.11h0a.6.6,0,0,1,0,.81v5h0a1.37,1.37,0,0,0-1.36,1.37v0h0l-1.85,1.26v2.29l1.85,1.25h0v1.69h0l-.65.51h0v2.38h0l.65.51h1.54v.55l-.31,0-.12.24.15.23.28,0v.49l-.31,0-.12.24.15.22.28,0v.49l-.31,0-.12.24.15.23.28,0v.49l-.31,0-.12.24.15.22h.28v.49l-.31,0-.12.24.15.22.28,0V156l-.31,0-.12.24.15.23.28,0V157l-.31,0-.12.24.15.22.28,0V158l-.31,0-.12.23.15.23.28,0v.49l-.31,0-.12.24.15.23.28,0v1.1h.33v1.06a1.36,1.36,0,0,0,1.36,1.37h2.68v-.72H176.1a.87.87,0,0,1-.87-.87v-.84h.62v.46h.81v.68h1.57v-.68H179v-.46h1.67v-1.56l.31,0,.12-.25-.15-.21-.28,0V158l.31,0,.12-.25-.15-.22-.28,0V157l.31,0,.12-.25-.15-.21-.28,0v-.49l.31,0,.12-.25-.15-.21-.28,0v-.49l.31,0,.12-.25-.15-.22-.28,0v-.49l.31,0,.12-.25-.15-.21-.28,0v-.49l.31,0,.12-.25-.15-.22-.28,0v-.49l.31,0,.12-.25-.15-.21-.28,0v-.49l.31,0,.12-.25-.15-.21-.28,0v-.1h1.54l.64-.51h0v-2.38h0l-.64-.51h0v-1.69h0l1.85-1.25v-2.29Z" transform="translate(-12.46 -14.77)"/><path class="cls-3" d="M180.87,125.92a1.51,1.51,0,0,0-1.39-1.13h0v-.43h-.18v-1.9l-.25-.36h0v-1.18h0l.25-.68h0v-1h0l-.16-.42a.38.38,0,0,0-.36-.25h-2.63a.39.39,0,0,0-.37.25l-.15.42h0v1h0l.24.68h0v1.18h0l-.24.36v1.9h-.18v.43h0a1.51,1.51,0,0,0-1.4,1.13l3.43,0Z" transform="translate(-12.46 -14.77)"/></g><rect class="cls-12" x="159.71" y="133.94" width="6.53" height="8.69"/><rect class="cls-12" x="159.71" y="142.63" width="6.53" height="1.08"/><rect class="cls-8" x="157.5" y="131.05" width="10.96" height="2.38"/><rect class="cls-9" x="158.15" y="128.85" width="9.66" height="1.68"/><path class="cls-10" d="M159.52,122.66h6.93a1.36,1.36,0,0,1,1.36,1.36v0a0,0,0,0,1,0,0h-9.66a0,0,0,0,1,0,0v0A1.36,1.36,0,0,1,159.52,122.66Z"/><rect class="cls-10" x="161.38" y="143.71" width="3.2" height="0.47"/><rect class="cls-8" x="162.19" y="144.18" width="1.58" height="0.68"/><polygon class="cls-15" points="167.78 130.54 158.18 130.54 157.53 131.05 168.43 131.05 167.78 130.54"/><polygon class="cls-11" points="167.78 133.94 158.18 133.94 157.53 133.43 168.43 133.43 167.78 133.94"/><polygon class="cls-10" points="166.56 142.13 159.44 142.63 159.28 142.4 159.41 142.16 166.52 141.67 166.68 141.88 166.56 142.13"/><polygon class="cls-10" points="166.56 141.18 159.44 141.67 159.28 141.44 159.41 141.21 166.52 140.71 166.68 140.93 166.56 141.18"/><polygon class="cls-10" points="166.56 140.22 159.44 140.71 159.28 140.49 159.41 140.25 166.52 139.76 166.68 139.97 166.56 140.22"/><polygon class="cls-10" points="166.56 139.27 159.44 139.76 159.28 139.53 159.41 139.29 166.52 138.8 166.68 139.02 166.56 139.27"/><polygon class="cls-10" points="166.56 138.31 159.44 138.8 159.28 138.58 159.41 138.34 166.52 137.85 166.68 138.06 166.56 138.31"/><polygon class="cls-10" points="166.56 137.35 159.44 137.85 159.28 137.62 159.41 137.38 166.52 136.89 166.68 137.1 166.56 137.35"/><polygon class="cls-10" points="166.56 136.4 159.44 136.89 159.28 136.66 159.41 136.43 166.52 135.93 166.68 136.15 166.56 136.4"/><polygon class="cls-10" points="166.56 135.44 159.44 135.93 159.28 135.71 159.41 135.47 166.52 134.98 166.68 135.19 166.56 135.44"/><polygon class="cls-10" points="166.56 134.49 159.44 134.98 159.28 134.75 159.41 134.51 166.52 134.02 166.68 134.24 166.56 134.49"/><path class="cls-10" d="M174.1,160.19a.87.87,0,0,1-.87-.87v-.84h-.72v1.06a1.36,1.36,0,0,0,1.36,1.37h2.68v-.72Z" transform="translate(-12.46 -14.77)"/><polygon class="cls-12" points="156.33 127.25 156.33 127.6 158.18 128.85 167.78 128.85 169.63 127.6 169.63 127.25 156.33 127.25"/><path class="cls-10" d="M178.87,131.59q-3.42,0-6.86,0a.6.6,0,0,1,0,.81q3.44,0,6.86,0A.62.62,0,0,1,178.87,131.59Z" transform="translate(-12.46 -14.77)"/><path class="cls-10" d="M178.87,129.67q-3.42,0-6.86,0a.6.6,0,0,1,0,.81q3.44,0,6.86,0A.62.62,0,0,1,178.87,129.67Z" transform="translate(-12.46 -14.77)"/><polygon class="cls-8" points="156.33 125.66 156.33 125.31 158.18 124.05 167.78 124.05 169.63 125.31 169.63 125.66 156.33 125.66"/><path class="cls-10" d="M178.87,127.75q-3.42,0-6.86,0a.6.6,0,0,1,0,.81q3.44,0,6.86,0A.62.62,0,0,1,178.87,127.75Z" transform="translate(-12.46 -14.77)"/><rect class="cls-8" x="159.55" y="117.63" width="6.86" height="5.02"/><path class="cls-10" d="M178.87,125.83q-3.42,0-6.86,0a.6.6,0,0,1,0,.81q3.44,0,6.86,0A.62.62,0,0,1,178.87,125.83Z" transform="translate(-12.46 -14.77)"/><path class="cls-10" d="M178.87,123.92q-3.42,0-6.86,0a.59.59,0,0,1,0,.8q3.44,0,6.86,0A.61.61,0,0,1,178.87,123.92Z" transform="translate(-12.46 -14.77)"/><path class="cls-8" d="M178.87,130.48q-3.42-.09-6.86,0a.73.73,0,0,0,0,1.11q3.44.09,6.86,0A.73.73,0,0,0,178.87,130.48Z" transform="translate(-12.46 -14.77)"/><path class="cls-8" d="M178.87,128.56q-3.42-.09-6.86,0a.73.73,0,0,0,0,1.11q3.44.09,6.86,0A.73.73,0,0,0,178.87,128.56Z" transform="translate(-12.46 -14.77)"/><path class="cls-8" d="M178.87,126.64q-3.42-.08-6.86,0a.73.73,0,0,0,0,1.11q3.44.09,6.86,0A.73.73,0,0,0,178.87,126.64Z" transform="translate(-12.46 -14.77)"/><path class="cls-8" d="M178.87,124.72q-3.42-.07-6.86,0a.74.74,0,0,0,0,1.12q3.44.07,6.86,0A.74.74,0,0,0,178.87,124.72Z" transform="translate(-12.46 -14.77)"/><path class="cls-8" d="M178.87,123.92a1.51,1.51,0,0,0-1.39-1.13h-4.07a1.51,1.51,0,0,0-1.4,1.13l3.43,0Z" transform="translate(-12.46 -14.77)"/><ellipse class="cls-8" cx="162.98" cy="126.45" rx="4.24" ry="1.85"/><path class="cls-10" d="M172.11,142.37a4.25,4.25,0,0,1-3.32,0v-2.29a4.17,4.17,0,0,1,3.32,0Z" transform="translate(-12.46 -14.77)"/><ellipse class="cls-10" cx="167.97" cy="126.45" rx="2.11" ry="1.85"/><path class="cls-23" d="M171.81,129.37h7.26a.57.57,0,0,0,0-.51h-7.26A.65.65,0,0,0,171.81,129.37Z" transform="translate(-12.46 -14.77)"/><path class="cls-23" d="M171.81,127.46h7.26a.59.59,0,0,0,0-.52h-7.26A.67.67,0,0,0,171.81,127.46Z" transform="translate(-12.46 -14.77)"/><path class="cls-23" d="M171.81,125.54h7.26a.59.59,0,0,0,0-.52h-7.26A.67.67,0,0,0,171.81,125.54Z" transform="translate(-12.46 -14.77)"/><rect class="cls-12" x="161.15" y="105.7" width="3.67" height="1.89"/><rect class="cls-12" x="161.4" y="104.15" width="3.17" height="1.18"/><rect class="cls-12" x="161.15" y="102.5" width="3.67" height="0.97"/><polygon class="cls-10" points="164.81 105.7 161.15 105.7 161.39 105.33 164.57 105.33 164.81 105.7"/><polygon class="cls-10" points="164.81 103.47 161.15 103.47 161.39 104.15 164.57 104.15 164.81 103.47"/><path class="cls-10" d="M177.28,117.27h-3.67l.15-.42a.39.39,0,0,1,.37-.25h2.63a.38.38,0,0,1,.36.25Z" transform="translate(-12.46 -14.77)"/><rect class="cls-10" x="160.96" y="107.59" width="4.03" height="0.43"/><circle class="cls-26" cx="48.01" cy="74.85" r="19.41" transform="translate(-44.64 21.65) rotate(-31.72)"/><circle class="cls-12" cx="46.01" cy="72.85" r="19.41" transform="translate(-51.36 72.7) rotate(-67.5)"/><circle class="cls-8" cx="46.01" cy="72.85" r="17.06" transform="translate(-47.92 86.12) rotate(-76.72)"/><rect class="cls-12" x="33.34" y="41.42" width="0.4" height="3.25"/><rect class="cls-12" x="44.65" y="56.52" width="0.24" height="1.34" transform="translate(-16.81 -11.08) rotate(-4.5)"/><rect class="cls-12" x="43.43" y="56.67" width="0.24" height="1.34" transform="translate(-20.9 -7.25) rotate(-9)"/><rect class="cls-12" x="42.22" y="56.91" width="0.24" height="1.34" transform="translate(-24.73 -3.3) rotate(-13.5)"/><rect class="cls-12" x="41.03" y="57.25" width="0.24" height="1.34" transform="translate(-28.34 0.78) rotate(-18)"/><rect class="cls-12" x="38.76" y="58.19" width="0.24" height="1.34" transform="translate(-34.95 9.3) rotate(-27)"/><rect class="cls-12" x="37.68" y="58.79" width="0.24" height="1.34" transform="translate(-37.96 13.75) rotate(-31.5)"/><rect class="cls-12" x="36.66" y="59.48" width="0.24" height="1.34" transform="translate(-40.79 18.34) rotate(-36)"/><rect class="cls-12" x="35.69" y="60.24" width="0.24" height="1.34" transform="translate(-43.44 23.08) rotate(-40.5)"/><rect class="cls-12" x="33.95" y="61.98" width="0.24" height="1.34" transform="translate(-48.16 33.09) rotate(-49.5)"/><rect class="cls-12" x="33.18" y="62.95" width="0.24" height="1.34" transform="translate(-50.2 38.4) rotate(-54)"/><rect class="cls-12" x="32.5" y="63.97" width="0.24" height="1.34" transform="translate(-52 43.91) rotate(-58.5)"/><rect class="cls-12" x="31.89" y="65.05" width="0.24" height="1.34" transform="translate(-53.54 49.64) rotate(-63)"/><rect class="cls-12" x="30.95" y="67.33" width="0.24" height="1.34" transform="translate(-55.66 61.76) rotate(-72)"/><rect class="cls-12" x="30.62" y="68.51" width="0.24" height="1.34" transform="translate(-56.17 68.16) rotate(-76.5)"/><rect class="cls-12" x="30.38" y="69.72" width="0.24" height="1.34" transform="translate(-56.26 74.73) rotate(-81)"/><rect class="cls-12" x="30.23" y="70.95" width="0.24" height="1.34" transform="translate(-55.89 81.49) rotate(-85.5)"/><rect class="cls-12" x="29.68" y="73.96" width="1.34" height="0.24" transform="translate(-18.18 -12.16) rotate(-4.5)"/><rect class="cls-12" x="29.83" y="75.18" width="1.34" height="0.24" transform="matrix(0.99, -0.16, 0.16, 0.99, -23.87, -9.07)"/><rect class="cls-12" x="30.07" y="76.39" width="1.34" height="0.24" transform="translate(-29.48 -5.47) rotate(-13.51)"/><rect class="cls-12" x="30.4" y="77.58" width="1.34" height="0.24" transform="translate(-34.95 -1.36) rotate(-18)"/><rect class="cls-12" x="31.35" y="79.85" width="1.34" height="0.24" transform="translate(-45.28 8.48) rotate(-27)"/><rect class="cls-12" x="31.95" y="80.93" width="1.34" height="0.24" transform="translate(-50 14.22) rotate(-31.5)"/><rect class="cls-12" x="32.63" y="81.96" width="1.34" height="0.24" transform="translate(-54.34 20.48) rotate(-36)"/><rect class="cls-12" x="33.4" y="82.92" width="1.34" height="0.24" transform="translate(-58.23 27.25) rotate(-40.5)"/><rect class="cls-12" x="57.83" y="82.38" width="0.24" height="1.34" transform="translate(-55.3 58.41) rotate(-49.5)"/><rect class="cls-12" x="58.59" y="81.41" width="0.24" height="1.34" transform="translate(-54.66 66.55) rotate(-53.99)"/><rect class="cls-12" x="59.27" y="80.38" width="0.24" height="1.34" transform="translate(-53.21 74.59) rotate(-58.51)"/><rect class="cls-12" x="59.88" y="79.31" width="0.24" height="1.34" transform="translate(-50.96 82.36) rotate(-63)"/><rect class="cls-12" x="60.82" y="77.03" width="0.24" height="1.34" transform="translate(-44.25 96.88) rotate(-72)"/><rect class="cls-12" x="61.15" y="75.84" width="0.24" height="1.34" transform="translate(-39.89 103.46) rotate(-76.5)"/><rect class="cls-12" x="61.39" y="74.64" width="0.24" height="1.34" transform="translate(-34.95 109.51) rotate(-81)"/><rect class="cls-12" x="61.54" y="73.41" width="0.24" height="1.34" transform="translate(-29.49 114.97) rotate(-85.5)"/><rect class="cls-12" x="60.99" y="71.49" width="1.34" height="0.24" transform="translate(-17.89 -9.71) rotate(-4.5)"/><rect class="cls-12" x="60.85" y="70.27" width="1.34" height="0.24" transform="translate(-22.71 -4.28) rotate(-9)"/><rect class="cls-12" x="60.61" y="69.06" width="1.34" height="0.24" transform="translate(-26.92 1.44) rotate(-13.5)"/><rect class="cls-12" x="60.27" y="67.87" width="1.34" height="0.24" transform="translate(-30.49 7.39) rotate(-18)"/><rect class="cls-12" x="59.33" y="65.6" width="1.34" height="0.24" transform="translate(-35.76 19.64) rotate(-27)"/><rect class="cls-12" x="58.73" y="64.52" width="1.34" height="0.24" transform="translate(-37.49 25.79) rotate(-31.5)"/><rect class="cls-12" x="58.04" y="63.5" width="1.34" height="0.24" transform="translate(-38.64 31.89) rotate(-36)"/><rect class="cls-12" x="57.28" y="62.53" width="1.34" height="0.24" transform="translate(-39.27 37.87) rotate(-40.5)"/><rect class="cls-12" x="55.54" y="60.79" width="1.34" height="0.24" transform="translate(-39.07 49.32) rotate(-49.5)"/><rect class="cls-12" x="54.57" y="60.02" width="1.34" height="0.24" transform="translate(-38.35 54.71) rotate(-54)"/><rect class="cls-12" x="53.54" y="59.34" width="1.34" height="0.24" transform="translate(-37.27 59.88) rotate(-58.52)"/><rect class="cls-12" x="52.47" y="58.74" width="1.34" height="0.24" transform="translate(-35.9 64.68) rotate(-62.98)"/><rect class="cls-12" x="50.19" y="57.79" width="1.34" height="0.24" transform="translate(-32.4 73.61) rotate(-72)"/><rect class="cls-12" x="49" y="57.46" width="1.34" height="0.24" transform="translate(-30.38 77.65) rotate(-76.48)"/><rect class="cls-12" x="47.79" y="57.22" width="1.34" height="0.24" transform="matrix(0.16, -0.99, 0.99, 0.16, -28.22, 81.45)"/><rect class="cls-12" x="46.57" y="57.07" width="1.34" height="0.24" transform="translate(-25.94 85.04) rotate(-85.51)"/><rect class="cls-12" x="40.05" y="57.33" width="0.4" height="3.25" transform="translate(-31.96 5.12) rotate(-22.5)"/><rect class="cls-12" x="35.17" y="60.59" width="0.4" height="3.25" transform="translate(-46.09 28.47) rotate(-45)"/><rect class="cls-12" x="31.91" y="65.47" width="0.4" height="3.25" transform="translate(-54.62 56.32) rotate(-67.5)"/><rect class="cls-12" x="16.89" y="57.88" width="3.25" height="0.4"/><rect class="cls-12" x="30.49" y="78.4" width="3.25" height="0.4" transform="translate(-40.1 3.5) rotate(-22.5)"/><rect class="cls-12" x="33.75" y="83.28" width="3.25" height="0.4" transform="translate(-61.12 34.68) rotate(-44.99)"/><rect class="cls-12" x="56.43" y="81.85" width="0.4" height="3.25" transform="translate(-54.9 49.73) rotate(-45)"/><rect class="cls-12" x="59.69" y="76.98" width="0.4" height="3.25" transform="translate(-48.1 89.09) rotate(-67.5)"/><rect class="cls-12" x="46.95" y="57.88" width="3.25" height="0.4"/><rect class="cls-12" x="58.27" y="66.89" width="3.25" height="0.4" transform="translate(-33.58 13.26) rotate(-22.5)"/><rect class="cls-12" x="55.01" y="62.01" width="3.25" height="0.4" transform="translate(-39.87 43.5) rotate(-45)"/><rect class="cls-12" x="50.14" y="58.75" width="3.25" height="0.4" transform="translate(-34.98 69.44) rotate(-67.49)"/><path class="cls-29" d="M38.51,81.52c0,.59-.24.93-.69.93s-.69-.34-.69-.93.24-.93.69-.93S38.51,80.92,38.51,81.52Zm-.91,0c0,.45.06.59.22.59S38,82,38,81.52s-.05-.59-.21-.59S37.6,81.07,37.6,81.52Z" transform="translate(-12.46 -14.77)"/><path class="cls-29" d="M35.74,77.47c0,.18-.08.32-.47.66h.49l0,.25H34.9v-.23c.41-.39.5-.51.5-.65a.13.13,0,0,0-.14-.14.28.28,0,0,0-.22.12l-.19-.15a.54.54,0,0,1,.44-.22C35.58,77.11,35.74,77.28,35.74,77.47Z" transform="translate(-12.46 -14.77)"/><path class="cls-29" d="M36.83,77.76c0,.42-.17.65-.48.65s-.48-.23-.48-.65.17-.65.48-.65S36.83,77.34,36.83,77.76Zm-.63,0c0,.32,0,.41.15.41s.15-.08.15-.41,0-.41-.15-.41S36.2,77.44,36.2,77.76Z" transform="translate(-12.46 -14.77)"/><path class="cls-29" d="M34.73,73.54v.37h-.46v-.37h-.74v-.31L34,72.08l.4.15-.41,1h.27l0-.4h.4v.4h.19v.35Z" transform="translate(-12.46 -14.77)"/><path class="cls-29" d="M36.43,73c0,.6-.24.93-.69.93s-.69-.33-.69-.93.25-.92.69-.92S36.43,72.43,36.43,73Zm-.9,0c0,.46,0,.59.21.59S36,73.49,36,73s-.06-.59-.22-.59S35.53,72.57,35.53,73Z" transform="translate(-12.46 -14.77)"/><path class="cls-29" d="M35.56,69.28a.44.44,0,0,1-.47.46c-.34,0-.49-.24-.49-.6s.22-.7.57-.7a.5.5,0,0,1,.29.08l-.12.19a.31.31,0,0,0-.17,0c-.12,0-.21.1-.22.3a.35.35,0,0,1,.25-.1A.37.37,0,0,1,35.56,69.28Zm-.33,0c0-.15,0-.2-.13-.2a.21.21,0,0,0-.15.08c0,.25,0,.35.14.35S35.23,69.42,35.23,69.28Z" transform="translate(-12.46 -14.77)"/><path class="cls-29" d="M36.62,69.09c0,.41-.17.65-.48.65s-.49-.24-.49-.65.17-.65.49-.65S36.62,68.67,36.62,69.09Zm-.64,0c0,.31,0,.41.16.41s.15-.09.15-.41,0-.42-.15-.42S36,68.77,36,69.09Z" transform="translate(-12.46 -14.77)"/><path class="cls-29" d="M37.73,65.47c0,.28-.25.52-.71.52s-.7-.23-.7-.52a.47.47,0,0,1,.32-.43.5.5,0,0,1-.25-.42c0-.28.26-.48.64-.48s.63.17.63.46a.47.47,0,0,1-.28.4A.5.5,0,0,1,37.73,65.47Zm-.46,0c0-.13-.07-.19-.24-.26l-.09,0a.3.3,0,0,0-.16.28.22.22,0,0,0,.25.22A.21.21,0,0,0,37.27,65.46Zm-.43-.84a.23.23,0,0,0,.18.23l.06,0a.3.3,0,0,0,.13-.26.19.19,0,0,0-.37,0Z" transform="translate(-12.46 -14.77)"/><path class="cls-29" d="M39.26,65.06c0,.6-.24.93-.69.93s-.69-.33-.69-.93.25-.92.69-.92S39.26,64.47,39.26,65.06Zm-.9,0c0,.46,0,.59.21.59s.22-.12.22-.59-.06-.58-.22-.58S38.36,64.61,38.36,65.06Z" transform="translate(-12.46 -14.77)"/><path class="cls-29" d="M53.11,66V64.62l-.37.23-.2-.31.61-.37h.41V66Z" transform="translate(-12.46 -14.77)"/><path class="cls-29" d="M55.2,65.34a.63.63,0,0,1-.66.65c-.49,0-.7-.34-.7-.85s.3-1,.8-1a.81.81,0,0,1,.42.11l-.17.28a.45.45,0,0,0-.24-.07c-.17,0-.3.15-.32.43a.51.51,0,0,1,.36-.14C55,64.75,55.2,65,55.2,65.34Zm-.46,0c0-.22-.06-.29-.19-.29a.33.33,0,0,0-.22.11c0,.36.05.5.21.5S54.74,65.54,54.74,65.35Z" transform="translate(-12.46 -14.77)"/><path class="cls-29" d="M56.72,65.06c0,.6-.25.93-.69.93s-.69-.33-.69-.93.24-.92.69-.92S56.72,64.47,56.72,65.06Zm-.91,0c0,.46.06.59.22.59s.21-.12.21-.59-.06-.58-.21-.58S55.81,64.61,55.81,65.06Z" transform="translate(-12.46 -14.77)"/><path class="cls-29" d="M55.1,69.7v-.92l-.26.16-.14-.22.43-.26h.29V69.7Z" transform="translate(-12.46 -14.77)"/><path class="cls-29" d="M56.59,69.37c0,.19-.18.37-.5.37s-.49-.17-.49-.37a.32.32,0,0,1,.22-.3.35.35,0,0,1-.17-.3c0-.19.18-.33.44-.33s.45.12.45.32a.33.33,0,0,1-.2.28A.36.36,0,0,1,56.59,69.37Zm-.33,0c0-.09,0-.13-.16-.18l-.07,0a.21.21,0,0,0-.11.19.16.16,0,0,0,.18.16A.14.14,0,0,0,56.26,69.36Zm-.3-.58c0,.07,0,.12.13.16h0a.19.19,0,0,0,.1-.18.12.12,0,0,0-.13-.12A.12.12,0,0,0,56,68.78Z" transform="translate(-12.46 -14.77)"/><path class="cls-29" d="M57.66,69.09c0,.41-.17.65-.48.65s-.49-.24-.49-.65.17-.65.49-.65S57.66,68.67,57.66,69.09Zm-.64,0c0,.31,0,.41.16.41s.15-.09.15-.41,0-.42-.15-.42S57,68.77,57,69.09Z" transform="translate(-12.46 -14.77)"/><path class="cls-29" d="M55.88,72.61c0,.26-.11.45-.66.94h.7l-.05.36H54.69v-.33c.59-.56.72-.72.72-.92a.19.19,0,0,0-.21-.21.39.39,0,0,0-.31.18l-.26-.22a.74.74,0,0,1,.62-.31C55.67,72.1,55.88,72.33,55.88,72.61Z" transform="translate(-12.46 -14.77)"/><path class="cls-29" d="M57.45,73c0,.6-.24.93-.69.93s-.69-.33-.69-.93.25-.92.69-.92S57.45,72.43,57.45,73Zm-.9,0c0,.46.05.59.21.59S57,73.49,57,73s-.06-.58-.22-.58S56.55,72.57,56.55,73Z" transform="translate(-12.46 -14.77)"/><path class="cls-29" d="M59,73c0,.6-.25.93-.69.93s-.7-.33-.7-.93.25-.92.7-.92S59,72.43,59,73Zm-.91,0c0,.46.06.59.22.59s.21-.12.21-.59-.06-.58-.21-.58S58.1,72.57,58.1,73Z" transform="translate(-12.46 -14.77)"/><path class="cls-29" d="M55.28,77.47c0,.18-.07.32-.46.66h.49l0,.25h-.83v-.23c.41-.39.5-.51.5-.65a.13.13,0,0,0-.14-.14.28.28,0,0,0-.22.12l-.19-.15a.54.54,0,0,1,.44-.22C55.13,77.11,55.28,77.28,55.28,77.47Z" transform="translate(-12.46 -14.77)"/><path class="cls-29" d="M56.24,77.47c0,.18-.08.32-.47.66h.5l0,.25H55.4v-.23c.41-.39.51-.51.51-.65a.13.13,0,0,0-.15-.14.26.26,0,0,0-.21.12l-.19-.15a.53.53,0,0,1,.44-.22C56.09,77.11,56.24,77.28,56.24,77.47Z" transform="translate(-12.46 -14.77)"/><path class="cls-29" d="M57.34,77.76c0,.42-.17.65-.48.65s-.49-.23-.49-.65.17-.65.49-.65S57.34,77.34,57.34,77.76Zm-.64,0c0,.32,0,.41.16.41s.15-.08.15-.41,0-.41-.15-.41S56.7,77.44,56.7,77.76Z" transform="translate(-12.46 -14.77)"/><path class="cls-29" d="M52.19,81.1c0,.26-.11.46-.67,1h.71l0,.35H51v-.32c.59-.57.72-.73.72-.93a.19.19,0,0,0-.2-.21.37.37,0,0,0-.31.18l-.27-.21a.76.76,0,0,1,.63-.32C52,80.59,52.19,80.83,52.19,81.1Z" transform="translate(-12.46 -14.77)"/><path class="cls-29" d="M53.56,82v.36H53.1V82h-.75v-.31l.5-1.15.4.14-.42,1h.27l.06-.4h.4v.4h.19V82Z" transform="translate(-12.46 -14.77)"/><path class="cls-29" d="M55.26,81.52c0,.59-.24.93-.69.93s-.69-.34-.69-.93.24-.93.69-.93S55.26,80.92,55.26,81.52Zm-.91,0c0,.45.06.59.22.59s.21-.12.21-.59-.05-.59-.21-.59S54.35,81.07,54.35,81.52Z" transform="translate(-12.46 -14.77)"/><path class="cls-29" d="M40.05,63.37v-.93l-.26.16-.14-.21.43-.26h.28v1.24Z" transform="translate(-12.46 -14.77)"/><path class="cls-29" d="M41.53,62.75c0,.42-.17.65-.49.65s-.48-.23-.48-.65.17-.65.48-.65S41.53,62.34,41.53,62.75Zm-.64,0c0,.32,0,.42.15.42s.15-.09.15-.42,0-.41-.15-.41S40.89,62.44,40.89,62.75Z" transform="translate(-12.46 -14.77)"/><path class="cls-29" d="M42.61,62.75c0,.42-.17.65-.48.65s-.49-.23-.49-.65.18-.65.49-.65S42.61,62.34,42.61,62.75Zm-.63,0c0,.32,0,.42.15.42s.15-.09.15-.42,0-.41-.15-.41S42,62.44,42,62.75Z" transform="translate(-12.46 -14.77)"/><path class="cls-29" d="M44.42,61.9V60.58l-.37.22-.2-.3.61-.37h.41V61.9Z" transform="translate(-12.46 -14.77)"/><path class="cls-29" d="M46.32,60.6c0,.26-.1.46-.66.95h.7l0,.35H45.13v-.32c.59-.57.72-.73.72-.93a.19.19,0,0,0-.21-.21.39.39,0,0,0-.31.18l-.26-.21a.75.75,0,0,1,.62-.32C46.11,60.09,46.32,60.33,46.32,60.6Z" transform="translate(-12.46 -14.77)"/><path class="cls-29" d="M47.89,61c0,.59-.24.93-.69.93s-.69-.34-.69-.93.25-.93.69-.93S47.89,60.42,47.89,61ZM47,61c0,.45.06.59.21.59s.22-.12.22-.59-.06-.59-.22-.59S47,60.57,47,61Z" transform="translate(-12.46 -14.77)"/><path class="cls-29" d="M49.61,63.37v-.93l-.26.16-.14-.21.43-.26h.29v1.24Z" transform="translate(-12.46 -14.77)"/><path class="cls-29" d="M51,63.11v.26h-.32v-.26h-.52V62.9l.35-.8.27.1-.29.67h.19l0-.28H51v.28h.13v.24Z" transform="translate(-12.46 -14.77)"/><path class="cls-29" d="M52.14,62.75c0,.42-.17.65-.48.65s-.48-.23-.48-.65.17-.65.48-.65S52.14,62.34,52.14,62.75Zm-.63,0c0,.32,0,.42.15.42s.15-.09.15-.42,0-.41-.15-.41S51.51,62.44,51.51,62.75Z" transform="translate(-12.46 -14.77)"/><polygon class="cls-13" points="31.04 60.5 30.23 59.14 44.62 51.07 44.95 51.64 31.04 60.5"/><path class="cls-9" d="M46.78,74.13a1.5,1.5,0,1,1,.51-2A1.49,1.49,0,0,1,46.78,74.13Z" transform="translate(-12.46 -14.77)"/><path class="cls-12" d="M44.39,86.47l0-.93a8.68,8.68,0,0,1,0-1L44,86.21H43.4L43,84.52a7.08,7.08,0,0,1,0,1l0,.93h-.66l.18-2.5h.83l.34,1.66L44,84h.83l.19,2.5Z" transform="translate(-12.46 -14.77)"/><path class="cls-12" d="M46.2,84c.66,0,1.07.27,1.07.83s-.41.87-1,.87H46v.8h-.66V84Zm0,1.22c.24,0,.38-.11.38-.39s-.13-.36-.4-.36H46v.75Z" transform="translate(-12.46 -14.77)"/><path class="cls-12" d="M48.19,85.43v1h-.66V84h.66v1h.67V84h.66v2.5h-.66v-1Z" transform="translate(-12.46 -14.77)"/><g class="cls-30"><path class="cls-31" d="M61.4,30.33v.2c0-.07,0-.15,0-.23Zm12.46-7a16.8,16.8,0,0,1-1.36,2.53l-.15.22a10.6,10.6,0,0,1,1.09,3.37l.94.48a1.86,1.86,0,0,1,.82.93l.93,2.73a16.49,16.49,0,0,0,.14-2.14A13.88,13.88,0,0,0,73.86,23.32Zm-1.72-1.39-.39-.56a2.51,2.51,0,0,0-.32-.25,5.94,5.94,0,0,0-1-.24,4.7,4.7,0,0,1-.79,2.65,3.35,3.35,0,0,1,1.63,1,5.44,5.44,0,0,0,.9-2.46A.36.36,0,0,0,72.14,21.93Z" transform="translate(-12.46 -14.77)"/><path class="cls-31" d="M69,24.52a3,3,0,0,1,1.84.78,11.73,11.73,0,0,0-1,1.91,2.36,2.36,0,0,0-.1.38l-.21-.1a1,1,0,0,0-1.32.45l0,.07a1.81,1.81,0,0,1-.39-1.07A4.84,4.84,0,0,1,69,24.52Z" transform="translate(-12.46 -14.77)"/><path class="cls-31" d="M73.24,29.34l-1.75-.88,0-.37a1.51,1.51,0,0,1,.39-1.29l.15-.2A10.37,10.37,0,0,1,73.24,29.34Z" transform="translate(-12.46 -14.77)"/><path class="cls-31" d="M72.23,41.24a6.47,6.47,0,0,1-1.14.7l-.31.13a5.23,5.23,0,0,1-2,.39H63.17a5.36,5.36,0,0,1-2.64-.71,6,6,0,0,1-.93-.62,9.21,9.21,0,0,1-1.55-1.67c-.15-.21-.3-.43-.44-.66a12.86,12.86,0,0,1-1-2.21c-.07-.22-.15-.43-.21-.65a14.56,14.56,0,0,1-.45-2c0-.2-.06-.41-.08-.62a15,15,0,0,1-.12-1.91,2.71,2.71,0,0,1,0-.29c0-.22,0-.43,0-.64a15,15,0,0,1,.18-1.67c0-.21.07-.42.12-.62a14.88,14.88,0,0,1,.5-1.83c.07-.2.14-.39.22-.58a12.28,12.28,0,0,1,1-1.95l.36-.51a8.11,8.11,0,0,1,2.14-2.05,6.45,6.45,0,0,1,.58-.31A5.05,5.05,0,0,1,63,20.43h5.4v0a3.15,3.15,0,0,0-.43.05,2.71,2.71,0,0,0-.41.09l-.32.09a5.24,5.24,0,0,0-1.23.57.94.94,0,0,0-.18.12,4.8,4.8,0,0,0-.75.55,8.79,8.79,0,0,0-1.4,1.55h0c-.14.21-.28.42-.41.64a10.69,10.69,0,0,0-.78,1.55,6.08,6.08,0,0,0-.25.64,12.94,12.94,0,0,0-.52,1.83c-.05.22-.09.44-.13.67a14.64,14.64,0,0,0-.17,1.5v.23c0-.07,0-.15,0-.23a14.59,14.59,0,0,1,2.36-6.05,9,9,0,0,1,2.62-2.51,6.44,6.44,0,0,1,2.15-.83,3.7,3.7,0,0,1-.51,2A10.57,10.57,0,0,1,67.35,24c-.21.3-.42.61-.61.92s-.26.34-.38.53a11.16,11.16,0,0,0-1.59,6A12.67,12.67,0,0,0,65,34.05a9.79,9.79,0,0,0,1.32,3.36c.13.2.27.39.41.57s.13.15.19.22a5.29,5.29,0,0,0,.41.41l.11.1h0l1,2.79a1,1,0,0,0,.93.66.86.86,0,0,0,.32,0Z" transform="translate(-12.46 -14.77)"/><path class="cls-31" d="M73.48,22.85l0,.08a15.05,15.05,0,0,1-1.4,2.63c-.2.32-.41.63-.64.93a2,2,0,0,0-.49,1.67l-.64-.31a2.12,2.12,0,0,1,.11-.47,11.33,11.33,0,0,1,1-2.05l.21-.36a6.52,6.52,0,0,0,1.06-2.92.87.87,0,0,0-.13-.42.93.93,0,0,0-.14-.14c0-.06-.07-.11-.09-.16s-.17-.35-.26-.52A2.39,2.39,0,0,0,72,20.6a1.52,1.52,0,0,1,1.51.71A1.82,1.82,0,0,1,73.48,22.85Z" transform="translate(-12.46 -14.77)"/><path class="cls-31" d="M77.26,38.48,74.7,31a1.25,1.25,0,0,0-.56-.64L69.34,28a.44.44,0,0,0-.6.21L66.43,33a1.27,1.27,0,0,0,0,.84l2.55,7.45a.46.46,0,0,0,.58.28L77,39.06A.46.46,0,0,0,77.26,38.48ZM69.46,41l-2.52-7.32a.78.78,0,0,1,0-.4l2.24-4.73,4.68,2.36a.64.64,0,0,1,.26.3l2.52,7.32Z" transform="translate(-12.46 -14.77)"/><path class="cls-31" d="M69.45,29.26a.86.86,0,1,0,1.09.54A.87.87,0,0,0,69.45,29.26Zm.41,1.19a.4.4,0,1,1,.25-.51A.4.4,0,0,1,69.86,30.45Z" transform="translate(-12.46 -14.77)"/><path class="cls-31" d="M73.31,35.22a1.72,1.72,0,1,1-2.18-1.07A1.72,1.72,0,0,1,73.31,35.22Z" transform="translate(-12.46 -14.77)"/><path class="cls-31" d="M71,33.72a.32.32,0,0,1-.41-.2l-.22-.63a.33.33,0,1,1,.62-.21l.21.63A.32.32,0,0,1,71,33.72Z" transform="translate(-12.46 -14.77)"/><path class="cls-31" d="M72.8,39.06a.34.34,0,0,1-.41-.21l-.22-.63a.34.34,0,0,1,.21-.42.33.33,0,0,1,.41.21l.22.63A.33.33,0,0,1,72.8,39.06Z" transform="translate(-12.46 -14.77)"/><path class="cls-31" d="M69.35,35.59a.25.25,0,0,1-.17,0l-.66-.12a.33.33,0,0,1-.25-.39.32.32,0,0,1,.38-.25l.66.13a.32.32,0,0,1,.25.38A.31.31,0,0,1,69.35,35.59Z" transform="translate(-12.46 -14.77)"/><path class="cls-31" d="M74.88,36.68a.32.32,0,0,1-.17,0l-.66-.13a.32.32,0,0,1-.25-.38.32.32,0,0,1,.38-.26l.66.13a.33.33,0,0,1,.25.38A.32.32,0,0,1,74.88,36.68Z" transform="translate(-12.46 -14.77)"/><path class="cls-31" d="M69.71,38.45a.35.35,0,0,1-.32-.07.33.33,0,0,1,0-.46l.44-.5a.33.33,0,1,1,.49.43l-.44.5A.33.33,0,0,1,69.71,38.45Z" transform="translate(-12.46 -14.77)"/><path class="cls-31" d="M73.42,34.2a.31.31,0,0,1-.32-.06.32.32,0,0,1,0-.46l.44-.51a.33.33,0,0,1,.49.43l-.44.51A.42.42,0,0,1,73.42,34.2Z" transform="translate(-12.46 -14.77)"/><path class="cls-31" d="M69,30.05c-1.35-.75-2.57-1.72-2.34-3.4.17-1.29,1.29-2.36,1.85-3.48s1-2.56,0-3.39a1.43,1.43,0,0,0-.24-.16A3.17,3.17,0,0,0,65,19.9H63.54c1.47-1.17,4-1.64,5.46-.57l.1.08c1.36,1.08.8,2.75,0,4.05-.58.93-1.82,2.34-1.77,3.5.08,1.45,1.27,2.19,2.48,2.81C70.19,30,70.08,30.66,69,30.05Z" transform="translate(-12.46 -14.77)"/></g><g class="cls-30"><path class="cls-31" d="M195.44,111.06h0a17.82,17.82,0,0,0,2.51-1.92,1.55,1.55,0,0,0,.47-.69c.09-.53-.89-2-2.07-3.54h0l-.55-.71a6.93,6.93,0,0,0-1.11,7.37l.7-.46Zm.57-5.68c1.67,2.21,1.84,2.85,1.86,3a1.78,1.78,0,0,1-.32.39,17.72,17.72,0,0,1-2.29,1.76A6,6,0,0,1,196,105.38Z" transform="translate(-12.46 -14.77)"/><path class="cls-31" d="M197.17,104.09c1.55,1.18,3,2.15,3.54,2.07a1.55,1.55,0,0,0,.69-.47,18.43,18.43,0,0,0,1.92-2.51h0a.1.1,0,0,0,0-.05c.15-.23.31-.46.46-.7a6.93,6.93,0,0,0-7.37,1.11l.71.55Zm5.61-1.09a17.58,17.58,0,0,1-1.77,2.29,1.88,1.88,0,0,1-.39.32c-.12,0-.77-.2-3-1.86A6,6,0,0,1,202.78,103Z" transform="translate(-12.46 -14.77)"/><path class="cls-31" d="M199.89,111.34c-.46-.24-2.1.18-3.89.76h0l-.86.29a7.22,7.22,0,0,0,1,1.24,6.9,6.9,0,0,0,5.56,2C201.1,113.57,200.43,111.61,199.89,111.34ZM196.74,113a5.22,5.22,0,0,1-.39-.43c2.53-.81,3.17-.76,3.29-.73s.47.54,1.2,2.91A6,6,0,0,1,196.74,113Z" transform="translate(-12.46 -14.77)"/><path class="cls-31" d="M203.09,110.83c-.36.36-.46,1.93-.46,3.71,0,.3,0,.6,0,.91a6.85,6.85,0,0,0,5.07-5.08C205.58,110.33,203.52,110.41,203.09,110.83Zm2.17,2.17a5.94,5.94,0,0,1-2.07,1.34c0-2.47.24-3,.3-3.11s.64-.29,3.11-.31A5.89,5.89,0,0,1,205.26,113Z" transform="translate(-12.46 -14.77)"/><path class="cls-31" d="M204.65,102.87c-.72,2.11-1.33,4.22-1.05,4.76s2.23,1.21,4.28,1.78a6.9,6.9,0,0,0-2-5.56A6.76,6.76,0,0,0,204.65,102.87Zm-.55,4.51c0-.12-.08-.76.74-3.29q.21.18.42.39a6,6,0,0,1,1.75,4.1C204.64,107.85,204.18,107.46,204.1,107.38Z" transform="translate(-12.46 -14.77)"/><path class="cls-31" d="M200.33,109a.65.65,0,1,0,.65-.65A.65.65,0,0,0,200.33,109Z" transform="translate(-12.46 -14.77)"/><path class="cls-31" d="M201.35,107.26a.34.34,0,1,0-.67,0,.34.34,0,1,0,.67,0Z" transform="translate(-12.46 -14.77)"/><path class="cls-31" d="M199.45,108.1a.34.34,0,1,0,.22.42A.33.33,0,0,0,199.45,108.1Z" transform="translate(-12.46 -14.77)"/><path class="cls-31" d="M200.21,110.56a.34.34,0,0,0-.07-.47.34.34,0,1,0-.4.55A.34.34,0,0,0,200.21,110.56Z" transform="translate(-12.46 -14.77)"/><path class="cls-31" d="M201.77,110.13a.34.34,0,1,0,.47.07A.34.34,0,0,0,201.77,110.13Z" transform="translate(-12.46 -14.77)"/><path class="cls-31" d="M203,108.38a.33.33,0,0,0-.42-.21.33.33,0,0,0-.22.42.34.34,0,1,0,.64-.21Z" transform="translate(-12.46 -14.77)"/><path class="cls-31" d="M212,108.31a.37.37,0,0,0,.3-.4A11.4,11.4,0,0,0,212,106a.39.39,0,0,0-.41-.29.4.4,0,0,0,.19-.47,11,11,0,0,0-.77-1.8.37.37,0,0,0-.46-.18.38.38,0,0,0,.07-.5,11.85,11.85,0,0,0-1.17-1.57.4.4,0,0,1-.54-.56,11.35,11.35,0,0,0-1.52-1.25.38.38,0,0,0-.5.06.39.39,0,0,0-.16-.48A11.82,11.82,0,0,0,205,98.1a.4.4,0,0,0-.48.17.37.37,0,0,0-.27-.42,11.29,11.29,0,0,0-1.92-.4.38.38,0,0,0-.41.28.39.39,0,0,0-.37-.34,11.57,11.57,0,0,0-2,.07.38.38,0,0,0-.34.37.4.4,0,0,0-.44-.25,12.24,12.24,0,0,0-1.88.54.4.4,0,0,1-.72.31,11.46,11.46,0,0,0-1.7,1,.39.39,0,0,0-.13.49.38.38,0,0,0-.5,0,11.25,11.25,0,0,0-1.41,1.35.39.39,0,0,0,0,.51.39.39,0,0,0-.49.1,11.87,11.87,0,0,0-1.06,1.65.4.4,0,0,1-.34.71A11.17,11.17,0,0,0,190,106a.4.4,0,0,1-.16.77,11.26,11.26,0,0,0-.16,1.93v0a.38.38,0,0,0,.37.38.39.39,0,0,0-.35.41,11.42,11.42,0,0,0,.31,1.93.37.37,0,0,0,.41.29.38.38,0,0,0-.2.46,12,12,0,0,0,.76,1.81.39.39,0,0,0,.47.18.39.39,0,0,0-.08.5,12.8,12.8,0,0,0,1.17,1.57.38.38,0,0,0,.5.06.4.4,0,0,0,.05.51,11.32,11.32,0,0,0,1.51,1.24.39.39,0,0,0,.5,0,.36.36,0,0,0,.16.47,10.56,10.56,0,0,0,1.76.85.4.4,0,0,0,.48-.17.37.37,0,0,0,.27.42,10.29,10.29,0,0,0,1.91.4.39.39,0,0,0,.42-.28.39.39,0,0,0,.36.35H201a10.54,10.54,0,0,0,1.38-.08.39.39,0,0,0,.34-.37.38.38,0,0,0,.43.25,10.22,10.22,0,0,0,1.89-.54.37.37,0,0,0,.24-.43.39.39,0,0,0,.48.13,11.46,11.46,0,0,0,1.7-1,.39.39,0,0,0,.13-.49.38.38,0,0,0,.5,0,11.34,11.34,0,0,0,1.42-1.35.38.38,0,0,0,0-.5.39.39,0,0,0,.49-.1,11.87,11.87,0,0,0,1.06-1.65.4.4,0,0,1,.34-.71,12.22,12.22,0,0,0,.63-1.85.4.4,0,0,0-.23-.45.39.39,0,0,0,.39-.32,11.57,11.57,0,0,0,.16-2v0A.39.39,0,0,0,212,108.31Zm-5.35,6.11a8,8,0,1,1,0-11.36A8,8,0,0,1,206.68,114.42Z" transform="translate(-12.46 -14.77)"/></g><g class="cls-30"><path class="cls-31" d="M74.13,172.39v-.5a.31.31,0,0,0-.31-.31H72.13a.31.31,0,0,0-.31.31v.5a.31.31,0,0,1-.31.31h-10a.31.31,0,0,1-.31-.31v-.5a.31.31,0,0,0-.31-.31H59.17a.31.31,0,0,0-.31.31v.5a.31.31,0,0,1-.31.31H55.18a.31.31,0,0,0-.31.31v1.44H78.12V173a.31.31,0,0,0-.31-.31H74.44A.31.31,0,0,1,74.13,172.39Z" transform="translate(-12.46 -14.77)"/><path class="cls-31" d="M56.2,176.19h.41a.31.31,0,0,1,.31.31v1.68a.31.31,0,0,1-.31.31H56.2a.31.31,0,0,0-.31.31v9.36a.31.31,0,0,0,.31.31H76.79a.31.31,0,0,0,.31-.31V178.8a.31.31,0,0,0-.31-.31h-.4a.31.31,0,0,1-.31-.31V176.5a.3.3,0,0,1,.31-.31h.4a.31.31,0,0,0,.31-.31v-.81H55.89v.81A.31.31,0,0,0,56.2,176.19Zm15.51,4.31h1v-1a.31.31,0,0,1,.31-.31h0a.31.31,0,0,1,.31.31v1h.95a.31.31,0,0,1,.31.31h0a.31.31,0,0,1-.31.31h-.95v.95a.31.31,0,0,1-.31.32h0a.31.31,0,0,1-.31-.32v-.95h-1a.31.31,0,0,1-.31-.31h0A.31.31,0,0,1,71.71,180.5Zm-13,0h2.53a.31.31,0,0,1,.31.31h0a.31.31,0,0,1-.31.31H58.75a.31.31,0,0,1-.31-.31h0A.31.31,0,0,1,58.75,180.5Z" transform="translate(-12.46 -14.77)"/></g><g class="cls-30"><path class="cls-31" d="M162.47,167.76a11.6,11.6,0,1,0,11.59,11.59A11.61,11.61,0,0,0,162.47,167.76Zm0,21.33a9.74,9.74,0,1,1,9.73-9.74A9.75,9.75,0,0,1,162.47,189.09Z" transform="translate(-12.46 -14.77)"/><path class="cls-31" d="M162.47,170.9A8.45,8.45,0,0,0,156,184.78l.48-.4a7.47,7.47,0,0,1-.63-.88l.55-.32a3.77,3.77,0,0,1-.28-.48l-.55.32a8.35,8.35,0,0,1-.57-1.38l.61-.16c0-.18-.1-.36-.14-.54l-.61.17a7.42,7.42,0,0,1-.2-1.48h.64a2.62,2.62,0,0,1,0-.28,2.72,2.72,0,0,1,0-.28h-.64a7.13,7.13,0,0,1,.19-1.47l.62.16c0-.18.09-.36.14-.54l-.62-.16a8.35,8.35,0,0,1,.57-1.38l.56.32c.09-.16.18-.32.28-.48l-.56-.32a8.06,8.06,0,0,1,.91-1.18l.45.45a4.89,4.89,0,0,1,.4-.39l-.45-.45a7,7,0,0,1,1.18-.91l.32.55a5.5,5.5,0,0,1,.48-.28l-.32-.55a7.19,7.19,0,0,1,1.37-.57l.17.61.54-.14-.17-.62a8,8,0,0,1,1.48-.19v.64h.56v-.64a7.88,7.88,0,0,1,1.47.19l-.16.62.54.14.16-.62a8.39,8.39,0,0,1,1.38.58l-.32.55.48.28.32-.55a7.42,7.42,0,0,1,1.18.91l-.45.45a3.59,3.59,0,0,1,.39.39l.45-.45a7.42,7.42,0,0,1,.91,1.18l-.55.32c.1.16.19.32.28.48l.55-.32a7.57,7.57,0,0,1,.57,1.38l-.61.16c0,.18.1.36.14.54l.62-.16a7.88,7.88,0,0,1,.19,1.47h-.64c0,.1,0,.19,0,.28s0,.19,0,.28h.64a8.23,8.23,0,0,1-.2,1.48l-.61-.17c0,.18-.09.36-.14.54l.61.16a8.35,8.35,0,0,1-.57,1.38l-.55-.32a5.5,5.5,0,0,1-.28.48l.55.32a8.85,8.85,0,0,1-.63.88l.48.4a8.45,8.45,0,0,0-6.48-13.88Z" transform="translate(-12.46 -14.77)"/><path class="cls-31" d="M166.56,174.82,163,178.34a1.11,1.11,0,0,0-.57-.16,1.17,1.17,0,0,0-1.17,1.17,1.25,1.25,0,0,0,.15.58l-.79.79a.31.31,0,0,0,0,.44.31.31,0,0,0,.44,0l.79-.79a1.25,1.25,0,0,0,.58.15,1.16,1.16,0,0,0,1-1.75l3.52-3.51a.31.31,0,0,0-.44-.44Z" transform="translate(-12.46 -14.77)"/><path class="cls-31" d="M159,184.82v1.51a.22.22,0,0,0,.22.22h1.87v-2H159.2A.22.22,0,0,0,159,184.82Z" transform="translate(-12.46 -14.77)"/><rect class="cls-31" x="149.07" y="169.82" width="1.86" height="1.96"/><path class="cls-31" d="M165.74,184.59h-1.88v2h1.88a.22.22,0,0,0,.22-.22v-1.51A.22.22,0,0,0,165.74,184.59Z" transform="translate(-12.46 -14.77)"/></g><g class="cls-30"><path class="cls-31" d="M154.64,22.74l1.54.36.29-1L155,21.8l5.49-1.28c.83-.2,1.24-.51,1.24-.94s-.41-.75-1.24-.94l-1.54-.37-.29,1,1.49.35-1.95.45V15.7h-1.25v4.62l-2.29.54c-.82.19-1.24.51-1.24.94S153.82,22.55,154.64,22.74Z" transform="translate(-12.46 -14.77)"/><path class="cls-31" d="M154.64,26.53l.72.17.29-1-.67-.15,5.49-1.29c.83-.19,1.24-.51,1.24-.94s-.41-.75-1.24-.94l-.72-.17-.29.95.67.16-1.72.4h-.23v-1.7l-1.25.3v1.4h-.64l-.08.25v.27l-1.57.37c-.82.19-1.24.51-1.24.94S153.82,26.33,154.64,26.53Z" transform="translate(-12.46 -14.77)"/><path class="cls-31" d="M154.64,34.1l.72.17.29-1-.67-.15,5.49-1.29c.83-.19,1.24-.51,1.24-.94s-.41-.75-1.24-.94l-.72-.17-.29.95.67.16-1.23.29V29.46l-2.69.63v1.76l-1.57.37c-.82.19-1.24.51-1.24.94S153.82,33.91,154.64,34.1Z" transform="translate(-12.46 -14.77)"/><path class="cls-31" d="M154.64,30.31l.72.17.29-.95-.67-.16,5.49-1.28c.83-.2,1.24-.51,1.24-.94s-.41-.75-1.24-.94l-.72-.17-.29.95.67.16-1.23.28V25.68l-2.69.63v1.75l-1.57.37c-.82.19-1.24.51-1.24.94S153.82,30.12,154.64,30.31Z" transform="translate(-12.46 -14.77)"/><path class="cls-31" d="M172.44,25.71h-8.31a1,1,0,0,0-1,1v8.82H158.9V33.25l-2.69.63v1.64h-4.74V38h11.68v8.82a1,1,0,0,0,1,1h8.31a1,1,0,0,0,1-1V26.7A1,1,0,0,0,172.44,25.71Zm-1.94,1.62.77-.77h1.19l-2,2ZM166.25,47,164,44.7V43.5l2.25,2.24Zm0-3.06L164,41.64v-1.2l2.25,2.25Zm0-3.06L164,38.58v-1.2l2.25,2.25Zm0-3.06L164,35.52v-1.2l2.25,2.25Zm0-3.06L164,32.46v-1.2l2.25,2.25Zm0-3.06L164,29.4V28.2l2.25,2.25Zm0-3.06-2-2h1.21l.83.83ZM168,47h-.85V26.56H168Zm1.7,0h-.85V26.56h.85Zm2.93-2.17-2.08,2.08v-1.2l2.08-2.08Zm0-3.06-2.08,2.08v-1.2l2.08-2.08Zm0-3.05-2.08,2.07v-1.2l2.08-2.08Zm0-3.06-2.08,2.08V36.5l2.08-2.08Zm0-3.06-2.08,2.08V33.44l2.08-2.07Zm0-3.06-2.08,2.08v-1.2l2.08-2.08Z" transform="translate(-12.46 -14.77)"/></g><g class="cls-30"><path class="cls-31" d="M24.51,98.47v2.44a1.15,1.15,0,0,1-1.09,1.15,7.17,7.17,0,0,0-6.51,5.28,1.16,1.16,0,0,1-1.11.85,1,1,0,0,1-.25,0l-2.38-.54a10.8,10.8,0,1,0,11.34-9.15Zm-.67,16.8a6,6,0,1,1,6-6A6,6,0,0,1,23.84,115.27Z" transform="translate(-12.46 -14.77)"/><path class="cls-31" d="M23.84,104a5.27,5.27,0,1,0,5.27,5.26A5.27,5.27,0,0,0,23.84,104Zm0,1.07a.7.7,0,1,1-.69.7A.7.7,0,0,1,23.84,105.05Zm-3.54,3.77a.69.69,0,0,1,.43-1.32.69.69,0,1,1-.43,1.32Zm2.05,3.66a.69.69,0,1,1-.16-1A.7.7,0,0,1,22.35,112.48Zm1.49-1.5a1.74,1.74,0,1,1,1.74-1.74A1.74,1.74,0,0,1,23.84,111Zm2.47,1.65a.69.69,0,0,1-.82-1.12.69.69,0,1,1,.82,1.12ZM27.83,108a.69.69,0,0,1-1.32.43.69.69,0,1,1,1.32-.43Z" transform="translate(-12.46 -14.77)"/><path class="cls-31" d="M16.18,107.14a7.93,7.93,0,0,1,7.2-5.83.41.41,0,0,0,.38-.4v-3a.37.37,0,0,0-.38-.37,11.94,11.94,0,0,0-4.06.89.67.67,0,0,1-.64-.09l-.94-.77a.47.47,0,0,0-.58,0l-3.72,3.17a.49.49,0,0,0-.1.58l.6,1a.66.66,0,0,1,0,.65,11.87,11.87,0,0,0-1.45,3.34.38.38,0,0,0,.28.45l3,.67A.4.4,0,0,0,16.18,107.14Zm5.92-8.4a.7.7,0,1,1-.69.7A.7.7,0,0,1,22.1,98.74Zm-7.34,7.15a.7.7,0,1,1,.7-.69A.69.69,0,0,1,14.76,105.89Z" transform="translate(-12.46 -14.77)"/></g></g></g></svg>