<svg xmlns="http://www.w3.org/2000/svg" viewBox="0 0 206.25 189.32"><defs><style>.cls-1{isolation:isolate;}.cls-10,.cls-17,.cls-2{fill:gray;}.cls-2{opacity:0.25;mix-blend-mode:color-burn;}.cls-17,.cls-3,.cls-9{opacity:0.7;}.cls-4{fill:#fff;}.cls-5,.cls-7{opacity:0.75;}.cls-5,.cls-7,.cls-8{mix-blend-mode:screen;}.cls-6,.cls-7{fill:#828282;}.cls-8{opacity:0.8;}.cls-17,.cls-28,.cls-9{mix-blend-mode:multiply;}.cls-11{fill:#5e9ea7;}.cls-12{fill:#1b8194;}.cls-13{fill:#f25338;}.cls-14{fill:#f49b18;}.cls-15{fill:#2e626c;}.cls-16{fill:#3e6e79;}.cls-18{fill:#154e58;}.cls-19{fill:#a8cad3;}.cls-20{fill:#058ba6;}.cls-21{fill:#292e30;}.cls-22{fill:#45747a;}.cls-23{fill:#666;}.cls-24{fill:#333;}.cls-25{fill:#404040;}.cls-26{fill:#f2f2f2;}.cls-27{fill:#06a9c9;}.cls-28{fill:#b8c0c2;opacity:0.65;}</style></defs><title>tiendaVehiculo</title><g class="cls-1"><g id="Layer_1" data-name="Layer 1"><path class="cls-2" d="M406.12,131.94a69,69,0,1,0-125.85,39.12H394A68.65,68.65,0,0,0,406.12,131.94Z" transform="translate(-233.46 -23.69)"/><g class="cls-3"><path class="cls-4" d="M275,178h-1.53a.45.45,0,0,1-.37-.2l-.86-1.27a.47.47,0,0,1,.13-.64.45.45,0,0,1,.63.13l.71,1.06H275a.46.46,0,1,1,0,.92Z" transform="translate(-233.46 -23.69)"/><path class="cls-4" d="M396.18,178h-3a.46.46,0,0,1,0-.92h3a.46.46,0,1,1,0,.92Zm-6.05,0h-3a.46.46,0,1,1,0-.92h3a.46.46,0,0,1,0,.92Zm-6.06,0h-3a.46.46,0,1,1,0-.92h3a.46.46,0,0,1,0,.92ZM378,178h-3a.46.46,0,1,1,0-.92h3a.46.46,0,0,1,0,.92ZM372,178h-3a.46.46,0,1,1,0-.92h3a.46.46,0,0,1,0,.92Zm-6.06,0h-3a.46.46,0,0,1,0-.92h3a.46.46,0,0,1,0,.92Zm-6.06,0h-3a.46.46,0,0,1,0-.92h3a.46.46,0,0,1,0,.92Zm-6.05,0h-3a.46.46,0,0,1,0-.92h3a.46.46,0,0,1,0,.92Zm-6.06,0h-3a.46.46,0,0,1,0-.92h3a.46.46,0,1,1,0,.92Zm-6.06,0h-3a.46.46,0,0,1,0-.92h3a.46.46,0,1,1,0,.92Zm-6.06,0h-3a.46.46,0,1,1,0-.92h3a.46.46,0,1,1,0,.92Zm-6.06,0h-3a.46.46,0,0,1,0-.92h3a.46.46,0,0,1,0,.92Zm-6.05,0h-3a.46.46,0,1,1,0-.92h3a.46.46,0,0,1,0,.92Zm-6.06,0h-3a.46.46,0,1,1,0-.92h3a.46.46,0,0,1,0,.92Zm-6.06,0h-3a.46.46,0,1,1,0-.92h3a.46.46,0,0,1,0,.92Zm-6.06,0h-3a.46.46,0,1,1,0-.92h3a.46.46,0,0,1,0,.92Zm-6.06,0h-3a.46.46,0,0,1,0-.92h3a.46.46,0,0,1,0,.92Zm-6.06,0h-3a.46.46,0,0,1,0-.92h3a.46.46,0,0,1,0,.92Zm-6.05,0h-3a.46.46,0,0,1,0-.92h3a.46.46,0,0,1,0,.92Zm-6.06,0h-3a.46.46,0,0,1,0-.92h3a.46.46,0,1,1,0,.92Z" transform="translate(-233.46 -23.69)"/><path class="cls-4" d="M400.74,178h-1.53a.46.46,0,0,1,0-.92h1.29c.24-.35.48-.7.71-1.06a.45.45,0,0,1,.63-.13.47.47,0,0,1,.13.64c-.28.42-.56.85-.85,1.27A.48.48,0,0,1,400.74,178Z" transform="translate(-233.46 -23.69)"/><path class="cls-4" d="M403.22,174.12a.48.48,0,0,1-.23-.07.46.46,0,0,1-.16-.63c.52-.86,1-1.74,1.52-2.62a.46.46,0,0,1,.62-.18.44.44,0,0,1,.18.62c-.49.9-1,1.78-1.54,2.66A.44.44,0,0,1,403.22,174.12ZM271,174a.45.45,0,0,1-.39-.22c-.53-.87-1-1.76-1.53-2.66a.46.46,0,0,1,.8-.44c.49.89,1,1.76,1.52,2.63a.46.46,0,0,1-.16.63A.48.48,0,0,1,271,174Zm135.22-5.24a.46.46,0,0,1-.2-.05.47.47,0,0,1-.21-.62c.46-.9.89-1.81,1.31-2.73a.47.47,0,0,1,.61-.23.45.45,0,0,1,.23.6c-.43.94-.87,1.86-1.33,2.77A.46.46,0,0,1,406.17,168.78ZM268,168.68a.45.45,0,0,1-.41-.25c-.46-.92-.9-1.84-1.32-2.78a.45.45,0,0,1,.23-.6.47.47,0,0,1,.61.23c.41.92.85,1.83,1.3,2.74a.46.46,0,0,1-.41.66Zm140.68-5.46a.51.51,0,0,1-.17,0,.46.46,0,0,1-.25-.6c.38-.94.74-1.88,1.08-2.83a.47.47,0,0,1,.59-.28.46.46,0,0,1,.27.59c-.34,1-.71,1.92-1.09,2.86A.48.48,0,0,1,408.69,163.22Zm-143.19-.1a.48.48,0,0,1-.43-.29c-.38-1-.74-1.9-1.09-2.87a.46.46,0,0,1,.86-.31c.34,1,.7,1.9,1.08,2.84a.44.44,0,0,1-.25.59A.33.33,0,0,1,265.5,163.12Zm145.26-5.64-.14,0a.46.46,0,0,1-.3-.57c.31-1,.59-1.94.86-2.91a.46.46,0,0,1,.56-.33.46.46,0,0,1,.32.57c-.27,1-.56,2-.86,2.94A.45.45,0,0,1,410.76,157.48Zm-147.32-.11a.45.45,0,0,1-.44-.32c-.31-1-.59-2-.86-2.94a.46.46,0,1,1,.88-.24c.27,1,.55,1.95.85,2.91a.44.44,0,0,1-.3.57A.3.3,0,0,1,263.44,157.37Zm148.93-5.77h-.11a.46.46,0,0,1-.34-.55c.23-1,.43-2,.62-3a.48.48,0,0,1,.54-.37.46.46,0,0,1,.36.54q-.29,1.51-.63,3A.46.46,0,0,1,412.37,151.6Zm-150.53-.12a.46.46,0,0,1-.45-.35c-.22-1-.43-2-.62-3a.44.44,0,0,1,.36-.53.46.46,0,0,1,.54.36c.18,1,.39,2,.62,3a.47.47,0,0,1-.35.55ZM413.5,145.6h-.07a.45.45,0,0,1-.38-.52c.14-1,.27-2,.38-3a.48.48,0,0,1,.51-.41.46.46,0,0,1,.4.51c-.11,1-.24,2-.39,3A.45.45,0,0,1,413.5,145.6Zm-152.79-.11a.46.46,0,0,1-.45-.4c-.15-1-.28-2-.38-3a.46.46,0,0,1,.4-.51.48.48,0,0,1,.51.41c.1,1,.23,2,.38,3a.47.47,0,0,1-.39.52Zm153.45-6h0a.46.46,0,0,1-.43-.49q.1-1.5.15-3a.45.45,0,0,1,.46-.44h0a.46.46,0,0,1,.44.47q0,1.55-.15,3.06A.45.45,0,0,1,414.16,139.54Zm-154.09-.12a.47.47,0,0,1-.46-.43c-.07-1-.12-2-.15-3.07a.47.47,0,0,1,.45-.47.49.49,0,0,1,.47.45c0,1,.08,2,.14,3a.46.46,0,0,1-.42.49Zm154.26-6a.45.45,0,0,1-.45-.45q0-1.53-.09-3a.45.45,0,0,1,.43-.48.43.43,0,0,1,.48.43c.05,1,.08,2,.09,3.07a.46.46,0,0,1-.45.46Zm-154.43-.13h0a.46.46,0,0,1-.45-.46c0-1,0-2,.09-3.07a.45.45,0,0,1,.48-.43.46.46,0,0,1,.44.48q-.07,1.51-.09,3A.46.46,0,0,1,259.9,133.31Zm154.14-6a.47.47,0,0,1-.46-.42c-.08-1-.19-2-.32-3a.46.46,0,1,1,.91-.12c.13,1,.24,2,.33,3a.47.47,0,0,1-.42.5Zm-153.84-.13h0a.45.45,0,0,1-.41-.5c.09-1,.2-2,.33-3a.45.45,0,0,1,.51-.39.46.46,0,0,1,.4.51c-.13,1-.24,2-.33,3A.46.46,0,0,1,260.2,127.22Zm153.07-5.92a.46.46,0,0,1-.45-.38c-.17-1-.36-2-.56-3a.46.46,0,1,1,.89-.19c.21,1,.4,2,.57,3a.46.46,0,0,1-.37.53ZM261,121.17h-.08a.47.47,0,0,1-.38-.53c.17-1,.37-2,.58-3a.46.46,0,0,1,.54-.35.45.45,0,0,1,.35.54c-.21,1-.4,2-.56,3A.47.47,0,0,1,261,121.17Zm151-5.84a.46.46,0,0,1-.44-.35c-.25-1-.52-2-.8-2.93a.46.46,0,0,1,.88-.25c.29,1,.55,2,.8,3a.44.44,0,0,1-.33.55Zm-149.78-.13h-.11a.46.46,0,0,1-.33-.56c.25-1,.52-2,.81-3a.46.46,0,0,1,.57-.31.47.47,0,0,1,.31.57c-.29,1-.56,1.95-.8,2.93A.47.47,0,0,1,262.24,115.2Zm148.06-5.73a.45.45,0,0,1-.43-.31c-.33-1-.67-1.91-1-2.86a.46.46,0,1,1,.85-.33c.37,1,.72,1.93,1.05,2.9a.46.46,0,0,1-.29.58A.39.39,0,0,1,410.3,109.47ZM264,109.35a.39.39,0,0,1-.15,0,.45.45,0,0,1-.28-.58c.33-1,.67-1.93,1-2.89a.46.46,0,0,1,.86.33c-.37.94-.71,1.89-1,2.85A.45.45,0,0,1,264,109.35Zm144.15-5.59a.44.44,0,0,1-.42-.28q-.6-1.4-1.26-2.76a.46.46,0,0,1,.83-.4c.44.93.86,1.86,1.27,2.8a.47.47,0,0,1-.24.61A.57.57,0,0,1,408.12,103.76Zm-142-.09a.41.41,0,0,1-.19,0,.46.46,0,0,1-.24-.6c.41-.94.83-1.87,1.27-2.79a.46.46,0,0,1,.83.4c-.44.9-.86,1.82-1.25,2.75A.48.48,0,0,1,266.16,103.67Zm139.33-5.42a.45.45,0,0,1-.41-.25c-.47-.9-1-1.78-1.47-2.66a.46.46,0,0,1,.8-.46c.51.89,1,1.79,1.48,2.69a.46.46,0,0,1-.19.62A.42.42,0,0,1,405.49,98.25Zm-136.71-.07a.42.42,0,0,1-.21-.06.44.44,0,0,1-.19-.61c.47-.91,1-1.8,1.48-2.68a.46.46,0,0,1,.63-.17.45.45,0,0,1,.16.62c-.5.88-1,1.76-1.46,2.65A.45.45,0,0,1,268.78,98.18ZM402.43,93a.47.47,0,0,1-.39-.22c-.54-.85-1.1-1.7-1.67-2.53a.46.46,0,1,1,.75-.52c.58.84,1.15,1.7,1.69,2.56a.46.46,0,0,1-.14.64A.51.51,0,0,1,402.43,93Zm-130.6,0a.55.55,0,0,1-.24-.07.47.47,0,0,1-.14-.64c.55-.86,1.11-1.71,1.69-2.55a.46.46,0,1,1,.75.52c-.57.83-1.13,1.67-1.67,2.52A.46.46,0,0,1,271.83,92.91Zm127.13-5a.44.44,0,0,1-.36-.18c-.61-.81-1.23-1.61-1.87-2.4a.46.46,0,1,1,.71-.57c.64.79,1.27,1.6,1.89,2.42a.46.46,0,0,1-.09.64A.49.49,0,0,1,399,87.93Zm-123.66,0a.47.47,0,0,1-.28-.09.46.46,0,0,1-.09-.64c.61-.82,1.24-1.62,1.89-2.42a.46.46,0,0,1,.64-.06.45.45,0,0,1,.07.64c-.64.78-1.26,1.58-1.87,2.39A.44.44,0,0,1,275.3,87.89Zm119.81-4.7a.46.46,0,0,1-.34-.15c-.67-.76-1.35-1.51-2-2.24a.46.46,0,1,1,.66-.63c.71.74,1.4,1.49,2.08,2.26a.46.46,0,0,1,0,.65A.45.45,0,0,1,395.11,83.19Zm-116,0a.45.45,0,0,1-.3-.11.46.46,0,0,1,0-.65c.68-.77,1.37-1.52,2.07-2.26a.46.46,0,1,1,.67.63c-.7.73-1.38,1.48-2.05,2.24A.47.47,0,0,1,279.14,83.16Zm111.77-4.39a.44.44,0,0,1-.32-.13c-.73-.7-1.47-1.39-2.22-2.06a.46.46,0,0,1,.61-.69c.77.69,1.51,1.38,2.25,2.1a.46.46,0,0,1,0,.64A.43.43,0,0,1,390.91,78.77Zm-107.56,0A.46.46,0,0,1,283,78c.74-.71,1.48-1.41,2.25-2.09a.45.45,0,0,1,.64,0,.46.46,0,0,1,0,.65q-1.12,1-2.22,2.07A.48.48,0,0,1,283.35,78.75Zm103-4a.43.43,0,0,1-.29-.1c-.78-.65-1.57-1.28-2.38-1.89a.46.46,0,0,1,.56-.73c.81.62,1.61,1.26,2.4,1.91a.46.46,0,0,1,.06.65A.48.48,0,0,1,386.37,74.7Zm-98.47,0a.45.45,0,0,1-.36-.16.47.47,0,0,1,.06-.65c.79-.65,1.59-1.29,2.41-1.91a.46.46,0,0,1,.55.73q-1.2.91-2.37,1.89A.46.46,0,0,1,287.9,74.67ZM381.53,71a.44.44,0,0,1-.27-.09c-.82-.58-1.66-1.14-2.51-1.69a.45.45,0,0,1-.13-.63.45.45,0,0,1,.63-.14c.86.56,1.71,1.13,2.54,1.72a.44.44,0,0,1,.11.63A.45.45,0,0,1,381.53,71Zm-88.78,0a.46.46,0,0,1-.27-.83c.84-.59,1.69-1.16,2.55-1.72a.45.45,0,0,1,.63.14.45.45,0,0,1-.13.63c-.85.55-1.69,1.11-2.52,1.7A.5.5,0,0,1,292.75,71Zm83.66-3.28a.46.46,0,0,1-.23-.06q-1.31-.78-2.64-1.5a.46.46,0,1,1,.44-.8c.9.48,1.79,1,2.66,1.51a.45.45,0,0,1-.23.85Zm-78.53,0a.46.46,0,0,1-.4-.23.47.47,0,0,1,.16-.63c.89-.52,1.78-1,2.68-1.51a.46.46,0,0,1,.62.19.45.45,0,0,1-.19.62c-.89.48-1.77,1-2.64,1.49A.39.39,0,0,1,297.88,67.66Zm73.17-2.86a.53.53,0,0,1-.2,0c-.9-.44-1.82-.87-2.74-1.28a.45.45,0,0,1-.23-.6.46.46,0,0,1,.6-.24c.93.42,1.86.85,2.77,1.3a.44.44,0,0,1,.21.61A.45.45,0,0,1,371.05,64.8Zm-67.79,0a.48.48,0,0,1-.42-.26.46.46,0,0,1,.21-.61c.92-.45,1.85-.88,2.79-1.3a.47.47,0,0,1,.61.24.46.46,0,0,1-.24.6c-.92.41-1.84.84-2.75,1.28A.53.53,0,0,1,303.26,64.76Zm62.23-2.42a.33.33,0,0,1-.17,0c-.94-.37-1.89-.72-2.84-1a.46.46,0,0,1-.28-.59.45.45,0,0,1,.58-.28c1,.34,1.93.7,2.88,1.07a.46.46,0,0,1,.25.6A.45.45,0,0,1,365.49,62.34Zm-56.64-.05a.48.48,0,0,1-.43-.29.46.46,0,0,1,.26-.59c1-.37,1.92-.73,2.89-1.07a.45.45,0,0,1,.58.28.47.47,0,0,1-.28.59q-1.44.49-2.85,1A.51.51,0,0,1,308.85,62.29Zm50.88-2a.3.3,0,0,1-.13,0c-1-.29-1.94-.57-2.92-.83a.45.45,0,1,1,.23-.88c1,.26,2,.54,2.95.84a.46.46,0,0,1,.31.57A.45.45,0,0,1,359.73,60.32Zm-45.1,0a.45.45,0,0,1-.44-.32.46.46,0,0,1,.31-.57c1-.3,2-.58,2.95-.84a.47.47,0,0,1,.56.33.46.46,0,0,1-.33.56c-1,.25-1.95.53-2.92.82A.3.3,0,0,1,314.63,60.28Zm39.2-1.51h-.1c-1-.22-2-.41-3-.59a.46.46,0,0,1-.37-.53.45.45,0,0,1,.53-.37c1,.18,2,.38,3,.6a.45.45,0,0,1,.35.54A.46.46,0,0,1,353.83,58.77Zm-33.3,0a.46.46,0,0,1-.45-.36.46.46,0,0,1,.35-.54c1-.22,2-.42,3-.6a.46.46,0,0,1,.53.37.45.45,0,0,1-.37.53c-1,.18-2,.38-3,.59Zm27.3-1.05h-.07c-1-.14-2-.26-3-.36a.46.46,0,0,1-.41-.5.47.47,0,0,1,.5-.41c1,.1,2,.22,3.05.36a.47.47,0,0,1,.39.52A.45.45,0,0,1,347.83,57.69Zm-21.29,0a.46.46,0,0,1-.46-.4.45.45,0,0,1,.39-.51c1-.14,2-.26,3-.36a.46.46,0,0,1,.5.41.45.45,0,0,1-.41.5c-1,.1-2,.22-3,.35Zm15.22-.58h0q-1.51-.09-3-.12a.45.45,0,0,1-.45-.46.46.46,0,0,1,.47-.45c1,0,2,.06,3.06.12a.44.44,0,0,1,.43.48A.45.45,0,0,1,341.76,57.1Zm-9.15,0a.46.46,0,0,1-.46-.43.47.47,0,0,1,.43-.49c1-.06,2-.1,3.07-.11a.46.46,0,0,1,0,.91c-1,0-2,.06-3,.12Z" transform="translate(-233.46 -23.69)"/></g><g class="cls-5"><path class="cls-6" d="M374.07,36.42v7.91h16.15V36.42Zm7,4.78h-4.59a.43.43,0,0,1-.43-.43.43.43,0,0,1,.43-.43h4.59a.44.44,0,0,1,.43.43A.43.43,0,0,1,381.11,41.2Zm0-1.31h-4.59a.44.44,0,0,1-.43-.44.42.42,0,0,1,.43-.42h4.59a.43.43,0,0,1,.43.42A.44.44,0,0,1,381.11,39.89Zm0-1.32h-4.59a.43.43,0,0,1,0-.86h4.59a.43.43,0,1,1,0,.86Z" transform="translate(-233.46 -23.69)"/><rect class="cls-6" x="157.31" y="13.71" width="2.26" height="5.91"/><rect class="cls-6" x="160.06" y="15.67" width="3.25" height="2.04"/><polygon class="cls-6" points="168.85 15.61 165.21 15.9 168.85 16.73 168.85 18.43 164.63 18.43 163.81 17.7 163.81 15.67 164.63 14.94 168.85 14.94 168.85 15.61"/><path class="cls-6" d="M374.53,45c5.23.64-3.18,10.36.82,12.05a13.28,13.28,0,0,0,2.88.18c1.8,0,2.16-.5,2.36-2.27.22-2,.35-3.46.55-5.06h5.37a.88.88,0,0,0,.84-.84l.37-4.06Zm12.09,3.77a.42.42,0,0,1-.42.42h-4.54a.42.42,0,0,1-.42-.42V45.87a.42.42,0,0,1,.42-.42h4.54a.42.42,0,0,1,.42.42Z" transform="translate(-233.46 -23.69)"/><path class="cls-6" d="M383.6,48.62h-1.81V46h1.32A6.41,6.41,0,0,0,383.6,48.62Z" transform="translate(-233.46 -23.69)"/><rect class="cls-6" x="389.83" y="46.57" width="1.54" height="3.13" transform="translate(-210.73 164.28) rotate(-27.84)"/><rect class="cls-6" x="391.53" y="45.67" width="4.12" height="1.77" transform="translate(-209.52 165.81) rotate(-27.89)"/><rect class="cls-6" x="399.94" y="47.14" width="3.13" height="1.54" transform="translate(-126.83 300.89) rotate(-49.98)"/><rect class="cls-6" x="398.03" y="43.67" width="1.76" height="4.12" transform="translate(-125.67 298.57) rotate(-50.07)"/><rect class="cls-6" x="393.93" y="50.84" width="1.54" height="3.13" transform="translate(-116.81 313.71) rotate(-53.27)"/><rect class="cls-6" x="394.66" y="48.82" width="4.12" height="1.77" transform="translate(-113.85 314.22) rotate(-53.27)"/></g><path class="cls-7" d="M308.11,40.75a.49.49,0,0,0-.57-.41l-3.82.6a.44.44,0,0,0-.16.06l-3.22-4.65a2.27,2.27,0,0,0-1.64-.86H284.4a2.27,2.27,0,0,0-1.64.86L279.54,41a.39.39,0,0,0-.15-.06l-3.83-.6a.49.49,0,0,0-.57.41l-.17,1a.64.64,0,0,0,.39.67l2.63,1-.16.24a3.9,3.9,0,0,0-.6,1.9v10a.52.52,0,0,0,.53.52h4.46a.52.52,0,0,0,.53-.52v-2h17.91v2a.52.52,0,0,0,.52.52h4.47a.52.52,0,0,0,.52-.52v-10a3.9,3.9,0,0,0-.6-1.9l-.16-.24,2.63-1a.64.64,0,0,0,.39-.67ZM283.62,37a1.2,1.2,0,0,1,.78-.41h14.3a1.2,1.2,0,0,1,.78.41l3.71,5.35c.32.47.12.86-.45.86H280.37c-.58,0-.78-.39-.45-.86Zm2.63,9.41a1,1,0,0,1-1.05,1h-5.08a1,1,0,0,1-1.05-1V45.25a.89.89,0,0,1,1-.9l5.11.75a1.25,1.25,0,0,1,1,1.2Zm10.6,0V46.3a1.25,1.25,0,0,1,1-1.2l5.11-.75a.88.88,0,0,1,1,.9v1.11a1,1,0,0,1-1,1H297.9A1,1,0,0,1,296.85,46.36Z" transform="translate(-233.46 -23.69)"/><g class="cls-5"><path class="cls-6" d="M439.42,126.75,431,119.66a1.24,1.24,0,0,0-.67-.24H422.8a.72.72,0,0,0-.57.32l-2.65,4.5a1.7,1.7,0,0,0-.19.7v15.3a.38.38,0,0,0,.38.38h19.56a.38.38,0,0,0,.38-.38V127.37A.91.91,0,0,0,439.42,126.75Zm-2.78,1.9a1.32,1.32,0,0,1-1.87.15l-4.58-3.87a1.32,1.32,0,1,1,1.71-2l4.58,3.87A1.33,1.33,0,0,1,436.64,128.65Z" transform="translate(-233.46 -23.69)"/><path class="cls-6" d="M429.37,116.14a.38.38,0,0,0-.38-.38h-5.05a.38.38,0,0,0-.38.38v2.52h5.81Z" transform="translate(-233.46 -23.69)"/></g><g class="cls-5"><path class="cls-6" d="M244.82,126.14a3.27,3.27,0,1,0,3.27,3.27A3.27,3.27,0,0,0,244.82,126.14Z" transform="translate(-233.46 -23.69)"/><path class="cls-6" d="M244.82,118a11.37,11.37,0,1,0,11.37,11.37A11.38,11.38,0,0,0,244.82,118Zm-2.41,19.66a.47.47,0,0,1-.66.48,9.31,9.31,0,0,1-5.58-5.37.45.45,0,0,1,.46-.65h4.47a4.55,4.55,0,0,0,1.31,1.2Zm2.41-4.33a4,4,0,1,1,4-4A4,4,0,0,1,244.82,133.37Zm8.65-.56a9.28,9.28,0,0,1-5.58,5.37.47.47,0,0,1-.66-.48v-4.34a4.72,4.72,0,0,0,1.32-1.2H253A.45.45,0,0,1,253.47,132.81Zm-.27-5.47H249a4.64,4.64,0,0,0-8.3,0h-4.22a.49.49,0,0,1-.51-.66,9.29,9.29,0,0,1,17.77,0A.5.5,0,0,1,253.2,127.34Z" transform="translate(-233.46 -23.69)"/></g><g class="cls-8"><path class="cls-6" d="M356.3,80.19,338.21,69.75a.4.4,0,0,0-.42,0L319.7,80.19a.44.44,0,0,0-.21.37v20.89a.43.43,0,0,0,.21.36l18.09,10.44a.39.39,0,0,0,.21.06.42.42,0,0,0,.21-.06l18.09-10.44a.43.43,0,0,0,.21-.36V80.56A.44.44,0,0,0,356.3,80.19Zm-.63,21L338,111.41,320.33,101.2V80.8L338,70.59,355.67,80.8Z" transform="translate(-233.46 -23.69)"/><path class="cls-6" d="M337.89,71.38,321.06,81.1a.2.2,0,0,0-.11.18v19.44a.19.19,0,0,0,.11.18l16.83,9.72a.23.23,0,0,0,.11,0,.17.17,0,0,0,.1,0l16.84-9.72a.19.19,0,0,0,.11-.18V81.28a.2.2,0,0,0-.11-.18L338.1,71.38A.2.2,0,0,0,337.89,71.38Zm16.74,10v19.2L338,110.2l-16.63-9.6V81.4L338,71.8Z" transform="translate(-233.46 -23.69)"/><rect class="cls-6" x="116.83" y="60.32" width="0.42" height="13.97"/><rect class="cls-6" x="118.39" y="60.32" width="0.42" height="13.97"/><rect class="cls-6" x="119.96" y="60.32" width="0.42" height="13.97"/><rect class="cls-6" x="88.71" y="60.32" width="0.42" height="13.97"/><rect class="cls-6" x="90.27" y="60.32" width="0.42" height="13.97"/><rect class="cls-6" x="91.83" y="60.32" width="0.42" height="13.97"/><polygon class="cls-6" points="97.09 78.29 97.34 77.86 96.35 77.29 96.1 77.72 96.33 77.85 95.87 78.63 95.76 76.96 94.82 76.41 94.58 76.84 94.77 76.95 93.93 78.4 93.73 78.28 93.49 78.71 94.5 79.29 94.74 78.87 94.49 78.72 94.97 77.89 95.08 79.63 95.79 80.04 96.87 78.16 97.09 78.29"/><polygon class="cls-6" points="97.84 80.64 97.31 80.33 97.63 79.8 98.25 80.16 98.5 79.72 97.88 79.36 98.14 78.91 98.67 79.21 98.5 79.5 99.06 79.83 99.48 79.11 97.5 77.96 97.25 78.39 97.46 78.51 96.64 79.94 96.43 79.82 96.17 80.26 98.16 81.4 98.59 80.66 98.02 80.33 97.84 80.64"/><path class="cls-6" d="M335.2,104.67l.18.11-.4.43c-.11.12-.36.43-.46.57h0a7.26,7.26,0,0,0,.28-.7l.32-1-.69-.39-.59.64c-.25.28-.57.64-.63.72h0a7.42,7.42,0,0,0,.27-.7l.19-.53.19.11.25-.43-1.08-.63-.25.43.18.11-.64,2.12.76.44.66-.68c.07-.08.24-.26.31-.35h0c0,.11-.12.32-.15.45l-.26.9.78.45,1.57-1.59.18.11.25-.43-.94-.55Z" transform="translate(-233.46 -23.69)"/><polygon class="cls-6" points="107.58 82.61 106.75 81.18 107.03 81.02 107.27 81.44 107.75 81.16 107.26 80.31 105.06 81.58 105.55 82.44 106.03 82.16 105.79 81.74 106.07 81.57 106.9 83 106.63 83.16 106.88 83.59 108.1 82.89 107.85 82.45 107.58 82.61"/><polygon class="cls-6" points="109.35 81.58 108.53 80.16 108.73 80.04 108.48 79.61 107.39 80.24 107.64 80.67 107.84 80.55 108.67 81.98 108.46 82.1 108.71 82.53 109.81 81.9 109.55 81.47 109.35 81.58"/><path class="cls-6" d="M345.36,103.5l-.22.12.06.11c0,.07,0,.12,0,.15s-.12,0-.2-.18a.6.6,0,0,0-.7-.22.57.57,0,0,0,.2-.75c-.22-.37-.54-.59-1.31-.15l-1.06.62.24.43.19-.11.83,1.44-.19.1.25.44,1.07-.62-.26-.43-.2.12-.29-.51c.29-.17.37-.12.54.18a.65.65,0,0,0,1,.24.52.52,0,0,0,.18-.8Zm-1.68.1-.14.09-.33-.56.17-.1a.31.31,0,0,1,.47.12C344,103.33,343.88,103.49,343.68,103.6Z" transform="translate(-233.46 -23.69)"/><polygon class="cls-6" points="113.38 78.85 113.56 79.15 113.03 79.46 112.72 78.92 113.35 78.56 113.1 78.12 112.47 78.48 112.21 78.03 112.73 77.72 112.9 78.02 113.47 77.69 113.05 76.96 111.07 78.11 111.32 78.54 111.53 78.42 112.35 79.85 112.14 79.97 112.4 80.41 114.38 79.26 113.95 78.52 113.38 78.85"/><path class="cls-6" d="M347.89,100.68a.24.24,0,0,1,.13-.3.44.44,0,0,1,.64.13l.6-.34-.48-.83-.57.33.13.3a.94.94,0,0,0-1.25,1.22c.48.83,1.68,0,1.83.25s-.07.26-.19.33-.44.19-.6-.09l-.61.35.48.83.57-.33-.11-.27a1.05,1.05,0,0,0,.86-.1.88.88,0,0,0,.47-1.2C349.35,100.19,348.09,101,347.89,100.68Z" transform="translate(-233.46 -23.69)"/><polygon class="cls-6" points="93.35 56.92 93.63 56.76 94.42 58.14 94.16 58.29 94.41 58.72 95.59 58.03 95.35 57.61 95.08 57.76 94.29 56.38 94.55 56.22 94.79 56.63 95.26 56.36 94.78 55.53 92.64 56.77 93.12 57.59 93.59 57.33 93.35 56.92"/><polygon class="cls-6" points="95.35 55.77 96.14 57.15 95.94 57.26 96.19 57.69 97.25 57.08 97 56.65 96.8 56.77 96.01 55.38 96.2 55.27 95.96 54.85 94.9 55.46 95.15 55.88 95.35 55.77"/><path class="cls-6" d="M330,78.76l.8,1.39-.18.1.25.42,1-.59-.25-.42-.19.11-.29-.49c.29-.16.36-.11.53.18a.63.63,0,0,0,1,.23.52.52,0,0,0,.17-.78l-.1-.17-.22.12.07.11c0,.06,0,.11,0,.14s-.12,0-.2-.17a.55.55,0,0,0-.68-.21.57.57,0,0,0,.2-.73c-.21-.37-.53-.57-1.26-.15l-1,.6.24.42Zm.81-.47a.3.3,0,0,1,.46.12c.09.16,0,.32-.16.43l-.14.08-.32-.54Z" transform="translate(-233.46 -23.69)"/><polygon class="cls-6" points="98.91 53.71 99.71 55.09 99.51 55.21 99.75 55.63 101.67 54.52 101.25 53.8 100.7 54.12 100.88 54.42 100.36 54.71 100.07 54.19 100.67 53.84 100.43 53.42 99.82 53.77 99.57 53.33 100.08 53.03 100.24 53.32 100.79 53 100.39 52.3 98.47 53.4 98.71 53.83 98.91 53.71"/><path class="cls-6" d="M336.18,76.75c.08.13-.07.25-.18.31s-.43.19-.58-.08l-.6.34.47.8.56-.32-.11-.26a1,1,0,0,0,.83-.1.86.86,0,0,0,.46-1.16c-.43-.75-1.65.06-1.84-.27-.07-.11,0-.24.12-.3a.43.43,0,0,1,.62.14l.58-.33-.46-.8-.55.31.12.29a.8.8,0,0,0-.85.06.83.83,0,0,0-.36,1.12C334.88,77.31,336,76.5,336.18,76.75Z" transform="translate(-233.46 -23.69)"/><path class="cls-6" d="M338.89,77a1,1,0,0,0,.5.68.85.85,0,0,0,1.23-.19c.43-.75-.87-1.4-.68-1.73.06-.11.22-.09.31,0a.43.43,0,0,1,.2.6l.57.34.47-.8-.55-.32-.19.25a.91.91,0,0,0-1.63-.46c-.47.81.81,1.41.67,1.66s-.25.07-.36,0-.37-.28-.22-.55l-.59-.34-.46.8.55.33Z" transform="translate(-233.46 -23.69)"/><polygon class="cls-6" points="108.17 52.77 107.38 54.16 107.2 54.06 106.96 54.48 107.99 55.07 108.23 54.65 108.03 54.54 108.31 54.06 108.92 54.41 108.64 54.89 108.45 54.78 108.21 55.2 109.25 55.8 109.49 55.38 109.3 55.27 110.1 53.88 110.29 53.99 110.53 53.57 109.49 52.97 109.25 53.39 109.44 53.5 109.16 53.98 108.56 53.63 108.83 53.15 109.03 53.27 109.28 52.85 108.24 52.25 108 52.67 108.17 52.77"/><path class="cls-6" d="M343.48,78.44a1.23,1.23,0,0,0,.46,1.84,1.21,1.21,0,0,0,1.79-.51,1.22,1.22,0,0,0-.46-1.85A1.26,1.26,0,0,0,343.48,78.44Zm.78.45c.23-.39.53-.6.72-.48s.17.51-.05.9-.5.58-.7.47S344,79.31,344.26,78.89Z" transform="translate(-233.46 -23.69)"/><path class="cls-6" d="M345.64,80.62l-.18-.1-.24.42,1,.59.24-.42-.19-.11.28-.49.25.14c.45.26,1,.27,1.2-.15s.25-.76-.49-1.19l-1-.6-.24.42.18.1Zm1.45-1,.16.09a.3.3,0,0,1,.13.46.31.31,0,0,1-.46.09l-.15-.09Z" transform="translate(-233.46 -23.69)"/><path class="cls-6" d="M335.59,83.84h-.31l-.63.16h-.06v0h0a0,0,0,0,0,0,0h0l-.22,0h0l-.6.35h0s0,0,0,0h0a0,0,0,0,0,0,0v0h-.26l-.54.55h0s0,0,0,0h0v0h0v0h-.27l-.45.72h0v0h0v0h0v0h0l0,.08h-.26v0h0v0l-.35.85h0s0,0,0,0h0v0h0l0,0,.1.09v0h-.26a0,0,0,0,1,0,0h0s0,0,0,0h0l-.22,1h0l0,0s0,0,0,0h0a0,0,0,0,0,0,0s0,0,0,0l.11,0v.08h-.2s0,0,0,0h0v0h0v0h0l-.07,1h0l0,0h0l0,0h.06l.12,0v.1l-.12,0h-.05a0,0,0,0,0,0,0s0,0,0,0l0,0a0,0,0,0,1,0,0h0l.07,1h0a.05.05,0,0,0,0,0h.23v.08l-.11,0h0s0,0,0,0,0,0,0,0,0,0,0,0h0v0h0l.22,1h0v0h0v0h0a0,0,0,0,1,0,0h.23v0l-.1.09h0l0,0,0,0h0v0s0,0,0,0h0l.35.85a.05.05,0,0,0,0,0s0,0,0,0l0,0h.22l0,.08,0,0v0h0v0h0v0h0l.45.72,0,0,0,0h.23v0h0v0h0v0h0v0l.54.54h.25v0h0s0,0,0,0h0l0,0,.6.35h0l.22,0h0v0l0,0h0a0,0,0,0,0,0,0l0,0,.66.15.29,0h0l4.28.25,0,0h0l0,0h0l.14,0h0l0,0,0,0a.13.13,0,0,0,0-.06l0-.17h.06v.17s0,0,0,.07l0,.06a.08.08,0,0,0,0,0h0l.62-.06H341l0,0a.14.14,0,0,0,0-.06.19.19,0,0,0,0-.08V98h.07l0,.16a.14.14,0,0,0,0,.06s0,0,0,.05l.05,0h0l.59-.26s0,0,.05,0a.33.33,0,0,0,0-.06.13.13,0,0,0,0-.06.11.11,0,0,0,0-.08l0-.16H342l0,.15s0,0,0,0l0,0,0,0h.08l.54-.43a.1.1,0,0,0,0-.05.14.14,0,0,0,0-.06.17.17,0,0,0,0-.07.15.15,0,0,0,0-.07l0-.15v0h0v0l.06.13s0,0,0,0l0,0h.1l0,0,.47-.6,0,0s0,0,0-.07v-.07s0,0,0-.07l-.06-.13h0V96l.08.11s0,0,0,0h.08l0,0,0,0a0,0,0,0,0,0,0l.39-.73a.19.19,0,0,0,0-.07.15.15,0,0,0,0-.07s0,0,0-.07l0,0L344,95V95l.09.08h.08l0,0,0,0s0,0,0,0l.28-.83s0-.05,0-.07a.17.17,0,0,0,0-.07.14.14,0,0,0,0-.06.09.09,0,0,0,0,0l-.08-.08V93.7l.09,0h.07l0,0,0,0s0,0,0-.06l.18-.89v-.08a.13.13,0,0,0,0-.06l0-.06,0,0-.09,0v-.1l.1,0a.05.05,0,0,0,0,0s0,0,0,0l0,0a.15.15,0,0,0,0-.07l.06-.93V91.2a.25.25,0,0,1,0-.07l0,0-.05,0-.09,0V91l.09,0,.05,0,0,0a.14.14,0,0,1,0-.06v-.08L345,89.8a.17.17,0,0,0,0-.07s0,0,0,0l0,0h-.14v-.1l.09,0,0,0a.33.33,0,0,0,0-.06.13.13,0,0,0,0-.06v-.07l-.18-.9s0,0,0-.06l0,0,0,0h-.07l-.09,0v-.09l.08-.08a.05.05,0,0,0,0,0,.11.11,0,0,0,0-.06.15.15,0,0,0,0-.07s0,0,0-.07l-.28-.83s0,0,0,0l0,0,0,0h-.08l-.09.08V87l.07-.11,0,0s0,0,0-.07a.17.17,0,0,0,0-.07.19.19,0,0,0,0-.07l-.38-.72s0,0,0,0l0,0,0,0h-.09v0l-.08.11v0s0,0,0,0v0h0l.06-.13s0-.05,0-.07v-.07a.19.19,0,0,0,0-.07l0,0-.47-.6,0,0h-.1l0,0,0,0-.06.13v0h0v0l0-.15a.15.15,0,0,0,0-.07.17.17,0,0,0,0-.07.14.14,0,0,0,0-.06.1.1,0,0,0,0-.05l-.54-.43h-.05s0,0,0,0l0,0,0,0s0,0,0,0l0,.15h-.06l0-.16a.08.08,0,0,0,0-.07.15.15,0,0,0,0-.07l0-.06-.05,0-.61-.26h0l0,0s0,0,0,.05a.14.14,0,0,0,0,.06l0,.16H341v-.16a.22.22,0,0,0,0-.08.14.14,0,0,0,0-.06l0,0-.05,0-.62-.05h0a.08.08,0,0,0,0,0l0,.06s0,0,0,.07v.17h-.06l0-.17a.13.13,0,0,0,0-.06l0,0a.1.1,0,0,0-.05,0H340l-.12,0h0l0,0a.05.05,0,0,1,0,0l-4.28.25h0Zm3.69,2.61a2.22,2.22,0,0,1,1.22-.31,2.2,2.2,0,0,1,1.19.44,3.73,3.73,0,0,1,.95,1,5.7,5.7,0,0,1,.62,1.51,7.24,7.24,0,0,1,0,3.62,5.7,5.7,0,0,1-.62,1.51,3.73,3.73,0,0,1-.95,1,2.2,2.2,0,0,1-1.19.44,2.15,2.15,0,0,1-1.22-.32,3.33,3.33,0,0,1-1-1,5.73,5.73,0,0,1-.7-1.56,7.29,7.29,0,0,1,0-3.86,5.73,5.73,0,0,1,.7-1.56A3.49,3.49,0,0,1,339.28,86.45Zm-3.59,1.64a.43.43,0,0,0,0,0H336a0,0,0,0,0,0,0v-.07l-.1-.09s0,0,0-.06h0a.64.64,0,0,1,0-.07h0v-.07h0s0-.06,0-.08l.33-.85h.3v-.08l-.09-.13,0-.06h0a.22.22,0,0,1,0-.08.17.17,0,0,1,0-.07h0a.14.14,0,0,1,0-.07l.37-.61h.35l0,0v0h0l0,0-.07-.15a.14.14,0,0,1,0-.07h0a.22.22,0,0,1,0-.08s0,0,0-.06h0a.1.1,0,0,1,0-.05l.32-.34.4,0-.34.36a.1.1,0,0,0,0,.05s0,0,0,.07a.22.22,0,0,0,0,.08.14.14,0,0,0,0,.07l.07.15,0,0h0v0l-.09-.12,0,0h0s0,0,0,0h-.08l0,0s0,0,0,0l-.45.74a.09.09,0,0,0,0,.07.17.17,0,0,0,0,.07s0,.05,0,.08,0,0,0,.06l.08.13v.08l-.1-.09h-.1l0,0,0,0,0,.05-.34.88a.19.19,0,0,0,0,.08v.07l0,.07,0,.06.1.09V88l-.11-.06h-.09l0,0,0,.05a.08.08,0,0,0,0,0l-.22,1v.08s0,0,0,.08l0,.06.05,0,.11.06v.11l-.12,0-.05,0,0,0s0,0,0,.06,0,0,0,.07l-.07,1a.19.19,0,0,0,0,.08.14.14,0,0,0,0,.07.1.1,0,0,0,0,.05s0,0,.05,0l.12,0v.11h-.12l-.05,0a.1.1,0,0,0,0,.05.14.14,0,0,0,0,.07.19.19,0,0,0,0,.08l.07,1s0,0,0,.07l0,.06,0,0h.06l.11,0v.11l-.11,0-.05,0,0,.06s0,0,0,.08v.08l.22,1a.08.08,0,0,0,0,.06l0,.05,0,0h.09l.11-.06v.1l-.1.09,0,.06,0,.07v.08a.19.19,0,0,0,0,.07l.34.89s0,0,0,0l0,0,0,0h.1l.1-.09v.09l-.08.12,0,.06s0,.05,0,.08a.17.17,0,0,0,0,.07.09.09,0,0,0,0,.07l.45.74s0,0,0,0l0,0h.08s0,0,0,0l0,0,0,0,.09-.12v0h0l0,0-.07.15a.19.19,0,0,0,0,.07v.08s0,0,0,.07a.1.1,0,0,0,0,.05l.34.36-.4,0-.32-.34a.1.1,0,0,1,0-.05h0s0,0,0-.07a.22.22,0,0,1,0-.08h0a.19.19,0,0,1,0-.07l.07-.15,0,0h0v0l0,0h-.35l-.37-.61a.14.14,0,0,1,0-.07h0a.17.17,0,0,1,0-.07.22.22,0,0,1,0-.08h0l0-.06.09-.12V95.3h-.3l-.33-.85s0,0,0-.07v-.08h0a.64.64,0,0,1,0-.07h0l0-.06.1-.09V94h-.25v0s0,0,0,0h0l-.22-1h0s0-.06,0-.08a.15.15,0,0,1,0-.07h0l0-.06.05,0,.11,0V92.5h-.18l0,0h0l0,0s0,0,0-.07l-.07-1v-.08h0l0-.07h0a.1.1,0,0,1,0-.05h0l.05,0h.11V91l-.11,0-.05,0h0l0-.05h0a.25.25,0,0,0,0-.07h0V90.7l.07-1s0,0,0-.07h0a.08.08,0,0,1,0,0h0l0,0h.19V89.4l-.11-.06-.05,0h0l0-.06h0a.22.22,0,0,1,0-.08s0,0,0-.08Z" transform="translate(-233.46 -23.69)"/><path class="cls-6" d="M340.64,91.54a.34.34,0,0,0,0,.1.36.36,0,0,0,0,.1l0,0a.08.08,0,0,0,0,0l0,0h.07s0,0,0,0h0l0,0a.18.18,0,0,0,0-.07.36.36,0,0,0,0-.1.34.34,0,0,0,0-.1.29.29,0,0,0,0-.1l0,0,0,0a.05.05,0,0,0,0,0h-.09s0,0,0,0l0,0a.56.56,0,0,0,0,.08S340.65,91.5,340.64,91.54Z" transform="translate(-233.46 -23.69)"/><path class="cls-6" d="M341,90.93h0a.1.1,0,0,0,.06,0,.2.2,0,0,0,0-.08.36.36,0,0,0,0-.1.45.45,0,0,0,0-.11.19.19,0,0,0,0-.07.13.13,0,0,0,0-.06.1.1,0,0,0-.05,0H341l-.06,0a.3.3,0,0,0,0,.08.36.36,0,0,0,0,.1.41.41,0,0,0,0,.11.24.24,0,0,0,0,.08l0,0,.05,0H341Z" transform="translate(-233.46 -23.69)"/><path class="cls-6" d="M340.38,90.29l.06.06.06,0,.07,0a.34.34,0,0,0,.06-.06.19.19,0,0,0,0-.08.43.43,0,0,0,0-.11.3.3,0,0,0,0-.1.19.19,0,0,0,0-.09l-.06-.06-.07,0-.06,0a.17.17,0,0,0-.06.06l0,.08a.41.41,0,0,0,0,.11.31.31,0,0,0,0,.1A.79.79,0,0,0,340.38,90.29Z" transform="translate(-233.46 -23.69)"/><path class="cls-6" d="M340.83,90.06v0l0,0s0,0,0,0l0,0H341l1.77-1.12,0,0,0,0,0,0a932910159243.42,932910159243.42,0,0,0,0-.1v0a.11.11,0,0,1,0,0s0,0,0,0a4.27,4.27,0,0,0-.32-.68,4.07,4.07,0,0,0-.39-.57,2.72,2.72,0,0,0-1-.76h0l-.06,0-.05,0a.15.15,0,0,0,0,.07.29.29,0,0,0,0,.09l-.15,3V90A.09.09,0,0,1,340.83,90.06Zm.11-.08.13-2.76a2.4,2.4,0,0,1,.46.27,3.08,3.08,0,0,1,.41.4,3.26,3.26,0,0,1,.35.51,4.75,4.75,0,0,1,.28.6L341,90h0Z" transform="translate(-233.46 -23.69)"/><path class="cls-6" d="M340.12,91.34a.08.08,0,0,0,0,0l0,0,0,.1v.11s0,.06,0,.09a.56.56,0,0,0,0,.08l0,0h.11l0,0,0,0,0-.05a.3.3,0,0,0,0-.1.34.34,0,0,0,0-.1l0-.1a.3.3,0,0,0,0-.08l0,0,0,0h-.1Z" transform="translate(-233.46 -23.69)"/><path class="cls-6" d="M341.17,91.14l0,0a.05.05,0,0,0,0,0s0,0,0,0v.1a.43.43,0,0,0,0,.05.17.17,0,0,1,0,0l1.24,2.29,0,0,0,0h.1l0,0s0,0,0,0l0,0a4.46,4.46,0,0,0,.28-.63c.08-.22.14-.45.2-.68s.09-.48.12-.73a6.28,6.28,0,0,0,0-.75v-.33a.28.28,0,0,0,0-.09l0-.07-.05,0h-.1l-1.85.72Zm0,.16h0l1.67-.65v.29q0,.36,0,.69c0,.22-.07.43-.12.64a5.26,5.26,0,0,1-.18.6,5.05,5.05,0,0,1-.24.53l-1.11-2v0Z" transform="translate(-233.46 -23.69)"/><path class="cls-6" d="M341.66,94.66s0,0,0,0l-1-2.57a.08.08,0,0,1,0,0l0,0h-.1l0,0,0,0a.17.17,0,0,1,0,0l-1.05,2.66s0,0,0,.05a.13.13,0,0,0,0,.06v.05a.13.13,0,0,0,0,.06.09.09,0,0,0,0,0s0,0,0,0l0,0,0,0,.27.14.27.09.28,0a1.22,1.22,0,0,0,.27,0,1.27,1.27,0,0,0,.28,0,1.38,1.38,0,0,0,.27-.08l.26-.11a2.26,2.26,0,0,0,.26-.16l0,0,0,0s0,0,0,0a.43.43,0,0,0,0-.05s0,0,0,0v-.06A.43.43,0,0,1,341.66,94.66Zm-.44-.09-.23.11a1.05,1.05,0,0,1-.24.06l-.25,0h-.25l-.24,0-.24-.08-.22-.12.94-2.38v0h0v0l.92,2.3Z" transform="translate(-233.46 -23.69)"/><path class="cls-6" d="M337.76,92.52a4.91,4.91,0,0,0,.22.71,4.33,4.33,0,0,0,.31.65l0,0,0,0,0,0h.08l0,0,0,0,0,0,1.32-2.41s0,0,0,0,0,0,0,0v-.1s0,0,0-.05l0,0,0,0,0,0-2-.75h-.05l-.06,0a.12.12,0,0,0-.05.05.16.16,0,0,0,0,.07.36.36,0,0,0,0,.1v.09s0,0,0,.08V91a7,7,0,0,0,.05.8A6.53,6.53,0,0,0,337.76,92.52Zm.2-1.66s0-.06,0-.08v-.16l1.8.67h0v0L338.6,93.5a4,4,0,0,1-.27-.55c-.07-.19-.14-.4-.2-.62a6.66,6.66,0,0,1-.12-.67,5.84,5.84,0,0,1-.05-.73Z" transform="translate(-233.46 -23.69)"/><path class="cls-6" d="M340,90.93h0l.06,0,0,0a.21.21,0,0,0,0-.06l0-.08s0-.07,0-.11,0-.07,0-.1l0-.08-.06,0H340l-.05,0a.09.09,0,0,0-.05,0,.21.21,0,0,0,0,.06l0,.08a.41.41,0,0,0,0,.11.34.34,0,0,0,0,.1.22.22,0,0,0,.05.08.1.1,0,0,0,.06,0h0Z" transform="translate(-233.46 -23.69)"/><path class="cls-6" d="M326.63,84.43V97.57L338,104.13l11.37-6.56V84.43L338,77.87Zm13.23-1.63h0l.18,0a.69.69,0,0,1,.25,0h.06l.63.06a.64.64,0,0,1,.3.08h.14l.75.31a.92.92,0,0,1,.25.17h0l.06,0,.12.06,0,0,.05,0,.51.41a.83.83,0,0,1,.2.22l.06,0,.05.05a.47.47,0,0,1,.1.1l.48.61a1,1,0,0,1,.14.25l.09.11a.56.56,0,0,1,.09.14l.39.73a1.33,1.33,0,0,1,.1.28h0a.41.41,0,0,1,.05.09,1,1,0,0,1,.09.18l.28.83a1.57,1.57,0,0,1,.06.28v0l0,.08a.78.78,0,0,1,.07.23l.17.88a1.27,1.27,0,0,1,0,.27v0a.14.14,0,0,0,0,.06,1.09,1.09,0,0,1,0,.26l.06.92a.9.9,0,0,1,0,.28.06.06,0,0,1,0,0,.13.13,0,0,1,0,.06.78.78,0,0,1,0,.27l-.06.92a1.18,1.18,0,0,1,0,.25.14.14,0,0,0,0,.06v0a2.35,2.35,0,0,1,0,.27l-.18.91a.94.94,0,0,1-.07.22l0,.07v0a.87.87,0,0,1,0,.28l-.28.83a1.24,1.24,0,0,1-.1.2l0,.07v0a1.22,1.22,0,0,1-.09.27l-.42.79-.06.08a.24.24,0,0,1-.08.09.81.81,0,0,1-.15.27l-.52.66-.05,0a.4.4,0,0,1-.12.1.91.91,0,0,1-.18.21l-.62.49,0,0,0,0-.13.06a.79.79,0,0,1-.24.15l-.7.31-.16,0h0a1.11,1.11,0,0,1-.3.08l-.66.06h0a.85.85,0,0,1-.23,0h-.21v0L335.47,99h-.27l0,0-.83-.19-.09-.06h0l0,0h0L334,98.6l-.08,0-.71-.42-.23-.09,0-.12-.09-.07-.05,0-.58-.59-.24-.16v-.15h0l-.11-.14-.48-.75,0-.06-.06-.14v-.07l0-.07a.92.92,0,0,1-.12-.21l-.28-.7-.12-.12v-.36l0-.08,0,0,0-.07v0l-.24-1v-.3l0-.16v0l0-.07v-.16l-.07-.94v-.33l0-.06,0-.07v-.36l.06-.88v-.12l0-.06v-.13l0,0,0-.08h0v-.2l.37-1.65h.05l.37-.9.06-.13.06-.08,0,0v0l.05-.13.05-.1,0,0,.47-.74.07-.13.11-.07h0l.05-.16.12-.08.56-.56,0,0,.07,0,.18-.18h.06l0,0,.1-.11h0l.08,0,.44-.26,0-.05h0l.05,0,.1,0,.1,0h0l0,0,.07,0,.06,0,.12,0,.7-.17h.15l0,0h.27l4.26-.25Z" transform="translate(-233.46 -23.69)"/><path class="cls-6" d="M338,88.84a.08.08,0,0,0,0,0l0,0,0,0,1.9,1.21h.11s0,0,0,0,0,0,0,0,0,0,0,0a.06.06,0,0,0,0,0,.09.09,0,0,0,0,0v0L340,86.87a.34.34,0,0,0,0-.1.16.16,0,0,0,0-.07s0,0-.05-.06l-.06,0h0a2,2,0,0,0-.53.26,2.73,2.73,0,0,0-.49.42,3.55,3.55,0,0,0-.43.57,3.75,3.75,0,0,0-.36.69l0,.05v0a.06.06,0,0,0,0,.06v0S338,88.82,338,88.84Zm.63-.55a3.24,3.24,0,0,1,.37-.5,2.22,2.22,0,0,1,.44-.38,2.32,2.32,0,0,1,.47-.24l.14,2.8h0l-1.7-1.1A3.88,3.88,0,0,1,338.65,88.29Z" transform="translate(-233.46 -23.69)"/></g><g class="cls-9"><path class="cls-10" d="M429.72,162.75l-11.41-5.32a3.71,3.71,0,0,0-4.93,1.79l-.79,1.69-1.42-.06.05-1.17-4.91-.21-.05,1.16-.3,0a3.69,3.69,0,0,0-3.53,2.14l-9.35,20.06a3.71,3.71,0,0,0,1.79,4.93l19.06,8.88a3.71,3.71,0,0,0,4.93-1.79l12.66-27.15A3.71,3.71,0,0,0,429.72,162.75Zm-1.82,1.55a5.84,5.84,0,0,1-.73,1.19c-.78,1-3.1.7-4.42.08l-8.24-3.84.21-.46c.89-1.89,2-2.48,3.5-1.8l9.41,4.39A.46.46,0,0,1,427.9,164.3Z" transform="translate(-233.46 -23.69)"/><path class="cls-10" d="M405.25,159l0,.43,7.07.31,0-.42.65,0,.09-2.06-.65,0a.78.78,0,0,0-.74-.79l-5.52-.24a.78.78,0,0,0-.81.72l-.65,0L404.6,159l.48,0Z" transform="translate(-233.46 -23.69)"/></g><path class="cls-11" d="M392.87,185.74a3.71,3.71,0,0,1-1.79-4.93l9.35-20.06a3.69,3.69,0,0,1,3.53-2.14l6.63.3.79-1.69a3.71,3.71,0,0,1,4.93-1.79l11.41,5.32a3.71,3.71,0,0,1,1.8,4.93l-12.66,27.15a3.71,3.71,0,0,1-4.93,1.79Zm27.88-22.17c1.32.62,3.64.88,4.42-.08a5.84,5.84,0,0,0,.73-1.19.46.46,0,0,0-.27-.44l-9.41-4.39c-1.47-.68-2.61-.09-3.5,1.8l-.21.46Z" transform="translate(-233.46 -23.69)"/><path class="cls-12" d="M427.63,160.94l-11.41-5.32a3.49,3.49,0,0,0-4.65,1.69l-.85,1.82h0l-6.77-.31a3.51,3.51,0,0,0-3.33,2l-9.35,20.06a3.5,3.5,0,0,0,1.69,4.65L412,194.43a3.5,3.5,0,0,0,4.65-1.69l11.81-25.33.85-1.82A3.5,3.5,0,0,0,427.63,160.94Zm-15.4-1.11.3-.65c.82-1.75,2-2.72,3.78-1.9l9.41,4.39a.69.69,0,0,1,.39.64,5.72,5.72,0,0,1-.77,1.31c-.89,1.09-3.37.75-4.68.14Z" transform="translate(-233.46 -23.69)"/><path class="cls-13" d="M412,178.78l1.7-3.64,0-.07,11.16-5.91h0a2.23,2.23,0,0,0-3-.92l-8.27,4.37a2.71,2.71,0,0,0-1.25-1.16l-1.78-.84-5.72-9.55a2.24,2.24,0,0,0-.77,3.07l3.88,6.48a2.8,2.8,0,0,0-1.23,1.29l-1.7,3.64a1.17,1.17,0,0,0-.05.11l-10.84,6,.06.09a2.23,2.23,0,0,0,3,.79l8-4.41a2.69,2.69,0,0,0,1.2,1.08l1.77.82,5.8,11.06L414,191a2.22,2.22,0,0,0,.84-2.95l-4.14-8A2.77,2.77,0,0,0,412,178.78Zm-4.73-1.46a.68.68,0,0,1-.33-.9l1.7-3.64a.68.68,0,0,1,.9-.33l1.92.9a.67.67,0,0,1,.33.9l-1.7,3.64a.67.67,0,0,1-.9.32Z" transform="translate(-233.46 -23.69)"/><rect class="cls-14" x="404.28" y="157.57" width="4.91" height="1.2" transform="translate(-226.11 -41.42) rotate(2.52)"/><path class="cls-15" d="M404.07,154.33h5.53a.78.78,0,0,1,.78.78v2.46a0,0,0,0,1,0,0h-7.08a0,0,0,0,1,0,0v-2.46A.78.78,0,0,1,404.07,154.33Z" transform="translate(-226.21 -41.43) rotate(2.52)"/><rect class="cls-16" x="402.64" y="155.08" width="8.38" height="2.07" transform="translate(-226.2 -41.44) rotate(2.52)"/><rect class="cls-15" x="402.97" y="154.92" width="0.37" height="2.07" transform="translate(-226.18 -41.34) rotate(2.53)"/><rect class="cls-15" x="403.78" y="154.96" width="0.37" height="2.07" transform="translate(-226.22 -41.27) rotate(2.52)"/><rect class="cls-15" x="404.6" y="154.99" width="0.37" height="2.07" transform="translate(-226.22 -41.3) rotate(2.51)"/><rect class="cls-15" x="405.42" y="155.03" width="0.37" height="2.07" transform="translate(-226.22 -41.35) rotate(2.52)"/><rect class="cls-15" x="406.24" y="155.07" width="0.37" height="2.07" transform="translate(-226.22 -41.38) rotate(2.52)"/><rect class="cls-15" x="407.05" y="155.1" width="0.37" height="2.07" transform="translate(-226.12 -41.64) rotate(2.55)"/><rect class="cls-15" x="407.87" y="155.14" width="0.37" height="2.07" transform="translate(-226.16 -41.56) rotate(2.53)"/><rect class="cls-15" x="408.69" y="155.17" width="0.37" height="2.07" transform="translate(-226.21 -41.49) rotate(2.52)"/><rect class="cls-15" x="409.51" y="155.21" width="0.37" height="2.07" transform="translate(-226.2 -41.53) rotate(2.52)"/><rect class="cls-15" x="410.32" y="155.25" width="0.37" height="2.07" transform="translate(-226.21 -41.55) rotate(2.51)"/><path class="cls-17" d="M359.34,32.44V31.1H359V29.68h0v-.79h-2.29l-.3-3.2H352.6l-.3,3.2H329.52l-.29-3.2h-3.75l-.3,3.2h-2.3v.79h0V31.1h-.38v1.34a.43.43,0,0,0,.43.43h-.05V54.16h.05a.43.43,0,0,0-.43.43v1.33h36.85V54.59a.43.43,0,0,0-.43-.43h0V32.87h0A.43.43,0,0,0,359.34,32.44Z" transform="translate(-233.46 -23.69)"/><rect class="cls-12" x="87.41" y="7.18" width="36.09" height="21.29"/><path class="cls-16" d="M87.46,28.47h36a.43.43,0,0,1,.43.43v1.34a0,0,0,0,1,0,0H87a0,0,0,0,1,0,0V28.9A.43.43,0,0,1,87.46,28.47Z"/><path class="cls-16" d="M87,5.41h36.85a0,0,0,0,1,0,0V6.75a.43.43,0,0,1-.43.43h-36A.43.43,0,0,1,87,6.75V5.41A0,0,0,0,1,87,5.41Z"/><rect class="cls-15" x="87.41" y="3.99" width="36.09" height="1.44"/><rect class="cls-18" x="87.43" y="3.2" width="36.06" height="0.79"/><rect class="cls-11" x="96.43" y="3.2" width="18.04" height="0.79"/><rect class="cls-11" x="116.2" y="3.58" width="5.63" height="0.41"/><polygon class="cls-13" points="104.37 13.32 107.83 13.32 105.46 17.38 108.2 17.38 102.83 22.33 104.77 17.38 102.71 17.38 104.37 13.32"/><polygon class="cls-13" points="120.89 0 119.02 0 117.14 0 116.81 3.58 119.02 3.58 121.23 3.58 120.89 0"/><polygon class="cls-19" points="93.77 0 91.89 0 90.02 0 89.69 3.58 91.89 3.58 94.1 3.58 93.77 0"/><rect class="cls-11" x="322.54" y="27.27" width="5.63" height="0.41" transform="translate(417.25 31.26) rotate(180)"/><rect class="cls-18" x="91.44" y="3.99" width="0.9" height="1.44"/><rect class="cls-16" x="92.35" y="3.99" width="0.36" height="1.44"/><rect class="cls-16" x="91.08" y="3.99" width="0.36" height="1.44"/><rect class="cls-18" x="105.01" y="3.99" width="0.9" height="1.44"/><rect class="cls-16" x="105.91" y="3.99" width="0.36" height="1.44"/><rect class="cls-16" x="104.64" y="3.99" width="0.36" height="1.44"/><rect class="cls-18" x="118.57" y="3.99" width="0.9" height="1.44"/><rect class="cls-16" x="119.47" y="3.99" width="0.36" height="1.44"/><rect class="cls-16" x="118.2" y="3.99" width="0.36" height="1.44"/><path class="cls-17" d="M276.67,73.12a9.08,9.08,0,0,0-5-6.87,27.3,27.3,0,0,0-9.3-2.87,10.83,10.83,0,0,0-1.27,0,2.1,2.1,0,0,0-.45.09l-.16,0-.37.14-.2.09-.43.22-.18.1-.68.4-.08.06c-.21.13-.42.27-.64.43l-.25.17-.53.38-.27.2-.58.44-.23.18-.81.64-.19.16-.21.17v-.85H255v-.69h-.21V64.67a.71.71,0,0,0-.71-.72h-4.76a.72.72,0,0,0-.72.72v1.07h-.2v.69h.2v6.35a5.45,5.45,0,0,0-1.7,4V99.14a2.79,2.79,0,0,0,2.79,2.79H274a2.79,2.79,0,0,0,2.79-2.79V74.41h0A9.22,9.22,0,0,0,276.67,73.12Zm-11.56-6.76a17.81,17.81,0,0,1,2.78,1,9,9,0,0,1,3.43,2.44.58.58,0,0,1,.09.26,1.27,1.27,0,0,1,0,.33,7.71,7.71,0,0,1-1.24,2.39,1.14,1.14,0,0,1-.95.48,1.53,1.53,0,0,1-.36-.07l-9.62-3.61a.91.91,0,0,1-.61-.73.76.76,0,0,1,0-.26s0,0,0,0a.88.88,0,0,1,.1-.3.93.93,0,0,1,.23-.3,12.47,12.47,0,0,1,2.75-1.89A1.14,1.14,0,0,1,262,66,8.71,8.71,0,0,1,265.11,66.36Z" transform="translate(-233.46 -23.69)"/><rect class="cls-18" x="13.16" y="41.23" width="6.19" height="5.86"/><path class="cls-20" d="M269.63,64.25a9.06,9.06,0,0,1,5.14,8.16h0V97.14A2.79,2.79,0,0,1,272,99.93H247.7a2.79,2.79,0,0,1-2.79-2.79V74.73a5.45,5.45,0,0,1,1.7-4c3.23-3,10.12-9.29,12.45-9.42C262.36,61.19,266.45,62.73,269.63,64.25Zm-.31,3.56c-1.26-1.88-6.58-4.14-9.35-3.82a9.35,9.35,0,0,0-3,2,1,1,0,0,0,.28,1.64l9.62,3.61a1.13,1.13,0,0,0,1.31-.41C268.78,69.89,269.71,68.39,269.32,67.81Z" transform="translate(-233.46 -23.69)"/><path class="cls-18" d="M274.77,81.85l-5-1.62a.88.88,0,0,0-1.16.84v1.84l6.19,2Z" transform="translate(-233.46 -23.69)"/><path class="cls-21" d="M269.74,80.23a.88.88,0,0,0-1.16.84v.36a.88.88,0,0,1,1.16-.84l5,1.63v-.37Z" transform="translate(-233.46 -23.69)"/><rect class="cls-21" x="13.16" y="40.74" width="6.19" height="0.49"/><path class="cls-16" d="M13.87,38.26h4.76a.72.72,0,0,1,.72.72v1.77a0,0,0,0,1,0,0H13.16a0,0,0,0,1,0,0V39A.72.72,0,0,1,13.87,38.26Z"/><path class="cls-18" d="M274.77,87.56l-5-1.63a.89.89,0,0,0-1.16.85v1.83l6.19,2Z" transform="translate(-233.46 -23.69)"/><path class="cls-18" d="M274.77,93.26l-5-1.62a.88.88,0,0,0-1.16.84v1.84l6.19,2Z" transform="translate(-233.46 -23.69)"/><path class="cls-21" d="M269.74,85.93a.89.89,0,0,0-1.16.85v.36a.89.89,0,0,1,1.16-.85l5,1.63v-.36Z" transform="translate(-233.46 -23.69)"/><path class="cls-21" d="M269.74,91.64a.88.88,0,0,0-1.16.84v.37a.89.89,0,0,1,1.16-.85l5,1.63v-.36Z" transform="translate(-233.46 -23.69)"/><path class="cls-19" d="M274.77,72.41a9.06,9.06,0,0,0-5.14-8.16c-3.18-1.52-7.27-3.06-10.57-2.89-1.85.1-6.56,4-10,7.2l25.75,9.67V72.41Zm-6.62-1.62a1.13,1.13,0,0,1-1.31.41l-9.62-3.61a1,1,0,0,1-.28-1.64,9.35,9.35,0,0,1,3-2c2.77-.32,8.09,1.94,9.35,3.82C269.71,68.39,268.78,69.89,268.15,70.79Z" transform="translate(-233.46 -23.69)"/><rect class="cls-19" x="15.08" y="51.14" width="18.36" height="22.01" rx="1.99"/><path class="cls-13" d="M257.72,77.11s-6.47,7-6.47,11.58a6.47,6.47,0,1,0,12.94,0C264.19,84.09,257.72,77.11,257.72,77.11Z" transform="translate(-233.46 -23.69)"/><path d="M252.71,86.56l-.09-1.43c0-.5-.05-1,0-1.38L252,86.19h-.62l-.65-2.45a13.34,13.34,0,0,1,0,1.41l-.09,1.41H250l.27-3.4h.84l.6,2.38.58-2.38h.84l.27,3.4Z" transform="translate(-233.46 -23.69)"/><path d="M256.77,84.85c0,1.13-.58,1.78-1.49,1.78s-1.49-.63-1.49-1.77.58-1.78,1.49-1.78S256.77,83.72,256.77,84.85Zm-2.29,0c0,.91.31,1.27.8,1.27s.8-.36.8-1.28-.29-1.27-.8-1.27S254.48,83.94,254.48,84.86Z" transform="translate(-233.46 -23.69)"/><path d="M258.51,83.67v2.89h-.66V83.67h-.91v-.51h2.52l-.07.51Z" transform="translate(-233.46 -23.69)"/><path d="M262.5,84.85c0,1.13-.57,1.78-1.48,1.78s-1.49-.63-1.49-1.77.58-1.78,1.49-1.78S262.5,83.72,262.5,84.85Zm-2.29,0c0,.91.31,1.27.81,1.27s.8-.36.8-1.28-.29-1.27-.8-1.27S260.21,83.94,260.21,84.86Z" transform="translate(-233.46 -23.69)"/><path d="M263.76,85.19v1.37h-.65v-3.4h1c.89,0,1.35.32,1.35,1a.92.92,0,0,1-.69.92l.89,1.48h-.74l-.76-1.37Zm.4-.46c.41,0,.63-.17.63-.57s-.21-.53-.68-.53h-.35v1.1Z" transform="translate(-233.46 -23.69)"/><path d="M257.24,90.75c0,1.12-.57,1.78-1.48,1.78s-1.49-.64-1.49-1.77.58-1.78,1.49-1.78S257.24,89.62,257.24,90.75Zm-2.29,0c0,.91.31,1.27.81,1.27s.8-.36.8-1.28-.29-1.27-.8-1.27S255,89.84,255,90.76Z" transform="translate(-233.46 -23.69)"/><path d="M257.85,92.46v-3.4h.65v3.4Z" transform="translate(-233.46 -23.69)"/><path d="M261.31,91.92l-.07.54H259.3v-3.4H260v2.86Z" transform="translate(-233.46 -23.69)"/><path class="cls-15" d="M252.38,63.74l-.11-1.52a.1.1,0,0,0-.1-.09H252a.11.11,0,0,0-.1.09l-.1,1.52h-.59l-.1-1.52a.11.11,0,0,0-.1-.09h-.2a.09.09,0,0,0-.09.09l-.11,1.52H250l-.11-1.52a.09.09,0,0,0-.09-.09h-.2a.09.09,0,0,0-.09.09l-.11,1.52h-.58l-.11-1.52a.1.1,0,0,0-.1-.09h-.19a.11.11,0,0,0-.1.09l-.1,1.52h-.59l-.1-1.52a.11.11,0,0,0-.1-.09h-.2a.09.09,0,0,0-.09.09L247,63.74h-.63v.69H253v-.69Z" transform="translate(-233.46 -23.69)"/><g class="cls-9"><path class="cls-10" d="M274.21,165.13,257.39,173,266,191.38h0l.5,1.07h0l1,2.2c.13.28,4.24-.75,8.88-2.92s8.07-4.64,7.94-4.92Z" transform="translate(-233.46 -23.69)"/><path class="cls-10" d="M274.21,165.13c-.9-1.94-4-.34-5.31-.18a.56.56,0,0,1-.13,0h-.33l-.26,0h0a2.07,2.07,0,0,1-1-.53l-1.5.7,1.5-.7-1.44-3.09a15.38,15.38,0,0,1,5.7-1.25,5.12,5.12,0,0,1,3.22.63c.56.2.39-1.74-.3-2a18.11,18.11,0,0,0-9.46,1.24l-1.6.75a3.75,3.75,0,0,1,.48-1.34c.62-.93,3.94-4.21,5.34-6s1.16-3.2.81-2.8-11.15,10.31-11.31,10.76.55,1.28.55,1.28l.67,1.44.15.33-1.41.66,1.13,2.42,1.41-.66.16.34a2,2,0,0,1-.2,1.06v0l-.14.23,0,.05a1.12,1.12,0,0,1-.18.2.39.39,0,0,1-.08.1c-1,.92-4.18,2.25-3.28,4.18l8.41-3.92Zm-11.39-2.48-.51.24Zm1.36-.63-.37.17Zm-3.6,1.67-.23.11Z" transform="translate(-233.46 -23.69)"/><polygon class="cls-10" points="21.87 145.12 26.02 143.18 25.42 141.9 21.27 143.84 21 143.27 20.18 143.66 20.01 143.29 8.17 146.17 8.17 146.17 7.52 146.32 7.52 146.32 6.24 146.63 10.06 154.83 21.47 146.43 21.3 146.07 22.13 145.68 21.87 145.12"/></g><path class="cls-12" d="M255.39,171l10.11,21.68c.13.28,4.24-.75,8.88-2.92s8.07-4.64,7.94-4.92l-10.11-21.68Z" transform="translate(-233.46 -23.69)"/><path class="cls-18" d="M264,189.38l.5,1.07a102.42,102.42,0,0,0,16.82-7.84l-.5-1.07A100.07,100.07,0,0,1,264,189.38Z" transform="translate(-233.46 -23.69)"/><path class="cls-18" d="M266.9,163a2.08,2.08,0,0,1-1.69-.58l-2.95,1.37-2.95,1.38a2.07,2.07,0,0,1-.64,1.67c-1,.92-4.18,2.25-3.28,4.18l8.41-3.92,8.41-3.92C271.31,161.19,268.23,162.79,266.9,163Z" transform="translate(-233.46 -23.69)"/><path class="cls-16" d="M265.21,162.37l-2.95,1.37-2.95,1.38a2.06,2.06,0,0,1-.62,1.65l4.09-1.91,4.1-1.91A2.08,2.08,0,0,1,265.21,162.37Z" transform="translate(-233.46 -23.69)"/><rect class="cls-14" x="258.28" y="160.49" width="6.51" height="3.41" transform="translate(-277.5 102.04) rotate(-25)"/><rect class="cls-21" x="257.7" y="160.62" width="6.51" height="0.65" transform="translate(-277.03 101.67) rotate(-25)"/><rect class="cls-21" x="257.1" y="162.57" width="1.56" height="2.67" transform="translate(-278.57 100.66) rotate(-25)"/><rect class="cls-11" x="251.94" y="164.69" width="5.49" height="1.41" transform="translate(-279.49 99.44) rotate(-25)"/><rect class="cls-21" x="252.15" y="165.03" width="0.91" height="2.66" transform="translate(-280.09 98.63) rotate(-25)"/><polygon class="cls-13" points="18.01 141.29 4.24 144.63 8.06 152.83 19.47 144.43 18.01 141.29"/><path class="cls-22" d="M257.87,162l-.67-1.44,5.73-2.68a18.11,18.11,0,0,1,9.46-1.24c.69.25.86,2.19.3,2a5.12,5.12,0,0,0-3.22-.63,15.38,15.38,0,0,0-5.7,1.25Z" transform="translate(-233.46 -23.69)"/><path class="cls-19" d="M268,148.55c-.36.4-11.15,10.31-11.31,10.76s.55,1.28.55,1.28h3a.71.71,0,0,0,.62,0,.69.69,0,0,0,.4-.48h0a.73.73,0,0,0,0-.33,5.49,5.49,0,0,1,.61-2.45c.62-.93,3.94-4.21,5.34-6S268.31,148.15,268,148.55Z" transform="translate(-233.46 -23.69)"/><path class="cls-21" d="M260.89,159.72a.46.46,0,0,1-.23.61.46.46,0,1,1,.23-.61Z" transform="translate(-233.46 -23.69)"/><polygon class="cls-21" points="9.66 151.65 9.12 152.05 5.52 144.32 6.17 144.17 9.66 151.65"/><path class="cls-17" d="M427.84,68a3.1,3.1,0,0,0-.29-.5,2.59,2.59,0,0,0-.65-.63,2.56,2.56,0,0,0-1.44-.45h-28a2.55,2.55,0,0,0-1.62.59,2.48,2.48,0,0,0-1,2V95.83h2.32v3h28.55v-3H428V69A2.6,2.6,0,0,0,427.84,68Z" transform="translate(-233.46 -23.69)"/><path class="cls-12" d="M162,40.72h28a2.59,2.59,0,0,1,2.59,2.59V70.15a0,0,0,0,1,0,0H159.39a0,0,0,0,1,0,0V43.31A2.59,2.59,0,0,1,162,40.72Z"/><path class="cls-21" d="M396.08,64.41h-.64A2.59,2.59,0,0,0,392.85,67V93.83h3.23Z" transform="translate(-233.46 -23.69)"/><path class="cls-21" d="M423.46,64.41h-.65V93.83H426V67A2.59,2.59,0,0,0,423.46,64.41Z" transform="translate(-233.46 -23.69)"/><rect class="cls-11" x="169.52" y="40.72" width="0.69" height="29.41"/><rect class="cls-11" x="174.02" y="40.72" width="10.76" height="29.41"/><rect class="cls-19" x="161.71" y="70.15" width="28.55" height="2.26"/><rect class="cls-16" x="161.71" y="72.41" width="28.55" height="0.76"/><path class="cls-4" d="M400.79,78.49c0,1.19-.61,1.88-1.58,1.88s-1.59-.67-1.59-1.88.62-1.88,1.59-1.88S400.79,77.28,400.79,78.49Zm-2.44,0c0,1,.33,1.36.86,1.36s.85-.38.85-1.36-.31-1.36-.85-1.36S398.35,77.52,398.35,78.49Z" transform="translate(-233.46 -23.69)"/><path class="cls-4" d="M401.43,80.3V76.69h.7V80.3Z" transform="translate(-233.46 -23.69)"/><path class="cls-4" d="M405.11,79.73l-.08.57H403V76.69h.69v3Z" transform="translate(-233.46 -23.69)"/><path class="cls-4" d="M407.61,77.2v1.08h1.11v.51h-1.11V80.3h-.69V76.69h2l-.07.51Z" transform="translate(-233.46 -23.69)"/><path class="cls-4" d="M409.47,80.3V76.69h.7V80.3Z" transform="translate(-233.46 -23.69)"/><path class="cls-4" d="M413.15,79.73l-.08.57H411V76.69h.69v3Z" transform="translate(-233.46 -23.69)"/><path class="cls-4" d="M414.49,77.23V80.3h-.69V77.23h-1v-.54h2.68l-.08.54Z" transform="translate(-233.46 -23.69)"/><path class="cls-4" d="M416.64,77.2v1h1.16v.51h-1.16v1.06h1.43v.52H416V76.69h2.1l-.07.51Z" transform="translate(-233.46 -23.69)"/><path class="cls-4" d="M419.41,78.85V80.3h-.69V76.69h1.08c.95,0,1.43.34,1.43,1.06a1,1,0,0,1-.73,1l.95,1.58h-.8l-.8-1.45Zm.43-.5c.43,0,.67-.17.67-.6s-.23-.56-.73-.56h-.37v1.16Z" transform="translate(-233.46 -23.69)"/><path class="cls-17" d="M395.07,159.35,392.84,151a40.27,40.27,0,0,0,1.54-11.15c0-8.95-2.81-16.93-7.19-22.13,1.54-4-1.31-7.2-6.8-5.17a14.62,14.62,0,0,0-2.54-.79,5.43,5.43,0,0,0-2.18-3.08c-4.36-3.17-12.17-1.13-15.51,2.82a13.54,13.54,0,0,0-5.54,1.43h0a14.34,14.34,0,0,0-1.48.81h0a19.89,19.89,0,0,0-4.83,4.43h0c-.32.42-.77,1-1.06,1.44h0c-.17.24-.34.48-.5.73a29.44,29.44,0,0,0-2.29,4.4h0c-.2.49-.47,1.09-.64,1.61h0c-.06.17-.13.33-.19.5a35.84,35.84,0,0,0-1.3,4.69h0c-.11.53-.21,1.07-.29,1.6h0a37,37,0,0,0-.47,4.3h0c0,.53-.06,1.08-.07,1.62h0c0,.25,0,.51,0,.76a41.35,41.35,0,0,0,.29,4.9h0c.06.55.14,1.08.23,1.61h0a36.08,36.08,0,0,0,1.15,5.07h0c.17.57.36,1.12.55,1.67h0a31.64,31.64,0,0,0,2.68,5.68h0c.37.59.74,1.15,1.13,1.7h0a22.29,22.29,0,0,0,4,4.3h0a16.68,16.68,0,0,0,2.39,1.61h0a13.88,13.88,0,0,0,6.78,1.82h6l1.95,0-.41,0h7.06c4.16,0,8-2,11.16-5.31l7.87-2.09A1.19,1.19,0,0,0,395.07,159.35Zm-26.22-4.19a31,31,0,0,1,0-30.69c.36.56.7,1.17,1,1.8a8.18,8.18,0,0,0-.27,1.19,7,7,0,0,0,2.81,6.61c.08.51.17,1,.24,1.55l-4.39,7.79a3.33,3.33,0,0,0-.27,2.15l2,7.54A20.09,20.09,0,0,1,368.85,155.16Zm-5.46,7,0-.06a1.54,1.54,0,0,0,.17.19A1.59,1.59,0,0,0,363.39,162.18Zm-6-11.88c-.11-.42-.21-.86-.31-1.29.15.65.31,1.3.49,1.92Zm-.94-4.59c-.08-.53-.15-1.07-.19-1.62,0-.23,0-.47-.06-.7a40.9,40.9,0,0,0,.72,4.93C356.71,147.46,356.54,146.6,356.42,145.71Zm-.42-5.9c0-.22,0-.45,0-.68,0-.56,0-1.11.05-1.65l0-.37c-.06.89-.09,1.79-.09,2.71s0,1.75.09,2.61C356,141.57,356,140.7,356,139.81Zm.56-6.8c.09-.58.21-1.16.33-1.72a.3.3,0,0,1,0-.1c-.16.77-.3,1.56-.42,2.36C356.52,133.37,356.53,133.19,356.56,133Zm-.19,1.38c-.08.63-.15,1.28-.21,1.93C356.22,135.67,356.29,135,356.37,134.39Zm1.85-7.8.15-.38c-.2.52-.37,1.07-.55,1.61C358,127.41,358.07,127,358.22,126.59Zm-.66,2c-.2.69-.38,1.4-.54,2.12C357.18,130,357.36,129.32,357.56,128.63Zm1.31-3.71c.1-.24.22-.47.32-.71-.19.44-.39.88-.57,1.34C358.71,125.34,358.78,125.12,358.87,124.92Zm1.92-3.81.09-.17c.34-.57.7-1.11,1.07-1.64h0c.18-.25.37-.49.56-.74l-.56.75C361.54,119.88,361.16,120.48,360.79,121.11Zm-.51.9c-.21.4-.43.8-.64,1.22C359.85,122.81,360.06,122.41,360.28,122Zm6.35-7.56-.21.15Zm-2,1.68-.23.23Zm-.81.84-.37.41Zm-.76.87-.45.54Zm-5.4,33.55c.14.45.3.89.45,1.33-.1-.28-.21-.54-.3-.83S357.73,151.55,357.68,151.39ZM360.5,158c-.23-.38-.44-.77-.65-1.17l-.15-.35C360,157,360.22,157.53,360.5,158Zm-1.41-2.84c-.16-.36-.32-.72-.46-1.09C358.77,154.46,358.93,154.82,359.09,155.18Zm13.71-43.49.18,0,.12,0Zm-4.88,1.88a1.88,1.88,0,0,1-.18.12l.18-.12a16.83,16.83,0,0,1,1.68-.88A16.83,16.83,0,0,0,367.92,113.57Zm2-1,.42-.17Zm-2,53.51.83.47-.83-.47-.1-.07Zm-.88-.57-.05,0Zm-.84-.63a.69.69,0,0,1-.13-.11A.69.69,0,0,0,366.2,164.86Zm-.84-.69-.1-.1Zm4.95,3.07-.08,0Zm-.76-.32-.53-.26Zm13.22-53.17c1.64,0,2.33.72,2.42,1.86a17.84,17.84,0,0,0-2.49-1.9Zm-9.15-4.37a4.24,4.24,0,0,1,1.91,2.09H363.45C365.74,109.32,370,107.29,373.62,109.38ZM373,168h-.08l.13,0Z" transform="translate(-233.46 -23.69)"/><path class="cls-23" d="M373.2,109.46a14,14,0,0,0-7.28,2.11,20.6,20.6,0,0,0-6,5.73c-3.66,5.16-5.94,12.45-5.94,20.52s2.28,15.35,5.94,20.51a20.34,20.34,0,0,0,6,5.73,13.88,13.88,0,0,0,7.28,2.12c10.59,0,19.18-12.71,19.18-28.36S383.79,109.46,373.2,109.46Zm.93,48.88a5.55,5.55,0,0,1-2-.38,11.74,11.74,0,0,1-5.31-4.8,31,31,0,0,1,0-30.69,11.86,11.86,0,0,1,5.31-4.8,5.78,5.78,0,0,1,2-.38c5.36,0,11.34,8.78,11.34,20.53S379.49,158.34,374.13,158.34Z" transform="translate(-233.46 -23.69)"/><path class="cls-24" d="M385.47,137.82c0,11.75-6,20.52-11.34,20.52a5.55,5.55,0,0,1-2-.38,11.74,11.74,0,0,1-5.31-4.8,30.9,30.9,0,0,0,0-30.69,11.86,11.86,0,0,1,5.31-4.8,5.78,5.78,0,0,1,2-.38C379.49,117.29,385.47,126.07,385.47,137.82Z" transform="translate(-233.46 -23.69)"/><path class="cls-24" d="M372.17,166.13c.34,0,.68,0,1,0H358.65a13.86,13.86,0,0,1-6.78-1.82,17.65,17.65,0,0,1-2.4-1.61,22,22,0,0,1-4-4.3c-.39-.55-.76-1.11-1.13-1.7a31.74,31.74,0,0,1-2.68-5.69c-.19-.54-.38-1.09-.55-1.66a36.08,36.08,0,0,1-1.15-5.07c-.09-.53-.17-1.07-.22-1.61a41.35,41.35,0,0,1-.29-4.9c0-.25,0-.51,0-.77,0-.55,0-1.09.06-1.62a37.38,37.38,0,0,1,.47-4.31c.08-.53.18-1.07.29-1.6a35.84,35.84,0,0,1,1.3-4.69c.17-.51.36-1,.56-1.51a29.74,29.74,0,0,1,2.57-5c.29-.46.59-.9.91-1.32a20.28,20.28,0,0,1,5.5-5.27,15.51,15.51,0,0,1,1.49-.82,13.54,13.54,0,0,1,5.54-1.43h15c-.35,0-.69,0-1,0a9.21,9.21,0,0,0-1.19.15,7.7,7.7,0,0,0-1.06.23,6.21,6.21,0,0,0-.81.24,14.22,14.22,0,0,0-3.19,1.45l-.46.3a15.93,15.93,0,0,0-1.91,1.44,21.68,21.68,0,0,0-3.6,4h0c-.37.53-.73,1.07-1.07,1.64a28.49,28.49,0,0,0-2,4c-.24.54-.45,1.1-.65,1.67a35.16,35.16,0,0,0-1.33,4.7c-.12.56-.24,1.14-.33,1.72a39.94,39.94,0,0,0-.49,4.47c0,.54-.05,1.09-.05,1.65,0,.23,0,.46,0,.68a39.91,39.91,0,0,0,.23,4.28c0,.55.11,1.09.19,1.62a38.42,38.42,0,0,0,.94,4.59c.14.54.3,1.08.47,1.59a33.39,33.39,0,0,0,2,5c.25.49.51,1,.79,1.43.41.72.85,1.4,1.31,2.05s.94,1.26,1.44,1.85c.37.42.74.82,1.13,1.19a18.1,18.1,0,0,0,3.4,2.69,13.79,13.79,0,0,0,3.19,1.45,6.21,6.21,0,0,0,.81.24A7.7,7.7,0,0,0,371,166,9.21,9.21,0,0,0,372.17,166.13Z" transform="translate(-233.46 -23.69)"/><path class="cls-4" d="M355.2,114.16c-.29.31-.57.64-.84,1,0,0,0,0,0-.06C354.62,114.75,354.91,114.45,355.2,114.16Z" transform="translate(-233.46 -23.69)"/><path class="cls-25" d="M366.14,166.18a13.94,13.94,0,0,1-5.87-2h0a5.42,5.42,0,0,1,2.25-2.85c-.39-.37-.76-.77-1.13-1.19a6.9,6.9,0,0,0-2.56,3.1,20.14,20.14,0,0,1-3.06-2.82,6.13,6.13,0,0,1,2.86-4.18c-.28-.46-.53-.94-.78-1.43a8.4,8.4,0,0,0-3.4,4,26,26,0,0,1-2.84-4.8,10.78,10.78,0,0,1,4.22-4.13c-.17-.51-.33-1-.48-1.59a12.33,12.33,0,0,0-4.54,3.88,33.31,33.31,0,0,1-1.41-4.37,7.31,7.31,0,0,1,5-4.09c-.07-.54-.14-1.08-.19-1.63a10.39,10.39,0,0,0-5.34,3.31,37.94,37.94,0,0,1-.6-4.49h0a8.68,8.68,0,0,1,5.73-3.77c0-.56,0-1.1.06-1.65a11.71,11.71,0,0,0-5.89,2.86c0-.18,0-.34,0-.52,0-.88,0-1.73.08-2.59h0c.95-1.69,3.42-3.45,6.31-4.21.09-.58.2-1.16.33-1.72a14.06,14.06,0,0,0-6.37,3.11,39.29,39.29,0,0,1,.81-4.32h0a11.09,11.09,0,0,1,6.89-3.48c.2-.57.41-1.13.65-1.67a14.13,14.13,0,0,0-6.7,2.24,33.29,33.29,0,0,1,1.44-3.55,12.45,12.45,0,0,1,7.27-2.67c.34-.57.69-1.11,1.06-1.64h0a17.15,17.15,0,0,0-6.77,1.41,25.36,25.36,0,0,1,2.41-3.31h0a14,14,0,0,1,8-2.07,14.18,14.18,0,0,1,1.91-1.43,17.11,17.11,0,0,0-6.35.27,14.25,14.25,0,0,1,7-2.69h-6a16.05,16.05,0,0,0-5.69,3.91,5.57,5.57,0,0,0-1.82-2.47c-.5.24-1,.52-1.49.82A4.66,4.66,0,0,1,353,114.9a24,24,0,0,0-3.15,4.65,10.36,10.36,0,0,0-3.58-3.41c-.32.42-.77,1-1.06,1.44a9.62,9.62,0,0,1,3.71,3.84,51.44,51.44,0,0,0-1.86,5,9.35,9.35,0,0,0-4.67-3.74c-.2.49-.47,1.09-.64,1.61,2,.57,3.62,2.43,4.68,4a.5.5,0,0,0,.12.14,40.71,40.71,0,0,0-.76,4.42,13.67,13.67,0,0,0-5.51-3.33c-.11.53-.21,1.07-.29,1.6,2.59.9,4.71,2.53,5.51,4.09a.53.53,0,0,0,.06.1q-.06,1.24-.06,2.52c0,.11,0,.23,0,.34a12,12,0,0,0-6-2.74c0,.53-.06,1.08-.07,1.62,2.73.51,5.13,2,6.16,3.84,0,0,0,0,0,0,.09,1.28.23,2.52.43,3.76a12,12,0,0,0-6.31-1.95c.06.55.14,1.08.23,1.61,2.65.19,5.33,1.17,6.67,3.22h0a35.21,35.21,0,0,0,1.22,4,16.12,16.12,0,0,0-6.74-2.2c.17.57.36,1.12.55,1.67a15.18,15.18,0,0,1,7.38,3.42,31.27,31.27,0,0,0,2,3.58,22.53,22.53,0,0,0-6.69-1.32c.37.59.74,1.15,1.13,1.7a21,21,0,0,1,7.59,2.34,22.7,22.7,0,0,0,2,2.12,42.07,42.07,0,0,0-5.62-.16,16.68,16.68,0,0,0,2.39,1.61,26.52,26.52,0,0,1,6,.65q.25.17.51.3.64.38,1.32.69l.42.19h4.48l1.95,0Zm-13.2-7.32h0a24.49,24.49,0,0,1-2.33-3.76l-.18-.33h0c-.18-.35-.36-.69-.52-1.06s-.31-.69-.44-1a33.28,33.28,0,0,1-1.35-3.87l-.06-.23h0a10.36,10.36,0,0,1-.28-1.13h0c-.15-.52-.26-1-.36-1.57,0,0,0,0,0,0a39.38,39.38,0,0,1-.63-4.32c0-.08,0-.15,0-.22v0c0-.32,0-.63,0-1h0a5.83,5.83,0,0,1-.05-.84h0c0-.54,0-1.07,0-1.62,0-.78,0-1.54.07-2.29h0a.11.11,0,0,1,0-.08c0-.32,0-.63.06-1h0l0-.37a38.82,38.82,0,0,1,.83-5.3c0-.11.05-.23.08-.34.07-.3.13-.6.22-.89a5.15,5.15,0,0,1,.16-.56h0a31.21,31.21,0,0,1,1.37-4,6.07,6.07,0,0,1,.24-.59c.15-.33.28-.64.44-1s.43-.9.68-1.34a25.47,25.47,0,0,1,2.56-3.92l.06-.07a10.56,10.56,0,0,1,.92-1.07c.27-.32.56-.62.85-.91-.29.31-.57.64-.84,1s-.57.71-.84,1.09a26.88,26.88,0,0,0-2.24,3.56h0c-.35.65-.67,1.32-1,2-.12.26-.23.52-.33.77s-.13.3-.19.44a35.7,35.7,0,0,0-1.15,3.4h0c-.25.83-.46,1.68-.65,2.56a38,38,0,0,0-.73,4.75h0c-.07.66-.12,1.34-.16,2s0,1.36,0,2.06,0,1.23,0,1.83c0,.17,0,.34,0,.51q0,.53.06,1.05c0,.11,0,.21,0,.31a37.32,37.32,0,0,0,.74,4.95h0a1.59,1.59,0,0,0,.06.3c.13.62.27,1.21.44,1.8l0,.08a36.23,36.23,0,0,0,1.5,4.41h0c0,.08.07.17.11.24h0c.2.5.43,1,.66,1.45a.29.29,0,0,0,.06.11,26.18,26.18,0,0,0,2.42,4.1A1.75,1.75,0,0,0,352.94,158.86Z" transform="translate(-233.46 -23.69)"/><path class="cls-13" d="M385.19,115.7c0,.07-.06.14-.08.2a39.07,39.07,0,0,1-3.59,6.77c-.53.82-1.08,1.62-1.66,2.4-2.73,3.68-.18,5-1.57,7.06a2.74,2.74,0,0,1-2.12.4c1.15-1.72.41-3.38,1.06-5.17a30.3,30.3,0,0,1,2.7-5.29c.14-.25.33-.55.54-.91,1.12-2,2.92-5.4,2.73-7.53-.09-1.15-.78-1.91-2.43-1.88a16.89,16.89,0,0,0-2.39-1.23C383.88,108.48,386.73,111.65,385.19,115.7Z" transform="translate(-233.46 -23.69)"/><path class="cls-26" d="M386.55,136l-11.9-7.11a1.14,1.14,0,0,0-1.58.42l-6.8,12.08a3.33,3.33,0,0,0-.27,2.15l5.2,19.6a1.19,1.19,0,0,0,1.44.83l19.59-5.21a1.19,1.19,0,0,0,.84-1.43l-5.22-19.6A3.3,3.3,0,0,0,386.55,136Zm5,21.38-18.93,5-5.12-19.27a2,2,0,0,1,.12-1l6.63-11.74,11.56,6.91a1.93,1.93,0,0,1,.62.82Z" transform="translate(-233.46 -23.69)"/><path class="cls-27" d="M385.77,137.32l-11.56-6.91-6.63,11.74a2,2,0,0,0-.12,1l5.12,19.27,18.93-5-5.12-19.26A1.93,1.93,0,0,0,385.77,137.32Zm-10.24-1.92a1,1,0,1,1,.74-1.26A1,1,0,0,1,375.53,135.4Z" transform="translate(-233.46 -23.69)"/><path class="cls-26" d="M374.7,132.27a2.2,2.2,0,1,0,2.7,1.57A2.21,2.21,0,0,0,374.7,132.27Zm.83,3.13a1,1,0,1,1,.74-1.26A1,1,0,0,1,375.53,135.4Z" transform="translate(-233.46 -23.69)"/><path class="cls-26" d="M387.47,151.84a.39.39,0,0,1-.29.28.34.34,0,0,1-.2,0l-2.29-.62.91,1.88a.39.39,0,0,1-.17.53l-.08,0a.42.42,0,0,1-.46-.22l-1.22-2.49-3.79-1,1,3.79,2.48,1.23a.4.4,0,0,1,.19.53.41.41,0,0,1-.26.21.39.39,0,0,1-.28,0l-1.86-.92.61,2.29a.4.4,0,1,1-.77.2l-.61-2.3L379.22,157a.39.39,0,0,1-.23.15.4.4,0,0,1-.32-.05.4.4,0,0,1-.11-.55l1.56-2.32-1-3.79L376.5,153l.17,2.78a.41.41,0,0,1-.29.41h-.08a.39.39,0,0,1-.42-.37l-.14-2.09-1.85,1.85a.37.37,0,0,1-.17.1.39.39,0,0,1-.38-.1.41.41,0,0,1,0-.57l1.85-1.84-2.08-.14a.39.39,0,0,1-.37-.42.4.4,0,0,1,.42-.37l2.79.18,2.61-2.59-3.56-1-2.32,1.55-.12,0a.39.39,0,0,1-.44-.16.4.4,0,0,1,.11-.55L374,148.6l-2.51-.67a.4.4,0,0,1-.28-.5.38.38,0,0,1,.48-.27l2.52.68-.92-1.88a.4.4,0,0,1,.71-.35l1.24,2.5,3.56,1-.95-3.57-2.5-1.24a.41.41,0,0,1-.18-.53.39.39,0,0,1,.53-.18l1.88.93-.67-2.53a.39.39,0,0,1,.28-.48.4.4,0,0,1,.49.28l.67,2.52,1.16-1.73a.39.39,0,0,1,.55-.11.4.4,0,0,1,.11.55l-1.55,2.31.94,3.56,2.79-2.76-.18-2.78a.4.4,0,1,1,.79,0l.14,2.09,1.67-1.68a.41.41,0,0,1,.57,0,.4.4,0,0,1,0,.57l-1.67,1.67,2.07.14a.4.4,0,0,1,.38.43.4.4,0,0,1-.3.35.28.28,0,0,1-.13,0l-2.78-.18-2.78,2.77,3.78,1,2.33-1.54a.39.39,0,0,1,.55.1.39.39,0,0,1-.11.56l-1.74,1.16,2.3.62A.39.39,0,0,1,387.47,151.84Z" transform="translate(-233.46 -23.69)"/><path class="cls-28" d="M388.34,145.44l3.17,12-10.31,2.75-7.67-4.45a.31.31,0,0,0,.19,0,.42.42,0,0,0,.18-.11l1.84-1.84.14,2.09a.4.4,0,0,0,.42.37h.08a.4.4,0,0,0,.29-.41L376.5,153l2.61-2.6,1,3.79-1.56,2.32a.4.4,0,0,0,.44.6.48.48,0,0,0,.22-.16l1.17-1.75.61,2.31a.4.4,0,0,0,.49.28.39.39,0,0,0,.28-.48l-.61-2.3,1.87.93a.42.42,0,0,0,.27,0,.39.39,0,0,0,.08-.73L380.89,154l-1-3.8,3.79,1,1.22,2.5a.4.4,0,0,0,.47.21l.07,0a.4.4,0,0,0,.18-.53l-.92-1.88,2.29.62a.38.38,0,0,0,.21,0,.41.41,0,0,0,.28-.29.38.38,0,0,0-.29-.47l-2.29-.62,1.74-1.16a.42.42,0,0,0,.12-.57.4.4,0,0,0-.55-.1l-2.34,1.54-3.78-1,2.78-2.77,2.79.19h.12a.41.41,0,0,0,.3-.36.4.4,0,0,0-.37-.43l-2.08-.13,1.67-1.68a.39.39,0,0,0,0-.56Z" transform="translate(-233.46 -23.69)"/><path class="cls-28" d="M378.55,149.84l-2.61,2.6h-.24l-3.4-2a.53.53,0,0,0,.25,0l.12-.05,2.32-1.54Z" transform="translate(-233.46 -23.69)"/><path class="cls-28" d="M375.19,153.19l-.7.69L373,153l.08,0Z" transform="translate(-233.46 -23.69)"/><path class="cls-28" d="M382.15,143.67l.16,2.42-2.78,2.77-.95-3.56,1.55-2.31a.39.39,0,0,0-.11-.55Z" transform="translate(-233.46 -23.69)"/><path class="cls-28" d="M383.06,145.35l-.14-2.09a.41.41,0,0,0-.16-.29l1.71,1Z" transform="translate(-233.46 -23.69)"/><path class="cls-28" d="M378.52,148.18l.24.89-3.56-1L374,145.6a.28.28,0,0,0-.08-.11Z" transform="translate(-233.46 -23.69)"/><path class="cls-13" d="M373.63,134.23c-3.47-1.93-6.61-4.43-6-8.77.44-3.31,3.32-6,4.77-8.93s2.79-7.15-.76-9.15-7.88-.06-10.17,2.08h-3.29c3.34-4,11.15-6,15.51-2.82,3.8,2.77,2.34,7.18.19,10.62-1.49,2.38-4.69,6-4.55,9,.19,3.73,3.27,5.63,6.37,7.22C376.72,134,376.44,135.79,373.63,134.23Z" transform="translate(-233.46 -23.69)"/><path class="cls-17" d="M336.85,144.59a39.83,39.83,0,0,0,.29-4.81c0-.25,0-.5,0-.76h0c0-.54,0-1.08-.07-1.6h0a36,36,0,0,0-.46-4.23h0c-.08-.53-.17-1.06-.29-1.58h0A32.81,32.81,0,0,0,335,127c0-.17-.12-.33-.18-.5h0c-.16-.5-.43-1.1-.63-1.58h0a28.94,28.94,0,0,0-2.25-4.33c-.16-.25-.33-.48-.5-.72h0c-.08-.11-.18-.24-.26-.37l-.15-.21,0,0-.62-.81,0,0a19.38,19.38,0,0,0-4.74-4.36h0a14.21,14.21,0,0,0-1.47-.81h0a13.35,13.35,0,0,0-5.45-1.41c-3.29-3.88-11-5.89-15.26-2.77a5.33,5.33,0,0,0-2.15,3,14.63,14.63,0,0,0-2.49.77c-5.4-2-8.21,1.11-6.7,5.1-4.31,5.11-7.07,13-7.07,21.76a40.71,40.71,0,0,0,.82,8.17l-3.31,9.64a1.17,1.17,0,0,0,.72,1.46l9.52,3.27c3.12,3.37,7,5.36,11.12,5.36h6.94l-.4,0,1.92,0h5.86a13.65,13.65,0,0,0,6.66-1.79h0a16.27,16.27,0,0,0,2.36-1.59h0a21.59,21.59,0,0,0,3.93-4.23h0c.38-.54.75-1.09,1.11-1.67h0a32,32,0,0,0,2.63-5.59h0c.19-.54.37-1.08.54-1.64h0a34.81,34.81,0,0,0,1.13-5h0c.09-.52.17-1.05.22-1.59Zm-21.29,17.19-.12.12.15-.17Zm-5.45-15.84a3.22,3.22,0,0,0-.12-2.12l-3.6-7.63c.07-.7.17-1.39.29-2.06a6.92,6.92,0,0,0,2.76-6.51,9.25,9.25,0,0,0-.26-1.16c.32-.62.65-1.22,1-1.77a30.42,30.42,0,0,1,0,30.19,22.71,22.71,0,0,1-1.87-3.69Zm2.47-31-.21-.16Zm5.44,6.23c0,.05.07.12.11.18-.37-.62-.75-1.22-1.15-1.79s-.76-1-1.16-1.49c.4.47.79,1,1.16,1.48h0C317.34,120.12,317.69,120.65,318,121.21Zm2,3.91c.09.21.16.43.24.64q-.27-.69-.57-1.35C319.78,124.65,319.9,124.88,320,125.12Zm-.76-1.65c-.21-.42-.43-.83-.66-1.24C318.82,122.64,319,123.05,319.25,123.47Zm1.39,3.3c.15.4.27.82.4,1.24-.17-.55-.35-1.1-.55-1.63C320.54,126.51,320.6,126.63,320.64,126.77Zm1.31,4.62c.12.55.23,1.12.32,1.7,0,.18.05.37.08.55-.12-.79-.25-1.58-.42-2.34A.29.29,0,0,1,322,131.39Zm-.13-.55c-.16-.7-.33-1.39-.53-2.07C321.49,129.44,321.66,130.14,321.82,130.84Zm.94,6.64c0,.54.05,1.08.05,1.63,0,.22,0,.45,0,.67,0,.88,0,1.74-.09,2.6,0-.86.09-1.72.09-2.6s0-1.79-.09-2.67Zm-.09-1.12q-.09-1-.21-2C322.55,135.05,322.61,135.7,322.67,136.36Zm-.25,9.22c-.13.87-.29,1.73-.47,2.58a38.53,38.53,0,0,0,.71-4.9c0,.24,0,.49-.06.73C322.56,144.52,322.49,145.05,322.42,145.58Zm-1.12,5.16c.19-.64.35-1.29.5-2-.1.44-.19.89-.31,1.32C321.43,150.31,321.36,150.52,321.3,150.74Zm-5.8-33c-.13-.15-.26-.3-.4-.44C315.24,117.43,315.37,117.58,315.5,117.73Zm-.94-1-.24-.25ZM317,160l.18-.28L317,160l0,0Zm2.06-3.42c-.21.41-.43.8-.65,1.18.28-.49.54-1,.8-1.51A3.31,3.31,0,0,0,319,156.54Zm2.14-5.39-.15.51c-.09.28-.2.55-.3.82C320.88,152,321,151.61,321.18,151.15Zm-.94,2.68c-.14.36-.29.71-.45,1.06C320,154.54,320.1,154.19,320.24,153.83ZM311.1,114l.13.09-.13-.09a18.6,18.6,0,0,0-1.65-.87A14.49,14.49,0,0,1,311.1,114Zm-2.41-1.18.46.19Zm-3.74-.86Zm1.05.13.12,0,.2,0Zm4,54.14-.54.26Zm-1.14.51-.15.06Zm2.21-1.1,0,0,0,0-.81.46Zm2.61-1.95-.09.08Zm-.81.68-.1.09ZM312,165h0Zm-6.5-55.19c3.6-2,7.75,0,10,2H303.94l.37,0-.37,0h-.32A4.13,4.13,0,0,1,305.49,109.83Zm-9,4.31.07,0a17.1,17.1,0,0,0-2.45,1.87C294.2,114.84,294.87,114.1,296.49,114.14Zm9.58,53.36.13,0-.08,0Z" transform="translate(-233.46 -23.69)"/><path class="cls-23" d="M283.07,137.78c0,15.4,8.45,27.9,18.87,27.9a13.75,13.75,0,0,0,7.16-2.08A20.09,20.09,0,0,0,315,158c3.6-5.07,5.84-12.24,5.84-20.18s-2.24-15.1-5.84-20.18A20.09,20.09,0,0,0,309.1,112a13.75,13.75,0,0,0-7.16-2.08C291.52,109.88,283.07,122.37,283.07,137.78Zm6.79,0c0-11.56,5.89-20.19,11.17-20.19A5.59,5.59,0,0,1,303,118a11.61,11.61,0,0,1,5.22,4.73,30.42,30.42,0,0,1,0,30.19A11.59,11.59,0,0,1,303,157.6,5.59,5.59,0,0,1,301,158C295.75,158,289.86,149.34,289.86,137.78Z" transform="translate(-233.46 -23.69)"/><path class="cls-24" d="M289.86,137.78c0,11.56,5.89,20.19,11.17,20.19a5.59,5.59,0,0,0,1.93-.37,11.59,11.59,0,0,0,5.22-4.72,30.42,30.42,0,0,1,0-30.19A11.61,11.61,0,0,0,303,118a5.59,5.59,0,0,0-1.93-.37C295.75,117.59,289.86,126.22,289.86,137.78Z" transform="translate(-233.46 -23.69)"/><path class="cls-24" d="M303,165.64c-.34,0-.67,0-1,0h14.32a13.69,13.69,0,0,0,6.67-1.79,17.65,17.65,0,0,0,2.35-1.59,21.27,21.27,0,0,0,3.93-4.23c.39-.54.75-1.09,1.12-1.67a32,32,0,0,0,2.63-5.59c.18-.54.37-1.08.54-1.65a34.81,34.81,0,0,0,1.13-5c.09-.52.17-1.05.22-1.59a39.83,39.83,0,0,0,.29-4.81c0-.25,0-.51,0-.76,0-.54,0-1.08-.07-1.6a36.42,36.42,0,0,0-.46-4.24c-.08-.52-.18-1.05-.29-1.57A32.81,32.81,0,0,0,333,125c-.16-.51-.35-1-.55-1.49a29.14,29.14,0,0,0-2.52-4.92c-.28-.45-.58-.88-.9-1.3a20.09,20.09,0,0,0-5.41-5.19,16.1,16.1,0,0,0-1.46-.8,13.35,13.35,0,0,0-5.45-1.41h-14.8c.34,0,.67,0,1,0a11,11,0,0,1,1.17.15,7.56,7.56,0,0,1,1.05.23,4.71,4.71,0,0,1,.79.23A14,14,0,0,1,309.1,112l.45.3a14.63,14.63,0,0,1,1.88,1.41,21.74,21.74,0,0,1,3.55,3.92h0c.36.52.71,1.05,1,1.61a29.24,29.24,0,0,1,2,3.91q.35.8.63,1.65a34,34,0,0,1,1.31,4.62c.12.55.23,1.12.32,1.7a36.61,36.61,0,0,1,.49,4.39c0,.54.05,1.08.05,1.63,0,.22,0,.45,0,.67a38.76,38.76,0,0,1-.22,4.21c0,.53-.11,1.06-.18,1.59a37.65,37.65,0,0,1-.93,4.52c-.14.53-.29,1.05-.46,1.56a32.33,32.33,0,0,1-2,4.88c-.25.48-.5,1-.77,1.41q-.61,1.05-1.29,2c-.45.64-.93,1.25-1.42,1.82-.37.42-.73.81-1.12,1.18a17.94,17.94,0,0,1-3.34,2.64A13.6,13.6,0,0,1,306,165a4.71,4.71,0,0,1-.79.23,7.56,7.56,0,0,1-1.05.23A11,11,0,0,1,303,165.64Z" transform="translate(-233.46 -23.69)"/><path class="cls-4" d="M319.65,114.51c.29.3.56.62.83.95,0,0,0,0,0-.06C320.22,115.09,319.94,114.79,319.65,114.51Z" transform="translate(-233.46 -23.69)"/><path class="cls-25" d="M308.48,165.72l1.92,0h4.41a3.75,3.75,0,0,0,.41-.19,12.32,12.32,0,0,0,1.3-.67,4.29,4.29,0,0,0,.5-.29,25.22,25.22,0,0,1,5.91-.64,16.27,16.27,0,0,0,2.36-1.59,40.68,40.68,0,0,0-5.53.16,22,22,0,0,0,2-2.09,20.73,20.73,0,0,1,7.47-2.3c.38-.54.75-1.09,1.11-1.67a21.86,21.86,0,0,0-6.58,1.3,29.56,29.56,0,0,0,1.94-3.52,15,15,0,0,1,7.27-3.37c.19-.54.37-1.08.54-1.64a15.66,15.66,0,0,0-6.63,2.17,36.9,36.9,0,0,0,1.2-4h0c1.31-2,4-3,6.56-3.17.09-.52.17-1.05.22-1.59a11.93,11.93,0,0,0-6.2,1.92c.19-1.21.34-2.43.43-3.7,0,0,0,0,0,0,1-1.85,3.36-3.28,6.05-3.78,0-.54,0-1.08-.07-1.6a11.86,11.86,0,0,0-5.89,2.7c0-.11,0-.23,0-.34,0-.84,0-1.66-.06-2.48a.47.47,0,0,0,.06-.09c.79-1.53,2.88-3.14,5.42-4-.08-.53-.17-1.06-.29-1.58a13.54,13.54,0,0,0-5.41,3.27,41.94,41.94,0,0,0-.75-4.35.71.71,0,0,0,.12-.13c1-1.52,2.61-3.34,4.6-3.91-.16-.5-.43-1.1-.63-1.58a9.29,9.29,0,0,0-4.6,3.67,52.23,52.23,0,0,0-1.82-4.93,9.46,9.46,0,0,1,3.65-3.78c-.29-.45-.73-1-1.05-1.42a10.31,10.31,0,0,0-3.52,3.36,24,24,0,0,0-3.09-4.58,4.52,4.52,0,0,1,1.85-3.12,14.21,14.21,0,0,0-1.47-.81,5.5,5.5,0,0,0-1.78,2.43,16,16,0,0,0-5.6-3.85h-5.93a14.19,14.19,0,0,1,6.92,2.64,17.21,17.21,0,0,0-6.25-.26,15.45,15.45,0,0,1,1.89,1.41,13.67,13.67,0,0,1,7.82,2h0a23.72,23.72,0,0,1,2.37,3.26,16.78,16.78,0,0,0-6.66-1.39h0c.37.52.72,1.05,1,1.61a12.3,12.3,0,0,1,7.16,2.63,34.3,34.3,0,0,1,1.4,3.49,13.78,13.78,0,0,0-6.58-2.2c.23.53.44,1.08.64,1.64a10.89,10.89,0,0,1,6.77,3.42h0a36.27,36.27,0,0,1,.8,4.25,13.94,13.94,0,0,0-6.26-3.06c.12.55.23,1.13.32,1.7,2.84.75,5.27,2.48,6.21,4.14h0c.05.85.07,1.68.07,2.54,0,.18,0,.34,0,.52a11.53,11.53,0,0,0-5.79-2.82c0,.54.06,1.08.06,1.63a8.48,8.48,0,0,1,5.63,3.7h0a36.94,36.94,0,0,1-.58,4.43,10.17,10.17,0,0,0-5.26-3.26c-.05.54-.11,1.07-.19,1.59a7.26,7.26,0,0,1,4.93,4,32.24,32.24,0,0,1-1.38,4.3,12.1,12.1,0,0,0-4.47-3.81c-.15.53-.3,1.06-.47,1.56a10.69,10.69,0,0,1,4.16,4.07,27.6,27.6,0,0,1-2.8,4.72,8.21,8.21,0,0,0-3.35-3.91c-.24.48-.5,1-.77,1.41a6,6,0,0,1,2.82,4.11,19.52,19.52,0,0,1-3,2.77,6.71,6.71,0,0,0-2.51-3.05c-.36.42-.73.81-1.11,1.18a5.26,5.26,0,0,1,2.21,2.79v0a13.78,13.78,0,0,1-5.78,1.91Zm13.12-7.11a26.89,26.89,0,0,0,2.38-4,.28.28,0,0,0,0-.11c.23-.46.45-.93.65-1.43h0a.82.82,0,0,0,.11-.23h0a35.68,35.68,0,0,0,1.48-4.34l0-.08c.16-.58.31-1.16.43-1.77a1.59,1.59,0,0,0,.06-.3h0a36,36,0,0,0,.73-4.86c0-.1,0-.2,0-.31,0-.34.06-.68.07-1l0-.49c0-.6,0-1.2,0-1.81s0-1.35-.05-2-.09-1.34-.15-2h0a39,39,0,0,0-.72-4.68c-.19-.85-.4-1.69-.64-2.51h0a34.65,34.65,0,0,0-1.13-3.35c-.06-.14-.12-.28-.19-.42s-.21-.51-.32-.76c-.31-.69-.63-1.35-1-2h0a27.29,27.29,0,0,0-2.2-3.5c-.26-.37-.54-.72-.82-1.07s-.54-.65-.83-.95c.29.28.57.58.84.89a13.07,13.07,0,0,1,.9,1l.05.07a25.71,25.71,0,0,1,2.53,3.86c.24.44.46.87.67,1.32.15.3.28.61.43.93s.16.39.24.58a30.25,30.25,0,0,1,1.34,3.93h0a4.41,4.41,0,0,1,.16.55c.08.28.15.58.22.88,0,.11.05.22.07.33a37.43,37.43,0,0,1,.82,5.22l0,.36h0c0,.32.05.63.06.95a.09.09,0,0,1,0,.07v0c.05.73.07,1.48.07,2.24,0,.54,0,1.07,0,1.6h0a7.69,7.69,0,0,1,0,.83h0c0,.32,0,.62-.06.94h0c0,.08,0,.15,0,.22a35.62,35.62,0,0,1-.62,4.25s0,0,0,0c-.1.52-.21,1-.35,1.54h0a10,10,0,0,1-.28,1.11h0l-.06.23a34,34,0,0,1-1.32,3.8c-.13.35-.29.69-.44,1s-.33.71-.51,1.05h0a2.58,2.58,0,0,1-.18.32,24,24,0,0,1-2.29,3.7h0Z" transform="translate(-233.46 -23.69)"/><path class="cls-27" d="M290.15,116c0,.07.05.14.07.2a38.89,38.89,0,0,0,3.54,6.66c.51.81,1.05,1.59,1.63,2.36,2.68,3.62.17,4.9,1.54,7a2.7,2.7,0,0,0,2.09.39c-1.14-1.69-.41-3.32-1-5.08a29,29,0,0,0-2.65-5.21c-.14-.24-.33-.54-.53-.89-1.11-1.94-2.87-5.32-2.69-7.41.09-1.14.76-1.89,2.39-1.85a15.89,15.89,0,0,1,2.35-1.22C291.43,108.92,288.63,112,290.15,116Z" transform="translate(-233.46 -23.69)"/><path class="cls-26" d="M287.06,136.72l-6.48,18.87a1.17,1.17,0,0,0,.72,1.46l18.87,6.48a1.16,1.16,0,0,0,1.46-.71l6.48-18.88a3.22,3.22,0,0,0-.12-2.12l-5.83-12.34a1.12,1.12,0,0,0-1.52-.52l-12.18,6.15A3.33,3.33,0,0,0,287.06,136.72Zm1.41.48a1.89,1.89,0,0,1,.67-.76l11.83-6,5.68,12a1.92,1.92,0,0,1,.05,1L300.34,162l-18.24-6.26Z" transform="translate(-233.46 -23.69)"/><path class="cls-13" d="M288.47,137.2l-6.37,18.55L300.34,162l6.36-18.55a1.92,1.92,0,0,0-.05-1l-5.68-12-11.83,6A1.89,1.89,0,0,0,288.47,137.2ZM298.68,134a1,1,0,0,1,1.3-.64,1,1,0,0,1,.64,1.3,1,1,0,0,1-1.94-.66Z" transform="translate(-233.46 -23.69)"/><path class="cls-26" d="M297.59,133.61a2.17,2.17,0,1,0,2.76-1.35A2.18,2.18,0,0,0,297.59,133.61Zm1.09.37a1,1,0,0,1,1.3-.64,1,1,0,0,1,.64,1.3,1,1,0,0,1-1.94-.66Z" transform="translate(-233.46 -23.69)"/><path class="cls-4" d="M290.57,147.35a4.36,4.36,0,1,0,5.53-2.71A4.34,4.34,0,0,0,290.57,147.35Z" transform="translate(-233.46 -23.69)"/><path class="cls-4" d="M296.47,143.55a.83.83,0,0,0,1-.51l.55-1.61a.83.83,0,0,0-.51-1.05.84.84,0,0,0-1.05.52l-.55,1.6A.83.83,0,0,0,296.47,143.55Z" transform="translate(-233.46 -23.69)"/><path class="cls-4" d="M291.86,157.05a.81.81,0,0,0,1-.51l.55-1.61a.83.83,0,0,0-.51-1.05.84.84,0,0,0-1.05.52l-.55,1.6A.82.82,0,0,0,291.86,157.05Z" transform="translate(-233.46 -23.69)"/><path class="cls-4" d="M300.61,148.29a.74.74,0,0,0,.42,0l1.67-.32a.83.83,0,1,0-.32-1.62l-1.67.33a.83.83,0,0,0-.65,1A.86.86,0,0,0,300.61,148.29Z" transform="translate(-233.46 -23.69)"/><path class="cls-4" d="M286.61,151a.84.84,0,0,0,.42,0l1.67-.33a.83.83,0,1,0-.32-1.62l-1.66.33a.82.82,0,0,0-.11,1.59Z" transform="translate(-233.46 -23.69)"/><path class="cls-4" d="M299.69,155.51a.83.83,0,0,0,.81-.16.82.82,0,0,0,.08-1.16l-1.12-1.28a.83.83,0,1,0-1.24,1.09l1.11,1.27A.76.76,0,0,0,299.69,155.51Z" transform="translate(-233.46 -23.69)"/><path class="cls-4" d="M290.31,144.76a.81.81,0,0,0,.81-.15.84.84,0,0,0,.08-1.17l-1.12-1.28a.83.83,0,0,0-1.17-.08.82.82,0,0,0-.07,1.17l1.11,1.28A.77.77,0,0,0,290.31,144.76Z" transform="translate(-233.46 -23.69)"/><path class="cls-28" d="M282.1,155.76l10.34,3.55,7.66-3.76a.68.68,0,0,1-.42,0,.74.74,0,0,1-.35-.23L298.21,154a.83.83,0,0,1,.09-1.17.22.22,0,0,1,.13-.09l-5.09,2.49-.44,1.3a.82.82,0,1,1-1.56-.53l.54-1.6a.82.82,0,0,1,1.49-.16l2.85-1.4a4.36,4.36,0,0,1-5.66-5.48,4.26,4.26,0,0,1,2-2.41l.25-.12a4.19,4.19,0,0,1,2.37-.39h0l1.82-.9a.8.8,0,0,1-.57,0,.83.83,0,0,1-.51-1l.55-1.62a.81.81,0,0,1,.25-.35l-5.67,2.78.11.12a.81.81,0,0,1-.08,1.16.83.83,0,0,1-.16.12h0a.78.78,0,0,1-.63.05,1,1,0,0,1-.36-.24l-1.11-1.28a.83.83,0,0,1,.08-1.17A.24.24,0,0,1,289,142l-2.63,1.28-1.93,5.63Zm4.61-6.3,1.66-.33a.83.83,0,1,1,.32,1.62l-1.66.33a.88.88,0,0,1-.43,0,.85.85,0,0,1-.54-.63A.82.82,0,0,1,286.71,149.46Z" transform="translate(-233.46 -23.69)"/><path class="cls-28" d="M298.88,147.58h0a4.39,4.39,0,0,1,0,2.33l3.72-1.9-1.58.31a.88.88,0,0,1-.43,0,.83.83,0,0,1-.13-1.5Z" transform="translate(-233.46 -23.69)"/><path class="cls-27" d="M301.51,134.26c3.41-1.91,6.51-4.36,5.93-8.64-.43-3.25-3.26-6-4.69-8.78s-2.75-7,.74-9,7.75,0,10,2h3.24c-3.29-3.88-11-5.89-15.26-2.77-3.74,2.73-2.3,7.07-.19,10.45,1.47,2.34,4.62,5.92,4.47,8.87-.19,3.67-3.21,5.54-6.26,7.1C298.47,134.07,298.75,135.79,301.51,134.26Z" transform="translate(-233.46 -23.69)"/><path class="cls-4" d="M315.17,203.68a3.5,3.5,0,0,1,2.56,1.14l-.88,1a2.32,2.32,0,0,0-1.67-.74c-1.47,0-2.53,1.24-2.53,3.26s1,3.29,2.48,3.29a2.45,2.45,0,0,0,1.9-.89l.88,1A3.6,3.6,0,0,1,315.1,213c-2.28,0-4.09-1.65-4.09-4.64S312.86,203.68,315.17,203.68Z" transform="translate(-233.46 -23.69)"/><path class="cls-4" d="M323.56,210.41h-3l-.7,2.44H318.2l2.95-9H323l2.93,9h-1.69Zm-.36-1.25-.32-1.11c-.27-1-.55-2-.81-3H322c-.24,1-.51,2-.79,3l-.32,1.11Z" transform="translate(-233.46 -23.69)"/><path class="cls-4" d="M331.93,212.85,330,209.32h-1.37v3.53H327v-9h3c1.87,0,3.31.66,3.31,2.67a2.51,2.51,0,0,1-1.8,2.58l2.15,3.76Zm-3.31-4.8h1.27c1.24,0,1.9-.52,1.9-1.54s-.66-1.39-1.9-1.39h-1.27Z" transform="translate(-233.46 -23.69)"/><path class="cls-4" d="M338.36,210.6a3.56,3.56,0,0,0,2.35,1c1,0,1.57-.45,1.57-1.16s-.58-1-1.4-1.32l-1.23-.53a2.59,2.59,0,0,1-1.81-2.4,2.73,2.73,0,0,1,3-2.53,4,4,0,0,1,2.78,1.14l-.82,1a2.94,2.94,0,0,0-2-.77c-.85,0-1.4.4-1.4,1.06s.69,1,1.43,1.26l1.21.51a2.52,2.52,0,0,1,1.82,2.44c0,1.46-1.21,2.67-3.24,2.67a4.61,4.61,0,0,1-3.23-1.32Z" transform="translate(-233.46 -23.69)"/><path class="cls-4" d="M345.52,203.84h1.6v3.62h3.63v-3.62h1.6v9h-1.6v-4h-3.63v4h-1.6Z" transform="translate(-233.46 -23.69)"/><path class="cls-4" d="M354.13,208.3c0-2.9,1.62-4.62,4-4.62s4,1.72,4,4.62-1.62,4.71-4,4.71S354.13,211.22,354.13,208.3Zm6.3,0c0-2-.92-3.23-2.33-3.23s-2.34,1.22-2.34,3.23.93,3.32,2.34,3.32S360.43,210.33,360.43,208.3Z" transform="translate(-233.46 -23.69)"/><path class="cls-4" d="M363.85,203.84h3c2,0,3.41.69,3.41,2.78s-1.49,2.92-3.41,2.92h-1.44v3.31h-1.59Zm2.89,4.42c1.35,0,2-.54,2-1.64s-.67-1.5-2-1.5h-1.3v3.14Z" transform="translate(-233.46 -23.69)"/></g></g></svg>